G04 #@! TF.GenerationSoftware,KiCad,Pcbnew,(5.1.4)-1*
G04 #@! TF.CreationDate,2021-04-13T15:40:11+02:00*
G04 #@! TF.ProjectId,cSLIM-shield,63534c49-4d2d-4736-9869-656c642e6b69,rev?*
G04 #@! TF.SameCoordinates,Original*
G04 #@! TF.FileFunction,Paste,Bot*
G04 #@! TF.FilePolarity,Positive*
%FSLAX46Y46*%
G04 Gerber Fmt 4.6, Leading zero omitted, Abs format (unit mm)*
G04 Created by KiCad (PCBNEW (5.1.4)-1) date 2021-04-13 15:40:11*
%MOMM*%
%LPD*%
G04 APERTURE LIST*
%ADD10C,0.250000*%
%ADD11C,0.975000*%
%ADD12C,0.875000*%
%ADD13R,1.525000X0.650000*%
%ADD14R,1.425000X0.450000*%
%ADD15R,1.475000X0.450000*%
%ADD16R,0.450000X1.475000*%
%ADD17R,1.050000X0.600000*%
%ADD18R,0.800000X1.800000*%
%ADD19R,0.850000X1.100000*%
%ADD20R,0.750000X1.100000*%
%ADD21R,1.170000X1.800000*%
%ADD22R,1.900000X1.350000*%
%ADD23R,1.200000X1.000000*%
%ADD24R,1.550000X1.350000*%
%ADD25R,0.470000X0.300000*%
%ADD26R,1.060000X0.650000*%
%ADD27R,0.800000X0.500000*%
%ADD28R,0.850000X0.350000*%
G04 APERTURE END LIST*
D10*
G36*
X164938142Y-105473174D02*
G01*
X164961803Y-105476684D01*
X164985007Y-105482496D01*
X165007529Y-105490554D01*
X165029153Y-105500782D01*
X165049670Y-105513079D01*
X165068883Y-105527329D01*
X165086607Y-105543393D01*
X165102671Y-105561117D01*
X165116921Y-105580330D01*
X165129218Y-105600847D01*
X165139446Y-105622471D01*
X165147504Y-105644993D01*
X165153316Y-105668197D01*
X165156826Y-105691858D01*
X165158000Y-105715750D01*
X165158000Y-106628250D01*
X165156826Y-106652142D01*
X165153316Y-106675803D01*
X165147504Y-106699007D01*
X165139446Y-106721529D01*
X165129218Y-106743153D01*
X165116921Y-106763670D01*
X165102671Y-106782883D01*
X165086607Y-106800607D01*
X165068883Y-106816671D01*
X165049670Y-106830921D01*
X165029153Y-106843218D01*
X165007529Y-106853446D01*
X164985007Y-106861504D01*
X164961803Y-106867316D01*
X164938142Y-106870826D01*
X164914250Y-106872000D01*
X164426750Y-106872000D01*
X164402858Y-106870826D01*
X164379197Y-106867316D01*
X164355993Y-106861504D01*
X164333471Y-106853446D01*
X164311847Y-106843218D01*
X164291330Y-106830921D01*
X164272117Y-106816671D01*
X164254393Y-106800607D01*
X164238329Y-106782883D01*
X164224079Y-106763670D01*
X164211782Y-106743153D01*
X164201554Y-106721529D01*
X164193496Y-106699007D01*
X164187684Y-106675803D01*
X164184174Y-106652142D01*
X164183000Y-106628250D01*
X164183000Y-105715750D01*
X164184174Y-105691858D01*
X164187684Y-105668197D01*
X164193496Y-105644993D01*
X164201554Y-105622471D01*
X164211782Y-105600847D01*
X164224079Y-105580330D01*
X164238329Y-105561117D01*
X164254393Y-105543393D01*
X164272117Y-105527329D01*
X164291330Y-105513079D01*
X164311847Y-105500782D01*
X164333471Y-105490554D01*
X164355993Y-105482496D01*
X164379197Y-105476684D01*
X164402858Y-105473174D01*
X164426750Y-105472000D01*
X164914250Y-105472000D01*
X164938142Y-105473174D01*
X164938142Y-105473174D01*
G37*
D11*
X164670500Y-106172000D03*
D10*
G36*
X166813142Y-105473174D02*
G01*
X166836803Y-105476684D01*
X166860007Y-105482496D01*
X166882529Y-105490554D01*
X166904153Y-105500782D01*
X166924670Y-105513079D01*
X166943883Y-105527329D01*
X166961607Y-105543393D01*
X166977671Y-105561117D01*
X166991921Y-105580330D01*
X167004218Y-105600847D01*
X167014446Y-105622471D01*
X167022504Y-105644993D01*
X167028316Y-105668197D01*
X167031826Y-105691858D01*
X167033000Y-105715750D01*
X167033000Y-106628250D01*
X167031826Y-106652142D01*
X167028316Y-106675803D01*
X167022504Y-106699007D01*
X167014446Y-106721529D01*
X167004218Y-106743153D01*
X166991921Y-106763670D01*
X166977671Y-106782883D01*
X166961607Y-106800607D01*
X166943883Y-106816671D01*
X166924670Y-106830921D01*
X166904153Y-106843218D01*
X166882529Y-106853446D01*
X166860007Y-106861504D01*
X166836803Y-106867316D01*
X166813142Y-106870826D01*
X166789250Y-106872000D01*
X166301750Y-106872000D01*
X166277858Y-106870826D01*
X166254197Y-106867316D01*
X166230993Y-106861504D01*
X166208471Y-106853446D01*
X166186847Y-106843218D01*
X166166330Y-106830921D01*
X166147117Y-106816671D01*
X166129393Y-106800607D01*
X166113329Y-106782883D01*
X166099079Y-106763670D01*
X166086782Y-106743153D01*
X166076554Y-106721529D01*
X166068496Y-106699007D01*
X166062684Y-106675803D01*
X166059174Y-106652142D01*
X166058000Y-106628250D01*
X166058000Y-105715750D01*
X166059174Y-105691858D01*
X166062684Y-105668197D01*
X166068496Y-105644993D01*
X166076554Y-105622471D01*
X166086782Y-105600847D01*
X166099079Y-105580330D01*
X166113329Y-105561117D01*
X166129393Y-105543393D01*
X166147117Y-105527329D01*
X166166330Y-105513079D01*
X166186847Y-105500782D01*
X166208471Y-105490554D01*
X166230993Y-105482496D01*
X166254197Y-105476684D01*
X166277858Y-105473174D01*
X166301750Y-105472000D01*
X166789250Y-105472000D01*
X166813142Y-105473174D01*
X166813142Y-105473174D01*
G37*
D11*
X166545500Y-106172000D03*
D10*
G36*
X191248691Y-99602053D02*
G01*
X191269926Y-99605203D01*
X191290750Y-99610419D01*
X191310962Y-99617651D01*
X191330368Y-99626830D01*
X191348781Y-99637866D01*
X191366024Y-99650654D01*
X191381930Y-99665070D01*
X191396346Y-99680976D01*
X191409134Y-99698219D01*
X191420170Y-99716632D01*
X191429349Y-99736038D01*
X191436581Y-99756250D01*
X191441797Y-99777074D01*
X191444947Y-99798309D01*
X191446000Y-99819750D01*
X191446000Y-100332250D01*
X191444947Y-100353691D01*
X191441797Y-100374926D01*
X191436581Y-100395750D01*
X191429349Y-100415962D01*
X191420170Y-100435368D01*
X191409134Y-100453781D01*
X191396346Y-100471024D01*
X191381930Y-100486930D01*
X191366024Y-100501346D01*
X191348781Y-100514134D01*
X191330368Y-100525170D01*
X191310962Y-100534349D01*
X191290750Y-100541581D01*
X191269926Y-100546797D01*
X191248691Y-100549947D01*
X191227250Y-100551000D01*
X190789750Y-100551000D01*
X190768309Y-100549947D01*
X190747074Y-100546797D01*
X190726250Y-100541581D01*
X190706038Y-100534349D01*
X190686632Y-100525170D01*
X190668219Y-100514134D01*
X190650976Y-100501346D01*
X190635070Y-100486930D01*
X190620654Y-100471024D01*
X190607866Y-100453781D01*
X190596830Y-100435368D01*
X190587651Y-100415962D01*
X190580419Y-100395750D01*
X190575203Y-100374926D01*
X190572053Y-100353691D01*
X190571000Y-100332250D01*
X190571000Y-99819750D01*
X190572053Y-99798309D01*
X190575203Y-99777074D01*
X190580419Y-99756250D01*
X190587651Y-99736038D01*
X190596830Y-99716632D01*
X190607866Y-99698219D01*
X190620654Y-99680976D01*
X190635070Y-99665070D01*
X190650976Y-99650654D01*
X190668219Y-99637866D01*
X190686632Y-99626830D01*
X190706038Y-99617651D01*
X190726250Y-99610419D01*
X190747074Y-99605203D01*
X190768309Y-99602053D01*
X190789750Y-99601000D01*
X191227250Y-99601000D01*
X191248691Y-99602053D01*
X191248691Y-99602053D01*
G37*
D12*
X191008500Y-100076000D03*
D10*
G36*
X192823691Y-99602053D02*
G01*
X192844926Y-99605203D01*
X192865750Y-99610419D01*
X192885962Y-99617651D01*
X192905368Y-99626830D01*
X192923781Y-99637866D01*
X192941024Y-99650654D01*
X192956930Y-99665070D01*
X192971346Y-99680976D01*
X192984134Y-99698219D01*
X192995170Y-99716632D01*
X193004349Y-99736038D01*
X193011581Y-99756250D01*
X193016797Y-99777074D01*
X193019947Y-99798309D01*
X193021000Y-99819750D01*
X193021000Y-100332250D01*
X193019947Y-100353691D01*
X193016797Y-100374926D01*
X193011581Y-100395750D01*
X193004349Y-100415962D01*
X192995170Y-100435368D01*
X192984134Y-100453781D01*
X192971346Y-100471024D01*
X192956930Y-100486930D01*
X192941024Y-100501346D01*
X192923781Y-100514134D01*
X192905368Y-100525170D01*
X192885962Y-100534349D01*
X192865750Y-100541581D01*
X192844926Y-100546797D01*
X192823691Y-100549947D01*
X192802250Y-100551000D01*
X192364750Y-100551000D01*
X192343309Y-100549947D01*
X192322074Y-100546797D01*
X192301250Y-100541581D01*
X192281038Y-100534349D01*
X192261632Y-100525170D01*
X192243219Y-100514134D01*
X192225976Y-100501346D01*
X192210070Y-100486930D01*
X192195654Y-100471024D01*
X192182866Y-100453781D01*
X192171830Y-100435368D01*
X192162651Y-100415962D01*
X192155419Y-100395750D01*
X192150203Y-100374926D01*
X192147053Y-100353691D01*
X192146000Y-100332250D01*
X192146000Y-99819750D01*
X192147053Y-99798309D01*
X192150203Y-99777074D01*
X192155419Y-99756250D01*
X192162651Y-99736038D01*
X192171830Y-99716632D01*
X192182866Y-99698219D01*
X192195654Y-99680976D01*
X192210070Y-99665070D01*
X192225976Y-99650654D01*
X192243219Y-99637866D01*
X192261632Y-99626830D01*
X192281038Y-99617651D01*
X192301250Y-99610419D01*
X192322074Y-99605203D01*
X192343309Y-99602053D01*
X192364750Y-99601000D01*
X192802250Y-99601000D01*
X192823691Y-99602053D01*
X192823691Y-99602053D01*
G37*
D12*
X192583500Y-100076000D03*
D10*
G36*
X196048691Y-78647053D02*
G01*
X196069926Y-78650203D01*
X196090750Y-78655419D01*
X196110962Y-78662651D01*
X196130368Y-78671830D01*
X196148781Y-78682866D01*
X196166024Y-78695654D01*
X196181930Y-78710070D01*
X196196346Y-78725976D01*
X196209134Y-78743219D01*
X196220170Y-78761632D01*
X196229349Y-78781038D01*
X196236581Y-78801250D01*
X196241797Y-78822074D01*
X196244947Y-78843309D01*
X196246000Y-78864750D01*
X196246000Y-79377250D01*
X196244947Y-79398691D01*
X196241797Y-79419926D01*
X196236581Y-79440750D01*
X196229349Y-79460962D01*
X196220170Y-79480368D01*
X196209134Y-79498781D01*
X196196346Y-79516024D01*
X196181930Y-79531930D01*
X196166024Y-79546346D01*
X196148781Y-79559134D01*
X196130368Y-79570170D01*
X196110962Y-79579349D01*
X196090750Y-79586581D01*
X196069926Y-79591797D01*
X196048691Y-79594947D01*
X196027250Y-79596000D01*
X195589750Y-79596000D01*
X195568309Y-79594947D01*
X195547074Y-79591797D01*
X195526250Y-79586581D01*
X195506038Y-79579349D01*
X195486632Y-79570170D01*
X195468219Y-79559134D01*
X195450976Y-79546346D01*
X195435070Y-79531930D01*
X195420654Y-79516024D01*
X195407866Y-79498781D01*
X195396830Y-79480368D01*
X195387651Y-79460962D01*
X195380419Y-79440750D01*
X195375203Y-79419926D01*
X195372053Y-79398691D01*
X195371000Y-79377250D01*
X195371000Y-78864750D01*
X195372053Y-78843309D01*
X195375203Y-78822074D01*
X195380419Y-78801250D01*
X195387651Y-78781038D01*
X195396830Y-78761632D01*
X195407866Y-78743219D01*
X195420654Y-78725976D01*
X195435070Y-78710070D01*
X195450976Y-78695654D01*
X195468219Y-78682866D01*
X195486632Y-78671830D01*
X195506038Y-78662651D01*
X195526250Y-78655419D01*
X195547074Y-78650203D01*
X195568309Y-78647053D01*
X195589750Y-78646000D01*
X196027250Y-78646000D01*
X196048691Y-78647053D01*
X196048691Y-78647053D01*
G37*
D12*
X195808500Y-79121000D03*
D10*
G36*
X197623691Y-78647053D02*
G01*
X197644926Y-78650203D01*
X197665750Y-78655419D01*
X197685962Y-78662651D01*
X197705368Y-78671830D01*
X197723781Y-78682866D01*
X197741024Y-78695654D01*
X197756930Y-78710070D01*
X197771346Y-78725976D01*
X197784134Y-78743219D01*
X197795170Y-78761632D01*
X197804349Y-78781038D01*
X197811581Y-78801250D01*
X197816797Y-78822074D01*
X197819947Y-78843309D01*
X197821000Y-78864750D01*
X197821000Y-79377250D01*
X197819947Y-79398691D01*
X197816797Y-79419926D01*
X197811581Y-79440750D01*
X197804349Y-79460962D01*
X197795170Y-79480368D01*
X197784134Y-79498781D01*
X197771346Y-79516024D01*
X197756930Y-79531930D01*
X197741024Y-79546346D01*
X197723781Y-79559134D01*
X197705368Y-79570170D01*
X197685962Y-79579349D01*
X197665750Y-79586581D01*
X197644926Y-79591797D01*
X197623691Y-79594947D01*
X197602250Y-79596000D01*
X197164750Y-79596000D01*
X197143309Y-79594947D01*
X197122074Y-79591797D01*
X197101250Y-79586581D01*
X197081038Y-79579349D01*
X197061632Y-79570170D01*
X197043219Y-79559134D01*
X197025976Y-79546346D01*
X197010070Y-79531930D01*
X196995654Y-79516024D01*
X196982866Y-79498781D01*
X196971830Y-79480368D01*
X196962651Y-79460962D01*
X196955419Y-79440750D01*
X196950203Y-79419926D01*
X196947053Y-79398691D01*
X196946000Y-79377250D01*
X196946000Y-78864750D01*
X196947053Y-78843309D01*
X196950203Y-78822074D01*
X196955419Y-78801250D01*
X196962651Y-78781038D01*
X196971830Y-78761632D01*
X196982866Y-78743219D01*
X196995654Y-78725976D01*
X197010070Y-78710070D01*
X197025976Y-78695654D01*
X197043219Y-78682866D01*
X197061632Y-78671830D01*
X197081038Y-78662651D01*
X197101250Y-78655419D01*
X197122074Y-78650203D01*
X197143309Y-78647053D01*
X197164750Y-78646000D01*
X197602250Y-78646000D01*
X197623691Y-78647053D01*
X197623691Y-78647053D01*
G37*
D12*
X197383500Y-79121000D03*
D10*
G36*
X196048691Y-82203053D02*
G01*
X196069926Y-82206203D01*
X196090750Y-82211419D01*
X196110962Y-82218651D01*
X196130368Y-82227830D01*
X196148781Y-82238866D01*
X196166024Y-82251654D01*
X196181930Y-82266070D01*
X196196346Y-82281976D01*
X196209134Y-82299219D01*
X196220170Y-82317632D01*
X196229349Y-82337038D01*
X196236581Y-82357250D01*
X196241797Y-82378074D01*
X196244947Y-82399309D01*
X196246000Y-82420750D01*
X196246000Y-82933250D01*
X196244947Y-82954691D01*
X196241797Y-82975926D01*
X196236581Y-82996750D01*
X196229349Y-83016962D01*
X196220170Y-83036368D01*
X196209134Y-83054781D01*
X196196346Y-83072024D01*
X196181930Y-83087930D01*
X196166024Y-83102346D01*
X196148781Y-83115134D01*
X196130368Y-83126170D01*
X196110962Y-83135349D01*
X196090750Y-83142581D01*
X196069926Y-83147797D01*
X196048691Y-83150947D01*
X196027250Y-83152000D01*
X195589750Y-83152000D01*
X195568309Y-83150947D01*
X195547074Y-83147797D01*
X195526250Y-83142581D01*
X195506038Y-83135349D01*
X195486632Y-83126170D01*
X195468219Y-83115134D01*
X195450976Y-83102346D01*
X195435070Y-83087930D01*
X195420654Y-83072024D01*
X195407866Y-83054781D01*
X195396830Y-83036368D01*
X195387651Y-83016962D01*
X195380419Y-82996750D01*
X195375203Y-82975926D01*
X195372053Y-82954691D01*
X195371000Y-82933250D01*
X195371000Y-82420750D01*
X195372053Y-82399309D01*
X195375203Y-82378074D01*
X195380419Y-82357250D01*
X195387651Y-82337038D01*
X195396830Y-82317632D01*
X195407866Y-82299219D01*
X195420654Y-82281976D01*
X195435070Y-82266070D01*
X195450976Y-82251654D01*
X195468219Y-82238866D01*
X195486632Y-82227830D01*
X195506038Y-82218651D01*
X195526250Y-82211419D01*
X195547074Y-82206203D01*
X195568309Y-82203053D01*
X195589750Y-82202000D01*
X196027250Y-82202000D01*
X196048691Y-82203053D01*
X196048691Y-82203053D01*
G37*
D12*
X195808500Y-82677000D03*
D10*
G36*
X197623691Y-82203053D02*
G01*
X197644926Y-82206203D01*
X197665750Y-82211419D01*
X197685962Y-82218651D01*
X197705368Y-82227830D01*
X197723781Y-82238866D01*
X197741024Y-82251654D01*
X197756930Y-82266070D01*
X197771346Y-82281976D01*
X197784134Y-82299219D01*
X197795170Y-82317632D01*
X197804349Y-82337038D01*
X197811581Y-82357250D01*
X197816797Y-82378074D01*
X197819947Y-82399309D01*
X197821000Y-82420750D01*
X197821000Y-82933250D01*
X197819947Y-82954691D01*
X197816797Y-82975926D01*
X197811581Y-82996750D01*
X197804349Y-83016962D01*
X197795170Y-83036368D01*
X197784134Y-83054781D01*
X197771346Y-83072024D01*
X197756930Y-83087930D01*
X197741024Y-83102346D01*
X197723781Y-83115134D01*
X197705368Y-83126170D01*
X197685962Y-83135349D01*
X197665750Y-83142581D01*
X197644926Y-83147797D01*
X197623691Y-83150947D01*
X197602250Y-83152000D01*
X197164750Y-83152000D01*
X197143309Y-83150947D01*
X197122074Y-83147797D01*
X197101250Y-83142581D01*
X197081038Y-83135349D01*
X197061632Y-83126170D01*
X197043219Y-83115134D01*
X197025976Y-83102346D01*
X197010070Y-83087930D01*
X196995654Y-83072024D01*
X196982866Y-83054781D01*
X196971830Y-83036368D01*
X196962651Y-83016962D01*
X196955419Y-82996750D01*
X196950203Y-82975926D01*
X196947053Y-82954691D01*
X196946000Y-82933250D01*
X196946000Y-82420750D01*
X196947053Y-82399309D01*
X196950203Y-82378074D01*
X196955419Y-82357250D01*
X196962651Y-82337038D01*
X196971830Y-82317632D01*
X196982866Y-82299219D01*
X196995654Y-82281976D01*
X197010070Y-82266070D01*
X197025976Y-82251654D01*
X197043219Y-82238866D01*
X197061632Y-82227830D01*
X197081038Y-82218651D01*
X197101250Y-82211419D01*
X197122074Y-82206203D01*
X197143309Y-82203053D01*
X197164750Y-82202000D01*
X197602250Y-82202000D01*
X197623691Y-82203053D01*
X197623691Y-82203053D01*
G37*
D12*
X197383500Y-82677000D03*
D10*
G36*
X193571691Y-81478553D02*
G01*
X193592926Y-81481703D01*
X193613750Y-81486919D01*
X193633962Y-81494151D01*
X193653368Y-81503330D01*
X193671781Y-81514366D01*
X193689024Y-81527154D01*
X193704930Y-81541570D01*
X193719346Y-81557476D01*
X193732134Y-81574719D01*
X193743170Y-81593132D01*
X193752349Y-81612538D01*
X193759581Y-81632750D01*
X193764797Y-81653574D01*
X193767947Y-81674809D01*
X193769000Y-81696250D01*
X193769000Y-82133750D01*
X193767947Y-82155191D01*
X193764797Y-82176426D01*
X193759581Y-82197250D01*
X193752349Y-82217462D01*
X193743170Y-82236868D01*
X193732134Y-82255281D01*
X193719346Y-82272524D01*
X193704930Y-82288430D01*
X193689024Y-82302846D01*
X193671781Y-82315634D01*
X193653368Y-82326670D01*
X193633962Y-82335849D01*
X193613750Y-82343081D01*
X193592926Y-82348297D01*
X193571691Y-82351447D01*
X193550250Y-82352500D01*
X193037750Y-82352500D01*
X193016309Y-82351447D01*
X192995074Y-82348297D01*
X192974250Y-82343081D01*
X192954038Y-82335849D01*
X192934632Y-82326670D01*
X192916219Y-82315634D01*
X192898976Y-82302846D01*
X192883070Y-82288430D01*
X192868654Y-82272524D01*
X192855866Y-82255281D01*
X192844830Y-82236868D01*
X192835651Y-82217462D01*
X192828419Y-82197250D01*
X192823203Y-82176426D01*
X192820053Y-82155191D01*
X192819000Y-82133750D01*
X192819000Y-81696250D01*
X192820053Y-81674809D01*
X192823203Y-81653574D01*
X192828419Y-81632750D01*
X192835651Y-81612538D01*
X192844830Y-81593132D01*
X192855866Y-81574719D01*
X192868654Y-81557476D01*
X192883070Y-81541570D01*
X192898976Y-81527154D01*
X192916219Y-81514366D01*
X192934632Y-81503330D01*
X192954038Y-81494151D01*
X192974250Y-81486919D01*
X192995074Y-81481703D01*
X193016309Y-81478553D01*
X193037750Y-81477500D01*
X193550250Y-81477500D01*
X193571691Y-81478553D01*
X193571691Y-81478553D01*
G37*
D12*
X193294000Y-81915000D03*
D10*
G36*
X193571691Y-83053553D02*
G01*
X193592926Y-83056703D01*
X193613750Y-83061919D01*
X193633962Y-83069151D01*
X193653368Y-83078330D01*
X193671781Y-83089366D01*
X193689024Y-83102154D01*
X193704930Y-83116570D01*
X193719346Y-83132476D01*
X193732134Y-83149719D01*
X193743170Y-83168132D01*
X193752349Y-83187538D01*
X193759581Y-83207750D01*
X193764797Y-83228574D01*
X193767947Y-83249809D01*
X193769000Y-83271250D01*
X193769000Y-83708750D01*
X193767947Y-83730191D01*
X193764797Y-83751426D01*
X193759581Y-83772250D01*
X193752349Y-83792462D01*
X193743170Y-83811868D01*
X193732134Y-83830281D01*
X193719346Y-83847524D01*
X193704930Y-83863430D01*
X193689024Y-83877846D01*
X193671781Y-83890634D01*
X193653368Y-83901670D01*
X193633962Y-83910849D01*
X193613750Y-83918081D01*
X193592926Y-83923297D01*
X193571691Y-83926447D01*
X193550250Y-83927500D01*
X193037750Y-83927500D01*
X193016309Y-83926447D01*
X192995074Y-83923297D01*
X192974250Y-83918081D01*
X192954038Y-83910849D01*
X192934632Y-83901670D01*
X192916219Y-83890634D01*
X192898976Y-83877846D01*
X192883070Y-83863430D01*
X192868654Y-83847524D01*
X192855866Y-83830281D01*
X192844830Y-83811868D01*
X192835651Y-83792462D01*
X192828419Y-83772250D01*
X192823203Y-83751426D01*
X192820053Y-83730191D01*
X192819000Y-83708750D01*
X192819000Y-83271250D01*
X192820053Y-83249809D01*
X192823203Y-83228574D01*
X192828419Y-83207750D01*
X192835651Y-83187538D01*
X192844830Y-83168132D01*
X192855866Y-83149719D01*
X192868654Y-83132476D01*
X192883070Y-83116570D01*
X192898976Y-83102154D01*
X192916219Y-83089366D01*
X192934632Y-83078330D01*
X192954038Y-83069151D01*
X192974250Y-83061919D01*
X192995074Y-83056703D01*
X193016309Y-83053553D01*
X193037750Y-83052500D01*
X193550250Y-83052500D01*
X193571691Y-83053553D01*
X193571691Y-83053553D01*
G37*
D12*
X193294000Y-83490000D03*
D10*
G36*
X193571691Y-79700553D02*
G01*
X193592926Y-79703703D01*
X193613750Y-79708919D01*
X193633962Y-79716151D01*
X193653368Y-79725330D01*
X193671781Y-79736366D01*
X193689024Y-79749154D01*
X193704930Y-79763570D01*
X193719346Y-79779476D01*
X193732134Y-79796719D01*
X193743170Y-79815132D01*
X193752349Y-79834538D01*
X193759581Y-79854750D01*
X193764797Y-79875574D01*
X193767947Y-79896809D01*
X193769000Y-79918250D01*
X193769000Y-80355750D01*
X193767947Y-80377191D01*
X193764797Y-80398426D01*
X193759581Y-80419250D01*
X193752349Y-80439462D01*
X193743170Y-80458868D01*
X193732134Y-80477281D01*
X193719346Y-80494524D01*
X193704930Y-80510430D01*
X193689024Y-80524846D01*
X193671781Y-80537634D01*
X193653368Y-80548670D01*
X193633962Y-80557849D01*
X193613750Y-80565081D01*
X193592926Y-80570297D01*
X193571691Y-80573447D01*
X193550250Y-80574500D01*
X193037750Y-80574500D01*
X193016309Y-80573447D01*
X192995074Y-80570297D01*
X192974250Y-80565081D01*
X192954038Y-80557849D01*
X192934632Y-80548670D01*
X192916219Y-80537634D01*
X192898976Y-80524846D01*
X192883070Y-80510430D01*
X192868654Y-80494524D01*
X192855866Y-80477281D01*
X192844830Y-80458868D01*
X192835651Y-80439462D01*
X192828419Y-80419250D01*
X192823203Y-80398426D01*
X192820053Y-80377191D01*
X192819000Y-80355750D01*
X192819000Y-79918250D01*
X192820053Y-79896809D01*
X192823203Y-79875574D01*
X192828419Y-79854750D01*
X192835651Y-79834538D01*
X192844830Y-79815132D01*
X192855866Y-79796719D01*
X192868654Y-79779476D01*
X192883070Y-79763570D01*
X192898976Y-79749154D01*
X192916219Y-79736366D01*
X192934632Y-79725330D01*
X192954038Y-79716151D01*
X192974250Y-79708919D01*
X192995074Y-79703703D01*
X193016309Y-79700553D01*
X193037750Y-79699500D01*
X193550250Y-79699500D01*
X193571691Y-79700553D01*
X193571691Y-79700553D01*
G37*
D12*
X193294000Y-80137000D03*
D10*
G36*
X193571691Y-78125553D02*
G01*
X193592926Y-78128703D01*
X193613750Y-78133919D01*
X193633962Y-78141151D01*
X193653368Y-78150330D01*
X193671781Y-78161366D01*
X193689024Y-78174154D01*
X193704930Y-78188570D01*
X193719346Y-78204476D01*
X193732134Y-78221719D01*
X193743170Y-78240132D01*
X193752349Y-78259538D01*
X193759581Y-78279750D01*
X193764797Y-78300574D01*
X193767947Y-78321809D01*
X193769000Y-78343250D01*
X193769000Y-78780750D01*
X193767947Y-78802191D01*
X193764797Y-78823426D01*
X193759581Y-78844250D01*
X193752349Y-78864462D01*
X193743170Y-78883868D01*
X193732134Y-78902281D01*
X193719346Y-78919524D01*
X193704930Y-78935430D01*
X193689024Y-78949846D01*
X193671781Y-78962634D01*
X193653368Y-78973670D01*
X193633962Y-78982849D01*
X193613750Y-78990081D01*
X193592926Y-78995297D01*
X193571691Y-78998447D01*
X193550250Y-78999500D01*
X193037750Y-78999500D01*
X193016309Y-78998447D01*
X192995074Y-78995297D01*
X192974250Y-78990081D01*
X192954038Y-78982849D01*
X192934632Y-78973670D01*
X192916219Y-78962634D01*
X192898976Y-78949846D01*
X192883070Y-78935430D01*
X192868654Y-78919524D01*
X192855866Y-78902281D01*
X192844830Y-78883868D01*
X192835651Y-78864462D01*
X192828419Y-78844250D01*
X192823203Y-78823426D01*
X192820053Y-78802191D01*
X192819000Y-78780750D01*
X192819000Y-78343250D01*
X192820053Y-78321809D01*
X192823203Y-78300574D01*
X192828419Y-78279750D01*
X192835651Y-78259538D01*
X192844830Y-78240132D01*
X192855866Y-78221719D01*
X192868654Y-78204476D01*
X192883070Y-78188570D01*
X192898976Y-78174154D01*
X192916219Y-78161366D01*
X192934632Y-78150330D01*
X192954038Y-78141151D01*
X192974250Y-78133919D01*
X192995074Y-78128703D01*
X193016309Y-78125553D01*
X193037750Y-78124500D01*
X193550250Y-78124500D01*
X193571691Y-78125553D01*
X193571691Y-78125553D01*
G37*
D12*
X193294000Y-78562000D03*
D10*
G36*
X181633691Y-79980053D02*
G01*
X181654926Y-79983203D01*
X181675750Y-79988419D01*
X181695962Y-79995651D01*
X181715368Y-80004830D01*
X181733781Y-80015866D01*
X181751024Y-80028654D01*
X181766930Y-80043070D01*
X181781346Y-80058976D01*
X181794134Y-80076219D01*
X181805170Y-80094632D01*
X181814349Y-80114038D01*
X181821581Y-80134250D01*
X181826797Y-80155074D01*
X181829947Y-80176309D01*
X181831000Y-80197750D01*
X181831000Y-80635250D01*
X181829947Y-80656691D01*
X181826797Y-80677926D01*
X181821581Y-80698750D01*
X181814349Y-80718962D01*
X181805170Y-80738368D01*
X181794134Y-80756781D01*
X181781346Y-80774024D01*
X181766930Y-80789930D01*
X181751024Y-80804346D01*
X181733781Y-80817134D01*
X181715368Y-80828170D01*
X181695962Y-80837349D01*
X181675750Y-80844581D01*
X181654926Y-80849797D01*
X181633691Y-80852947D01*
X181612250Y-80854000D01*
X181099750Y-80854000D01*
X181078309Y-80852947D01*
X181057074Y-80849797D01*
X181036250Y-80844581D01*
X181016038Y-80837349D01*
X180996632Y-80828170D01*
X180978219Y-80817134D01*
X180960976Y-80804346D01*
X180945070Y-80789930D01*
X180930654Y-80774024D01*
X180917866Y-80756781D01*
X180906830Y-80738368D01*
X180897651Y-80718962D01*
X180890419Y-80698750D01*
X180885203Y-80677926D01*
X180882053Y-80656691D01*
X180881000Y-80635250D01*
X180881000Y-80197750D01*
X180882053Y-80176309D01*
X180885203Y-80155074D01*
X180890419Y-80134250D01*
X180897651Y-80114038D01*
X180906830Y-80094632D01*
X180917866Y-80076219D01*
X180930654Y-80058976D01*
X180945070Y-80043070D01*
X180960976Y-80028654D01*
X180978219Y-80015866D01*
X180996632Y-80004830D01*
X181016038Y-79995651D01*
X181036250Y-79988419D01*
X181057074Y-79983203D01*
X181078309Y-79980053D01*
X181099750Y-79979000D01*
X181612250Y-79979000D01*
X181633691Y-79980053D01*
X181633691Y-79980053D01*
G37*
D12*
X181356000Y-80416500D03*
D10*
G36*
X181633691Y-78405053D02*
G01*
X181654926Y-78408203D01*
X181675750Y-78413419D01*
X181695962Y-78420651D01*
X181715368Y-78429830D01*
X181733781Y-78440866D01*
X181751024Y-78453654D01*
X181766930Y-78468070D01*
X181781346Y-78483976D01*
X181794134Y-78501219D01*
X181805170Y-78519632D01*
X181814349Y-78539038D01*
X181821581Y-78559250D01*
X181826797Y-78580074D01*
X181829947Y-78601309D01*
X181831000Y-78622750D01*
X181831000Y-79060250D01*
X181829947Y-79081691D01*
X181826797Y-79102926D01*
X181821581Y-79123750D01*
X181814349Y-79143962D01*
X181805170Y-79163368D01*
X181794134Y-79181781D01*
X181781346Y-79199024D01*
X181766930Y-79214930D01*
X181751024Y-79229346D01*
X181733781Y-79242134D01*
X181715368Y-79253170D01*
X181695962Y-79262349D01*
X181675750Y-79269581D01*
X181654926Y-79274797D01*
X181633691Y-79277947D01*
X181612250Y-79279000D01*
X181099750Y-79279000D01*
X181078309Y-79277947D01*
X181057074Y-79274797D01*
X181036250Y-79269581D01*
X181016038Y-79262349D01*
X180996632Y-79253170D01*
X180978219Y-79242134D01*
X180960976Y-79229346D01*
X180945070Y-79214930D01*
X180930654Y-79199024D01*
X180917866Y-79181781D01*
X180906830Y-79163368D01*
X180897651Y-79143962D01*
X180890419Y-79123750D01*
X180885203Y-79102926D01*
X180882053Y-79081691D01*
X180881000Y-79060250D01*
X180881000Y-78622750D01*
X180882053Y-78601309D01*
X180885203Y-78580074D01*
X180890419Y-78559250D01*
X180897651Y-78539038D01*
X180906830Y-78519632D01*
X180917866Y-78501219D01*
X180930654Y-78483976D01*
X180945070Y-78468070D01*
X180960976Y-78453654D01*
X180978219Y-78440866D01*
X180996632Y-78429830D01*
X181016038Y-78420651D01*
X181036250Y-78413419D01*
X181057074Y-78408203D01*
X181078309Y-78405053D01*
X181099750Y-78404000D01*
X181612250Y-78404000D01*
X181633691Y-78405053D01*
X181633691Y-78405053D01*
G37*
D12*
X181356000Y-78841500D03*
D10*
G36*
X123582691Y-99983053D02*
G01*
X123603926Y-99986203D01*
X123624750Y-99991419D01*
X123644962Y-99998651D01*
X123664368Y-100007830D01*
X123682781Y-100018866D01*
X123700024Y-100031654D01*
X123715930Y-100046070D01*
X123730346Y-100061976D01*
X123743134Y-100079219D01*
X123754170Y-100097632D01*
X123763349Y-100117038D01*
X123770581Y-100137250D01*
X123775797Y-100158074D01*
X123778947Y-100179309D01*
X123780000Y-100200750D01*
X123780000Y-100713250D01*
X123778947Y-100734691D01*
X123775797Y-100755926D01*
X123770581Y-100776750D01*
X123763349Y-100796962D01*
X123754170Y-100816368D01*
X123743134Y-100834781D01*
X123730346Y-100852024D01*
X123715930Y-100867930D01*
X123700024Y-100882346D01*
X123682781Y-100895134D01*
X123664368Y-100906170D01*
X123644962Y-100915349D01*
X123624750Y-100922581D01*
X123603926Y-100927797D01*
X123582691Y-100930947D01*
X123561250Y-100932000D01*
X123123750Y-100932000D01*
X123102309Y-100930947D01*
X123081074Y-100927797D01*
X123060250Y-100922581D01*
X123040038Y-100915349D01*
X123020632Y-100906170D01*
X123002219Y-100895134D01*
X122984976Y-100882346D01*
X122969070Y-100867930D01*
X122954654Y-100852024D01*
X122941866Y-100834781D01*
X122930830Y-100816368D01*
X122921651Y-100796962D01*
X122914419Y-100776750D01*
X122909203Y-100755926D01*
X122906053Y-100734691D01*
X122905000Y-100713250D01*
X122905000Y-100200750D01*
X122906053Y-100179309D01*
X122909203Y-100158074D01*
X122914419Y-100137250D01*
X122921651Y-100117038D01*
X122930830Y-100097632D01*
X122941866Y-100079219D01*
X122954654Y-100061976D01*
X122969070Y-100046070D01*
X122984976Y-100031654D01*
X123002219Y-100018866D01*
X123020632Y-100007830D01*
X123040038Y-99998651D01*
X123060250Y-99991419D01*
X123081074Y-99986203D01*
X123102309Y-99983053D01*
X123123750Y-99982000D01*
X123561250Y-99982000D01*
X123582691Y-99983053D01*
X123582691Y-99983053D01*
G37*
D12*
X123342500Y-100457000D03*
D10*
G36*
X122007691Y-99983053D02*
G01*
X122028926Y-99986203D01*
X122049750Y-99991419D01*
X122069962Y-99998651D01*
X122089368Y-100007830D01*
X122107781Y-100018866D01*
X122125024Y-100031654D01*
X122140930Y-100046070D01*
X122155346Y-100061976D01*
X122168134Y-100079219D01*
X122179170Y-100097632D01*
X122188349Y-100117038D01*
X122195581Y-100137250D01*
X122200797Y-100158074D01*
X122203947Y-100179309D01*
X122205000Y-100200750D01*
X122205000Y-100713250D01*
X122203947Y-100734691D01*
X122200797Y-100755926D01*
X122195581Y-100776750D01*
X122188349Y-100796962D01*
X122179170Y-100816368D01*
X122168134Y-100834781D01*
X122155346Y-100852024D01*
X122140930Y-100867930D01*
X122125024Y-100882346D01*
X122107781Y-100895134D01*
X122089368Y-100906170D01*
X122069962Y-100915349D01*
X122049750Y-100922581D01*
X122028926Y-100927797D01*
X122007691Y-100930947D01*
X121986250Y-100932000D01*
X121548750Y-100932000D01*
X121527309Y-100930947D01*
X121506074Y-100927797D01*
X121485250Y-100922581D01*
X121465038Y-100915349D01*
X121445632Y-100906170D01*
X121427219Y-100895134D01*
X121409976Y-100882346D01*
X121394070Y-100867930D01*
X121379654Y-100852024D01*
X121366866Y-100834781D01*
X121355830Y-100816368D01*
X121346651Y-100796962D01*
X121339419Y-100776750D01*
X121334203Y-100755926D01*
X121331053Y-100734691D01*
X121330000Y-100713250D01*
X121330000Y-100200750D01*
X121331053Y-100179309D01*
X121334203Y-100158074D01*
X121339419Y-100137250D01*
X121346651Y-100117038D01*
X121355830Y-100097632D01*
X121366866Y-100079219D01*
X121379654Y-100061976D01*
X121394070Y-100046070D01*
X121409976Y-100031654D01*
X121427219Y-100018866D01*
X121445632Y-100007830D01*
X121465038Y-99998651D01*
X121485250Y-99991419D01*
X121506074Y-99986203D01*
X121527309Y-99983053D01*
X121548750Y-99982000D01*
X121986250Y-99982000D01*
X122007691Y-99983053D01*
X122007691Y-99983053D01*
G37*
D12*
X121767500Y-100457000D03*
D10*
G36*
X122719691Y-102269053D02*
G01*
X122740926Y-102272203D01*
X122761750Y-102277419D01*
X122781962Y-102284651D01*
X122801368Y-102293830D01*
X122819781Y-102304866D01*
X122837024Y-102317654D01*
X122852930Y-102332070D01*
X122867346Y-102347976D01*
X122880134Y-102365219D01*
X122891170Y-102383632D01*
X122900349Y-102403038D01*
X122907581Y-102423250D01*
X122912797Y-102444074D01*
X122915947Y-102465309D01*
X122917000Y-102486750D01*
X122917000Y-102999250D01*
X122915947Y-103020691D01*
X122912797Y-103041926D01*
X122907581Y-103062750D01*
X122900349Y-103082962D01*
X122891170Y-103102368D01*
X122880134Y-103120781D01*
X122867346Y-103138024D01*
X122852930Y-103153930D01*
X122837024Y-103168346D01*
X122819781Y-103181134D01*
X122801368Y-103192170D01*
X122781962Y-103201349D01*
X122761750Y-103208581D01*
X122740926Y-103213797D01*
X122719691Y-103216947D01*
X122698250Y-103218000D01*
X122260750Y-103218000D01*
X122239309Y-103216947D01*
X122218074Y-103213797D01*
X122197250Y-103208581D01*
X122177038Y-103201349D01*
X122157632Y-103192170D01*
X122139219Y-103181134D01*
X122121976Y-103168346D01*
X122106070Y-103153930D01*
X122091654Y-103138024D01*
X122078866Y-103120781D01*
X122067830Y-103102368D01*
X122058651Y-103082962D01*
X122051419Y-103062750D01*
X122046203Y-103041926D01*
X122043053Y-103020691D01*
X122042000Y-102999250D01*
X122042000Y-102486750D01*
X122043053Y-102465309D01*
X122046203Y-102444074D01*
X122051419Y-102423250D01*
X122058651Y-102403038D01*
X122067830Y-102383632D01*
X122078866Y-102365219D01*
X122091654Y-102347976D01*
X122106070Y-102332070D01*
X122121976Y-102317654D01*
X122139219Y-102304866D01*
X122157632Y-102293830D01*
X122177038Y-102284651D01*
X122197250Y-102277419D01*
X122218074Y-102272203D01*
X122239309Y-102269053D01*
X122260750Y-102268000D01*
X122698250Y-102268000D01*
X122719691Y-102269053D01*
X122719691Y-102269053D01*
G37*
D12*
X122479500Y-102743000D03*
D10*
G36*
X121144691Y-102269053D02*
G01*
X121165926Y-102272203D01*
X121186750Y-102277419D01*
X121206962Y-102284651D01*
X121226368Y-102293830D01*
X121244781Y-102304866D01*
X121262024Y-102317654D01*
X121277930Y-102332070D01*
X121292346Y-102347976D01*
X121305134Y-102365219D01*
X121316170Y-102383632D01*
X121325349Y-102403038D01*
X121332581Y-102423250D01*
X121337797Y-102444074D01*
X121340947Y-102465309D01*
X121342000Y-102486750D01*
X121342000Y-102999250D01*
X121340947Y-103020691D01*
X121337797Y-103041926D01*
X121332581Y-103062750D01*
X121325349Y-103082962D01*
X121316170Y-103102368D01*
X121305134Y-103120781D01*
X121292346Y-103138024D01*
X121277930Y-103153930D01*
X121262024Y-103168346D01*
X121244781Y-103181134D01*
X121226368Y-103192170D01*
X121206962Y-103201349D01*
X121186750Y-103208581D01*
X121165926Y-103213797D01*
X121144691Y-103216947D01*
X121123250Y-103218000D01*
X120685750Y-103218000D01*
X120664309Y-103216947D01*
X120643074Y-103213797D01*
X120622250Y-103208581D01*
X120602038Y-103201349D01*
X120582632Y-103192170D01*
X120564219Y-103181134D01*
X120546976Y-103168346D01*
X120531070Y-103153930D01*
X120516654Y-103138024D01*
X120503866Y-103120781D01*
X120492830Y-103102368D01*
X120483651Y-103082962D01*
X120476419Y-103062750D01*
X120471203Y-103041926D01*
X120468053Y-103020691D01*
X120467000Y-102999250D01*
X120467000Y-102486750D01*
X120468053Y-102465309D01*
X120471203Y-102444074D01*
X120476419Y-102423250D01*
X120483651Y-102403038D01*
X120492830Y-102383632D01*
X120503866Y-102365219D01*
X120516654Y-102347976D01*
X120531070Y-102332070D01*
X120546976Y-102317654D01*
X120564219Y-102304866D01*
X120582632Y-102293830D01*
X120602038Y-102284651D01*
X120622250Y-102277419D01*
X120643074Y-102272203D01*
X120664309Y-102269053D01*
X120685750Y-102268000D01*
X121123250Y-102268000D01*
X121144691Y-102269053D01*
X121144691Y-102269053D01*
G37*
D12*
X120904500Y-102743000D03*
D10*
G36*
X121906691Y-87537053D02*
G01*
X121927926Y-87540203D01*
X121948750Y-87545419D01*
X121968962Y-87552651D01*
X121988368Y-87561830D01*
X122006781Y-87572866D01*
X122024024Y-87585654D01*
X122039930Y-87600070D01*
X122054346Y-87615976D01*
X122067134Y-87633219D01*
X122078170Y-87651632D01*
X122087349Y-87671038D01*
X122094581Y-87691250D01*
X122099797Y-87712074D01*
X122102947Y-87733309D01*
X122104000Y-87754750D01*
X122104000Y-88267250D01*
X122102947Y-88288691D01*
X122099797Y-88309926D01*
X122094581Y-88330750D01*
X122087349Y-88350962D01*
X122078170Y-88370368D01*
X122067134Y-88388781D01*
X122054346Y-88406024D01*
X122039930Y-88421930D01*
X122024024Y-88436346D01*
X122006781Y-88449134D01*
X121988368Y-88460170D01*
X121968962Y-88469349D01*
X121948750Y-88476581D01*
X121927926Y-88481797D01*
X121906691Y-88484947D01*
X121885250Y-88486000D01*
X121447750Y-88486000D01*
X121426309Y-88484947D01*
X121405074Y-88481797D01*
X121384250Y-88476581D01*
X121364038Y-88469349D01*
X121344632Y-88460170D01*
X121326219Y-88449134D01*
X121308976Y-88436346D01*
X121293070Y-88421930D01*
X121278654Y-88406024D01*
X121265866Y-88388781D01*
X121254830Y-88370368D01*
X121245651Y-88350962D01*
X121238419Y-88330750D01*
X121233203Y-88309926D01*
X121230053Y-88288691D01*
X121229000Y-88267250D01*
X121229000Y-87754750D01*
X121230053Y-87733309D01*
X121233203Y-87712074D01*
X121238419Y-87691250D01*
X121245651Y-87671038D01*
X121254830Y-87651632D01*
X121265866Y-87633219D01*
X121278654Y-87615976D01*
X121293070Y-87600070D01*
X121308976Y-87585654D01*
X121326219Y-87572866D01*
X121344632Y-87561830D01*
X121364038Y-87552651D01*
X121384250Y-87545419D01*
X121405074Y-87540203D01*
X121426309Y-87537053D01*
X121447750Y-87536000D01*
X121885250Y-87536000D01*
X121906691Y-87537053D01*
X121906691Y-87537053D01*
G37*
D12*
X121666500Y-88011000D03*
D10*
G36*
X123481691Y-87537053D02*
G01*
X123502926Y-87540203D01*
X123523750Y-87545419D01*
X123543962Y-87552651D01*
X123563368Y-87561830D01*
X123581781Y-87572866D01*
X123599024Y-87585654D01*
X123614930Y-87600070D01*
X123629346Y-87615976D01*
X123642134Y-87633219D01*
X123653170Y-87651632D01*
X123662349Y-87671038D01*
X123669581Y-87691250D01*
X123674797Y-87712074D01*
X123677947Y-87733309D01*
X123679000Y-87754750D01*
X123679000Y-88267250D01*
X123677947Y-88288691D01*
X123674797Y-88309926D01*
X123669581Y-88330750D01*
X123662349Y-88350962D01*
X123653170Y-88370368D01*
X123642134Y-88388781D01*
X123629346Y-88406024D01*
X123614930Y-88421930D01*
X123599024Y-88436346D01*
X123581781Y-88449134D01*
X123563368Y-88460170D01*
X123543962Y-88469349D01*
X123523750Y-88476581D01*
X123502926Y-88481797D01*
X123481691Y-88484947D01*
X123460250Y-88486000D01*
X123022750Y-88486000D01*
X123001309Y-88484947D01*
X122980074Y-88481797D01*
X122959250Y-88476581D01*
X122939038Y-88469349D01*
X122919632Y-88460170D01*
X122901219Y-88449134D01*
X122883976Y-88436346D01*
X122868070Y-88421930D01*
X122853654Y-88406024D01*
X122840866Y-88388781D01*
X122829830Y-88370368D01*
X122820651Y-88350962D01*
X122813419Y-88330750D01*
X122808203Y-88309926D01*
X122805053Y-88288691D01*
X122804000Y-88267250D01*
X122804000Y-87754750D01*
X122805053Y-87733309D01*
X122808203Y-87712074D01*
X122813419Y-87691250D01*
X122820651Y-87671038D01*
X122829830Y-87651632D01*
X122840866Y-87633219D01*
X122853654Y-87615976D01*
X122868070Y-87600070D01*
X122883976Y-87585654D01*
X122901219Y-87572866D01*
X122919632Y-87561830D01*
X122939038Y-87552651D01*
X122959250Y-87545419D01*
X122980074Y-87540203D01*
X123001309Y-87537053D01*
X123022750Y-87536000D01*
X123460250Y-87536000D01*
X123481691Y-87537053D01*
X123481691Y-87537053D01*
G37*
D12*
X123241500Y-88011000D03*
D10*
G36*
X119137691Y-102269053D02*
G01*
X119158926Y-102272203D01*
X119179750Y-102277419D01*
X119199962Y-102284651D01*
X119219368Y-102293830D01*
X119237781Y-102304866D01*
X119255024Y-102317654D01*
X119270930Y-102332070D01*
X119285346Y-102347976D01*
X119298134Y-102365219D01*
X119309170Y-102383632D01*
X119318349Y-102403038D01*
X119325581Y-102423250D01*
X119330797Y-102444074D01*
X119333947Y-102465309D01*
X119335000Y-102486750D01*
X119335000Y-102999250D01*
X119333947Y-103020691D01*
X119330797Y-103041926D01*
X119325581Y-103062750D01*
X119318349Y-103082962D01*
X119309170Y-103102368D01*
X119298134Y-103120781D01*
X119285346Y-103138024D01*
X119270930Y-103153930D01*
X119255024Y-103168346D01*
X119237781Y-103181134D01*
X119219368Y-103192170D01*
X119199962Y-103201349D01*
X119179750Y-103208581D01*
X119158926Y-103213797D01*
X119137691Y-103216947D01*
X119116250Y-103218000D01*
X118678750Y-103218000D01*
X118657309Y-103216947D01*
X118636074Y-103213797D01*
X118615250Y-103208581D01*
X118595038Y-103201349D01*
X118575632Y-103192170D01*
X118557219Y-103181134D01*
X118539976Y-103168346D01*
X118524070Y-103153930D01*
X118509654Y-103138024D01*
X118496866Y-103120781D01*
X118485830Y-103102368D01*
X118476651Y-103082962D01*
X118469419Y-103062750D01*
X118464203Y-103041926D01*
X118461053Y-103020691D01*
X118460000Y-102999250D01*
X118460000Y-102486750D01*
X118461053Y-102465309D01*
X118464203Y-102444074D01*
X118469419Y-102423250D01*
X118476651Y-102403038D01*
X118485830Y-102383632D01*
X118496866Y-102365219D01*
X118509654Y-102347976D01*
X118524070Y-102332070D01*
X118539976Y-102317654D01*
X118557219Y-102304866D01*
X118575632Y-102293830D01*
X118595038Y-102284651D01*
X118615250Y-102277419D01*
X118636074Y-102272203D01*
X118657309Y-102269053D01*
X118678750Y-102268000D01*
X119116250Y-102268000D01*
X119137691Y-102269053D01*
X119137691Y-102269053D01*
G37*
D12*
X118897500Y-102743000D03*
D10*
G36*
X117562691Y-102269053D02*
G01*
X117583926Y-102272203D01*
X117604750Y-102277419D01*
X117624962Y-102284651D01*
X117644368Y-102293830D01*
X117662781Y-102304866D01*
X117680024Y-102317654D01*
X117695930Y-102332070D01*
X117710346Y-102347976D01*
X117723134Y-102365219D01*
X117734170Y-102383632D01*
X117743349Y-102403038D01*
X117750581Y-102423250D01*
X117755797Y-102444074D01*
X117758947Y-102465309D01*
X117760000Y-102486750D01*
X117760000Y-102999250D01*
X117758947Y-103020691D01*
X117755797Y-103041926D01*
X117750581Y-103062750D01*
X117743349Y-103082962D01*
X117734170Y-103102368D01*
X117723134Y-103120781D01*
X117710346Y-103138024D01*
X117695930Y-103153930D01*
X117680024Y-103168346D01*
X117662781Y-103181134D01*
X117644368Y-103192170D01*
X117624962Y-103201349D01*
X117604750Y-103208581D01*
X117583926Y-103213797D01*
X117562691Y-103216947D01*
X117541250Y-103218000D01*
X117103750Y-103218000D01*
X117082309Y-103216947D01*
X117061074Y-103213797D01*
X117040250Y-103208581D01*
X117020038Y-103201349D01*
X117000632Y-103192170D01*
X116982219Y-103181134D01*
X116964976Y-103168346D01*
X116949070Y-103153930D01*
X116934654Y-103138024D01*
X116921866Y-103120781D01*
X116910830Y-103102368D01*
X116901651Y-103082962D01*
X116894419Y-103062750D01*
X116889203Y-103041926D01*
X116886053Y-103020691D01*
X116885000Y-102999250D01*
X116885000Y-102486750D01*
X116886053Y-102465309D01*
X116889203Y-102444074D01*
X116894419Y-102423250D01*
X116901651Y-102403038D01*
X116910830Y-102383632D01*
X116921866Y-102365219D01*
X116934654Y-102347976D01*
X116949070Y-102332070D01*
X116964976Y-102317654D01*
X116982219Y-102304866D01*
X117000632Y-102293830D01*
X117020038Y-102284651D01*
X117040250Y-102277419D01*
X117061074Y-102272203D01*
X117082309Y-102269053D01*
X117103750Y-102268000D01*
X117541250Y-102268000D01*
X117562691Y-102269053D01*
X117562691Y-102269053D01*
G37*
D12*
X117322500Y-102743000D03*
D10*
G36*
X138872691Y-111286053D02*
G01*
X138893926Y-111289203D01*
X138914750Y-111294419D01*
X138934962Y-111301651D01*
X138954368Y-111310830D01*
X138972781Y-111321866D01*
X138990024Y-111334654D01*
X139005930Y-111349070D01*
X139020346Y-111364976D01*
X139033134Y-111382219D01*
X139044170Y-111400632D01*
X139053349Y-111420038D01*
X139060581Y-111440250D01*
X139065797Y-111461074D01*
X139068947Y-111482309D01*
X139070000Y-111503750D01*
X139070000Y-112016250D01*
X139068947Y-112037691D01*
X139065797Y-112058926D01*
X139060581Y-112079750D01*
X139053349Y-112099962D01*
X139044170Y-112119368D01*
X139033134Y-112137781D01*
X139020346Y-112155024D01*
X139005930Y-112170930D01*
X138990024Y-112185346D01*
X138972781Y-112198134D01*
X138954368Y-112209170D01*
X138934962Y-112218349D01*
X138914750Y-112225581D01*
X138893926Y-112230797D01*
X138872691Y-112233947D01*
X138851250Y-112235000D01*
X138413750Y-112235000D01*
X138392309Y-112233947D01*
X138371074Y-112230797D01*
X138350250Y-112225581D01*
X138330038Y-112218349D01*
X138310632Y-112209170D01*
X138292219Y-112198134D01*
X138274976Y-112185346D01*
X138259070Y-112170930D01*
X138244654Y-112155024D01*
X138231866Y-112137781D01*
X138220830Y-112119368D01*
X138211651Y-112099962D01*
X138204419Y-112079750D01*
X138199203Y-112058926D01*
X138196053Y-112037691D01*
X138195000Y-112016250D01*
X138195000Y-111503750D01*
X138196053Y-111482309D01*
X138199203Y-111461074D01*
X138204419Y-111440250D01*
X138211651Y-111420038D01*
X138220830Y-111400632D01*
X138231866Y-111382219D01*
X138244654Y-111364976D01*
X138259070Y-111349070D01*
X138274976Y-111334654D01*
X138292219Y-111321866D01*
X138310632Y-111310830D01*
X138330038Y-111301651D01*
X138350250Y-111294419D01*
X138371074Y-111289203D01*
X138392309Y-111286053D01*
X138413750Y-111285000D01*
X138851250Y-111285000D01*
X138872691Y-111286053D01*
X138872691Y-111286053D01*
G37*
D12*
X138632500Y-111760000D03*
D10*
G36*
X140447691Y-111286053D02*
G01*
X140468926Y-111289203D01*
X140489750Y-111294419D01*
X140509962Y-111301651D01*
X140529368Y-111310830D01*
X140547781Y-111321866D01*
X140565024Y-111334654D01*
X140580930Y-111349070D01*
X140595346Y-111364976D01*
X140608134Y-111382219D01*
X140619170Y-111400632D01*
X140628349Y-111420038D01*
X140635581Y-111440250D01*
X140640797Y-111461074D01*
X140643947Y-111482309D01*
X140645000Y-111503750D01*
X140645000Y-112016250D01*
X140643947Y-112037691D01*
X140640797Y-112058926D01*
X140635581Y-112079750D01*
X140628349Y-112099962D01*
X140619170Y-112119368D01*
X140608134Y-112137781D01*
X140595346Y-112155024D01*
X140580930Y-112170930D01*
X140565024Y-112185346D01*
X140547781Y-112198134D01*
X140529368Y-112209170D01*
X140509962Y-112218349D01*
X140489750Y-112225581D01*
X140468926Y-112230797D01*
X140447691Y-112233947D01*
X140426250Y-112235000D01*
X139988750Y-112235000D01*
X139967309Y-112233947D01*
X139946074Y-112230797D01*
X139925250Y-112225581D01*
X139905038Y-112218349D01*
X139885632Y-112209170D01*
X139867219Y-112198134D01*
X139849976Y-112185346D01*
X139834070Y-112170930D01*
X139819654Y-112155024D01*
X139806866Y-112137781D01*
X139795830Y-112119368D01*
X139786651Y-112099962D01*
X139779419Y-112079750D01*
X139774203Y-112058926D01*
X139771053Y-112037691D01*
X139770000Y-112016250D01*
X139770000Y-111503750D01*
X139771053Y-111482309D01*
X139774203Y-111461074D01*
X139779419Y-111440250D01*
X139786651Y-111420038D01*
X139795830Y-111400632D01*
X139806866Y-111382219D01*
X139819654Y-111364976D01*
X139834070Y-111349070D01*
X139849976Y-111334654D01*
X139867219Y-111321866D01*
X139885632Y-111310830D01*
X139905038Y-111301651D01*
X139925250Y-111294419D01*
X139946074Y-111289203D01*
X139967309Y-111286053D01*
X139988750Y-111285000D01*
X140426250Y-111285000D01*
X140447691Y-111286053D01*
X140447691Y-111286053D01*
G37*
D12*
X140207500Y-111760000D03*
D10*
G36*
X131583691Y-93252053D02*
G01*
X131604926Y-93255203D01*
X131625750Y-93260419D01*
X131645962Y-93267651D01*
X131665368Y-93276830D01*
X131683781Y-93287866D01*
X131701024Y-93300654D01*
X131716930Y-93315070D01*
X131731346Y-93330976D01*
X131744134Y-93348219D01*
X131755170Y-93366632D01*
X131764349Y-93386038D01*
X131771581Y-93406250D01*
X131776797Y-93427074D01*
X131779947Y-93448309D01*
X131781000Y-93469750D01*
X131781000Y-93982250D01*
X131779947Y-94003691D01*
X131776797Y-94024926D01*
X131771581Y-94045750D01*
X131764349Y-94065962D01*
X131755170Y-94085368D01*
X131744134Y-94103781D01*
X131731346Y-94121024D01*
X131716930Y-94136930D01*
X131701024Y-94151346D01*
X131683781Y-94164134D01*
X131665368Y-94175170D01*
X131645962Y-94184349D01*
X131625750Y-94191581D01*
X131604926Y-94196797D01*
X131583691Y-94199947D01*
X131562250Y-94201000D01*
X131124750Y-94201000D01*
X131103309Y-94199947D01*
X131082074Y-94196797D01*
X131061250Y-94191581D01*
X131041038Y-94184349D01*
X131021632Y-94175170D01*
X131003219Y-94164134D01*
X130985976Y-94151346D01*
X130970070Y-94136930D01*
X130955654Y-94121024D01*
X130942866Y-94103781D01*
X130931830Y-94085368D01*
X130922651Y-94065962D01*
X130915419Y-94045750D01*
X130910203Y-94024926D01*
X130907053Y-94003691D01*
X130906000Y-93982250D01*
X130906000Y-93469750D01*
X130907053Y-93448309D01*
X130910203Y-93427074D01*
X130915419Y-93406250D01*
X130922651Y-93386038D01*
X130931830Y-93366632D01*
X130942866Y-93348219D01*
X130955654Y-93330976D01*
X130970070Y-93315070D01*
X130985976Y-93300654D01*
X131003219Y-93287866D01*
X131021632Y-93276830D01*
X131041038Y-93267651D01*
X131061250Y-93260419D01*
X131082074Y-93255203D01*
X131103309Y-93252053D01*
X131124750Y-93251000D01*
X131562250Y-93251000D01*
X131583691Y-93252053D01*
X131583691Y-93252053D01*
G37*
D12*
X131343500Y-93726000D03*
D10*
G36*
X130008691Y-93252053D02*
G01*
X130029926Y-93255203D01*
X130050750Y-93260419D01*
X130070962Y-93267651D01*
X130090368Y-93276830D01*
X130108781Y-93287866D01*
X130126024Y-93300654D01*
X130141930Y-93315070D01*
X130156346Y-93330976D01*
X130169134Y-93348219D01*
X130180170Y-93366632D01*
X130189349Y-93386038D01*
X130196581Y-93406250D01*
X130201797Y-93427074D01*
X130204947Y-93448309D01*
X130206000Y-93469750D01*
X130206000Y-93982250D01*
X130204947Y-94003691D01*
X130201797Y-94024926D01*
X130196581Y-94045750D01*
X130189349Y-94065962D01*
X130180170Y-94085368D01*
X130169134Y-94103781D01*
X130156346Y-94121024D01*
X130141930Y-94136930D01*
X130126024Y-94151346D01*
X130108781Y-94164134D01*
X130090368Y-94175170D01*
X130070962Y-94184349D01*
X130050750Y-94191581D01*
X130029926Y-94196797D01*
X130008691Y-94199947D01*
X129987250Y-94201000D01*
X129549750Y-94201000D01*
X129528309Y-94199947D01*
X129507074Y-94196797D01*
X129486250Y-94191581D01*
X129466038Y-94184349D01*
X129446632Y-94175170D01*
X129428219Y-94164134D01*
X129410976Y-94151346D01*
X129395070Y-94136930D01*
X129380654Y-94121024D01*
X129367866Y-94103781D01*
X129356830Y-94085368D01*
X129347651Y-94065962D01*
X129340419Y-94045750D01*
X129335203Y-94024926D01*
X129332053Y-94003691D01*
X129331000Y-93982250D01*
X129331000Y-93469750D01*
X129332053Y-93448309D01*
X129335203Y-93427074D01*
X129340419Y-93406250D01*
X129347651Y-93386038D01*
X129356830Y-93366632D01*
X129367866Y-93348219D01*
X129380654Y-93330976D01*
X129395070Y-93315070D01*
X129410976Y-93300654D01*
X129428219Y-93287866D01*
X129446632Y-93276830D01*
X129466038Y-93267651D01*
X129486250Y-93260419D01*
X129507074Y-93255203D01*
X129528309Y-93252053D01*
X129549750Y-93251000D01*
X129987250Y-93251000D01*
X130008691Y-93252053D01*
X130008691Y-93252053D01*
G37*
D12*
X129768500Y-93726000D03*
D10*
G36*
X158710691Y-117636053D02*
G01*
X158731926Y-117639203D01*
X158752750Y-117644419D01*
X158772962Y-117651651D01*
X158792368Y-117660830D01*
X158810781Y-117671866D01*
X158828024Y-117684654D01*
X158843930Y-117699070D01*
X158858346Y-117714976D01*
X158871134Y-117732219D01*
X158882170Y-117750632D01*
X158891349Y-117770038D01*
X158898581Y-117790250D01*
X158903797Y-117811074D01*
X158906947Y-117832309D01*
X158908000Y-117853750D01*
X158908000Y-118366250D01*
X158906947Y-118387691D01*
X158903797Y-118408926D01*
X158898581Y-118429750D01*
X158891349Y-118449962D01*
X158882170Y-118469368D01*
X158871134Y-118487781D01*
X158858346Y-118505024D01*
X158843930Y-118520930D01*
X158828024Y-118535346D01*
X158810781Y-118548134D01*
X158792368Y-118559170D01*
X158772962Y-118568349D01*
X158752750Y-118575581D01*
X158731926Y-118580797D01*
X158710691Y-118583947D01*
X158689250Y-118585000D01*
X158251750Y-118585000D01*
X158230309Y-118583947D01*
X158209074Y-118580797D01*
X158188250Y-118575581D01*
X158168038Y-118568349D01*
X158148632Y-118559170D01*
X158130219Y-118548134D01*
X158112976Y-118535346D01*
X158097070Y-118520930D01*
X158082654Y-118505024D01*
X158069866Y-118487781D01*
X158058830Y-118469368D01*
X158049651Y-118449962D01*
X158042419Y-118429750D01*
X158037203Y-118408926D01*
X158034053Y-118387691D01*
X158033000Y-118366250D01*
X158033000Y-117853750D01*
X158034053Y-117832309D01*
X158037203Y-117811074D01*
X158042419Y-117790250D01*
X158049651Y-117770038D01*
X158058830Y-117750632D01*
X158069866Y-117732219D01*
X158082654Y-117714976D01*
X158097070Y-117699070D01*
X158112976Y-117684654D01*
X158130219Y-117671866D01*
X158148632Y-117660830D01*
X158168038Y-117651651D01*
X158188250Y-117644419D01*
X158209074Y-117639203D01*
X158230309Y-117636053D01*
X158251750Y-117635000D01*
X158689250Y-117635000D01*
X158710691Y-117636053D01*
X158710691Y-117636053D01*
G37*
D12*
X158470500Y-118110000D03*
D10*
G36*
X160285691Y-117636053D02*
G01*
X160306926Y-117639203D01*
X160327750Y-117644419D01*
X160347962Y-117651651D01*
X160367368Y-117660830D01*
X160385781Y-117671866D01*
X160403024Y-117684654D01*
X160418930Y-117699070D01*
X160433346Y-117714976D01*
X160446134Y-117732219D01*
X160457170Y-117750632D01*
X160466349Y-117770038D01*
X160473581Y-117790250D01*
X160478797Y-117811074D01*
X160481947Y-117832309D01*
X160483000Y-117853750D01*
X160483000Y-118366250D01*
X160481947Y-118387691D01*
X160478797Y-118408926D01*
X160473581Y-118429750D01*
X160466349Y-118449962D01*
X160457170Y-118469368D01*
X160446134Y-118487781D01*
X160433346Y-118505024D01*
X160418930Y-118520930D01*
X160403024Y-118535346D01*
X160385781Y-118548134D01*
X160367368Y-118559170D01*
X160347962Y-118568349D01*
X160327750Y-118575581D01*
X160306926Y-118580797D01*
X160285691Y-118583947D01*
X160264250Y-118585000D01*
X159826750Y-118585000D01*
X159805309Y-118583947D01*
X159784074Y-118580797D01*
X159763250Y-118575581D01*
X159743038Y-118568349D01*
X159723632Y-118559170D01*
X159705219Y-118548134D01*
X159687976Y-118535346D01*
X159672070Y-118520930D01*
X159657654Y-118505024D01*
X159644866Y-118487781D01*
X159633830Y-118469368D01*
X159624651Y-118449962D01*
X159617419Y-118429750D01*
X159612203Y-118408926D01*
X159609053Y-118387691D01*
X159608000Y-118366250D01*
X159608000Y-117853750D01*
X159609053Y-117832309D01*
X159612203Y-117811074D01*
X159617419Y-117790250D01*
X159624651Y-117770038D01*
X159633830Y-117750632D01*
X159644866Y-117732219D01*
X159657654Y-117714976D01*
X159672070Y-117699070D01*
X159687976Y-117684654D01*
X159705219Y-117671866D01*
X159723632Y-117660830D01*
X159743038Y-117651651D01*
X159763250Y-117644419D01*
X159784074Y-117639203D01*
X159805309Y-117636053D01*
X159826750Y-117635000D01*
X160264250Y-117635000D01*
X160285691Y-117636053D01*
X160285691Y-117636053D01*
G37*
D12*
X160045500Y-118110000D03*
D10*
G36*
X117664691Y-80425053D02*
G01*
X117685926Y-80428203D01*
X117706750Y-80433419D01*
X117726962Y-80440651D01*
X117746368Y-80449830D01*
X117764781Y-80460866D01*
X117782024Y-80473654D01*
X117797930Y-80488070D01*
X117812346Y-80503976D01*
X117825134Y-80521219D01*
X117836170Y-80539632D01*
X117845349Y-80559038D01*
X117852581Y-80579250D01*
X117857797Y-80600074D01*
X117860947Y-80621309D01*
X117862000Y-80642750D01*
X117862000Y-81155250D01*
X117860947Y-81176691D01*
X117857797Y-81197926D01*
X117852581Y-81218750D01*
X117845349Y-81238962D01*
X117836170Y-81258368D01*
X117825134Y-81276781D01*
X117812346Y-81294024D01*
X117797930Y-81309930D01*
X117782024Y-81324346D01*
X117764781Y-81337134D01*
X117746368Y-81348170D01*
X117726962Y-81357349D01*
X117706750Y-81364581D01*
X117685926Y-81369797D01*
X117664691Y-81372947D01*
X117643250Y-81374000D01*
X117205750Y-81374000D01*
X117184309Y-81372947D01*
X117163074Y-81369797D01*
X117142250Y-81364581D01*
X117122038Y-81357349D01*
X117102632Y-81348170D01*
X117084219Y-81337134D01*
X117066976Y-81324346D01*
X117051070Y-81309930D01*
X117036654Y-81294024D01*
X117023866Y-81276781D01*
X117012830Y-81258368D01*
X117003651Y-81238962D01*
X116996419Y-81218750D01*
X116991203Y-81197926D01*
X116988053Y-81176691D01*
X116987000Y-81155250D01*
X116987000Y-80642750D01*
X116988053Y-80621309D01*
X116991203Y-80600074D01*
X116996419Y-80579250D01*
X117003651Y-80559038D01*
X117012830Y-80539632D01*
X117023866Y-80521219D01*
X117036654Y-80503976D01*
X117051070Y-80488070D01*
X117066976Y-80473654D01*
X117084219Y-80460866D01*
X117102632Y-80449830D01*
X117122038Y-80440651D01*
X117142250Y-80433419D01*
X117163074Y-80428203D01*
X117184309Y-80425053D01*
X117205750Y-80424000D01*
X117643250Y-80424000D01*
X117664691Y-80425053D01*
X117664691Y-80425053D01*
G37*
D12*
X117424500Y-80899000D03*
D10*
G36*
X119239691Y-80425053D02*
G01*
X119260926Y-80428203D01*
X119281750Y-80433419D01*
X119301962Y-80440651D01*
X119321368Y-80449830D01*
X119339781Y-80460866D01*
X119357024Y-80473654D01*
X119372930Y-80488070D01*
X119387346Y-80503976D01*
X119400134Y-80521219D01*
X119411170Y-80539632D01*
X119420349Y-80559038D01*
X119427581Y-80579250D01*
X119432797Y-80600074D01*
X119435947Y-80621309D01*
X119437000Y-80642750D01*
X119437000Y-81155250D01*
X119435947Y-81176691D01*
X119432797Y-81197926D01*
X119427581Y-81218750D01*
X119420349Y-81238962D01*
X119411170Y-81258368D01*
X119400134Y-81276781D01*
X119387346Y-81294024D01*
X119372930Y-81309930D01*
X119357024Y-81324346D01*
X119339781Y-81337134D01*
X119321368Y-81348170D01*
X119301962Y-81357349D01*
X119281750Y-81364581D01*
X119260926Y-81369797D01*
X119239691Y-81372947D01*
X119218250Y-81374000D01*
X118780750Y-81374000D01*
X118759309Y-81372947D01*
X118738074Y-81369797D01*
X118717250Y-81364581D01*
X118697038Y-81357349D01*
X118677632Y-81348170D01*
X118659219Y-81337134D01*
X118641976Y-81324346D01*
X118626070Y-81309930D01*
X118611654Y-81294024D01*
X118598866Y-81276781D01*
X118587830Y-81258368D01*
X118578651Y-81238962D01*
X118571419Y-81218750D01*
X118566203Y-81197926D01*
X118563053Y-81176691D01*
X118562000Y-81155250D01*
X118562000Y-80642750D01*
X118563053Y-80621309D01*
X118566203Y-80600074D01*
X118571419Y-80579250D01*
X118578651Y-80559038D01*
X118587830Y-80539632D01*
X118598866Y-80521219D01*
X118611654Y-80503976D01*
X118626070Y-80488070D01*
X118641976Y-80473654D01*
X118659219Y-80460866D01*
X118677632Y-80449830D01*
X118697038Y-80440651D01*
X118717250Y-80433419D01*
X118738074Y-80428203D01*
X118759309Y-80425053D01*
X118780750Y-80424000D01*
X119218250Y-80424000D01*
X119239691Y-80425053D01*
X119239691Y-80425053D01*
G37*
D12*
X118999500Y-80899000D03*
D13*
X196006000Y-89408000D03*
X196006000Y-90678000D03*
X196006000Y-91948000D03*
X196006000Y-93218000D03*
X190582000Y-93218000D03*
X190582000Y-91948000D03*
X190582000Y-90678000D03*
X190582000Y-89408000D03*
D14*
X195379000Y-96180000D03*
X195379000Y-96830000D03*
X195379000Y-97480000D03*
X195379000Y-98130000D03*
X190955000Y-98130000D03*
X190955000Y-97480000D03*
X190955000Y-96830000D03*
X190955000Y-96180000D03*
D15*
X190644000Y-78624000D03*
X190644000Y-79274000D03*
X190644000Y-79924000D03*
X190644000Y-80574000D03*
X190644000Y-81224000D03*
X190644000Y-81874000D03*
X190644000Y-82524000D03*
X190644000Y-83174000D03*
X184768000Y-83174000D03*
X184768000Y-82524000D03*
X184768000Y-81874000D03*
X184768000Y-81224000D03*
X184768000Y-80574000D03*
X184768000Y-79924000D03*
X184768000Y-79274000D03*
X184768000Y-78624000D03*
X122826000Y-107864000D03*
X122826000Y-108514000D03*
X122826000Y-109164000D03*
X122826000Y-109814000D03*
X116950000Y-109814000D03*
X116950000Y-109164000D03*
X116950000Y-108514000D03*
X116950000Y-107864000D03*
D16*
X183907000Y-108983000D03*
X184557000Y-108983000D03*
X185207000Y-108983000D03*
X185857000Y-108983000D03*
X186507000Y-108983000D03*
X187157000Y-108983000D03*
X187807000Y-108983000D03*
X188457000Y-108983000D03*
X188457000Y-103107000D03*
X187807000Y-103107000D03*
X187157000Y-103107000D03*
X186507000Y-103107000D03*
X185857000Y-103107000D03*
X185207000Y-103107000D03*
X184557000Y-103107000D03*
X183907000Y-103107000D03*
D17*
X192870000Y-107381000D03*
X192870000Y-109281000D03*
X190670000Y-108331000D03*
D18*
X138542000Y-96616000D03*
X139642000Y-96616000D03*
X140742000Y-96616000D03*
X141842000Y-96616000D03*
X142942000Y-96616000D03*
X144042000Y-96616000D03*
X145142000Y-96616000D03*
X148142000Y-96616000D03*
X149242000Y-96616000D03*
X150342000Y-96616000D03*
X151442000Y-96616000D03*
X152542000Y-96616000D03*
X152542000Y-108616000D03*
X151442000Y-108616000D03*
X150342000Y-108616000D03*
X149242000Y-108616000D03*
X148142000Y-108616000D03*
X145142000Y-108616000D03*
X144042000Y-108616000D03*
X142942000Y-108616000D03*
X141842000Y-108616000D03*
X140742000Y-108616000D03*
X139642000Y-108616000D03*
X138542000Y-108616000D03*
D16*
X129297000Y-101202000D03*
X129947000Y-101202000D03*
X130597000Y-101202000D03*
X131247000Y-101202000D03*
X131897000Y-101202000D03*
X132547000Y-101202000D03*
X133197000Y-101202000D03*
X133847000Y-101202000D03*
X133847000Y-107078000D03*
X133197000Y-107078000D03*
X132547000Y-107078000D03*
X131897000Y-107078000D03*
X131247000Y-107078000D03*
X130597000Y-107078000D03*
X129947000Y-107078000D03*
X129297000Y-107078000D03*
D17*
X147658000Y-91821000D03*
X145458000Y-90871000D03*
X145458000Y-92771000D03*
D19*
X188411000Y-124083000D03*
X189511000Y-124083000D03*
X190611000Y-124083000D03*
X191711000Y-124083000D03*
X192811000Y-124083000D03*
X193911000Y-124083000D03*
X195011000Y-124083000D03*
D20*
X196061000Y-124083000D03*
D21*
X197271000Y-123733000D03*
D22*
X195246000Y-113258000D03*
X189276000Y-113258000D03*
D23*
X185776000Y-114233000D03*
X185776000Y-117933000D03*
D24*
X185951000Y-123958000D03*
D10*
G36*
X152921142Y-91884174D02*
G01*
X152944803Y-91887684D01*
X152968007Y-91893496D01*
X152990529Y-91901554D01*
X153012153Y-91911782D01*
X153032670Y-91924079D01*
X153051883Y-91938329D01*
X153069607Y-91954393D01*
X153085671Y-91972117D01*
X153099921Y-91991330D01*
X153112218Y-92011847D01*
X153122446Y-92033471D01*
X153130504Y-92055993D01*
X153136316Y-92079197D01*
X153139826Y-92102858D01*
X153141000Y-92126750D01*
X153141000Y-93039250D01*
X153139826Y-93063142D01*
X153136316Y-93086803D01*
X153130504Y-93110007D01*
X153122446Y-93132529D01*
X153112218Y-93154153D01*
X153099921Y-93174670D01*
X153085671Y-93193883D01*
X153069607Y-93211607D01*
X153051883Y-93227671D01*
X153032670Y-93241921D01*
X153012153Y-93254218D01*
X152990529Y-93264446D01*
X152968007Y-93272504D01*
X152944803Y-93278316D01*
X152921142Y-93281826D01*
X152897250Y-93283000D01*
X152409750Y-93283000D01*
X152385858Y-93281826D01*
X152362197Y-93278316D01*
X152338993Y-93272504D01*
X152316471Y-93264446D01*
X152294847Y-93254218D01*
X152274330Y-93241921D01*
X152255117Y-93227671D01*
X152237393Y-93211607D01*
X152221329Y-93193883D01*
X152207079Y-93174670D01*
X152194782Y-93154153D01*
X152184554Y-93132529D01*
X152176496Y-93110007D01*
X152170684Y-93086803D01*
X152167174Y-93063142D01*
X152166000Y-93039250D01*
X152166000Y-92126750D01*
X152167174Y-92102858D01*
X152170684Y-92079197D01*
X152176496Y-92055993D01*
X152184554Y-92033471D01*
X152194782Y-92011847D01*
X152207079Y-91991330D01*
X152221329Y-91972117D01*
X152237393Y-91954393D01*
X152255117Y-91938329D01*
X152274330Y-91924079D01*
X152294847Y-91911782D01*
X152316471Y-91901554D01*
X152338993Y-91893496D01*
X152362197Y-91887684D01*
X152385858Y-91884174D01*
X152409750Y-91883000D01*
X152897250Y-91883000D01*
X152921142Y-91884174D01*
X152921142Y-91884174D01*
G37*
D11*
X152653500Y-92583000D03*
D10*
G36*
X151046142Y-91884174D02*
G01*
X151069803Y-91887684D01*
X151093007Y-91893496D01*
X151115529Y-91901554D01*
X151137153Y-91911782D01*
X151157670Y-91924079D01*
X151176883Y-91938329D01*
X151194607Y-91954393D01*
X151210671Y-91972117D01*
X151224921Y-91991330D01*
X151237218Y-92011847D01*
X151247446Y-92033471D01*
X151255504Y-92055993D01*
X151261316Y-92079197D01*
X151264826Y-92102858D01*
X151266000Y-92126750D01*
X151266000Y-93039250D01*
X151264826Y-93063142D01*
X151261316Y-93086803D01*
X151255504Y-93110007D01*
X151247446Y-93132529D01*
X151237218Y-93154153D01*
X151224921Y-93174670D01*
X151210671Y-93193883D01*
X151194607Y-93211607D01*
X151176883Y-93227671D01*
X151157670Y-93241921D01*
X151137153Y-93254218D01*
X151115529Y-93264446D01*
X151093007Y-93272504D01*
X151069803Y-93278316D01*
X151046142Y-93281826D01*
X151022250Y-93283000D01*
X150534750Y-93283000D01*
X150510858Y-93281826D01*
X150487197Y-93278316D01*
X150463993Y-93272504D01*
X150441471Y-93264446D01*
X150419847Y-93254218D01*
X150399330Y-93241921D01*
X150380117Y-93227671D01*
X150362393Y-93211607D01*
X150346329Y-93193883D01*
X150332079Y-93174670D01*
X150319782Y-93154153D01*
X150309554Y-93132529D01*
X150301496Y-93110007D01*
X150295684Y-93086803D01*
X150292174Y-93063142D01*
X150291000Y-93039250D01*
X150291000Y-92126750D01*
X150292174Y-92102858D01*
X150295684Y-92079197D01*
X150301496Y-92055993D01*
X150309554Y-92033471D01*
X150319782Y-92011847D01*
X150332079Y-91991330D01*
X150346329Y-91972117D01*
X150362393Y-91954393D01*
X150380117Y-91938329D01*
X150399330Y-91924079D01*
X150419847Y-91911782D01*
X150441471Y-91901554D01*
X150463993Y-91893496D01*
X150487197Y-91887684D01*
X150510858Y-91884174D01*
X150534750Y-91883000D01*
X151022250Y-91883000D01*
X151046142Y-91884174D01*
X151046142Y-91884174D01*
G37*
D11*
X150778500Y-92583000D03*
D25*
X135709000Y-90178000D03*
X135709000Y-90678000D03*
X135709000Y-91178000D03*
X134039000Y-91178000D03*
X134039000Y-90678000D03*
X134039000Y-90178000D03*
D10*
G36*
X187678142Y-89713674D02*
G01*
X187701803Y-89717184D01*
X187725007Y-89722996D01*
X187747529Y-89731054D01*
X187769153Y-89741282D01*
X187789670Y-89753579D01*
X187808883Y-89767829D01*
X187826607Y-89783893D01*
X187842671Y-89801617D01*
X187856921Y-89820830D01*
X187869218Y-89841347D01*
X187879446Y-89862971D01*
X187887504Y-89885493D01*
X187893316Y-89908697D01*
X187896826Y-89932358D01*
X187898000Y-89956250D01*
X187898000Y-90443750D01*
X187896826Y-90467642D01*
X187893316Y-90491303D01*
X187887504Y-90514507D01*
X187879446Y-90537029D01*
X187869218Y-90558653D01*
X187856921Y-90579170D01*
X187842671Y-90598383D01*
X187826607Y-90616107D01*
X187808883Y-90632171D01*
X187789670Y-90646421D01*
X187769153Y-90658718D01*
X187747529Y-90668946D01*
X187725007Y-90677004D01*
X187701803Y-90682816D01*
X187678142Y-90686326D01*
X187654250Y-90687500D01*
X186741750Y-90687500D01*
X186717858Y-90686326D01*
X186694197Y-90682816D01*
X186670993Y-90677004D01*
X186648471Y-90668946D01*
X186626847Y-90658718D01*
X186606330Y-90646421D01*
X186587117Y-90632171D01*
X186569393Y-90616107D01*
X186553329Y-90598383D01*
X186539079Y-90579170D01*
X186526782Y-90558653D01*
X186516554Y-90537029D01*
X186508496Y-90514507D01*
X186502684Y-90491303D01*
X186499174Y-90467642D01*
X186498000Y-90443750D01*
X186498000Y-89956250D01*
X186499174Y-89932358D01*
X186502684Y-89908697D01*
X186508496Y-89885493D01*
X186516554Y-89862971D01*
X186526782Y-89841347D01*
X186539079Y-89820830D01*
X186553329Y-89801617D01*
X186569393Y-89783893D01*
X186587117Y-89767829D01*
X186606330Y-89753579D01*
X186626847Y-89741282D01*
X186648471Y-89731054D01*
X186670993Y-89722996D01*
X186694197Y-89717184D01*
X186717858Y-89713674D01*
X186741750Y-89712500D01*
X187654250Y-89712500D01*
X187678142Y-89713674D01*
X187678142Y-89713674D01*
G37*
D11*
X187198000Y-90200000D03*
D10*
G36*
X187678142Y-91588674D02*
G01*
X187701803Y-91592184D01*
X187725007Y-91597996D01*
X187747529Y-91606054D01*
X187769153Y-91616282D01*
X187789670Y-91628579D01*
X187808883Y-91642829D01*
X187826607Y-91658893D01*
X187842671Y-91676617D01*
X187856921Y-91695830D01*
X187869218Y-91716347D01*
X187879446Y-91737971D01*
X187887504Y-91760493D01*
X187893316Y-91783697D01*
X187896826Y-91807358D01*
X187898000Y-91831250D01*
X187898000Y-92318750D01*
X187896826Y-92342642D01*
X187893316Y-92366303D01*
X187887504Y-92389507D01*
X187879446Y-92412029D01*
X187869218Y-92433653D01*
X187856921Y-92454170D01*
X187842671Y-92473383D01*
X187826607Y-92491107D01*
X187808883Y-92507171D01*
X187789670Y-92521421D01*
X187769153Y-92533718D01*
X187747529Y-92543946D01*
X187725007Y-92552004D01*
X187701803Y-92557816D01*
X187678142Y-92561326D01*
X187654250Y-92562500D01*
X186741750Y-92562500D01*
X186717858Y-92561326D01*
X186694197Y-92557816D01*
X186670993Y-92552004D01*
X186648471Y-92543946D01*
X186626847Y-92533718D01*
X186606330Y-92521421D01*
X186587117Y-92507171D01*
X186569393Y-92491107D01*
X186553329Y-92473383D01*
X186539079Y-92454170D01*
X186526782Y-92433653D01*
X186516554Y-92412029D01*
X186508496Y-92389507D01*
X186502684Y-92366303D01*
X186499174Y-92342642D01*
X186498000Y-92318750D01*
X186498000Y-91831250D01*
X186499174Y-91807358D01*
X186502684Y-91783697D01*
X186508496Y-91760493D01*
X186516554Y-91737971D01*
X186526782Y-91716347D01*
X186539079Y-91695830D01*
X186553329Y-91676617D01*
X186569393Y-91658893D01*
X186587117Y-91642829D01*
X186606330Y-91628579D01*
X186626847Y-91616282D01*
X186648471Y-91606054D01*
X186670993Y-91597996D01*
X186694197Y-91592184D01*
X186717858Y-91588674D01*
X186741750Y-91587500D01*
X187654250Y-91587500D01*
X187678142Y-91588674D01*
X187678142Y-91588674D01*
G37*
D11*
X187198000Y-92075000D03*
D10*
G36*
X121885142Y-91630174D02*
G01*
X121908803Y-91633684D01*
X121932007Y-91639496D01*
X121954529Y-91647554D01*
X121976153Y-91657782D01*
X121996670Y-91670079D01*
X122015883Y-91684329D01*
X122033607Y-91700393D01*
X122049671Y-91718117D01*
X122063921Y-91737330D01*
X122076218Y-91757847D01*
X122086446Y-91779471D01*
X122094504Y-91801993D01*
X122100316Y-91825197D01*
X122103826Y-91848858D01*
X122105000Y-91872750D01*
X122105000Y-92785250D01*
X122103826Y-92809142D01*
X122100316Y-92832803D01*
X122094504Y-92856007D01*
X122086446Y-92878529D01*
X122076218Y-92900153D01*
X122063921Y-92920670D01*
X122049671Y-92939883D01*
X122033607Y-92957607D01*
X122015883Y-92973671D01*
X121996670Y-92987921D01*
X121976153Y-93000218D01*
X121954529Y-93010446D01*
X121932007Y-93018504D01*
X121908803Y-93024316D01*
X121885142Y-93027826D01*
X121861250Y-93029000D01*
X121373750Y-93029000D01*
X121349858Y-93027826D01*
X121326197Y-93024316D01*
X121302993Y-93018504D01*
X121280471Y-93010446D01*
X121258847Y-93000218D01*
X121238330Y-92987921D01*
X121219117Y-92973671D01*
X121201393Y-92957607D01*
X121185329Y-92939883D01*
X121171079Y-92920670D01*
X121158782Y-92900153D01*
X121148554Y-92878529D01*
X121140496Y-92856007D01*
X121134684Y-92832803D01*
X121131174Y-92809142D01*
X121130000Y-92785250D01*
X121130000Y-91872750D01*
X121131174Y-91848858D01*
X121134684Y-91825197D01*
X121140496Y-91801993D01*
X121148554Y-91779471D01*
X121158782Y-91757847D01*
X121171079Y-91737330D01*
X121185329Y-91718117D01*
X121201393Y-91700393D01*
X121219117Y-91684329D01*
X121238330Y-91670079D01*
X121258847Y-91657782D01*
X121280471Y-91647554D01*
X121302993Y-91639496D01*
X121326197Y-91633684D01*
X121349858Y-91630174D01*
X121373750Y-91629000D01*
X121861250Y-91629000D01*
X121885142Y-91630174D01*
X121885142Y-91630174D01*
G37*
D11*
X121617500Y-92329000D03*
D10*
G36*
X123760142Y-91630174D02*
G01*
X123783803Y-91633684D01*
X123807007Y-91639496D01*
X123829529Y-91647554D01*
X123851153Y-91657782D01*
X123871670Y-91670079D01*
X123890883Y-91684329D01*
X123908607Y-91700393D01*
X123924671Y-91718117D01*
X123938921Y-91737330D01*
X123951218Y-91757847D01*
X123961446Y-91779471D01*
X123969504Y-91801993D01*
X123975316Y-91825197D01*
X123978826Y-91848858D01*
X123980000Y-91872750D01*
X123980000Y-92785250D01*
X123978826Y-92809142D01*
X123975316Y-92832803D01*
X123969504Y-92856007D01*
X123961446Y-92878529D01*
X123951218Y-92900153D01*
X123938921Y-92920670D01*
X123924671Y-92939883D01*
X123908607Y-92957607D01*
X123890883Y-92973671D01*
X123871670Y-92987921D01*
X123851153Y-93000218D01*
X123829529Y-93010446D01*
X123807007Y-93018504D01*
X123783803Y-93024316D01*
X123760142Y-93027826D01*
X123736250Y-93029000D01*
X123248750Y-93029000D01*
X123224858Y-93027826D01*
X123201197Y-93024316D01*
X123177993Y-93018504D01*
X123155471Y-93010446D01*
X123133847Y-93000218D01*
X123113330Y-92987921D01*
X123094117Y-92973671D01*
X123076393Y-92957607D01*
X123060329Y-92939883D01*
X123046079Y-92920670D01*
X123033782Y-92900153D01*
X123023554Y-92878529D01*
X123015496Y-92856007D01*
X123009684Y-92832803D01*
X123006174Y-92809142D01*
X123005000Y-92785250D01*
X123005000Y-91872750D01*
X123006174Y-91848858D01*
X123009684Y-91825197D01*
X123015496Y-91801993D01*
X123023554Y-91779471D01*
X123033782Y-91757847D01*
X123046079Y-91737330D01*
X123060329Y-91718117D01*
X123076393Y-91700393D01*
X123094117Y-91684329D01*
X123113330Y-91670079D01*
X123133847Y-91657782D01*
X123155471Y-91647554D01*
X123177993Y-91639496D01*
X123201197Y-91633684D01*
X123224858Y-91630174D01*
X123248750Y-91629000D01*
X123736250Y-91629000D01*
X123760142Y-91630174D01*
X123760142Y-91630174D01*
G37*
D11*
X123492500Y-92329000D03*
D10*
G36*
X123809142Y-85280174D02*
G01*
X123832803Y-85283684D01*
X123856007Y-85289496D01*
X123878529Y-85297554D01*
X123900153Y-85307782D01*
X123920670Y-85320079D01*
X123939883Y-85334329D01*
X123957607Y-85350393D01*
X123973671Y-85368117D01*
X123987921Y-85387330D01*
X124000218Y-85407847D01*
X124010446Y-85429471D01*
X124018504Y-85451993D01*
X124024316Y-85475197D01*
X124027826Y-85498858D01*
X124029000Y-85522750D01*
X124029000Y-86435250D01*
X124027826Y-86459142D01*
X124024316Y-86482803D01*
X124018504Y-86506007D01*
X124010446Y-86528529D01*
X124000218Y-86550153D01*
X123987921Y-86570670D01*
X123973671Y-86589883D01*
X123957607Y-86607607D01*
X123939883Y-86623671D01*
X123920670Y-86637921D01*
X123900153Y-86650218D01*
X123878529Y-86660446D01*
X123856007Y-86668504D01*
X123832803Y-86674316D01*
X123809142Y-86677826D01*
X123785250Y-86679000D01*
X123297750Y-86679000D01*
X123273858Y-86677826D01*
X123250197Y-86674316D01*
X123226993Y-86668504D01*
X123204471Y-86660446D01*
X123182847Y-86650218D01*
X123162330Y-86637921D01*
X123143117Y-86623671D01*
X123125393Y-86607607D01*
X123109329Y-86589883D01*
X123095079Y-86570670D01*
X123082782Y-86550153D01*
X123072554Y-86528529D01*
X123064496Y-86506007D01*
X123058684Y-86482803D01*
X123055174Y-86459142D01*
X123054000Y-86435250D01*
X123054000Y-85522750D01*
X123055174Y-85498858D01*
X123058684Y-85475197D01*
X123064496Y-85451993D01*
X123072554Y-85429471D01*
X123082782Y-85407847D01*
X123095079Y-85387330D01*
X123109329Y-85368117D01*
X123125393Y-85350393D01*
X123143117Y-85334329D01*
X123162330Y-85320079D01*
X123182847Y-85307782D01*
X123204471Y-85297554D01*
X123226993Y-85289496D01*
X123250197Y-85283684D01*
X123273858Y-85280174D01*
X123297750Y-85279000D01*
X123785250Y-85279000D01*
X123809142Y-85280174D01*
X123809142Y-85280174D01*
G37*
D11*
X123541500Y-85979000D03*
D10*
G36*
X121934142Y-85280174D02*
G01*
X121957803Y-85283684D01*
X121981007Y-85289496D01*
X122003529Y-85297554D01*
X122025153Y-85307782D01*
X122045670Y-85320079D01*
X122064883Y-85334329D01*
X122082607Y-85350393D01*
X122098671Y-85368117D01*
X122112921Y-85387330D01*
X122125218Y-85407847D01*
X122135446Y-85429471D01*
X122143504Y-85451993D01*
X122149316Y-85475197D01*
X122152826Y-85498858D01*
X122154000Y-85522750D01*
X122154000Y-86435250D01*
X122152826Y-86459142D01*
X122149316Y-86482803D01*
X122143504Y-86506007D01*
X122135446Y-86528529D01*
X122125218Y-86550153D01*
X122112921Y-86570670D01*
X122098671Y-86589883D01*
X122082607Y-86607607D01*
X122064883Y-86623671D01*
X122045670Y-86637921D01*
X122025153Y-86650218D01*
X122003529Y-86660446D01*
X121981007Y-86668504D01*
X121957803Y-86674316D01*
X121934142Y-86677826D01*
X121910250Y-86679000D01*
X121422750Y-86679000D01*
X121398858Y-86677826D01*
X121375197Y-86674316D01*
X121351993Y-86668504D01*
X121329471Y-86660446D01*
X121307847Y-86650218D01*
X121287330Y-86637921D01*
X121268117Y-86623671D01*
X121250393Y-86607607D01*
X121234329Y-86589883D01*
X121220079Y-86570670D01*
X121207782Y-86550153D01*
X121197554Y-86528529D01*
X121189496Y-86506007D01*
X121183684Y-86482803D01*
X121180174Y-86459142D01*
X121179000Y-86435250D01*
X121179000Y-85522750D01*
X121180174Y-85498858D01*
X121183684Y-85475197D01*
X121189496Y-85451993D01*
X121197554Y-85429471D01*
X121207782Y-85407847D01*
X121220079Y-85387330D01*
X121234329Y-85368117D01*
X121250393Y-85350393D01*
X121268117Y-85334329D01*
X121287330Y-85320079D01*
X121307847Y-85307782D01*
X121329471Y-85297554D01*
X121351993Y-85289496D01*
X121375197Y-85283684D01*
X121398858Y-85280174D01*
X121422750Y-85279000D01*
X121910250Y-85279000D01*
X121934142Y-85280174D01*
X121934142Y-85280174D01*
G37*
D11*
X121666500Y-85979000D03*
D10*
G36*
X123047142Y-104076174D02*
G01*
X123070803Y-104079684D01*
X123094007Y-104085496D01*
X123116529Y-104093554D01*
X123138153Y-104103782D01*
X123158670Y-104116079D01*
X123177883Y-104130329D01*
X123195607Y-104146393D01*
X123211671Y-104164117D01*
X123225921Y-104183330D01*
X123238218Y-104203847D01*
X123248446Y-104225471D01*
X123256504Y-104247993D01*
X123262316Y-104271197D01*
X123265826Y-104294858D01*
X123267000Y-104318750D01*
X123267000Y-105231250D01*
X123265826Y-105255142D01*
X123262316Y-105278803D01*
X123256504Y-105302007D01*
X123248446Y-105324529D01*
X123238218Y-105346153D01*
X123225921Y-105366670D01*
X123211671Y-105385883D01*
X123195607Y-105403607D01*
X123177883Y-105419671D01*
X123158670Y-105433921D01*
X123138153Y-105446218D01*
X123116529Y-105456446D01*
X123094007Y-105464504D01*
X123070803Y-105470316D01*
X123047142Y-105473826D01*
X123023250Y-105475000D01*
X122535750Y-105475000D01*
X122511858Y-105473826D01*
X122488197Y-105470316D01*
X122464993Y-105464504D01*
X122442471Y-105456446D01*
X122420847Y-105446218D01*
X122400330Y-105433921D01*
X122381117Y-105419671D01*
X122363393Y-105403607D01*
X122347329Y-105385883D01*
X122333079Y-105366670D01*
X122320782Y-105346153D01*
X122310554Y-105324529D01*
X122302496Y-105302007D01*
X122296684Y-105278803D01*
X122293174Y-105255142D01*
X122292000Y-105231250D01*
X122292000Y-104318750D01*
X122293174Y-104294858D01*
X122296684Y-104271197D01*
X122302496Y-104247993D01*
X122310554Y-104225471D01*
X122320782Y-104203847D01*
X122333079Y-104183330D01*
X122347329Y-104164117D01*
X122363393Y-104146393D01*
X122381117Y-104130329D01*
X122400330Y-104116079D01*
X122420847Y-104103782D01*
X122442471Y-104093554D01*
X122464993Y-104085496D01*
X122488197Y-104079684D01*
X122511858Y-104076174D01*
X122535750Y-104075000D01*
X123023250Y-104075000D01*
X123047142Y-104076174D01*
X123047142Y-104076174D01*
G37*
D11*
X122779500Y-104775000D03*
D10*
G36*
X121172142Y-104076174D02*
G01*
X121195803Y-104079684D01*
X121219007Y-104085496D01*
X121241529Y-104093554D01*
X121263153Y-104103782D01*
X121283670Y-104116079D01*
X121302883Y-104130329D01*
X121320607Y-104146393D01*
X121336671Y-104164117D01*
X121350921Y-104183330D01*
X121363218Y-104203847D01*
X121373446Y-104225471D01*
X121381504Y-104247993D01*
X121387316Y-104271197D01*
X121390826Y-104294858D01*
X121392000Y-104318750D01*
X121392000Y-105231250D01*
X121390826Y-105255142D01*
X121387316Y-105278803D01*
X121381504Y-105302007D01*
X121373446Y-105324529D01*
X121363218Y-105346153D01*
X121350921Y-105366670D01*
X121336671Y-105385883D01*
X121320607Y-105403607D01*
X121302883Y-105419671D01*
X121283670Y-105433921D01*
X121263153Y-105446218D01*
X121241529Y-105456446D01*
X121219007Y-105464504D01*
X121195803Y-105470316D01*
X121172142Y-105473826D01*
X121148250Y-105475000D01*
X120660750Y-105475000D01*
X120636858Y-105473826D01*
X120613197Y-105470316D01*
X120589993Y-105464504D01*
X120567471Y-105456446D01*
X120545847Y-105446218D01*
X120525330Y-105433921D01*
X120506117Y-105419671D01*
X120488393Y-105403607D01*
X120472329Y-105385883D01*
X120458079Y-105366670D01*
X120445782Y-105346153D01*
X120435554Y-105324529D01*
X120427496Y-105302007D01*
X120421684Y-105278803D01*
X120418174Y-105255142D01*
X120417000Y-105231250D01*
X120417000Y-104318750D01*
X120418174Y-104294858D01*
X120421684Y-104271197D01*
X120427496Y-104247993D01*
X120435554Y-104225471D01*
X120445782Y-104203847D01*
X120458079Y-104183330D01*
X120472329Y-104164117D01*
X120488393Y-104146393D01*
X120506117Y-104130329D01*
X120525330Y-104116079D01*
X120545847Y-104103782D01*
X120567471Y-104093554D01*
X120589993Y-104085496D01*
X120613197Y-104079684D01*
X120636858Y-104076174D01*
X120660750Y-104075000D01*
X121148250Y-104075000D01*
X121172142Y-104076174D01*
X121172142Y-104076174D01*
G37*
D11*
X120904500Y-104775000D03*
D10*
G36*
X121934142Y-89344174D02*
G01*
X121957803Y-89347684D01*
X121981007Y-89353496D01*
X122003529Y-89361554D01*
X122025153Y-89371782D01*
X122045670Y-89384079D01*
X122064883Y-89398329D01*
X122082607Y-89414393D01*
X122098671Y-89432117D01*
X122112921Y-89451330D01*
X122125218Y-89471847D01*
X122135446Y-89493471D01*
X122143504Y-89515993D01*
X122149316Y-89539197D01*
X122152826Y-89562858D01*
X122154000Y-89586750D01*
X122154000Y-90499250D01*
X122152826Y-90523142D01*
X122149316Y-90546803D01*
X122143504Y-90570007D01*
X122135446Y-90592529D01*
X122125218Y-90614153D01*
X122112921Y-90634670D01*
X122098671Y-90653883D01*
X122082607Y-90671607D01*
X122064883Y-90687671D01*
X122045670Y-90701921D01*
X122025153Y-90714218D01*
X122003529Y-90724446D01*
X121981007Y-90732504D01*
X121957803Y-90738316D01*
X121934142Y-90741826D01*
X121910250Y-90743000D01*
X121422750Y-90743000D01*
X121398858Y-90741826D01*
X121375197Y-90738316D01*
X121351993Y-90732504D01*
X121329471Y-90724446D01*
X121307847Y-90714218D01*
X121287330Y-90701921D01*
X121268117Y-90687671D01*
X121250393Y-90671607D01*
X121234329Y-90653883D01*
X121220079Y-90634670D01*
X121207782Y-90614153D01*
X121197554Y-90592529D01*
X121189496Y-90570007D01*
X121183684Y-90546803D01*
X121180174Y-90523142D01*
X121179000Y-90499250D01*
X121179000Y-89586750D01*
X121180174Y-89562858D01*
X121183684Y-89539197D01*
X121189496Y-89515993D01*
X121197554Y-89493471D01*
X121207782Y-89471847D01*
X121220079Y-89451330D01*
X121234329Y-89432117D01*
X121250393Y-89414393D01*
X121268117Y-89398329D01*
X121287330Y-89384079D01*
X121307847Y-89371782D01*
X121329471Y-89361554D01*
X121351993Y-89353496D01*
X121375197Y-89347684D01*
X121398858Y-89344174D01*
X121422750Y-89343000D01*
X121910250Y-89343000D01*
X121934142Y-89344174D01*
X121934142Y-89344174D01*
G37*
D11*
X121666500Y-90043000D03*
D10*
G36*
X123809142Y-89344174D02*
G01*
X123832803Y-89347684D01*
X123856007Y-89353496D01*
X123878529Y-89361554D01*
X123900153Y-89371782D01*
X123920670Y-89384079D01*
X123939883Y-89398329D01*
X123957607Y-89414393D01*
X123973671Y-89432117D01*
X123987921Y-89451330D01*
X124000218Y-89471847D01*
X124010446Y-89493471D01*
X124018504Y-89515993D01*
X124024316Y-89539197D01*
X124027826Y-89562858D01*
X124029000Y-89586750D01*
X124029000Y-90499250D01*
X124027826Y-90523142D01*
X124024316Y-90546803D01*
X124018504Y-90570007D01*
X124010446Y-90592529D01*
X124000218Y-90614153D01*
X123987921Y-90634670D01*
X123973671Y-90653883D01*
X123957607Y-90671607D01*
X123939883Y-90687671D01*
X123920670Y-90701921D01*
X123900153Y-90714218D01*
X123878529Y-90724446D01*
X123856007Y-90732504D01*
X123832803Y-90738316D01*
X123809142Y-90741826D01*
X123785250Y-90743000D01*
X123297750Y-90743000D01*
X123273858Y-90741826D01*
X123250197Y-90738316D01*
X123226993Y-90732504D01*
X123204471Y-90724446D01*
X123182847Y-90714218D01*
X123162330Y-90701921D01*
X123143117Y-90687671D01*
X123125393Y-90671607D01*
X123109329Y-90653883D01*
X123095079Y-90634670D01*
X123082782Y-90614153D01*
X123072554Y-90592529D01*
X123064496Y-90570007D01*
X123058684Y-90546803D01*
X123055174Y-90523142D01*
X123054000Y-90499250D01*
X123054000Y-89586750D01*
X123055174Y-89562858D01*
X123058684Y-89539197D01*
X123064496Y-89515993D01*
X123072554Y-89493471D01*
X123082782Y-89471847D01*
X123095079Y-89451330D01*
X123109329Y-89432117D01*
X123125393Y-89414393D01*
X123143117Y-89398329D01*
X123162330Y-89384079D01*
X123182847Y-89371782D01*
X123204471Y-89361554D01*
X123226993Y-89353496D01*
X123250197Y-89347684D01*
X123273858Y-89344174D01*
X123297750Y-89343000D01*
X123785250Y-89343000D01*
X123809142Y-89344174D01*
X123809142Y-89344174D01*
G37*
D11*
X123541500Y-90043000D03*
D10*
G36*
X121582142Y-111442174D02*
G01*
X121605803Y-111445684D01*
X121629007Y-111451496D01*
X121651529Y-111459554D01*
X121673153Y-111469782D01*
X121693670Y-111482079D01*
X121712883Y-111496329D01*
X121730607Y-111512393D01*
X121746671Y-111530117D01*
X121760921Y-111549330D01*
X121773218Y-111569847D01*
X121783446Y-111591471D01*
X121791504Y-111613993D01*
X121797316Y-111637197D01*
X121800826Y-111660858D01*
X121802000Y-111684750D01*
X121802000Y-112597250D01*
X121800826Y-112621142D01*
X121797316Y-112644803D01*
X121791504Y-112668007D01*
X121783446Y-112690529D01*
X121773218Y-112712153D01*
X121760921Y-112732670D01*
X121746671Y-112751883D01*
X121730607Y-112769607D01*
X121712883Y-112785671D01*
X121693670Y-112799921D01*
X121673153Y-112812218D01*
X121651529Y-112822446D01*
X121629007Y-112830504D01*
X121605803Y-112836316D01*
X121582142Y-112839826D01*
X121558250Y-112841000D01*
X121070750Y-112841000D01*
X121046858Y-112839826D01*
X121023197Y-112836316D01*
X120999993Y-112830504D01*
X120977471Y-112822446D01*
X120955847Y-112812218D01*
X120935330Y-112799921D01*
X120916117Y-112785671D01*
X120898393Y-112769607D01*
X120882329Y-112751883D01*
X120868079Y-112732670D01*
X120855782Y-112712153D01*
X120845554Y-112690529D01*
X120837496Y-112668007D01*
X120831684Y-112644803D01*
X120828174Y-112621142D01*
X120827000Y-112597250D01*
X120827000Y-111684750D01*
X120828174Y-111660858D01*
X120831684Y-111637197D01*
X120837496Y-111613993D01*
X120845554Y-111591471D01*
X120855782Y-111569847D01*
X120868079Y-111549330D01*
X120882329Y-111530117D01*
X120898393Y-111512393D01*
X120916117Y-111496329D01*
X120935330Y-111482079D01*
X120955847Y-111469782D01*
X120977471Y-111459554D01*
X120999993Y-111451496D01*
X121023197Y-111445684D01*
X121046858Y-111442174D01*
X121070750Y-111441000D01*
X121558250Y-111441000D01*
X121582142Y-111442174D01*
X121582142Y-111442174D01*
G37*
D11*
X121314500Y-112141000D03*
D10*
G36*
X123457142Y-111442174D02*
G01*
X123480803Y-111445684D01*
X123504007Y-111451496D01*
X123526529Y-111459554D01*
X123548153Y-111469782D01*
X123568670Y-111482079D01*
X123587883Y-111496329D01*
X123605607Y-111512393D01*
X123621671Y-111530117D01*
X123635921Y-111549330D01*
X123648218Y-111569847D01*
X123658446Y-111591471D01*
X123666504Y-111613993D01*
X123672316Y-111637197D01*
X123675826Y-111660858D01*
X123677000Y-111684750D01*
X123677000Y-112597250D01*
X123675826Y-112621142D01*
X123672316Y-112644803D01*
X123666504Y-112668007D01*
X123658446Y-112690529D01*
X123648218Y-112712153D01*
X123635921Y-112732670D01*
X123621671Y-112751883D01*
X123605607Y-112769607D01*
X123587883Y-112785671D01*
X123568670Y-112799921D01*
X123548153Y-112812218D01*
X123526529Y-112822446D01*
X123504007Y-112830504D01*
X123480803Y-112836316D01*
X123457142Y-112839826D01*
X123433250Y-112841000D01*
X122945750Y-112841000D01*
X122921858Y-112839826D01*
X122898197Y-112836316D01*
X122874993Y-112830504D01*
X122852471Y-112822446D01*
X122830847Y-112812218D01*
X122810330Y-112799921D01*
X122791117Y-112785671D01*
X122773393Y-112769607D01*
X122757329Y-112751883D01*
X122743079Y-112732670D01*
X122730782Y-112712153D01*
X122720554Y-112690529D01*
X122712496Y-112668007D01*
X122706684Y-112644803D01*
X122703174Y-112621142D01*
X122702000Y-112597250D01*
X122702000Y-111684750D01*
X122703174Y-111660858D01*
X122706684Y-111637197D01*
X122712496Y-111613993D01*
X122720554Y-111591471D01*
X122730782Y-111569847D01*
X122743079Y-111549330D01*
X122757329Y-111530117D01*
X122773393Y-111512393D01*
X122791117Y-111496329D01*
X122810330Y-111482079D01*
X122830847Y-111469782D01*
X122852471Y-111459554D01*
X122874993Y-111451496D01*
X122898197Y-111445684D01*
X122921858Y-111442174D01*
X122945750Y-111441000D01*
X123433250Y-111441000D01*
X123457142Y-111442174D01*
X123457142Y-111442174D01*
G37*
D11*
X123189500Y-112141000D03*
D10*
G36*
X117264142Y-104076174D02*
G01*
X117287803Y-104079684D01*
X117311007Y-104085496D01*
X117333529Y-104093554D01*
X117355153Y-104103782D01*
X117375670Y-104116079D01*
X117394883Y-104130329D01*
X117412607Y-104146393D01*
X117428671Y-104164117D01*
X117442921Y-104183330D01*
X117455218Y-104203847D01*
X117465446Y-104225471D01*
X117473504Y-104247993D01*
X117479316Y-104271197D01*
X117482826Y-104294858D01*
X117484000Y-104318750D01*
X117484000Y-105231250D01*
X117482826Y-105255142D01*
X117479316Y-105278803D01*
X117473504Y-105302007D01*
X117465446Y-105324529D01*
X117455218Y-105346153D01*
X117442921Y-105366670D01*
X117428671Y-105385883D01*
X117412607Y-105403607D01*
X117394883Y-105419671D01*
X117375670Y-105433921D01*
X117355153Y-105446218D01*
X117333529Y-105456446D01*
X117311007Y-105464504D01*
X117287803Y-105470316D01*
X117264142Y-105473826D01*
X117240250Y-105475000D01*
X116752750Y-105475000D01*
X116728858Y-105473826D01*
X116705197Y-105470316D01*
X116681993Y-105464504D01*
X116659471Y-105456446D01*
X116637847Y-105446218D01*
X116617330Y-105433921D01*
X116598117Y-105419671D01*
X116580393Y-105403607D01*
X116564329Y-105385883D01*
X116550079Y-105366670D01*
X116537782Y-105346153D01*
X116527554Y-105324529D01*
X116519496Y-105302007D01*
X116513684Y-105278803D01*
X116510174Y-105255142D01*
X116509000Y-105231250D01*
X116509000Y-104318750D01*
X116510174Y-104294858D01*
X116513684Y-104271197D01*
X116519496Y-104247993D01*
X116527554Y-104225471D01*
X116537782Y-104203847D01*
X116550079Y-104183330D01*
X116564329Y-104164117D01*
X116580393Y-104146393D01*
X116598117Y-104130329D01*
X116617330Y-104116079D01*
X116637847Y-104103782D01*
X116659471Y-104093554D01*
X116681993Y-104085496D01*
X116705197Y-104079684D01*
X116728858Y-104076174D01*
X116752750Y-104075000D01*
X117240250Y-104075000D01*
X117264142Y-104076174D01*
X117264142Y-104076174D01*
G37*
D11*
X116996500Y-104775000D03*
D10*
G36*
X119139142Y-104076174D02*
G01*
X119162803Y-104079684D01*
X119186007Y-104085496D01*
X119208529Y-104093554D01*
X119230153Y-104103782D01*
X119250670Y-104116079D01*
X119269883Y-104130329D01*
X119287607Y-104146393D01*
X119303671Y-104164117D01*
X119317921Y-104183330D01*
X119330218Y-104203847D01*
X119340446Y-104225471D01*
X119348504Y-104247993D01*
X119354316Y-104271197D01*
X119357826Y-104294858D01*
X119359000Y-104318750D01*
X119359000Y-105231250D01*
X119357826Y-105255142D01*
X119354316Y-105278803D01*
X119348504Y-105302007D01*
X119340446Y-105324529D01*
X119330218Y-105346153D01*
X119317921Y-105366670D01*
X119303671Y-105385883D01*
X119287607Y-105403607D01*
X119269883Y-105419671D01*
X119250670Y-105433921D01*
X119230153Y-105446218D01*
X119208529Y-105456446D01*
X119186007Y-105464504D01*
X119162803Y-105470316D01*
X119139142Y-105473826D01*
X119115250Y-105475000D01*
X118627750Y-105475000D01*
X118603858Y-105473826D01*
X118580197Y-105470316D01*
X118556993Y-105464504D01*
X118534471Y-105456446D01*
X118512847Y-105446218D01*
X118492330Y-105433921D01*
X118473117Y-105419671D01*
X118455393Y-105403607D01*
X118439329Y-105385883D01*
X118425079Y-105366670D01*
X118412782Y-105346153D01*
X118402554Y-105324529D01*
X118394496Y-105302007D01*
X118388684Y-105278803D01*
X118385174Y-105255142D01*
X118384000Y-105231250D01*
X118384000Y-104318750D01*
X118385174Y-104294858D01*
X118388684Y-104271197D01*
X118394496Y-104247993D01*
X118402554Y-104225471D01*
X118412782Y-104203847D01*
X118425079Y-104183330D01*
X118439329Y-104164117D01*
X118455393Y-104146393D01*
X118473117Y-104130329D01*
X118492330Y-104116079D01*
X118512847Y-104103782D01*
X118534471Y-104093554D01*
X118556993Y-104085496D01*
X118580197Y-104079684D01*
X118603858Y-104076174D01*
X118627750Y-104075000D01*
X119115250Y-104075000D01*
X119139142Y-104076174D01*
X119139142Y-104076174D01*
G37*
D11*
X118871500Y-104775000D03*
D10*
G36*
X182344142Y-106399174D02*
G01*
X182367803Y-106402684D01*
X182391007Y-106408496D01*
X182413529Y-106416554D01*
X182435153Y-106426782D01*
X182455670Y-106439079D01*
X182474883Y-106453329D01*
X182492607Y-106469393D01*
X182508671Y-106487117D01*
X182522921Y-106506330D01*
X182535218Y-106526847D01*
X182545446Y-106548471D01*
X182553504Y-106570993D01*
X182559316Y-106594197D01*
X182562826Y-106617858D01*
X182564000Y-106641750D01*
X182564000Y-107129250D01*
X182562826Y-107153142D01*
X182559316Y-107176803D01*
X182553504Y-107200007D01*
X182545446Y-107222529D01*
X182535218Y-107244153D01*
X182522921Y-107264670D01*
X182508671Y-107283883D01*
X182492607Y-107301607D01*
X182474883Y-107317671D01*
X182455670Y-107331921D01*
X182435153Y-107344218D01*
X182413529Y-107354446D01*
X182391007Y-107362504D01*
X182367803Y-107368316D01*
X182344142Y-107371826D01*
X182320250Y-107373000D01*
X181407750Y-107373000D01*
X181383858Y-107371826D01*
X181360197Y-107368316D01*
X181336993Y-107362504D01*
X181314471Y-107354446D01*
X181292847Y-107344218D01*
X181272330Y-107331921D01*
X181253117Y-107317671D01*
X181235393Y-107301607D01*
X181219329Y-107283883D01*
X181205079Y-107264670D01*
X181192782Y-107244153D01*
X181182554Y-107222529D01*
X181174496Y-107200007D01*
X181168684Y-107176803D01*
X181165174Y-107153142D01*
X181164000Y-107129250D01*
X181164000Y-106641750D01*
X181165174Y-106617858D01*
X181168684Y-106594197D01*
X181174496Y-106570993D01*
X181182554Y-106548471D01*
X181192782Y-106526847D01*
X181205079Y-106506330D01*
X181219329Y-106487117D01*
X181235393Y-106469393D01*
X181253117Y-106453329D01*
X181272330Y-106439079D01*
X181292847Y-106426782D01*
X181314471Y-106416554D01*
X181336993Y-106408496D01*
X181360197Y-106402684D01*
X181383858Y-106399174D01*
X181407750Y-106398000D01*
X182320250Y-106398000D01*
X182344142Y-106399174D01*
X182344142Y-106399174D01*
G37*
D11*
X181864000Y-106885500D03*
D10*
G36*
X182344142Y-108274174D02*
G01*
X182367803Y-108277684D01*
X182391007Y-108283496D01*
X182413529Y-108291554D01*
X182435153Y-108301782D01*
X182455670Y-108314079D01*
X182474883Y-108328329D01*
X182492607Y-108344393D01*
X182508671Y-108362117D01*
X182522921Y-108381330D01*
X182535218Y-108401847D01*
X182545446Y-108423471D01*
X182553504Y-108445993D01*
X182559316Y-108469197D01*
X182562826Y-108492858D01*
X182564000Y-108516750D01*
X182564000Y-109004250D01*
X182562826Y-109028142D01*
X182559316Y-109051803D01*
X182553504Y-109075007D01*
X182545446Y-109097529D01*
X182535218Y-109119153D01*
X182522921Y-109139670D01*
X182508671Y-109158883D01*
X182492607Y-109176607D01*
X182474883Y-109192671D01*
X182455670Y-109206921D01*
X182435153Y-109219218D01*
X182413529Y-109229446D01*
X182391007Y-109237504D01*
X182367803Y-109243316D01*
X182344142Y-109246826D01*
X182320250Y-109248000D01*
X181407750Y-109248000D01*
X181383858Y-109246826D01*
X181360197Y-109243316D01*
X181336993Y-109237504D01*
X181314471Y-109229446D01*
X181292847Y-109219218D01*
X181272330Y-109206921D01*
X181253117Y-109192671D01*
X181235393Y-109176607D01*
X181219329Y-109158883D01*
X181205079Y-109139670D01*
X181192782Y-109119153D01*
X181182554Y-109097529D01*
X181174496Y-109075007D01*
X181168684Y-109051803D01*
X181165174Y-109028142D01*
X181164000Y-109004250D01*
X181164000Y-108516750D01*
X181165174Y-108492858D01*
X181168684Y-108469197D01*
X181174496Y-108445993D01*
X181182554Y-108423471D01*
X181192782Y-108401847D01*
X181205079Y-108381330D01*
X181219329Y-108362117D01*
X181235393Y-108344393D01*
X181253117Y-108328329D01*
X181272330Y-108314079D01*
X181292847Y-108301782D01*
X181314471Y-108291554D01*
X181336993Y-108283496D01*
X181360197Y-108277684D01*
X181383858Y-108274174D01*
X181407750Y-108273000D01*
X182320250Y-108273000D01*
X182344142Y-108274174D01*
X182344142Y-108274174D01*
G37*
D11*
X181864000Y-108760500D03*
D10*
G36*
X182344142Y-104464174D02*
G01*
X182367803Y-104467684D01*
X182391007Y-104473496D01*
X182413529Y-104481554D01*
X182435153Y-104491782D01*
X182455670Y-104504079D01*
X182474883Y-104518329D01*
X182492607Y-104534393D01*
X182508671Y-104552117D01*
X182522921Y-104571330D01*
X182535218Y-104591847D01*
X182545446Y-104613471D01*
X182553504Y-104635993D01*
X182559316Y-104659197D01*
X182562826Y-104682858D01*
X182564000Y-104706750D01*
X182564000Y-105194250D01*
X182562826Y-105218142D01*
X182559316Y-105241803D01*
X182553504Y-105265007D01*
X182545446Y-105287529D01*
X182535218Y-105309153D01*
X182522921Y-105329670D01*
X182508671Y-105348883D01*
X182492607Y-105366607D01*
X182474883Y-105382671D01*
X182455670Y-105396921D01*
X182435153Y-105409218D01*
X182413529Y-105419446D01*
X182391007Y-105427504D01*
X182367803Y-105433316D01*
X182344142Y-105436826D01*
X182320250Y-105438000D01*
X181407750Y-105438000D01*
X181383858Y-105436826D01*
X181360197Y-105433316D01*
X181336993Y-105427504D01*
X181314471Y-105419446D01*
X181292847Y-105409218D01*
X181272330Y-105396921D01*
X181253117Y-105382671D01*
X181235393Y-105366607D01*
X181219329Y-105348883D01*
X181205079Y-105329670D01*
X181192782Y-105309153D01*
X181182554Y-105287529D01*
X181174496Y-105265007D01*
X181168684Y-105241803D01*
X181165174Y-105218142D01*
X181164000Y-105194250D01*
X181164000Y-104706750D01*
X181165174Y-104682858D01*
X181168684Y-104659197D01*
X181174496Y-104635993D01*
X181182554Y-104613471D01*
X181192782Y-104591847D01*
X181205079Y-104571330D01*
X181219329Y-104552117D01*
X181235393Y-104534393D01*
X181253117Y-104518329D01*
X181272330Y-104504079D01*
X181292847Y-104491782D01*
X181314471Y-104481554D01*
X181336993Y-104473496D01*
X181360197Y-104467684D01*
X181383858Y-104464174D01*
X181407750Y-104463000D01*
X182320250Y-104463000D01*
X182344142Y-104464174D01*
X182344142Y-104464174D01*
G37*
D11*
X181864000Y-104950500D03*
D10*
G36*
X182344142Y-102589174D02*
G01*
X182367803Y-102592684D01*
X182391007Y-102598496D01*
X182413529Y-102606554D01*
X182435153Y-102616782D01*
X182455670Y-102629079D01*
X182474883Y-102643329D01*
X182492607Y-102659393D01*
X182508671Y-102677117D01*
X182522921Y-102696330D01*
X182535218Y-102716847D01*
X182545446Y-102738471D01*
X182553504Y-102760993D01*
X182559316Y-102784197D01*
X182562826Y-102807858D01*
X182564000Y-102831750D01*
X182564000Y-103319250D01*
X182562826Y-103343142D01*
X182559316Y-103366803D01*
X182553504Y-103390007D01*
X182545446Y-103412529D01*
X182535218Y-103434153D01*
X182522921Y-103454670D01*
X182508671Y-103473883D01*
X182492607Y-103491607D01*
X182474883Y-103507671D01*
X182455670Y-103521921D01*
X182435153Y-103534218D01*
X182413529Y-103544446D01*
X182391007Y-103552504D01*
X182367803Y-103558316D01*
X182344142Y-103561826D01*
X182320250Y-103563000D01*
X181407750Y-103563000D01*
X181383858Y-103561826D01*
X181360197Y-103558316D01*
X181336993Y-103552504D01*
X181314471Y-103544446D01*
X181292847Y-103534218D01*
X181272330Y-103521921D01*
X181253117Y-103507671D01*
X181235393Y-103491607D01*
X181219329Y-103473883D01*
X181205079Y-103454670D01*
X181192782Y-103434153D01*
X181182554Y-103412529D01*
X181174496Y-103390007D01*
X181168684Y-103366803D01*
X181165174Y-103343142D01*
X181164000Y-103319250D01*
X181164000Y-102831750D01*
X181165174Y-102807858D01*
X181168684Y-102784197D01*
X181174496Y-102760993D01*
X181182554Y-102738471D01*
X181192782Y-102716847D01*
X181205079Y-102696330D01*
X181219329Y-102677117D01*
X181235393Y-102659393D01*
X181253117Y-102643329D01*
X181272330Y-102629079D01*
X181292847Y-102616782D01*
X181314471Y-102606554D01*
X181336993Y-102598496D01*
X181360197Y-102592684D01*
X181383858Y-102589174D01*
X181407750Y-102588000D01*
X182320250Y-102588000D01*
X182344142Y-102589174D01*
X182344142Y-102589174D01*
G37*
D11*
X181864000Y-103075500D03*
D10*
G36*
X196060142Y-108703174D02*
G01*
X196083803Y-108706684D01*
X196107007Y-108712496D01*
X196129529Y-108720554D01*
X196151153Y-108730782D01*
X196171670Y-108743079D01*
X196190883Y-108757329D01*
X196208607Y-108773393D01*
X196224671Y-108791117D01*
X196238921Y-108810330D01*
X196251218Y-108830847D01*
X196261446Y-108852471D01*
X196269504Y-108874993D01*
X196275316Y-108898197D01*
X196278826Y-108921858D01*
X196280000Y-108945750D01*
X196280000Y-109433250D01*
X196278826Y-109457142D01*
X196275316Y-109480803D01*
X196269504Y-109504007D01*
X196261446Y-109526529D01*
X196251218Y-109548153D01*
X196238921Y-109568670D01*
X196224671Y-109587883D01*
X196208607Y-109605607D01*
X196190883Y-109621671D01*
X196171670Y-109635921D01*
X196151153Y-109648218D01*
X196129529Y-109658446D01*
X196107007Y-109666504D01*
X196083803Y-109672316D01*
X196060142Y-109675826D01*
X196036250Y-109677000D01*
X195123750Y-109677000D01*
X195099858Y-109675826D01*
X195076197Y-109672316D01*
X195052993Y-109666504D01*
X195030471Y-109658446D01*
X195008847Y-109648218D01*
X194988330Y-109635921D01*
X194969117Y-109621671D01*
X194951393Y-109605607D01*
X194935329Y-109587883D01*
X194921079Y-109568670D01*
X194908782Y-109548153D01*
X194898554Y-109526529D01*
X194890496Y-109504007D01*
X194884684Y-109480803D01*
X194881174Y-109457142D01*
X194880000Y-109433250D01*
X194880000Y-108945750D01*
X194881174Y-108921858D01*
X194884684Y-108898197D01*
X194890496Y-108874993D01*
X194898554Y-108852471D01*
X194908782Y-108830847D01*
X194921079Y-108810330D01*
X194935329Y-108791117D01*
X194951393Y-108773393D01*
X194969117Y-108757329D01*
X194988330Y-108743079D01*
X195008847Y-108730782D01*
X195030471Y-108720554D01*
X195052993Y-108712496D01*
X195076197Y-108706684D01*
X195099858Y-108703174D01*
X195123750Y-108702000D01*
X196036250Y-108702000D01*
X196060142Y-108703174D01*
X196060142Y-108703174D01*
G37*
D11*
X195580000Y-109189500D03*
D10*
G36*
X196060142Y-106828174D02*
G01*
X196083803Y-106831684D01*
X196107007Y-106837496D01*
X196129529Y-106845554D01*
X196151153Y-106855782D01*
X196171670Y-106868079D01*
X196190883Y-106882329D01*
X196208607Y-106898393D01*
X196224671Y-106916117D01*
X196238921Y-106935330D01*
X196251218Y-106955847D01*
X196261446Y-106977471D01*
X196269504Y-106999993D01*
X196275316Y-107023197D01*
X196278826Y-107046858D01*
X196280000Y-107070750D01*
X196280000Y-107558250D01*
X196278826Y-107582142D01*
X196275316Y-107605803D01*
X196269504Y-107629007D01*
X196261446Y-107651529D01*
X196251218Y-107673153D01*
X196238921Y-107693670D01*
X196224671Y-107712883D01*
X196208607Y-107730607D01*
X196190883Y-107746671D01*
X196171670Y-107760921D01*
X196151153Y-107773218D01*
X196129529Y-107783446D01*
X196107007Y-107791504D01*
X196083803Y-107797316D01*
X196060142Y-107800826D01*
X196036250Y-107802000D01*
X195123750Y-107802000D01*
X195099858Y-107800826D01*
X195076197Y-107797316D01*
X195052993Y-107791504D01*
X195030471Y-107783446D01*
X195008847Y-107773218D01*
X194988330Y-107760921D01*
X194969117Y-107746671D01*
X194951393Y-107730607D01*
X194935329Y-107712883D01*
X194921079Y-107693670D01*
X194908782Y-107673153D01*
X194898554Y-107651529D01*
X194890496Y-107629007D01*
X194884684Y-107605803D01*
X194881174Y-107582142D01*
X194880000Y-107558250D01*
X194880000Y-107070750D01*
X194881174Y-107046858D01*
X194884684Y-107023197D01*
X194890496Y-106999993D01*
X194898554Y-106977471D01*
X194908782Y-106955847D01*
X194921079Y-106935330D01*
X194935329Y-106916117D01*
X194951393Y-106898393D01*
X194969117Y-106882329D01*
X194988330Y-106868079D01*
X195008847Y-106855782D01*
X195030471Y-106845554D01*
X195052993Y-106837496D01*
X195076197Y-106831684D01*
X195099858Y-106828174D01*
X195123750Y-106827000D01*
X196036250Y-106827000D01*
X196060142Y-106828174D01*
X196060142Y-106828174D01*
G37*
D11*
X195580000Y-107314500D03*
D10*
G36*
X131036142Y-98319674D02*
G01*
X131059803Y-98323184D01*
X131083007Y-98328996D01*
X131105529Y-98337054D01*
X131127153Y-98347282D01*
X131147670Y-98359579D01*
X131166883Y-98373829D01*
X131184607Y-98389893D01*
X131200671Y-98407617D01*
X131214921Y-98426830D01*
X131227218Y-98447347D01*
X131237446Y-98468971D01*
X131245504Y-98491493D01*
X131251316Y-98514697D01*
X131254826Y-98538358D01*
X131256000Y-98562250D01*
X131256000Y-99049750D01*
X131254826Y-99073642D01*
X131251316Y-99097303D01*
X131245504Y-99120507D01*
X131237446Y-99143029D01*
X131227218Y-99164653D01*
X131214921Y-99185170D01*
X131200671Y-99204383D01*
X131184607Y-99222107D01*
X131166883Y-99238171D01*
X131147670Y-99252421D01*
X131127153Y-99264718D01*
X131105529Y-99274946D01*
X131083007Y-99283004D01*
X131059803Y-99288816D01*
X131036142Y-99292326D01*
X131012250Y-99293500D01*
X130099750Y-99293500D01*
X130075858Y-99292326D01*
X130052197Y-99288816D01*
X130028993Y-99283004D01*
X130006471Y-99274946D01*
X129984847Y-99264718D01*
X129964330Y-99252421D01*
X129945117Y-99238171D01*
X129927393Y-99222107D01*
X129911329Y-99204383D01*
X129897079Y-99185170D01*
X129884782Y-99164653D01*
X129874554Y-99143029D01*
X129866496Y-99120507D01*
X129860684Y-99097303D01*
X129857174Y-99073642D01*
X129856000Y-99049750D01*
X129856000Y-98562250D01*
X129857174Y-98538358D01*
X129860684Y-98514697D01*
X129866496Y-98491493D01*
X129874554Y-98468971D01*
X129884782Y-98447347D01*
X129897079Y-98426830D01*
X129911329Y-98407617D01*
X129927393Y-98389893D01*
X129945117Y-98373829D01*
X129964330Y-98359579D01*
X129984847Y-98347282D01*
X130006471Y-98337054D01*
X130028993Y-98328996D01*
X130052197Y-98323184D01*
X130075858Y-98319674D01*
X130099750Y-98318500D01*
X131012250Y-98318500D01*
X131036142Y-98319674D01*
X131036142Y-98319674D01*
G37*
D11*
X130556000Y-98806000D03*
D10*
G36*
X131036142Y-96444674D02*
G01*
X131059803Y-96448184D01*
X131083007Y-96453996D01*
X131105529Y-96462054D01*
X131127153Y-96472282D01*
X131147670Y-96484579D01*
X131166883Y-96498829D01*
X131184607Y-96514893D01*
X131200671Y-96532617D01*
X131214921Y-96551830D01*
X131227218Y-96572347D01*
X131237446Y-96593971D01*
X131245504Y-96616493D01*
X131251316Y-96639697D01*
X131254826Y-96663358D01*
X131256000Y-96687250D01*
X131256000Y-97174750D01*
X131254826Y-97198642D01*
X131251316Y-97222303D01*
X131245504Y-97245507D01*
X131237446Y-97268029D01*
X131227218Y-97289653D01*
X131214921Y-97310170D01*
X131200671Y-97329383D01*
X131184607Y-97347107D01*
X131166883Y-97363171D01*
X131147670Y-97377421D01*
X131127153Y-97389718D01*
X131105529Y-97399946D01*
X131083007Y-97408004D01*
X131059803Y-97413816D01*
X131036142Y-97417326D01*
X131012250Y-97418500D01*
X130099750Y-97418500D01*
X130075858Y-97417326D01*
X130052197Y-97413816D01*
X130028993Y-97408004D01*
X130006471Y-97399946D01*
X129984847Y-97389718D01*
X129964330Y-97377421D01*
X129945117Y-97363171D01*
X129927393Y-97347107D01*
X129911329Y-97329383D01*
X129897079Y-97310170D01*
X129884782Y-97289653D01*
X129874554Y-97268029D01*
X129866496Y-97245507D01*
X129860684Y-97222303D01*
X129857174Y-97198642D01*
X129856000Y-97174750D01*
X129856000Y-96687250D01*
X129857174Y-96663358D01*
X129860684Y-96639697D01*
X129866496Y-96616493D01*
X129874554Y-96593971D01*
X129884782Y-96572347D01*
X129897079Y-96551830D01*
X129911329Y-96532617D01*
X129927393Y-96514893D01*
X129945117Y-96498829D01*
X129964330Y-96484579D01*
X129984847Y-96472282D01*
X130006471Y-96462054D01*
X130028993Y-96453996D01*
X130052197Y-96448184D01*
X130075858Y-96444674D01*
X130099750Y-96443500D01*
X131012250Y-96443500D01*
X131036142Y-96444674D01*
X131036142Y-96444674D01*
G37*
D11*
X130556000Y-96931000D03*
D10*
G36*
X133068142Y-98319674D02*
G01*
X133091803Y-98323184D01*
X133115007Y-98328996D01*
X133137529Y-98337054D01*
X133159153Y-98347282D01*
X133179670Y-98359579D01*
X133198883Y-98373829D01*
X133216607Y-98389893D01*
X133232671Y-98407617D01*
X133246921Y-98426830D01*
X133259218Y-98447347D01*
X133269446Y-98468971D01*
X133277504Y-98491493D01*
X133283316Y-98514697D01*
X133286826Y-98538358D01*
X133288000Y-98562250D01*
X133288000Y-99049750D01*
X133286826Y-99073642D01*
X133283316Y-99097303D01*
X133277504Y-99120507D01*
X133269446Y-99143029D01*
X133259218Y-99164653D01*
X133246921Y-99185170D01*
X133232671Y-99204383D01*
X133216607Y-99222107D01*
X133198883Y-99238171D01*
X133179670Y-99252421D01*
X133159153Y-99264718D01*
X133137529Y-99274946D01*
X133115007Y-99283004D01*
X133091803Y-99288816D01*
X133068142Y-99292326D01*
X133044250Y-99293500D01*
X132131750Y-99293500D01*
X132107858Y-99292326D01*
X132084197Y-99288816D01*
X132060993Y-99283004D01*
X132038471Y-99274946D01*
X132016847Y-99264718D01*
X131996330Y-99252421D01*
X131977117Y-99238171D01*
X131959393Y-99222107D01*
X131943329Y-99204383D01*
X131929079Y-99185170D01*
X131916782Y-99164653D01*
X131906554Y-99143029D01*
X131898496Y-99120507D01*
X131892684Y-99097303D01*
X131889174Y-99073642D01*
X131888000Y-99049750D01*
X131888000Y-98562250D01*
X131889174Y-98538358D01*
X131892684Y-98514697D01*
X131898496Y-98491493D01*
X131906554Y-98468971D01*
X131916782Y-98447347D01*
X131929079Y-98426830D01*
X131943329Y-98407617D01*
X131959393Y-98389893D01*
X131977117Y-98373829D01*
X131996330Y-98359579D01*
X132016847Y-98347282D01*
X132038471Y-98337054D01*
X132060993Y-98328996D01*
X132084197Y-98323184D01*
X132107858Y-98319674D01*
X132131750Y-98318500D01*
X133044250Y-98318500D01*
X133068142Y-98319674D01*
X133068142Y-98319674D01*
G37*
D11*
X132588000Y-98806000D03*
D10*
G36*
X133068142Y-96444674D02*
G01*
X133091803Y-96448184D01*
X133115007Y-96453996D01*
X133137529Y-96462054D01*
X133159153Y-96472282D01*
X133179670Y-96484579D01*
X133198883Y-96498829D01*
X133216607Y-96514893D01*
X133232671Y-96532617D01*
X133246921Y-96551830D01*
X133259218Y-96572347D01*
X133269446Y-96593971D01*
X133277504Y-96616493D01*
X133283316Y-96639697D01*
X133286826Y-96663358D01*
X133288000Y-96687250D01*
X133288000Y-97174750D01*
X133286826Y-97198642D01*
X133283316Y-97222303D01*
X133277504Y-97245507D01*
X133269446Y-97268029D01*
X133259218Y-97289653D01*
X133246921Y-97310170D01*
X133232671Y-97329383D01*
X133216607Y-97347107D01*
X133198883Y-97363171D01*
X133179670Y-97377421D01*
X133159153Y-97389718D01*
X133137529Y-97399946D01*
X133115007Y-97408004D01*
X133091803Y-97413816D01*
X133068142Y-97417326D01*
X133044250Y-97418500D01*
X132131750Y-97418500D01*
X132107858Y-97417326D01*
X132084197Y-97413816D01*
X132060993Y-97408004D01*
X132038471Y-97399946D01*
X132016847Y-97389718D01*
X131996330Y-97377421D01*
X131977117Y-97363171D01*
X131959393Y-97347107D01*
X131943329Y-97329383D01*
X131929079Y-97310170D01*
X131916782Y-97289653D01*
X131906554Y-97268029D01*
X131898496Y-97245507D01*
X131892684Y-97222303D01*
X131889174Y-97198642D01*
X131888000Y-97174750D01*
X131888000Y-96687250D01*
X131889174Y-96663358D01*
X131892684Y-96639697D01*
X131898496Y-96616493D01*
X131906554Y-96593971D01*
X131916782Y-96572347D01*
X131929079Y-96551830D01*
X131943329Y-96532617D01*
X131959393Y-96514893D01*
X131977117Y-96498829D01*
X131996330Y-96484579D01*
X132016847Y-96472282D01*
X132038471Y-96462054D01*
X132060993Y-96453996D01*
X132084197Y-96448184D01*
X132107858Y-96444674D01*
X132131750Y-96443500D01*
X133044250Y-96443500D01*
X133068142Y-96444674D01*
X133068142Y-96444674D01*
G37*
D11*
X132588000Y-96931000D03*
D10*
G36*
X142466142Y-90318674D02*
G01*
X142489803Y-90322184D01*
X142513007Y-90327996D01*
X142535529Y-90336054D01*
X142557153Y-90346282D01*
X142577670Y-90358579D01*
X142596883Y-90372829D01*
X142614607Y-90388893D01*
X142630671Y-90406617D01*
X142644921Y-90425830D01*
X142657218Y-90446347D01*
X142667446Y-90467971D01*
X142675504Y-90490493D01*
X142681316Y-90513697D01*
X142684826Y-90537358D01*
X142686000Y-90561250D01*
X142686000Y-91048750D01*
X142684826Y-91072642D01*
X142681316Y-91096303D01*
X142675504Y-91119507D01*
X142667446Y-91142029D01*
X142657218Y-91163653D01*
X142644921Y-91184170D01*
X142630671Y-91203383D01*
X142614607Y-91221107D01*
X142596883Y-91237171D01*
X142577670Y-91251421D01*
X142557153Y-91263718D01*
X142535529Y-91273946D01*
X142513007Y-91282004D01*
X142489803Y-91287816D01*
X142466142Y-91291326D01*
X142442250Y-91292500D01*
X141529750Y-91292500D01*
X141505858Y-91291326D01*
X141482197Y-91287816D01*
X141458993Y-91282004D01*
X141436471Y-91273946D01*
X141414847Y-91263718D01*
X141394330Y-91251421D01*
X141375117Y-91237171D01*
X141357393Y-91221107D01*
X141341329Y-91203383D01*
X141327079Y-91184170D01*
X141314782Y-91163653D01*
X141304554Y-91142029D01*
X141296496Y-91119507D01*
X141290684Y-91096303D01*
X141287174Y-91072642D01*
X141286000Y-91048750D01*
X141286000Y-90561250D01*
X141287174Y-90537358D01*
X141290684Y-90513697D01*
X141296496Y-90490493D01*
X141304554Y-90467971D01*
X141314782Y-90446347D01*
X141327079Y-90425830D01*
X141341329Y-90406617D01*
X141357393Y-90388893D01*
X141375117Y-90372829D01*
X141394330Y-90358579D01*
X141414847Y-90346282D01*
X141436471Y-90336054D01*
X141458993Y-90327996D01*
X141482197Y-90322184D01*
X141505858Y-90318674D01*
X141529750Y-90317500D01*
X142442250Y-90317500D01*
X142466142Y-90318674D01*
X142466142Y-90318674D01*
G37*
D11*
X141986000Y-90805000D03*
D10*
G36*
X142466142Y-92193674D02*
G01*
X142489803Y-92197184D01*
X142513007Y-92202996D01*
X142535529Y-92211054D01*
X142557153Y-92221282D01*
X142577670Y-92233579D01*
X142596883Y-92247829D01*
X142614607Y-92263893D01*
X142630671Y-92281617D01*
X142644921Y-92300830D01*
X142657218Y-92321347D01*
X142667446Y-92342971D01*
X142675504Y-92365493D01*
X142681316Y-92388697D01*
X142684826Y-92412358D01*
X142686000Y-92436250D01*
X142686000Y-92923750D01*
X142684826Y-92947642D01*
X142681316Y-92971303D01*
X142675504Y-92994507D01*
X142667446Y-93017029D01*
X142657218Y-93038653D01*
X142644921Y-93059170D01*
X142630671Y-93078383D01*
X142614607Y-93096107D01*
X142596883Y-93112171D01*
X142577670Y-93126421D01*
X142557153Y-93138718D01*
X142535529Y-93148946D01*
X142513007Y-93157004D01*
X142489803Y-93162816D01*
X142466142Y-93166326D01*
X142442250Y-93167500D01*
X141529750Y-93167500D01*
X141505858Y-93166326D01*
X141482197Y-93162816D01*
X141458993Y-93157004D01*
X141436471Y-93148946D01*
X141414847Y-93138718D01*
X141394330Y-93126421D01*
X141375117Y-93112171D01*
X141357393Y-93096107D01*
X141341329Y-93078383D01*
X141327079Y-93059170D01*
X141314782Y-93038653D01*
X141304554Y-93017029D01*
X141296496Y-92994507D01*
X141290684Y-92971303D01*
X141287174Y-92947642D01*
X141286000Y-92923750D01*
X141286000Y-92436250D01*
X141287174Y-92412358D01*
X141290684Y-92388697D01*
X141296496Y-92365493D01*
X141304554Y-92342971D01*
X141314782Y-92321347D01*
X141327079Y-92300830D01*
X141341329Y-92281617D01*
X141357393Y-92263893D01*
X141375117Y-92247829D01*
X141394330Y-92233579D01*
X141414847Y-92221282D01*
X141436471Y-92211054D01*
X141458993Y-92202996D01*
X141482197Y-92197184D01*
X141505858Y-92193674D01*
X141529750Y-92192500D01*
X142442250Y-92192500D01*
X142466142Y-92193674D01*
X142466142Y-92193674D01*
G37*
D11*
X141986000Y-92680000D03*
D10*
G36*
X139672142Y-92350674D02*
G01*
X139695803Y-92354184D01*
X139719007Y-92359996D01*
X139741529Y-92368054D01*
X139763153Y-92378282D01*
X139783670Y-92390579D01*
X139802883Y-92404829D01*
X139820607Y-92420893D01*
X139836671Y-92438617D01*
X139850921Y-92457830D01*
X139863218Y-92478347D01*
X139873446Y-92499971D01*
X139881504Y-92522493D01*
X139887316Y-92545697D01*
X139890826Y-92569358D01*
X139892000Y-92593250D01*
X139892000Y-93080750D01*
X139890826Y-93104642D01*
X139887316Y-93128303D01*
X139881504Y-93151507D01*
X139873446Y-93174029D01*
X139863218Y-93195653D01*
X139850921Y-93216170D01*
X139836671Y-93235383D01*
X139820607Y-93253107D01*
X139802883Y-93269171D01*
X139783670Y-93283421D01*
X139763153Y-93295718D01*
X139741529Y-93305946D01*
X139719007Y-93314004D01*
X139695803Y-93319816D01*
X139672142Y-93323326D01*
X139648250Y-93324500D01*
X138735750Y-93324500D01*
X138711858Y-93323326D01*
X138688197Y-93319816D01*
X138664993Y-93314004D01*
X138642471Y-93305946D01*
X138620847Y-93295718D01*
X138600330Y-93283421D01*
X138581117Y-93269171D01*
X138563393Y-93253107D01*
X138547329Y-93235383D01*
X138533079Y-93216170D01*
X138520782Y-93195653D01*
X138510554Y-93174029D01*
X138502496Y-93151507D01*
X138496684Y-93128303D01*
X138493174Y-93104642D01*
X138492000Y-93080750D01*
X138492000Y-92593250D01*
X138493174Y-92569358D01*
X138496684Y-92545697D01*
X138502496Y-92522493D01*
X138510554Y-92499971D01*
X138520782Y-92478347D01*
X138533079Y-92457830D01*
X138547329Y-92438617D01*
X138563393Y-92420893D01*
X138581117Y-92404829D01*
X138600330Y-92390579D01*
X138620847Y-92378282D01*
X138642471Y-92368054D01*
X138664993Y-92359996D01*
X138688197Y-92354184D01*
X138711858Y-92350674D01*
X138735750Y-92349500D01*
X139648250Y-92349500D01*
X139672142Y-92350674D01*
X139672142Y-92350674D01*
G37*
D11*
X139192000Y-92837000D03*
D10*
G36*
X139672142Y-90475674D02*
G01*
X139695803Y-90479184D01*
X139719007Y-90484996D01*
X139741529Y-90493054D01*
X139763153Y-90503282D01*
X139783670Y-90515579D01*
X139802883Y-90529829D01*
X139820607Y-90545893D01*
X139836671Y-90563617D01*
X139850921Y-90582830D01*
X139863218Y-90603347D01*
X139873446Y-90624971D01*
X139881504Y-90647493D01*
X139887316Y-90670697D01*
X139890826Y-90694358D01*
X139892000Y-90718250D01*
X139892000Y-91205750D01*
X139890826Y-91229642D01*
X139887316Y-91253303D01*
X139881504Y-91276507D01*
X139873446Y-91299029D01*
X139863218Y-91320653D01*
X139850921Y-91341170D01*
X139836671Y-91360383D01*
X139820607Y-91378107D01*
X139802883Y-91394171D01*
X139783670Y-91408421D01*
X139763153Y-91420718D01*
X139741529Y-91430946D01*
X139719007Y-91439004D01*
X139695803Y-91444816D01*
X139672142Y-91448326D01*
X139648250Y-91449500D01*
X138735750Y-91449500D01*
X138711858Y-91448326D01*
X138688197Y-91444816D01*
X138664993Y-91439004D01*
X138642471Y-91430946D01*
X138620847Y-91420718D01*
X138600330Y-91408421D01*
X138581117Y-91394171D01*
X138563393Y-91378107D01*
X138547329Y-91360383D01*
X138533079Y-91341170D01*
X138520782Y-91320653D01*
X138510554Y-91299029D01*
X138502496Y-91276507D01*
X138496684Y-91253303D01*
X138493174Y-91229642D01*
X138492000Y-91205750D01*
X138492000Y-90718250D01*
X138493174Y-90694358D01*
X138496684Y-90670697D01*
X138502496Y-90647493D01*
X138510554Y-90624971D01*
X138520782Y-90603347D01*
X138533079Y-90582830D01*
X138547329Y-90563617D01*
X138563393Y-90545893D01*
X138581117Y-90529829D01*
X138600330Y-90515579D01*
X138620847Y-90503282D01*
X138642471Y-90493054D01*
X138664993Y-90484996D01*
X138688197Y-90479184D01*
X138711858Y-90475674D01*
X138735750Y-90474500D01*
X139648250Y-90474500D01*
X139672142Y-90475674D01*
X139672142Y-90475674D01*
G37*
D11*
X139192000Y-90962000D03*
D10*
G36*
X152843142Y-89852174D02*
G01*
X152866803Y-89855684D01*
X152890007Y-89861496D01*
X152912529Y-89869554D01*
X152934153Y-89879782D01*
X152954670Y-89892079D01*
X152973883Y-89906329D01*
X152991607Y-89922393D01*
X153007671Y-89940117D01*
X153021921Y-89959330D01*
X153034218Y-89979847D01*
X153044446Y-90001471D01*
X153052504Y-90023993D01*
X153058316Y-90047197D01*
X153061826Y-90070858D01*
X153063000Y-90094750D01*
X153063000Y-91007250D01*
X153061826Y-91031142D01*
X153058316Y-91054803D01*
X153052504Y-91078007D01*
X153044446Y-91100529D01*
X153034218Y-91122153D01*
X153021921Y-91142670D01*
X153007671Y-91161883D01*
X152991607Y-91179607D01*
X152973883Y-91195671D01*
X152954670Y-91209921D01*
X152934153Y-91222218D01*
X152912529Y-91232446D01*
X152890007Y-91240504D01*
X152866803Y-91246316D01*
X152843142Y-91249826D01*
X152819250Y-91251000D01*
X152331750Y-91251000D01*
X152307858Y-91249826D01*
X152284197Y-91246316D01*
X152260993Y-91240504D01*
X152238471Y-91232446D01*
X152216847Y-91222218D01*
X152196330Y-91209921D01*
X152177117Y-91195671D01*
X152159393Y-91179607D01*
X152143329Y-91161883D01*
X152129079Y-91142670D01*
X152116782Y-91122153D01*
X152106554Y-91100529D01*
X152098496Y-91078007D01*
X152092684Y-91054803D01*
X152089174Y-91031142D01*
X152088000Y-91007250D01*
X152088000Y-90094750D01*
X152089174Y-90070858D01*
X152092684Y-90047197D01*
X152098496Y-90023993D01*
X152106554Y-90001471D01*
X152116782Y-89979847D01*
X152129079Y-89959330D01*
X152143329Y-89940117D01*
X152159393Y-89922393D01*
X152177117Y-89906329D01*
X152196330Y-89892079D01*
X152216847Y-89879782D01*
X152238471Y-89869554D01*
X152260993Y-89861496D01*
X152284197Y-89855684D01*
X152307858Y-89852174D01*
X152331750Y-89851000D01*
X152819250Y-89851000D01*
X152843142Y-89852174D01*
X152843142Y-89852174D01*
G37*
D11*
X152575500Y-90551000D03*
D10*
G36*
X150968142Y-89852174D02*
G01*
X150991803Y-89855684D01*
X151015007Y-89861496D01*
X151037529Y-89869554D01*
X151059153Y-89879782D01*
X151079670Y-89892079D01*
X151098883Y-89906329D01*
X151116607Y-89922393D01*
X151132671Y-89940117D01*
X151146921Y-89959330D01*
X151159218Y-89979847D01*
X151169446Y-90001471D01*
X151177504Y-90023993D01*
X151183316Y-90047197D01*
X151186826Y-90070858D01*
X151188000Y-90094750D01*
X151188000Y-91007250D01*
X151186826Y-91031142D01*
X151183316Y-91054803D01*
X151177504Y-91078007D01*
X151169446Y-91100529D01*
X151159218Y-91122153D01*
X151146921Y-91142670D01*
X151132671Y-91161883D01*
X151116607Y-91179607D01*
X151098883Y-91195671D01*
X151079670Y-91209921D01*
X151059153Y-91222218D01*
X151037529Y-91232446D01*
X151015007Y-91240504D01*
X150991803Y-91246316D01*
X150968142Y-91249826D01*
X150944250Y-91251000D01*
X150456750Y-91251000D01*
X150432858Y-91249826D01*
X150409197Y-91246316D01*
X150385993Y-91240504D01*
X150363471Y-91232446D01*
X150341847Y-91222218D01*
X150321330Y-91209921D01*
X150302117Y-91195671D01*
X150284393Y-91179607D01*
X150268329Y-91161883D01*
X150254079Y-91142670D01*
X150241782Y-91122153D01*
X150231554Y-91100529D01*
X150223496Y-91078007D01*
X150217684Y-91054803D01*
X150214174Y-91031142D01*
X150213000Y-91007250D01*
X150213000Y-90094750D01*
X150214174Y-90070858D01*
X150217684Y-90047197D01*
X150223496Y-90023993D01*
X150231554Y-90001471D01*
X150241782Y-89979847D01*
X150254079Y-89959330D01*
X150268329Y-89940117D01*
X150284393Y-89922393D01*
X150302117Y-89906329D01*
X150321330Y-89892079D01*
X150341847Y-89879782D01*
X150363471Y-89869554D01*
X150385993Y-89861496D01*
X150409197Y-89855684D01*
X150432858Y-89852174D01*
X150456750Y-89851000D01*
X150944250Y-89851000D01*
X150968142Y-89852174D01*
X150968142Y-89852174D01*
G37*
D11*
X150700500Y-90551000D03*
D10*
G36*
X129681142Y-89725174D02*
G01*
X129704803Y-89728684D01*
X129728007Y-89734496D01*
X129750529Y-89742554D01*
X129772153Y-89752782D01*
X129792670Y-89765079D01*
X129811883Y-89779329D01*
X129829607Y-89795393D01*
X129845671Y-89813117D01*
X129859921Y-89832330D01*
X129872218Y-89852847D01*
X129882446Y-89874471D01*
X129890504Y-89896993D01*
X129896316Y-89920197D01*
X129899826Y-89943858D01*
X129901000Y-89967750D01*
X129901000Y-90880250D01*
X129899826Y-90904142D01*
X129896316Y-90927803D01*
X129890504Y-90951007D01*
X129882446Y-90973529D01*
X129872218Y-90995153D01*
X129859921Y-91015670D01*
X129845671Y-91034883D01*
X129829607Y-91052607D01*
X129811883Y-91068671D01*
X129792670Y-91082921D01*
X129772153Y-91095218D01*
X129750529Y-91105446D01*
X129728007Y-91113504D01*
X129704803Y-91119316D01*
X129681142Y-91122826D01*
X129657250Y-91124000D01*
X129169750Y-91124000D01*
X129145858Y-91122826D01*
X129122197Y-91119316D01*
X129098993Y-91113504D01*
X129076471Y-91105446D01*
X129054847Y-91095218D01*
X129034330Y-91082921D01*
X129015117Y-91068671D01*
X128997393Y-91052607D01*
X128981329Y-91034883D01*
X128967079Y-91015670D01*
X128954782Y-90995153D01*
X128944554Y-90973529D01*
X128936496Y-90951007D01*
X128930684Y-90927803D01*
X128927174Y-90904142D01*
X128926000Y-90880250D01*
X128926000Y-89967750D01*
X128927174Y-89943858D01*
X128930684Y-89920197D01*
X128936496Y-89896993D01*
X128944554Y-89874471D01*
X128954782Y-89852847D01*
X128967079Y-89832330D01*
X128981329Y-89813117D01*
X128997393Y-89795393D01*
X129015117Y-89779329D01*
X129034330Y-89765079D01*
X129054847Y-89752782D01*
X129076471Y-89742554D01*
X129098993Y-89734496D01*
X129122197Y-89728684D01*
X129145858Y-89725174D01*
X129169750Y-89724000D01*
X129657250Y-89724000D01*
X129681142Y-89725174D01*
X129681142Y-89725174D01*
G37*
D11*
X129413500Y-90424000D03*
D10*
G36*
X131556142Y-89725174D02*
G01*
X131579803Y-89728684D01*
X131603007Y-89734496D01*
X131625529Y-89742554D01*
X131647153Y-89752782D01*
X131667670Y-89765079D01*
X131686883Y-89779329D01*
X131704607Y-89795393D01*
X131720671Y-89813117D01*
X131734921Y-89832330D01*
X131747218Y-89852847D01*
X131757446Y-89874471D01*
X131765504Y-89896993D01*
X131771316Y-89920197D01*
X131774826Y-89943858D01*
X131776000Y-89967750D01*
X131776000Y-90880250D01*
X131774826Y-90904142D01*
X131771316Y-90927803D01*
X131765504Y-90951007D01*
X131757446Y-90973529D01*
X131747218Y-90995153D01*
X131734921Y-91015670D01*
X131720671Y-91034883D01*
X131704607Y-91052607D01*
X131686883Y-91068671D01*
X131667670Y-91082921D01*
X131647153Y-91095218D01*
X131625529Y-91105446D01*
X131603007Y-91113504D01*
X131579803Y-91119316D01*
X131556142Y-91122826D01*
X131532250Y-91124000D01*
X131044750Y-91124000D01*
X131020858Y-91122826D01*
X130997197Y-91119316D01*
X130973993Y-91113504D01*
X130951471Y-91105446D01*
X130929847Y-91095218D01*
X130909330Y-91082921D01*
X130890117Y-91068671D01*
X130872393Y-91052607D01*
X130856329Y-91034883D01*
X130842079Y-91015670D01*
X130829782Y-90995153D01*
X130819554Y-90973529D01*
X130811496Y-90951007D01*
X130805684Y-90927803D01*
X130802174Y-90904142D01*
X130801000Y-90880250D01*
X130801000Y-89967750D01*
X130802174Y-89943858D01*
X130805684Y-89920197D01*
X130811496Y-89896993D01*
X130819554Y-89874471D01*
X130829782Y-89852847D01*
X130842079Y-89832330D01*
X130856329Y-89813117D01*
X130872393Y-89795393D01*
X130890117Y-89779329D01*
X130909330Y-89765079D01*
X130929847Y-89752782D01*
X130951471Y-89742554D01*
X130973993Y-89734496D01*
X130997197Y-89728684D01*
X131020858Y-89725174D01*
X131044750Y-89724000D01*
X131532250Y-89724000D01*
X131556142Y-89725174D01*
X131556142Y-89725174D01*
G37*
D11*
X131288500Y-90424000D03*
D10*
G36*
X149668142Y-112077174D02*
G01*
X149691803Y-112080684D01*
X149715007Y-112086496D01*
X149737529Y-112094554D01*
X149759153Y-112104782D01*
X149779670Y-112117079D01*
X149798883Y-112131329D01*
X149816607Y-112147393D01*
X149832671Y-112165117D01*
X149846921Y-112184330D01*
X149859218Y-112204847D01*
X149869446Y-112226471D01*
X149877504Y-112248993D01*
X149883316Y-112272197D01*
X149886826Y-112295858D01*
X149888000Y-112319750D01*
X149888000Y-113232250D01*
X149886826Y-113256142D01*
X149883316Y-113279803D01*
X149877504Y-113303007D01*
X149869446Y-113325529D01*
X149859218Y-113347153D01*
X149846921Y-113367670D01*
X149832671Y-113386883D01*
X149816607Y-113404607D01*
X149798883Y-113420671D01*
X149779670Y-113434921D01*
X149759153Y-113447218D01*
X149737529Y-113457446D01*
X149715007Y-113465504D01*
X149691803Y-113471316D01*
X149668142Y-113474826D01*
X149644250Y-113476000D01*
X149156750Y-113476000D01*
X149132858Y-113474826D01*
X149109197Y-113471316D01*
X149085993Y-113465504D01*
X149063471Y-113457446D01*
X149041847Y-113447218D01*
X149021330Y-113434921D01*
X149002117Y-113420671D01*
X148984393Y-113404607D01*
X148968329Y-113386883D01*
X148954079Y-113367670D01*
X148941782Y-113347153D01*
X148931554Y-113325529D01*
X148923496Y-113303007D01*
X148917684Y-113279803D01*
X148914174Y-113256142D01*
X148913000Y-113232250D01*
X148913000Y-112319750D01*
X148914174Y-112295858D01*
X148917684Y-112272197D01*
X148923496Y-112248993D01*
X148931554Y-112226471D01*
X148941782Y-112204847D01*
X148954079Y-112184330D01*
X148968329Y-112165117D01*
X148984393Y-112147393D01*
X149002117Y-112131329D01*
X149021330Y-112117079D01*
X149041847Y-112104782D01*
X149063471Y-112094554D01*
X149085993Y-112086496D01*
X149109197Y-112080684D01*
X149132858Y-112077174D01*
X149156750Y-112076000D01*
X149644250Y-112076000D01*
X149668142Y-112077174D01*
X149668142Y-112077174D01*
G37*
D11*
X149400500Y-112776000D03*
D10*
G36*
X147793142Y-112077174D02*
G01*
X147816803Y-112080684D01*
X147840007Y-112086496D01*
X147862529Y-112094554D01*
X147884153Y-112104782D01*
X147904670Y-112117079D01*
X147923883Y-112131329D01*
X147941607Y-112147393D01*
X147957671Y-112165117D01*
X147971921Y-112184330D01*
X147984218Y-112204847D01*
X147994446Y-112226471D01*
X148002504Y-112248993D01*
X148008316Y-112272197D01*
X148011826Y-112295858D01*
X148013000Y-112319750D01*
X148013000Y-113232250D01*
X148011826Y-113256142D01*
X148008316Y-113279803D01*
X148002504Y-113303007D01*
X147994446Y-113325529D01*
X147984218Y-113347153D01*
X147971921Y-113367670D01*
X147957671Y-113386883D01*
X147941607Y-113404607D01*
X147923883Y-113420671D01*
X147904670Y-113434921D01*
X147884153Y-113447218D01*
X147862529Y-113457446D01*
X147840007Y-113465504D01*
X147816803Y-113471316D01*
X147793142Y-113474826D01*
X147769250Y-113476000D01*
X147281750Y-113476000D01*
X147257858Y-113474826D01*
X147234197Y-113471316D01*
X147210993Y-113465504D01*
X147188471Y-113457446D01*
X147166847Y-113447218D01*
X147146330Y-113434921D01*
X147127117Y-113420671D01*
X147109393Y-113404607D01*
X147093329Y-113386883D01*
X147079079Y-113367670D01*
X147066782Y-113347153D01*
X147056554Y-113325529D01*
X147048496Y-113303007D01*
X147042684Y-113279803D01*
X147039174Y-113256142D01*
X147038000Y-113232250D01*
X147038000Y-112319750D01*
X147039174Y-112295858D01*
X147042684Y-112272197D01*
X147048496Y-112248993D01*
X147056554Y-112226471D01*
X147066782Y-112204847D01*
X147079079Y-112184330D01*
X147093329Y-112165117D01*
X147109393Y-112147393D01*
X147127117Y-112131329D01*
X147146330Y-112117079D01*
X147166847Y-112104782D01*
X147188471Y-112094554D01*
X147210993Y-112086496D01*
X147234197Y-112080684D01*
X147257858Y-112077174D01*
X147281750Y-112076000D01*
X147769250Y-112076000D01*
X147793142Y-112077174D01*
X147793142Y-112077174D01*
G37*
D11*
X147525500Y-112776000D03*
D10*
G36*
X160639142Y-115506174D02*
G01*
X160662803Y-115509684D01*
X160686007Y-115515496D01*
X160708529Y-115523554D01*
X160730153Y-115533782D01*
X160750670Y-115546079D01*
X160769883Y-115560329D01*
X160787607Y-115576393D01*
X160803671Y-115594117D01*
X160817921Y-115613330D01*
X160830218Y-115633847D01*
X160840446Y-115655471D01*
X160848504Y-115677993D01*
X160854316Y-115701197D01*
X160857826Y-115724858D01*
X160859000Y-115748750D01*
X160859000Y-116661250D01*
X160857826Y-116685142D01*
X160854316Y-116708803D01*
X160848504Y-116732007D01*
X160840446Y-116754529D01*
X160830218Y-116776153D01*
X160817921Y-116796670D01*
X160803671Y-116815883D01*
X160787607Y-116833607D01*
X160769883Y-116849671D01*
X160750670Y-116863921D01*
X160730153Y-116876218D01*
X160708529Y-116886446D01*
X160686007Y-116894504D01*
X160662803Y-116900316D01*
X160639142Y-116903826D01*
X160615250Y-116905000D01*
X160127750Y-116905000D01*
X160103858Y-116903826D01*
X160080197Y-116900316D01*
X160056993Y-116894504D01*
X160034471Y-116886446D01*
X160012847Y-116876218D01*
X159992330Y-116863921D01*
X159973117Y-116849671D01*
X159955393Y-116833607D01*
X159939329Y-116815883D01*
X159925079Y-116796670D01*
X159912782Y-116776153D01*
X159902554Y-116754529D01*
X159894496Y-116732007D01*
X159888684Y-116708803D01*
X159885174Y-116685142D01*
X159884000Y-116661250D01*
X159884000Y-115748750D01*
X159885174Y-115724858D01*
X159888684Y-115701197D01*
X159894496Y-115677993D01*
X159902554Y-115655471D01*
X159912782Y-115633847D01*
X159925079Y-115613330D01*
X159939329Y-115594117D01*
X159955393Y-115576393D01*
X159973117Y-115560329D01*
X159992330Y-115546079D01*
X160012847Y-115533782D01*
X160034471Y-115523554D01*
X160056993Y-115515496D01*
X160080197Y-115509684D01*
X160103858Y-115506174D01*
X160127750Y-115505000D01*
X160615250Y-115505000D01*
X160639142Y-115506174D01*
X160639142Y-115506174D01*
G37*
D11*
X160371500Y-116205000D03*
D10*
G36*
X158764142Y-115506174D02*
G01*
X158787803Y-115509684D01*
X158811007Y-115515496D01*
X158833529Y-115523554D01*
X158855153Y-115533782D01*
X158875670Y-115546079D01*
X158894883Y-115560329D01*
X158912607Y-115576393D01*
X158928671Y-115594117D01*
X158942921Y-115613330D01*
X158955218Y-115633847D01*
X158965446Y-115655471D01*
X158973504Y-115677993D01*
X158979316Y-115701197D01*
X158982826Y-115724858D01*
X158984000Y-115748750D01*
X158984000Y-116661250D01*
X158982826Y-116685142D01*
X158979316Y-116708803D01*
X158973504Y-116732007D01*
X158965446Y-116754529D01*
X158955218Y-116776153D01*
X158942921Y-116796670D01*
X158928671Y-116815883D01*
X158912607Y-116833607D01*
X158894883Y-116849671D01*
X158875670Y-116863921D01*
X158855153Y-116876218D01*
X158833529Y-116886446D01*
X158811007Y-116894504D01*
X158787803Y-116900316D01*
X158764142Y-116903826D01*
X158740250Y-116905000D01*
X158252750Y-116905000D01*
X158228858Y-116903826D01*
X158205197Y-116900316D01*
X158181993Y-116894504D01*
X158159471Y-116886446D01*
X158137847Y-116876218D01*
X158117330Y-116863921D01*
X158098117Y-116849671D01*
X158080393Y-116833607D01*
X158064329Y-116815883D01*
X158050079Y-116796670D01*
X158037782Y-116776153D01*
X158027554Y-116754529D01*
X158019496Y-116732007D01*
X158013684Y-116708803D01*
X158010174Y-116685142D01*
X158009000Y-116661250D01*
X158009000Y-115748750D01*
X158010174Y-115724858D01*
X158013684Y-115701197D01*
X158019496Y-115677993D01*
X158027554Y-115655471D01*
X158037782Y-115633847D01*
X158050079Y-115613330D01*
X158064329Y-115594117D01*
X158080393Y-115576393D01*
X158098117Y-115560329D01*
X158117330Y-115546079D01*
X158137847Y-115533782D01*
X158159471Y-115523554D01*
X158181993Y-115515496D01*
X158205197Y-115509684D01*
X158228858Y-115506174D01*
X158252750Y-115505000D01*
X158740250Y-115505000D01*
X158764142Y-115506174D01*
X158764142Y-115506174D01*
G37*
D11*
X158496500Y-116205000D03*
D10*
G36*
X151906142Y-112077174D02*
G01*
X151929803Y-112080684D01*
X151953007Y-112086496D01*
X151975529Y-112094554D01*
X151997153Y-112104782D01*
X152017670Y-112117079D01*
X152036883Y-112131329D01*
X152054607Y-112147393D01*
X152070671Y-112165117D01*
X152084921Y-112184330D01*
X152097218Y-112204847D01*
X152107446Y-112226471D01*
X152115504Y-112248993D01*
X152121316Y-112272197D01*
X152124826Y-112295858D01*
X152126000Y-112319750D01*
X152126000Y-113232250D01*
X152124826Y-113256142D01*
X152121316Y-113279803D01*
X152115504Y-113303007D01*
X152107446Y-113325529D01*
X152097218Y-113347153D01*
X152084921Y-113367670D01*
X152070671Y-113386883D01*
X152054607Y-113404607D01*
X152036883Y-113420671D01*
X152017670Y-113434921D01*
X151997153Y-113447218D01*
X151975529Y-113457446D01*
X151953007Y-113465504D01*
X151929803Y-113471316D01*
X151906142Y-113474826D01*
X151882250Y-113476000D01*
X151394750Y-113476000D01*
X151370858Y-113474826D01*
X151347197Y-113471316D01*
X151323993Y-113465504D01*
X151301471Y-113457446D01*
X151279847Y-113447218D01*
X151259330Y-113434921D01*
X151240117Y-113420671D01*
X151222393Y-113404607D01*
X151206329Y-113386883D01*
X151192079Y-113367670D01*
X151179782Y-113347153D01*
X151169554Y-113325529D01*
X151161496Y-113303007D01*
X151155684Y-113279803D01*
X151152174Y-113256142D01*
X151151000Y-113232250D01*
X151151000Y-112319750D01*
X151152174Y-112295858D01*
X151155684Y-112272197D01*
X151161496Y-112248993D01*
X151169554Y-112226471D01*
X151179782Y-112204847D01*
X151192079Y-112184330D01*
X151206329Y-112165117D01*
X151222393Y-112147393D01*
X151240117Y-112131329D01*
X151259330Y-112117079D01*
X151279847Y-112104782D01*
X151301471Y-112094554D01*
X151323993Y-112086496D01*
X151347197Y-112080684D01*
X151370858Y-112077174D01*
X151394750Y-112076000D01*
X151882250Y-112076000D01*
X151906142Y-112077174D01*
X151906142Y-112077174D01*
G37*
D11*
X151638500Y-112776000D03*
D10*
G36*
X153781142Y-112077174D02*
G01*
X153804803Y-112080684D01*
X153828007Y-112086496D01*
X153850529Y-112094554D01*
X153872153Y-112104782D01*
X153892670Y-112117079D01*
X153911883Y-112131329D01*
X153929607Y-112147393D01*
X153945671Y-112165117D01*
X153959921Y-112184330D01*
X153972218Y-112204847D01*
X153982446Y-112226471D01*
X153990504Y-112248993D01*
X153996316Y-112272197D01*
X153999826Y-112295858D01*
X154001000Y-112319750D01*
X154001000Y-113232250D01*
X153999826Y-113256142D01*
X153996316Y-113279803D01*
X153990504Y-113303007D01*
X153982446Y-113325529D01*
X153972218Y-113347153D01*
X153959921Y-113367670D01*
X153945671Y-113386883D01*
X153929607Y-113404607D01*
X153911883Y-113420671D01*
X153892670Y-113434921D01*
X153872153Y-113447218D01*
X153850529Y-113457446D01*
X153828007Y-113465504D01*
X153804803Y-113471316D01*
X153781142Y-113474826D01*
X153757250Y-113476000D01*
X153269750Y-113476000D01*
X153245858Y-113474826D01*
X153222197Y-113471316D01*
X153198993Y-113465504D01*
X153176471Y-113457446D01*
X153154847Y-113447218D01*
X153134330Y-113434921D01*
X153115117Y-113420671D01*
X153097393Y-113404607D01*
X153081329Y-113386883D01*
X153067079Y-113367670D01*
X153054782Y-113347153D01*
X153044554Y-113325529D01*
X153036496Y-113303007D01*
X153030684Y-113279803D01*
X153027174Y-113256142D01*
X153026000Y-113232250D01*
X153026000Y-112319750D01*
X153027174Y-112295858D01*
X153030684Y-112272197D01*
X153036496Y-112248993D01*
X153044554Y-112226471D01*
X153054782Y-112204847D01*
X153067079Y-112184330D01*
X153081329Y-112165117D01*
X153097393Y-112147393D01*
X153115117Y-112131329D01*
X153134330Y-112117079D01*
X153154847Y-112104782D01*
X153176471Y-112094554D01*
X153198993Y-112086496D01*
X153222197Y-112080684D01*
X153245858Y-112077174D01*
X153269750Y-112076000D01*
X153757250Y-112076000D01*
X153781142Y-112077174D01*
X153781142Y-112077174D01*
G37*
D11*
X153513500Y-112776000D03*
D26*
X117264000Y-86609000D03*
X117264000Y-85659000D03*
X117264000Y-84709000D03*
X119464000Y-84709000D03*
X119464000Y-86609000D03*
X119464000Y-85659000D03*
D15*
X177436000Y-105548000D03*
X177436000Y-106198000D03*
X177436000Y-106848000D03*
X177436000Y-107498000D03*
X177436000Y-108148000D03*
X177436000Y-108798000D03*
X177436000Y-109448000D03*
X177436000Y-110098000D03*
X171560000Y-110098000D03*
X171560000Y-109448000D03*
X171560000Y-108798000D03*
X171560000Y-108148000D03*
X171560000Y-107498000D03*
X171560000Y-106848000D03*
X171560000Y-106198000D03*
X171560000Y-105548000D03*
D17*
X171915000Y-113858000D03*
X171915000Y-115758000D03*
X169715000Y-114808000D03*
D10*
G36*
X175994142Y-112749174D02*
G01*
X176017803Y-112752684D01*
X176041007Y-112758496D01*
X176063529Y-112766554D01*
X176085153Y-112776782D01*
X176105670Y-112789079D01*
X176124883Y-112803329D01*
X176142607Y-112819393D01*
X176158671Y-112837117D01*
X176172921Y-112856330D01*
X176185218Y-112876847D01*
X176195446Y-112898471D01*
X176203504Y-112920993D01*
X176209316Y-112944197D01*
X176212826Y-112967858D01*
X176214000Y-112991750D01*
X176214000Y-113479250D01*
X176212826Y-113503142D01*
X176209316Y-113526803D01*
X176203504Y-113550007D01*
X176195446Y-113572529D01*
X176185218Y-113594153D01*
X176172921Y-113614670D01*
X176158671Y-113633883D01*
X176142607Y-113651607D01*
X176124883Y-113667671D01*
X176105670Y-113681921D01*
X176085153Y-113694218D01*
X176063529Y-113704446D01*
X176041007Y-113712504D01*
X176017803Y-113718316D01*
X175994142Y-113721826D01*
X175970250Y-113723000D01*
X175057750Y-113723000D01*
X175033858Y-113721826D01*
X175010197Y-113718316D01*
X174986993Y-113712504D01*
X174964471Y-113704446D01*
X174942847Y-113694218D01*
X174922330Y-113681921D01*
X174903117Y-113667671D01*
X174885393Y-113651607D01*
X174869329Y-113633883D01*
X174855079Y-113614670D01*
X174842782Y-113594153D01*
X174832554Y-113572529D01*
X174824496Y-113550007D01*
X174818684Y-113526803D01*
X174815174Y-113503142D01*
X174814000Y-113479250D01*
X174814000Y-112991750D01*
X174815174Y-112967858D01*
X174818684Y-112944197D01*
X174824496Y-112920993D01*
X174832554Y-112898471D01*
X174842782Y-112876847D01*
X174855079Y-112856330D01*
X174869329Y-112837117D01*
X174885393Y-112819393D01*
X174903117Y-112803329D01*
X174922330Y-112789079D01*
X174942847Y-112776782D01*
X174964471Y-112766554D01*
X174986993Y-112758496D01*
X175010197Y-112752684D01*
X175033858Y-112749174D01*
X175057750Y-112748000D01*
X175970250Y-112748000D01*
X175994142Y-112749174D01*
X175994142Y-112749174D01*
G37*
D11*
X175514000Y-113235500D03*
D10*
G36*
X175994142Y-114624174D02*
G01*
X176017803Y-114627684D01*
X176041007Y-114633496D01*
X176063529Y-114641554D01*
X176085153Y-114651782D01*
X176105670Y-114664079D01*
X176124883Y-114678329D01*
X176142607Y-114694393D01*
X176158671Y-114712117D01*
X176172921Y-114731330D01*
X176185218Y-114751847D01*
X176195446Y-114773471D01*
X176203504Y-114795993D01*
X176209316Y-114819197D01*
X176212826Y-114842858D01*
X176214000Y-114866750D01*
X176214000Y-115354250D01*
X176212826Y-115378142D01*
X176209316Y-115401803D01*
X176203504Y-115425007D01*
X176195446Y-115447529D01*
X176185218Y-115469153D01*
X176172921Y-115489670D01*
X176158671Y-115508883D01*
X176142607Y-115526607D01*
X176124883Y-115542671D01*
X176105670Y-115556921D01*
X176085153Y-115569218D01*
X176063529Y-115579446D01*
X176041007Y-115587504D01*
X176017803Y-115593316D01*
X175994142Y-115596826D01*
X175970250Y-115598000D01*
X175057750Y-115598000D01*
X175033858Y-115596826D01*
X175010197Y-115593316D01*
X174986993Y-115587504D01*
X174964471Y-115579446D01*
X174942847Y-115569218D01*
X174922330Y-115556921D01*
X174903117Y-115542671D01*
X174885393Y-115526607D01*
X174869329Y-115508883D01*
X174855079Y-115489670D01*
X174842782Y-115469153D01*
X174832554Y-115447529D01*
X174824496Y-115425007D01*
X174818684Y-115401803D01*
X174815174Y-115378142D01*
X174814000Y-115354250D01*
X174814000Y-114866750D01*
X174815174Y-114842858D01*
X174818684Y-114819197D01*
X174824496Y-114795993D01*
X174832554Y-114773471D01*
X174842782Y-114751847D01*
X174855079Y-114731330D01*
X174869329Y-114712117D01*
X174885393Y-114694393D01*
X174903117Y-114678329D01*
X174922330Y-114664079D01*
X174942847Y-114651782D01*
X174964471Y-114641554D01*
X174986993Y-114633496D01*
X175010197Y-114627684D01*
X175033858Y-114624174D01*
X175057750Y-114623000D01*
X175970250Y-114623000D01*
X175994142Y-114624174D01*
X175994142Y-114624174D01*
G37*
D11*
X175514000Y-115110500D03*
D10*
G36*
X160639142Y-119316174D02*
G01*
X160662803Y-119319684D01*
X160686007Y-119325496D01*
X160708529Y-119333554D01*
X160730153Y-119343782D01*
X160750670Y-119356079D01*
X160769883Y-119370329D01*
X160787607Y-119386393D01*
X160803671Y-119404117D01*
X160817921Y-119423330D01*
X160830218Y-119443847D01*
X160840446Y-119465471D01*
X160848504Y-119487993D01*
X160854316Y-119511197D01*
X160857826Y-119534858D01*
X160859000Y-119558750D01*
X160859000Y-120471250D01*
X160857826Y-120495142D01*
X160854316Y-120518803D01*
X160848504Y-120542007D01*
X160840446Y-120564529D01*
X160830218Y-120586153D01*
X160817921Y-120606670D01*
X160803671Y-120625883D01*
X160787607Y-120643607D01*
X160769883Y-120659671D01*
X160750670Y-120673921D01*
X160730153Y-120686218D01*
X160708529Y-120696446D01*
X160686007Y-120704504D01*
X160662803Y-120710316D01*
X160639142Y-120713826D01*
X160615250Y-120715000D01*
X160127750Y-120715000D01*
X160103858Y-120713826D01*
X160080197Y-120710316D01*
X160056993Y-120704504D01*
X160034471Y-120696446D01*
X160012847Y-120686218D01*
X159992330Y-120673921D01*
X159973117Y-120659671D01*
X159955393Y-120643607D01*
X159939329Y-120625883D01*
X159925079Y-120606670D01*
X159912782Y-120586153D01*
X159902554Y-120564529D01*
X159894496Y-120542007D01*
X159888684Y-120518803D01*
X159885174Y-120495142D01*
X159884000Y-120471250D01*
X159884000Y-119558750D01*
X159885174Y-119534858D01*
X159888684Y-119511197D01*
X159894496Y-119487993D01*
X159902554Y-119465471D01*
X159912782Y-119443847D01*
X159925079Y-119423330D01*
X159939329Y-119404117D01*
X159955393Y-119386393D01*
X159973117Y-119370329D01*
X159992330Y-119356079D01*
X160012847Y-119343782D01*
X160034471Y-119333554D01*
X160056993Y-119325496D01*
X160080197Y-119319684D01*
X160103858Y-119316174D01*
X160127750Y-119315000D01*
X160615250Y-119315000D01*
X160639142Y-119316174D01*
X160639142Y-119316174D01*
G37*
D11*
X160371500Y-120015000D03*
D10*
G36*
X158764142Y-119316174D02*
G01*
X158787803Y-119319684D01*
X158811007Y-119325496D01*
X158833529Y-119333554D01*
X158855153Y-119343782D01*
X158875670Y-119356079D01*
X158894883Y-119370329D01*
X158912607Y-119386393D01*
X158928671Y-119404117D01*
X158942921Y-119423330D01*
X158955218Y-119443847D01*
X158965446Y-119465471D01*
X158973504Y-119487993D01*
X158979316Y-119511197D01*
X158982826Y-119534858D01*
X158984000Y-119558750D01*
X158984000Y-120471250D01*
X158982826Y-120495142D01*
X158979316Y-120518803D01*
X158973504Y-120542007D01*
X158965446Y-120564529D01*
X158955218Y-120586153D01*
X158942921Y-120606670D01*
X158928671Y-120625883D01*
X158912607Y-120643607D01*
X158894883Y-120659671D01*
X158875670Y-120673921D01*
X158855153Y-120686218D01*
X158833529Y-120696446D01*
X158811007Y-120704504D01*
X158787803Y-120710316D01*
X158764142Y-120713826D01*
X158740250Y-120715000D01*
X158252750Y-120715000D01*
X158228858Y-120713826D01*
X158205197Y-120710316D01*
X158181993Y-120704504D01*
X158159471Y-120696446D01*
X158137847Y-120686218D01*
X158117330Y-120673921D01*
X158098117Y-120659671D01*
X158080393Y-120643607D01*
X158064329Y-120625883D01*
X158050079Y-120606670D01*
X158037782Y-120586153D01*
X158027554Y-120564529D01*
X158019496Y-120542007D01*
X158013684Y-120518803D01*
X158010174Y-120495142D01*
X158009000Y-120471250D01*
X158009000Y-119558750D01*
X158010174Y-119534858D01*
X158013684Y-119511197D01*
X158019496Y-119487993D01*
X158027554Y-119465471D01*
X158037782Y-119443847D01*
X158050079Y-119423330D01*
X158064329Y-119404117D01*
X158080393Y-119386393D01*
X158098117Y-119370329D01*
X158117330Y-119356079D01*
X158137847Y-119343782D01*
X158159471Y-119333554D01*
X158181993Y-119325496D01*
X158205197Y-119319684D01*
X158228858Y-119316174D01*
X158252750Y-119315000D01*
X158740250Y-119315000D01*
X158764142Y-119316174D01*
X158764142Y-119316174D01*
G37*
D11*
X158496500Y-120015000D03*
D10*
G36*
X163341691Y-109613053D02*
G01*
X163362926Y-109616203D01*
X163383750Y-109621419D01*
X163403962Y-109628651D01*
X163423368Y-109637830D01*
X163441781Y-109648866D01*
X163459024Y-109661654D01*
X163474930Y-109676070D01*
X163489346Y-109691976D01*
X163502134Y-109709219D01*
X163513170Y-109727632D01*
X163522349Y-109747038D01*
X163529581Y-109767250D01*
X163534797Y-109788074D01*
X163537947Y-109809309D01*
X163539000Y-109830750D01*
X163539000Y-110343250D01*
X163537947Y-110364691D01*
X163534797Y-110385926D01*
X163529581Y-110406750D01*
X163522349Y-110426962D01*
X163513170Y-110446368D01*
X163502134Y-110464781D01*
X163489346Y-110482024D01*
X163474930Y-110497930D01*
X163459024Y-110512346D01*
X163441781Y-110525134D01*
X163423368Y-110536170D01*
X163403962Y-110545349D01*
X163383750Y-110552581D01*
X163362926Y-110557797D01*
X163341691Y-110560947D01*
X163320250Y-110562000D01*
X162882750Y-110562000D01*
X162861309Y-110560947D01*
X162840074Y-110557797D01*
X162819250Y-110552581D01*
X162799038Y-110545349D01*
X162779632Y-110536170D01*
X162761219Y-110525134D01*
X162743976Y-110512346D01*
X162728070Y-110497930D01*
X162713654Y-110482024D01*
X162700866Y-110464781D01*
X162689830Y-110446368D01*
X162680651Y-110426962D01*
X162673419Y-110406750D01*
X162668203Y-110385926D01*
X162665053Y-110364691D01*
X162664000Y-110343250D01*
X162664000Y-109830750D01*
X162665053Y-109809309D01*
X162668203Y-109788074D01*
X162673419Y-109767250D01*
X162680651Y-109747038D01*
X162689830Y-109727632D01*
X162700866Y-109709219D01*
X162713654Y-109691976D01*
X162728070Y-109676070D01*
X162743976Y-109661654D01*
X162761219Y-109648866D01*
X162779632Y-109637830D01*
X162799038Y-109628651D01*
X162819250Y-109621419D01*
X162840074Y-109616203D01*
X162861309Y-109613053D01*
X162882750Y-109612000D01*
X163320250Y-109612000D01*
X163341691Y-109613053D01*
X163341691Y-109613053D01*
G37*
D12*
X163101500Y-110087000D03*
D10*
G36*
X161766691Y-109613053D02*
G01*
X161787926Y-109616203D01*
X161808750Y-109621419D01*
X161828962Y-109628651D01*
X161848368Y-109637830D01*
X161866781Y-109648866D01*
X161884024Y-109661654D01*
X161899930Y-109676070D01*
X161914346Y-109691976D01*
X161927134Y-109709219D01*
X161938170Y-109727632D01*
X161947349Y-109747038D01*
X161954581Y-109767250D01*
X161959797Y-109788074D01*
X161962947Y-109809309D01*
X161964000Y-109830750D01*
X161964000Y-110343250D01*
X161962947Y-110364691D01*
X161959797Y-110385926D01*
X161954581Y-110406750D01*
X161947349Y-110426962D01*
X161938170Y-110446368D01*
X161927134Y-110464781D01*
X161914346Y-110482024D01*
X161899930Y-110497930D01*
X161884024Y-110512346D01*
X161866781Y-110525134D01*
X161848368Y-110536170D01*
X161828962Y-110545349D01*
X161808750Y-110552581D01*
X161787926Y-110557797D01*
X161766691Y-110560947D01*
X161745250Y-110562000D01*
X161307750Y-110562000D01*
X161286309Y-110560947D01*
X161265074Y-110557797D01*
X161244250Y-110552581D01*
X161224038Y-110545349D01*
X161204632Y-110536170D01*
X161186219Y-110525134D01*
X161168976Y-110512346D01*
X161153070Y-110497930D01*
X161138654Y-110482024D01*
X161125866Y-110464781D01*
X161114830Y-110446368D01*
X161105651Y-110426962D01*
X161098419Y-110406750D01*
X161093203Y-110385926D01*
X161090053Y-110364691D01*
X161089000Y-110343250D01*
X161089000Y-109830750D01*
X161090053Y-109809309D01*
X161093203Y-109788074D01*
X161098419Y-109767250D01*
X161105651Y-109747038D01*
X161114830Y-109727632D01*
X161125866Y-109709219D01*
X161138654Y-109691976D01*
X161153070Y-109676070D01*
X161168976Y-109661654D01*
X161186219Y-109648866D01*
X161204632Y-109637830D01*
X161224038Y-109628651D01*
X161244250Y-109621419D01*
X161265074Y-109616203D01*
X161286309Y-109613053D01*
X161307750Y-109612000D01*
X161745250Y-109612000D01*
X161766691Y-109613053D01*
X161766691Y-109613053D01*
G37*
D12*
X161526500Y-110087000D03*
D10*
G36*
X165060691Y-99094053D02*
G01*
X165081926Y-99097203D01*
X165102750Y-99102419D01*
X165122962Y-99109651D01*
X165142368Y-99118830D01*
X165160781Y-99129866D01*
X165178024Y-99142654D01*
X165193930Y-99157070D01*
X165208346Y-99172976D01*
X165221134Y-99190219D01*
X165232170Y-99208632D01*
X165241349Y-99228038D01*
X165248581Y-99248250D01*
X165253797Y-99269074D01*
X165256947Y-99290309D01*
X165258000Y-99311750D01*
X165258000Y-99824250D01*
X165256947Y-99845691D01*
X165253797Y-99866926D01*
X165248581Y-99887750D01*
X165241349Y-99907962D01*
X165232170Y-99927368D01*
X165221134Y-99945781D01*
X165208346Y-99963024D01*
X165193930Y-99978930D01*
X165178024Y-99993346D01*
X165160781Y-100006134D01*
X165142368Y-100017170D01*
X165122962Y-100026349D01*
X165102750Y-100033581D01*
X165081926Y-100038797D01*
X165060691Y-100041947D01*
X165039250Y-100043000D01*
X164601750Y-100043000D01*
X164580309Y-100041947D01*
X164559074Y-100038797D01*
X164538250Y-100033581D01*
X164518038Y-100026349D01*
X164498632Y-100017170D01*
X164480219Y-100006134D01*
X164462976Y-99993346D01*
X164447070Y-99978930D01*
X164432654Y-99963024D01*
X164419866Y-99945781D01*
X164408830Y-99927368D01*
X164399651Y-99907962D01*
X164392419Y-99887750D01*
X164387203Y-99866926D01*
X164384053Y-99845691D01*
X164383000Y-99824250D01*
X164383000Y-99311750D01*
X164384053Y-99290309D01*
X164387203Y-99269074D01*
X164392419Y-99248250D01*
X164399651Y-99228038D01*
X164408830Y-99208632D01*
X164419866Y-99190219D01*
X164432654Y-99172976D01*
X164447070Y-99157070D01*
X164462976Y-99142654D01*
X164480219Y-99129866D01*
X164498632Y-99118830D01*
X164518038Y-99109651D01*
X164538250Y-99102419D01*
X164559074Y-99097203D01*
X164580309Y-99094053D01*
X164601750Y-99093000D01*
X165039250Y-99093000D01*
X165060691Y-99094053D01*
X165060691Y-99094053D01*
G37*
D12*
X164820500Y-99568000D03*
D10*
G36*
X166635691Y-99094053D02*
G01*
X166656926Y-99097203D01*
X166677750Y-99102419D01*
X166697962Y-99109651D01*
X166717368Y-99118830D01*
X166735781Y-99129866D01*
X166753024Y-99142654D01*
X166768930Y-99157070D01*
X166783346Y-99172976D01*
X166796134Y-99190219D01*
X166807170Y-99208632D01*
X166816349Y-99228038D01*
X166823581Y-99248250D01*
X166828797Y-99269074D01*
X166831947Y-99290309D01*
X166833000Y-99311750D01*
X166833000Y-99824250D01*
X166831947Y-99845691D01*
X166828797Y-99866926D01*
X166823581Y-99887750D01*
X166816349Y-99907962D01*
X166807170Y-99927368D01*
X166796134Y-99945781D01*
X166783346Y-99963024D01*
X166768930Y-99978930D01*
X166753024Y-99993346D01*
X166735781Y-100006134D01*
X166717368Y-100017170D01*
X166697962Y-100026349D01*
X166677750Y-100033581D01*
X166656926Y-100038797D01*
X166635691Y-100041947D01*
X166614250Y-100043000D01*
X166176750Y-100043000D01*
X166155309Y-100041947D01*
X166134074Y-100038797D01*
X166113250Y-100033581D01*
X166093038Y-100026349D01*
X166073632Y-100017170D01*
X166055219Y-100006134D01*
X166037976Y-99993346D01*
X166022070Y-99978930D01*
X166007654Y-99963024D01*
X165994866Y-99945781D01*
X165983830Y-99927368D01*
X165974651Y-99907962D01*
X165967419Y-99887750D01*
X165962203Y-99866926D01*
X165959053Y-99845691D01*
X165958000Y-99824250D01*
X165958000Y-99311750D01*
X165959053Y-99290309D01*
X165962203Y-99269074D01*
X165967419Y-99248250D01*
X165974651Y-99228038D01*
X165983830Y-99208632D01*
X165994866Y-99190219D01*
X166007654Y-99172976D01*
X166022070Y-99157070D01*
X166037976Y-99142654D01*
X166055219Y-99129866D01*
X166073632Y-99118830D01*
X166093038Y-99109651D01*
X166113250Y-99102419D01*
X166134074Y-99097203D01*
X166155309Y-99094053D01*
X166176750Y-99093000D01*
X166614250Y-99093000D01*
X166635691Y-99094053D01*
X166635691Y-99094053D01*
G37*
D12*
X166395500Y-99568000D03*
D10*
G36*
X167351691Y-109613053D02*
G01*
X167372926Y-109616203D01*
X167393750Y-109621419D01*
X167413962Y-109628651D01*
X167433368Y-109637830D01*
X167451781Y-109648866D01*
X167469024Y-109661654D01*
X167484930Y-109676070D01*
X167499346Y-109691976D01*
X167512134Y-109709219D01*
X167523170Y-109727632D01*
X167532349Y-109747038D01*
X167539581Y-109767250D01*
X167544797Y-109788074D01*
X167547947Y-109809309D01*
X167549000Y-109830750D01*
X167549000Y-110343250D01*
X167547947Y-110364691D01*
X167544797Y-110385926D01*
X167539581Y-110406750D01*
X167532349Y-110426962D01*
X167523170Y-110446368D01*
X167512134Y-110464781D01*
X167499346Y-110482024D01*
X167484930Y-110497930D01*
X167469024Y-110512346D01*
X167451781Y-110525134D01*
X167433368Y-110536170D01*
X167413962Y-110545349D01*
X167393750Y-110552581D01*
X167372926Y-110557797D01*
X167351691Y-110560947D01*
X167330250Y-110562000D01*
X166892750Y-110562000D01*
X166871309Y-110560947D01*
X166850074Y-110557797D01*
X166829250Y-110552581D01*
X166809038Y-110545349D01*
X166789632Y-110536170D01*
X166771219Y-110525134D01*
X166753976Y-110512346D01*
X166738070Y-110497930D01*
X166723654Y-110482024D01*
X166710866Y-110464781D01*
X166699830Y-110446368D01*
X166690651Y-110426962D01*
X166683419Y-110406750D01*
X166678203Y-110385926D01*
X166675053Y-110364691D01*
X166674000Y-110343250D01*
X166674000Y-109830750D01*
X166675053Y-109809309D01*
X166678203Y-109788074D01*
X166683419Y-109767250D01*
X166690651Y-109747038D01*
X166699830Y-109727632D01*
X166710866Y-109709219D01*
X166723654Y-109691976D01*
X166738070Y-109676070D01*
X166753976Y-109661654D01*
X166771219Y-109648866D01*
X166789632Y-109637830D01*
X166809038Y-109628651D01*
X166829250Y-109621419D01*
X166850074Y-109616203D01*
X166871309Y-109613053D01*
X166892750Y-109612000D01*
X167330250Y-109612000D01*
X167351691Y-109613053D01*
X167351691Y-109613053D01*
G37*
D12*
X167111500Y-110087000D03*
D10*
G36*
X165776691Y-109613053D02*
G01*
X165797926Y-109616203D01*
X165818750Y-109621419D01*
X165838962Y-109628651D01*
X165858368Y-109637830D01*
X165876781Y-109648866D01*
X165894024Y-109661654D01*
X165909930Y-109676070D01*
X165924346Y-109691976D01*
X165937134Y-109709219D01*
X165948170Y-109727632D01*
X165957349Y-109747038D01*
X165964581Y-109767250D01*
X165969797Y-109788074D01*
X165972947Y-109809309D01*
X165974000Y-109830750D01*
X165974000Y-110343250D01*
X165972947Y-110364691D01*
X165969797Y-110385926D01*
X165964581Y-110406750D01*
X165957349Y-110426962D01*
X165948170Y-110446368D01*
X165937134Y-110464781D01*
X165924346Y-110482024D01*
X165909930Y-110497930D01*
X165894024Y-110512346D01*
X165876781Y-110525134D01*
X165858368Y-110536170D01*
X165838962Y-110545349D01*
X165818750Y-110552581D01*
X165797926Y-110557797D01*
X165776691Y-110560947D01*
X165755250Y-110562000D01*
X165317750Y-110562000D01*
X165296309Y-110560947D01*
X165275074Y-110557797D01*
X165254250Y-110552581D01*
X165234038Y-110545349D01*
X165214632Y-110536170D01*
X165196219Y-110525134D01*
X165178976Y-110512346D01*
X165163070Y-110497930D01*
X165148654Y-110482024D01*
X165135866Y-110464781D01*
X165124830Y-110446368D01*
X165115651Y-110426962D01*
X165108419Y-110406750D01*
X165103203Y-110385926D01*
X165100053Y-110364691D01*
X165099000Y-110343250D01*
X165099000Y-109830750D01*
X165100053Y-109809309D01*
X165103203Y-109788074D01*
X165108419Y-109767250D01*
X165115651Y-109747038D01*
X165124830Y-109727632D01*
X165135866Y-109709219D01*
X165148654Y-109691976D01*
X165163070Y-109676070D01*
X165178976Y-109661654D01*
X165196219Y-109648866D01*
X165214632Y-109637830D01*
X165234038Y-109628651D01*
X165254250Y-109621419D01*
X165275074Y-109616203D01*
X165296309Y-109613053D01*
X165317750Y-109612000D01*
X165755250Y-109612000D01*
X165776691Y-109613053D01*
X165776691Y-109613053D01*
G37*
D12*
X165536500Y-110087000D03*
D10*
G36*
X165060691Y-97062053D02*
G01*
X165081926Y-97065203D01*
X165102750Y-97070419D01*
X165122962Y-97077651D01*
X165142368Y-97086830D01*
X165160781Y-97097866D01*
X165178024Y-97110654D01*
X165193930Y-97125070D01*
X165208346Y-97140976D01*
X165221134Y-97158219D01*
X165232170Y-97176632D01*
X165241349Y-97196038D01*
X165248581Y-97216250D01*
X165253797Y-97237074D01*
X165256947Y-97258309D01*
X165258000Y-97279750D01*
X165258000Y-97792250D01*
X165256947Y-97813691D01*
X165253797Y-97834926D01*
X165248581Y-97855750D01*
X165241349Y-97875962D01*
X165232170Y-97895368D01*
X165221134Y-97913781D01*
X165208346Y-97931024D01*
X165193930Y-97946930D01*
X165178024Y-97961346D01*
X165160781Y-97974134D01*
X165142368Y-97985170D01*
X165122962Y-97994349D01*
X165102750Y-98001581D01*
X165081926Y-98006797D01*
X165060691Y-98009947D01*
X165039250Y-98011000D01*
X164601750Y-98011000D01*
X164580309Y-98009947D01*
X164559074Y-98006797D01*
X164538250Y-98001581D01*
X164518038Y-97994349D01*
X164498632Y-97985170D01*
X164480219Y-97974134D01*
X164462976Y-97961346D01*
X164447070Y-97946930D01*
X164432654Y-97931024D01*
X164419866Y-97913781D01*
X164408830Y-97895368D01*
X164399651Y-97875962D01*
X164392419Y-97855750D01*
X164387203Y-97834926D01*
X164384053Y-97813691D01*
X164383000Y-97792250D01*
X164383000Y-97279750D01*
X164384053Y-97258309D01*
X164387203Y-97237074D01*
X164392419Y-97216250D01*
X164399651Y-97196038D01*
X164408830Y-97176632D01*
X164419866Y-97158219D01*
X164432654Y-97140976D01*
X164447070Y-97125070D01*
X164462976Y-97110654D01*
X164480219Y-97097866D01*
X164498632Y-97086830D01*
X164518038Y-97077651D01*
X164538250Y-97070419D01*
X164559074Y-97065203D01*
X164580309Y-97062053D01*
X164601750Y-97061000D01*
X165039250Y-97061000D01*
X165060691Y-97062053D01*
X165060691Y-97062053D01*
G37*
D12*
X164820500Y-97536000D03*
D10*
G36*
X166635691Y-97062053D02*
G01*
X166656926Y-97065203D01*
X166677750Y-97070419D01*
X166697962Y-97077651D01*
X166717368Y-97086830D01*
X166735781Y-97097866D01*
X166753024Y-97110654D01*
X166768930Y-97125070D01*
X166783346Y-97140976D01*
X166796134Y-97158219D01*
X166807170Y-97176632D01*
X166816349Y-97196038D01*
X166823581Y-97216250D01*
X166828797Y-97237074D01*
X166831947Y-97258309D01*
X166833000Y-97279750D01*
X166833000Y-97792250D01*
X166831947Y-97813691D01*
X166828797Y-97834926D01*
X166823581Y-97855750D01*
X166816349Y-97875962D01*
X166807170Y-97895368D01*
X166796134Y-97913781D01*
X166783346Y-97931024D01*
X166768930Y-97946930D01*
X166753024Y-97961346D01*
X166735781Y-97974134D01*
X166717368Y-97985170D01*
X166697962Y-97994349D01*
X166677750Y-98001581D01*
X166656926Y-98006797D01*
X166635691Y-98009947D01*
X166614250Y-98011000D01*
X166176750Y-98011000D01*
X166155309Y-98009947D01*
X166134074Y-98006797D01*
X166113250Y-98001581D01*
X166093038Y-97994349D01*
X166073632Y-97985170D01*
X166055219Y-97974134D01*
X166037976Y-97961346D01*
X166022070Y-97946930D01*
X166007654Y-97931024D01*
X165994866Y-97913781D01*
X165983830Y-97895368D01*
X165974651Y-97875962D01*
X165967419Y-97855750D01*
X165962203Y-97834926D01*
X165959053Y-97813691D01*
X165958000Y-97792250D01*
X165958000Y-97279750D01*
X165959053Y-97258309D01*
X165962203Y-97237074D01*
X165967419Y-97216250D01*
X165974651Y-97196038D01*
X165983830Y-97176632D01*
X165994866Y-97158219D01*
X166007654Y-97140976D01*
X166022070Y-97125070D01*
X166037976Y-97110654D01*
X166055219Y-97097866D01*
X166073632Y-97086830D01*
X166093038Y-97077651D01*
X166113250Y-97070419D01*
X166134074Y-97065203D01*
X166155309Y-97062053D01*
X166176750Y-97061000D01*
X166614250Y-97061000D01*
X166635691Y-97062053D01*
X166635691Y-97062053D01*
G37*
D12*
X166395500Y-97536000D03*
D10*
G36*
X167751691Y-112563053D02*
G01*
X167772926Y-112566203D01*
X167793750Y-112571419D01*
X167813962Y-112578651D01*
X167833368Y-112587830D01*
X167851781Y-112598866D01*
X167869024Y-112611654D01*
X167884930Y-112626070D01*
X167899346Y-112641976D01*
X167912134Y-112659219D01*
X167923170Y-112677632D01*
X167932349Y-112697038D01*
X167939581Y-112717250D01*
X167944797Y-112738074D01*
X167947947Y-112759309D01*
X167949000Y-112780750D01*
X167949000Y-113293250D01*
X167947947Y-113314691D01*
X167944797Y-113335926D01*
X167939581Y-113356750D01*
X167932349Y-113376962D01*
X167923170Y-113396368D01*
X167912134Y-113414781D01*
X167899346Y-113432024D01*
X167884930Y-113447930D01*
X167869024Y-113462346D01*
X167851781Y-113475134D01*
X167833368Y-113486170D01*
X167813962Y-113495349D01*
X167793750Y-113502581D01*
X167772926Y-113507797D01*
X167751691Y-113510947D01*
X167730250Y-113512000D01*
X167292750Y-113512000D01*
X167271309Y-113510947D01*
X167250074Y-113507797D01*
X167229250Y-113502581D01*
X167209038Y-113495349D01*
X167189632Y-113486170D01*
X167171219Y-113475134D01*
X167153976Y-113462346D01*
X167138070Y-113447930D01*
X167123654Y-113432024D01*
X167110866Y-113414781D01*
X167099830Y-113396368D01*
X167090651Y-113376962D01*
X167083419Y-113356750D01*
X167078203Y-113335926D01*
X167075053Y-113314691D01*
X167074000Y-113293250D01*
X167074000Y-112780750D01*
X167075053Y-112759309D01*
X167078203Y-112738074D01*
X167083419Y-112717250D01*
X167090651Y-112697038D01*
X167099830Y-112677632D01*
X167110866Y-112659219D01*
X167123654Y-112641976D01*
X167138070Y-112626070D01*
X167153976Y-112611654D01*
X167171219Y-112598866D01*
X167189632Y-112587830D01*
X167209038Y-112578651D01*
X167229250Y-112571419D01*
X167250074Y-112566203D01*
X167271309Y-112563053D01*
X167292750Y-112562000D01*
X167730250Y-112562000D01*
X167751691Y-112563053D01*
X167751691Y-112563053D01*
G37*
D12*
X167511500Y-113037000D03*
D10*
G36*
X166176691Y-112563053D02*
G01*
X166197926Y-112566203D01*
X166218750Y-112571419D01*
X166238962Y-112578651D01*
X166258368Y-112587830D01*
X166276781Y-112598866D01*
X166294024Y-112611654D01*
X166309930Y-112626070D01*
X166324346Y-112641976D01*
X166337134Y-112659219D01*
X166348170Y-112677632D01*
X166357349Y-112697038D01*
X166364581Y-112717250D01*
X166369797Y-112738074D01*
X166372947Y-112759309D01*
X166374000Y-112780750D01*
X166374000Y-113293250D01*
X166372947Y-113314691D01*
X166369797Y-113335926D01*
X166364581Y-113356750D01*
X166357349Y-113376962D01*
X166348170Y-113396368D01*
X166337134Y-113414781D01*
X166324346Y-113432024D01*
X166309930Y-113447930D01*
X166294024Y-113462346D01*
X166276781Y-113475134D01*
X166258368Y-113486170D01*
X166238962Y-113495349D01*
X166218750Y-113502581D01*
X166197926Y-113507797D01*
X166176691Y-113510947D01*
X166155250Y-113512000D01*
X165717750Y-113512000D01*
X165696309Y-113510947D01*
X165675074Y-113507797D01*
X165654250Y-113502581D01*
X165634038Y-113495349D01*
X165614632Y-113486170D01*
X165596219Y-113475134D01*
X165578976Y-113462346D01*
X165563070Y-113447930D01*
X165548654Y-113432024D01*
X165535866Y-113414781D01*
X165524830Y-113396368D01*
X165515651Y-113376962D01*
X165508419Y-113356750D01*
X165503203Y-113335926D01*
X165500053Y-113314691D01*
X165499000Y-113293250D01*
X165499000Y-112780750D01*
X165500053Y-112759309D01*
X165503203Y-112738074D01*
X165508419Y-112717250D01*
X165515651Y-112697038D01*
X165524830Y-112677632D01*
X165535866Y-112659219D01*
X165548654Y-112641976D01*
X165563070Y-112626070D01*
X165578976Y-112611654D01*
X165596219Y-112598866D01*
X165614632Y-112587830D01*
X165634038Y-112578651D01*
X165654250Y-112571419D01*
X165675074Y-112566203D01*
X165696309Y-112563053D01*
X165717750Y-112562000D01*
X166155250Y-112562000D01*
X166176691Y-112563053D01*
X166176691Y-112563053D01*
G37*
D12*
X165936500Y-113037000D03*
D10*
G36*
X163719142Y-112118174D02*
G01*
X163742803Y-112121684D01*
X163766007Y-112127496D01*
X163788529Y-112135554D01*
X163810153Y-112145782D01*
X163830670Y-112158079D01*
X163849883Y-112172329D01*
X163867607Y-112188393D01*
X163883671Y-112206117D01*
X163897921Y-112225330D01*
X163910218Y-112245847D01*
X163920446Y-112267471D01*
X163928504Y-112289993D01*
X163934316Y-112313197D01*
X163937826Y-112336858D01*
X163939000Y-112360750D01*
X163939000Y-113273250D01*
X163937826Y-113297142D01*
X163934316Y-113320803D01*
X163928504Y-113344007D01*
X163920446Y-113366529D01*
X163910218Y-113388153D01*
X163897921Y-113408670D01*
X163883671Y-113427883D01*
X163867607Y-113445607D01*
X163849883Y-113461671D01*
X163830670Y-113475921D01*
X163810153Y-113488218D01*
X163788529Y-113498446D01*
X163766007Y-113506504D01*
X163742803Y-113512316D01*
X163719142Y-113515826D01*
X163695250Y-113517000D01*
X163207750Y-113517000D01*
X163183858Y-113515826D01*
X163160197Y-113512316D01*
X163136993Y-113506504D01*
X163114471Y-113498446D01*
X163092847Y-113488218D01*
X163072330Y-113475921D01*
X163053117Y-113461671D01*
X163035393Y-113445607D01*
X163019329Y-113427883D01*
X163005079Y-113408670D01*
X162992782Y-113388153D01*
X162982554Y-113366529D01*
X162974496Y-113344007D01*
X162968684Y-113320803D01*
X162965174Y-113297142D01*
X162964000Y-113273250D01*
X162964000Y-112360750D01*
X162965174Y-112336858D01*
X162968684Y-112313197D01*
X162974496Y-112289993D01*
X162982554Y-112267471D01*
X162992782Y-112245847D01*
X163005079Y-112225330D01*
X163019329Y-112206117D01*
X163035393Y-112188393D01*
X163053117Y-112172329D01*
X163072330Y-112158079D01*
X163092847Y-112145782D01*
X163114471Y-112135554D01*
X163136993Y-112127496D01*
X163160197Y-112121684D01*
X163183858Y-112118174D01*
X163207750Y-112117000D01*
X163695250Y-112117000D01*
X163719142Y-112118174D01*
X163719142Y-112118174D01*
G37*
D11*
X163451500Y-112817000D03*
D10*
G36*
X161844142Y-112118174D02*
G01*
X161867803Y-112121684D01*
X161891007Y-112127496D01*
X161913529Y-112135554D01*
X161935153Y-112145782D01*
X161955670Y-112158079D01*
X161974883Y-112172329D01*
X161992607Y-112188393D01*
X162008671Y-112206117D01*
X162022921Y-112225330D01*
X162035218Y-112245847D01*
X162045446Y-112267471D01*
X162053504Y-112289993D01*
X162059316Y-112313197D01*
X162062826Y-112336858D01*
X162064000Y-112360750D01*
X162064000Y-113273250D01*
X162062826Y-113297142D01*
X162059316Y-113320803D01*
X162053504Y-113344007D01*
X162045446Y-113366529D01*
X162035218Y-113388153D01*
X162022921Y-113408670D01*
X162008671Y-113427883D01*
X161992607Y-113445607D01*
X161974883Y-113461671D01*
X161955670Y-113475921D01*
X161935153Y-113488218D01*
X161913529Y-113498446D01*
X161891007Y-113506504D01*
X161867803Y-113512316D01*
X161844142Y-113515826D01*
X161820250Y-113517000D01*
X161332750Y-113517000D01*
X161308858Y-113515826D01*
X161285197Y-113512316D01*
X161261993Y-113506504D01*
X161239471Y-113498446D01*
X161217847Y-113488218D01*
X161197330Y-113475921D01*
X161178117Y-113461671D01*
X161160393Y-113445607D01*
X161144329Y-113427883D01*
X161130079Y-113408670D01*
X161117782Y-113388153D01*
X161107554Y-113366529D01*
X161099496Y-113344007D01*
X161093684Y-113320803D01*
X161090174Y-113297142D01*
X161089000Y-113273250D01*
X161089000Y-112360750D01*
X161090174Y-112336858D01*
X161093684Y-112313197D01*
X161099496Y-112289993D01*
X161107554Y-112267471D01*
X161117782Y-112245847D01*
X161130079Y-112225330D01*
X161144329Y-112206117D01*
X161160393Y-112188393D01*
X161178117Y-112172329D01*
X161197330Y-112158079D01*
X161217847Y-112145782D01*
X161239471Y-112135554D01*
X161261993Y-112127496D01*
X161285197Y-112121684D01*
X161308858Y-112118174D01*
X161332750Y-112117000D01*
X161820250Y-112117000D01*
X161844142Y-112118174D01*
X161844142Y-112118174D01*
G37*
D11*
X161576500Y-112817000D03*
D10*
G36*
X178534142Y-112749174D02*
G01*
X178557803Y-112752684D01*
X178581007Y-112758496D01*
X178603529Y-112766554D01*
X178625153Y-112776782D01*
X178645670Y-112789079D01*
X178664883Y-112803329D01*
X178682607Y-112819393D01*
X178698671Y-112837117D01*
X178712921Y-112856330D01*
X178725218Y-112876847D01*
X178735446Y-112898471D01*
X178743504Y-112920993D01*
X178749316Y-112944197D01*
X178752826Y-112967858D01*
X178754000Y-112991750D01*
X178754000Y-113479250D01*
X178752826Y-113503142D01*
X178749316Y-113526803D01*
X178743504Y-113550007D01*
X178735446Y-113572529D01*
X178725218Y-113594153D01*
X178712921Y-113614670D01*
X178698671Y-113633883D01*
X178682607Y-113651607D01*
X178664883Y-113667671D01*
X178645670Y-113681921D01*
X178625153Y-113694218D01*
X178603529Y-113704446D01*
X178581007Y-113712504D01*
X178557803Y-113718316D01*
X178534142Y-113721826D01*
X178510250Y-113723000D01*
X177597750Y-113723000D01*
X177573858Y-113721826D01*
X177550197Y-113718316D01*
X177526993Y-113712504D01*
X177504471Y-113704446D01*
X177482847Y-113694218D01*
X177462330Y-113681921D01*
X177443117Y-113667671D01*
X177425393Y-113651607D01*
X177409329Y-113633883D01*
X177395079Y-113614670D01*
X177382782Y-113594153D01*
X177372554Y-113572529D01*
X177364496Y-113550007D01*
X177358684Y-113526803D01*
X177355174Y-113503142D01*
X177354000Y-113479250D01*
X177354000Y-112991750D01*
X177355174Y-112967858D01*
X177358684Y-112944197D01*
X177364496Y-112920993D01*
X177372554Y-112898471D01*
X177382782Y-112876847D01*
X177395079Y-112856330D01*
X177409329Y-112837117D01*
X177425393Y-112819393D01*
X177443117Y-112803329D01*
X177462330Y-112789079D01*
X177482847Y-112776782D01*
X177504471Y-112766554D01*
X177526993Y-112758496D01*
X177550197Y-112752684D01*
X177573858Y-112749174D01*
X177597750Y-112748000D01*
X178510250Y-112748000D01*
X178534142Y-112749174D01*
X178534142Y-112749174D01*
G37*
D11*
X178054000Y-113235500D03*
D10*
G36*
X178534142Y-114624174D02*
G01*
X178557803Y-114627684D01*
X178581007Y-114633496D01*
X178603529Y-114641554D01*
X178625153Y-114651782D01*
X178645670Y-114664079D01*
X178664883Y-114678329D01*
X178682607Y-114694393D01*
X178698671Y-114712117D01*
X178712921Y-114731330D01*
X178725218Y-114751847D01*
X178735446Y-114773471D01*
X178743504Y-114795993D01*
X178749316Y-114819197D01*
X178752826Y-114842858D01*
X178754000Y-114866750D01*
X178754000Y-115354250D01*
X178752826Y-115378142D01*
X178749316Y-115401803D01*
X178743504Y-115425007D01*
X178735446Y-115447529D01*
X178725218Y-115469153D01*
X178712921Y-115489670D01*
X178698671Y-115508883D01*
X178682607Y-115526607D01*
X178664883Y-115542671D01*
X178645670Y-115556921D01*
X178625153Y-115569218D01*
X178603529Y-115579446D01*
X178581007Y-115587504D01*
X178557803Y-115593316D01*
X178534142Y-115596826D01*
X178510250Y-115598000D01*
X177597750Y-115598000D01*
X177573858Y-115596826D01*
X177550197Y-115593316D01*
X177526993Y-115587504D01*
X177504471Y-115579446D01*
X177482847Y-115569218D01*
X177462330Y-115556921D01*
X177443117Y-115542671D01*
X177425393Y-115526607D01*
X177409329Y-115508883D01*
X177395079Y-115489670D01*
X177382782Y-115469153D01*
X177372554Y-115447529D01*
X177364496Y-115425007D01*
X177358684Y-115401803D01*
X177355174Y-115378142D01*
X177354000Y-115354250D01*
X177354000Y-114866750D01*
X177355174Y-114842858D01*
X177358684Y-114819197D01*
X177364496Y-114795993D01*
X177372554Y-114773471D01*
X177382782Y-114751847D01*
X177395079Y-114731330D01*
X177409329Y-114712117D01*
X177425393Y-114694393D01*
X177443117Y-114678329D01*
X177462330Y-114664079D01*
X177482847Y-114651782D01*
X177504471Y-114641554D01*
X177526993Y-114633496D01*
X177550197Y-114627684D01*
X177573858Y-114624174D01*
X177597750Y-114623000D01*
X178510250Y-114623000D01*
X178534142Y-114624174D01*
X178534142Y-114624174D01*
G37*
D11*
X178054000Y-115110500D03*
D10*
G36*
X157960142Y-81731174D02*
G01*
X157983803Y-81734684D01*
X158007007Y-81740496D01*
X158029529Y-81748554D01*
X158051153Y-81758782D01*
X158071670Y-81771079D01*
X158090883Y-81785329D01*
X158108607Y-81801393D01*
X158124671Y-81819117D01*
X158138921Y-81838330D01*
X158151218Y-81858847D01*
X158161446Y-81880471D01*
X158169504Y-81902993D01*
X158175316Y-81926197D01*
X158178826Y-81949858D01*
X158180000Y-81973750D01*
X158180000Y-82461250D01*
X158178826Y-82485142D01*
X158175316Y-82508803D01*
X158169504Y-82532007D01*
X158161446Y-82554529D01*
X158151218Y-82576153D01*
X158138921Y-82596670D01*
X158124671Y-82615883D01*
X158108607Y-82633607D01*
X158090883Y-82649671D01*
X158071670Y-82663921D01*
X158051153Y-82676218D01*
X158029529Y-82686446D01*
X158007007Y-82694504D01*
X157983803Y-82700316D01*
X157960142Y-82703826D01*
X157936250Y-82705000D01*
X157023750Y-82705000D01*
X156999858Y-82703826D01*
X156976197Y-82700316D01*
X156952993Y-82694504D01*
X156930471Y-82686446D01*
X156908847Y-82676218D01*
X156888330Y-82663921D01*
X156869117Y-82649671D01*
X156851393Y-82633607D01*
X156835329Y-82615883D01*
X156821079Y-82596670D01*
X156808782Y-82576153D01*
X156798554Y-82554529D01*
X156790496Y-82532007D01*
X156784684Y-82508803D01*
X156781174Y-82485142D01*
X156780000Y-82461250D01*
X156780000Y-81973750D01*
X156781174Y-81949858D01*
X156784684Y-81926197D01*
X156790496Y-81902993D01*
X156798554Y-81880471D01*
X156808782Y-81858847D01*
X156821079Y-81838330D01*
X156835329Y-81819117D01*
X156851393Y-81801393D01*
X156869117Y-81785329D01*
X156888330Y-81771079D01*
X156908847Y-81758782D01*
X156930471Y-81748554D01*
X156952993Y-81740496D01*
X156976197Y-81734684D01*
X156999858Y-81731174D01*
X157023750Y-81730000D01*
X157936250Y-81730000D01*
X157960142Y-81731174D01*
X157960142Y-81731174D01*
G37*
D11*
X157480000Y-82217500D03*
D10*
G36*
X157960142Y-79856174D02*
G01*
X157983803Y-79859684D01*
X158007007Y-79865496D01*
X158029529Y-79873554D01*
X158051153Y-79883782D01*
X158071670Y-79896079D01*
X158090883Y-79910329D01*
X158108607Y-79926393D01*
X158124671Y-79944117D01*
X158138921Y-79963330D01*
X158151218Y-79983847D01*
X158161446Y-80005471D01*
X158169504Y-80027993D01*
X158175316Y-80051197D01*
X158178826Y-80074858D01*
X158180000Y-80098750D01*
X158180000Y-80586250D01*
X158178826Y-80610142D01*
X158175316Y-80633803D01*
X158169504Y-80657007D01*
X158161446Y-80679529D01*
X158151218Y-80701153D01*
X158138921Y-80721670D01*
X158124671Y-80740883D01*
X158108607Y-80758607D01*
X158090883Y-80774671D01*
X158071670Y-80788921D01*
X158051153Y-80801218D01*
X158029529Y-80811446D01*
X158007007Y-80819504D01*
X157983803Y-80825316D01*
X157960142Y-80828826D01*
X157936250Y-80830000D01*
X157023750Y-80830000D01*
X156999858Y-80828826D01*
X156976197Y-80825316D01*
X156952993Y-80819504D01*
X156930471Y-80811446D01*
X156908847Y-80801218D01*
X156888330Y-80788921D01*
X156869117Y-80774671D01*
X156851393Y-80758607D01*
X156835329Y-80740883D01*
X156821079Y-80721670D01*
X156808782Y-80701153D01*
X156798554Y-80679529D01*
X156790496Y-80657007D01*
X156784684Y-80633803D01*
X156781174Y-80610142D01*
X156780000Y-80586250D01*
X156780000Y-80098750D01*
X156781174Y-80074858D01*
X156784684Y-80051197D01*
X156790496Y-80027993D01*
X156798554Y-80005471D01*
X156808782Y-79983847D01*
X156821079Y-79963330D01*
X156835329Y-79944117D01*
X156851393Y-79926393D01*
X156869117Y-79910329D01*
X156888330Y-79896079D01*
X156908847Y-79883782D01*
X156930471Y-79873554D01*
X156952993Y-79865496D01*
X156976197Y-79859684D01*
X156999858Y-79856174D01*
X157023750Y-79855000D01*
X157936250Y-79855000D01*
X157960142Y-79856174D01*
X157960142Y-79856174D01*
G37*
D11*
X157480000Y-80342500D03*
D10*
G36*
X161770142Y-81731174D02*
G01*
X161793803Y-81734684D01*
X161817007Y-81740496D01*
X161839529Y-81748554D01*
X161861153Y-81758782D01*
X161881670Y-81771079D01*
X161900883Y-81785329D01*
X161918607Y-81801393D01*
X161934671Y-81819117D01*
X161948921Y-81838330D01*
X161961218Y-81858847D01*
X161971446Y-81880471D01*
X161979504Y-81902993D01*
X161985316Y-81926197D01*
X161988826Y-81949858D01*
X161990000Y-81973750D01*
X161990000Y-82461250D01*
X161988826Y-82485142D01*
X161985316Y-82508803D01*
X161979504Y-82532007D01*
X161971446Y-82554529D01*
X161961218Y-82576153D01*
X161948921Y-82596670D01*
X161934671Y-82615883D01*
X161918607Y-82633607D01*
X161900883Y-82649671D01*
X161881670Y-82663921D01*
X161861153Y-82676218D01*
X161839529Y-82686446D01*
X161817007Y-82694504D01*
X161793803Y-82700316D01*
X161770142Y-82703826D01*
X161746250Y-82705000D01*
X160833750Y-82705000D01*
X160809858Y-82703826D01*
X160786197Y-82700316D01*
X160762993Y-82694504D01*
X160740471Y-82686446D01*
X160718847Y-82676218D01*
X160698330Y-82663921D01*
X160679117Y-82649671D01*
X160661393Y-82633607D01*
X160645329Y-82615883D01*
X160631079Y-82596670D01*
X160618782Y-82576153D01*
X160608554Y-82554529D01*
X160600496Y-82532007D01*
X160594684Y-82508803D01*
X160591174Y-82485142D01*
X160590000Y-82461250D01*
X160590000Y-81973750D01*
X160591174Y-81949858D01*
X160594684Y-81926197D01*
X160600496Y-81902993D01*
X160608554Y-81880471D01*
X160618782Y-81858847D01*
X160631079Y-81838330D01*
X160645329Y-81819117D01*
X160661393Y-81801393D01*
X160679117Y-81785329D01*
X160698330Y-81771079D01*
X160718847Y-81758782D01*
X160740471Y-81748554D01*
X160762993Y-81740496D01*
X160786197Y-81734684D01*
X160809858Y-81731174D01*
X160833750Y-81730000D01*
X161746250Y-81730000D01*
X161770142Y-81731174D01*
X161770142Y-81731174D01*
G37*
D11*
X161290000Y-82217500D03*
D10*
G36*
X161770142Y-79856174D02*
G01*
X161793803Y-79859684D01*
X161817007Y-79865496D01*
X161839529Y-79873554D01*
X161861153Y-79883782D01*
X161881670Y-79896079D01*
X161900883Y-79910329D01*
X161918607Y-79926393D01*
X161934671Y-79944117D01*
X161948921Y-79963330D01*
X161961218Y-79983847D01*
X161971446Y-80005471D01*
X161979504Y-80027993D01*
X161985316Y-80051197D01*
X161988826Y-80074858D01*
X161990000Y-80098750D01*
X161990000Y-80586250D01*
X161988826Y-80610142D01*
X161985316Y-80633803D01*
X161979504Y-80657007D01*
X161971446Y-80679529D01*
X161961218Y-80701153D01*
X161948921Y-80721670D01*
X161934671Y-80740883D01*
X161918607Y-80758607D01*
X161900883Y-80774671D01*
X161881670Y-80788921D01*
X161861153Y-80801218D01*
X161839529Y-80811446D01*
X161817007Y-80819504D01*
X161793803Y-80825316D01*
X161770142Y-80828826D01*
X161746250Y-80830000D01*
X160833750Y-80830000D01*
X160809858Y-80828826D01*
X160786197Y-80825316D01*
X160762993Y-80819504D01*
X160740471Y-80811446D01*
X160718847Y-80801218D01*
X160698330Y-80788921D01*
X160679117Y-80774671D01*
X160661393Y-80758607D01*
X160645329Y-80740883D01*
X160631079Y-80721670D01*
X160618782Y-80701153D01*
X160608554Y-80679529D01*
X160600496Y-80657007D01*
X160594684Y-80633803D01*
X160591174Y-80610142D01*
X160590000Y-80586250D01*
X160590000Y-80098750D01*
X160591174Y-80074858D01*
X160594684Y-80051197D01*
X160600496Y-80027993D01*
X160608554Y-80005471D01*
X160618782Y-79983847D01*
X160631079Y-79963330D01*
X160645329Y-79944117D01*
X160661393Y-79926393D01*
X160679117Y-79910329D01*
X160698330Y-79896079D01*
X160718847Y-79883782D01*
X160740471Y-79873554D01*
X160762993Y-79865496D01*
X160786197Y-79859684D01*
X160809858Y-79856174D01*
X160833750Y-79855000D01*
X161746250Y-79855000D01*
X161770142Y-79856174D01*
X161770142Y-79856174D01*
G37*
D11*
X161290000Y-80342500D03*
D10*
G36*
X178661142Y-78380674D02*
G01*
X178684803Y-78384184D01*
X178708007Y-78389996D01*
X178730529Y-78398054D01*
X178752153Y-78408282D01*
X178772670Y-78420579D01*
X178791883Y-78434829D01*
X178809607Y-78450893D01*
X178825671Y-78468617D01*
X178839921Y-78487830D01*
X178852218Y-78508347D01*
X178862446Y-78529971D01*
X178870504Y-78552493D01*
X178876316Y-78575697D01*
X178879826Y-78599358D01*
X178881000Y-78623250D01*
X178881000Y-79110750D01*
X178879826Y-79134642D01*
X178876316Y-79158303D01*
X178870504Y-79181507D01*
X178862446Y-79204029D01*
X178852218Y-79225653D01*
X178839921Y-79246170D01*
X178825671Y-79265383D01*
X178809607Y-79283107D01*
X178791883Y-79299171D01*
X178772670Y-79313421D01*
X178752153Y-79325718D01*
X178730529Y-79335946D01*
X178708007Y-79344004D01*
X178684803Y-79349816D01*
X178661142Y-79353326D01*
X178637250Y-79354500D01*
X177724750Y-79354500D01*
X177700858Y-79353326D01*
X177677197Y-79349816D01*
X177653993Y-79344004D01*
X177631471Y-79335946D01*
X177609847Y-79325718D01*
X177589330Y-79313421D01*
X177570117Y-79299171D01*
X177552393Y-79283107D01*
X177536329Y-79265383D01*
X177522079Y-79246170D01*
X177509782Y-79225653D01*
X177499554Y-79204029D01*
X177491496Y-79181507D01*
X177485684Y-79158303D01*
X177482174Y-79134642D01*
X177481000Y-79110750D01*
X177481000Y-78623250D01*
X177482174Y-78599358D01*
X177485684Y-78575697D01*
X177491496Y-78552493D01*
X177499554Y-78529971D01*
X177509782Y-78508347D01*
X177522079Y-78487830D01*
X177536329Y-78468617D01*
X177552393Y-78450893D01*
X177570117Y-78434829D01*
X177589330Y-78420579D01*
X177609847Y-78408282D01*
X177631471Y-78398054D01*
X177653993Y-78389996D01*
X177677197Y-78384184D01*
X177700858Y-78380674D01*
X177724750Y-78379500D01*
X178637250Y-78379500D01*
X178661142Y-78380674D01*
X178661142Y-78380674D01*
G37*
D11*
X178181000Y-78867000D03*
D10*
G36*
X178661142Y-80255674D02*
G01*
X178684803Y-80259184D01*
X178708007Y-80264996D01*
X178730529Y-80273054D01*
X178752153Y-80283282D01*
X178772670Y-80295579D01*
X178791883Y-80309829D01*
X178809607Y-80325893D01*
X178825671Y-80343617D01*
X178839921Y-80362830D01*
X178852218Y-80383347D01*
X178862446Y-80404971D01*
X178870504Y-80427493D01*
X178876316Y-80450697D01*
X178879826Y-80474358D01*
X178881000Y-80498250D01*
X178881000Y-80985750D01*
X178879826Y-81009642D01*
X178876316Y-81033303D01*
X178870504Y-81056507D01*
X178862446Y-81079029D01*
X178852218Y-81100653D01*
X178839921Y-81121170D01*
X178825671Y-81140383D01*
X178809607Y-81158107D01*
X178791883Y-81174171D01*
X178772670Y-81188421D01*
X178752153Y-81200718D01*
X178730529Y-81210946D01*
X178708007Y-81219004D01*
X178684803Y-81224816D01*
X178661142Y-81228326D01*
X178637250Y-81229500D01*
X177724750Y-81229500D01*
X177700858Y-81228326D01*
X177677197Y-81224816D01*
X177653993Y-81219004D01*
X177631471Y-81210946D01*
X177609847Y-81200718D01*
X177589330Y-81188421D01*
X177570117Y-81174171D01*
X177552393Y-81158107D01*
X177536329Y-81140383D01*
X177522079Y-81121170D01*
X177509782Y-81100653D01*
X177499554Y-81079029D01*
X177491496Y-81056507D01*
X177485684Y-81033303D01*
X177482174Y-81009642D01*
X177481000Y-80985750D01*
X177481000Y-80498250D01*
X177482174Y-80474358D01*
X177485684Y-80450697D01*
X177491496Y-80427493D01*
X177499554Y-80404971D01*
X177509782Y-80383347D01*
X177522079Y-80362830D01*
X177536329Y-80343617D01*
X177552393Y-80325893D01*
X177570117Y-80309829D01*
X177589330Y-80295579D01*
X177609847Y-80283282D01*
X177631471Y-80273054D01*
X177653993Y-80264996D01*
X177677197Y-80259184D01*
X177700858Y-80255674D01*
X177724750Y-80254500D01*
X178637250Y-80254500D01*
X178661142Y-80255674D01*
X178661142Y-80255674D01*
G37*
D11*
X178181000Y-80742000D03*
D27*
X170907000Y-79295000D03*
X170907000Y-80195000D03*
X170907000Y-81095000D03*
X170907000Y-81995000D03*
X169707000Y-81995000D03*
X169707000Y-81095000D03*
X169707000Y-80195000D03*
X169707000Y-79295000D03*
D28*
X149834000Y-118450000D03*
X149834000Y-117800000D03*
X149834000Y-117150000D03*
X149834000Y-116500000D03*
X152934000Y-116500000D03*
X152934000Y-117150000D03*
X152934000Y-117800000D03*
X152934000Y-118450000D03*
M02*
