G04 #@! TF.GenerationSoftware,KiCad,Pcbnew,(5.1.4)-1*
G04 #@! TF.CreationDate,2021-04-13T15:40:11+02:00*
G04 #@! TF.ProjectId,cSLIM-shield,63534c49-4d2d-4736-9869-656c642e6b69,rev?*
G04 #@! TF.SameCoordinates,Original*
G04 #@! TF.FileFunction,Paste,Top*
G04 #@! TF.FilePolarity,Positive*
%FSLAX46Y46*%
G04 Gerber Fmt 4.6, Leading zero omitted, Abs format (unit mm)*
G04 Created by KiCad (PCBNEW (5.1.4)-1) date 2021-04-13 15:40:11*
%MOMM*%
%LPD*%
G04 APERTURE LIST*
%ADD10C,0.250000*%
%ADD11C,0.875000*%
%ADD12R,0.700000X2.000000*%
%ADD13R,0.700000X1.500000*%
%ADD14R,1.500000X0.700000*%
%ADD15R,2.000000X0.700000*%
%ADD16R,3.030000X3.000000*%
%ADD17R,1.050000X1.000000*%
%ADD18R,2.200000X1.050000*%
%ADD19R,0.740000X2.795000*%
%ADD20R,2.400000X0.800000*%
%ADD21R,3.300000X1.800000*%
%ADD22R,3.050000X1.140000*%
%ADD23R,1.450000X0.950000*%
%ADD24R,1.400000X0.900000*%
%ADD25C,0.975000*%
%ADD26R,0.750000X1.600000*%
%ADD27R,1.400000X2.500000*%
%ADD28C,1.060000*%
%ADD29C,0.250000*%
%ADD30R,0.600000X0.240000*%
%ADD31R,1.050000X0.600000*%
%ADD32R,0.900000X1.400000*%
%ADD33R,2.000000X2.400000*%
%ADD34R,0.800000X0.300000*%
%ADD35R,3.050000X2.200000*%
G04 APERTURE END LIST*
D10*
G36*
X129018691Y-124621053D02*
G01*
X129039926Y-124624203D01*
X129060750Y-124629419D01*
X129080962Y-124636651D01*
X129100368Y-124645830D01*
X129118781Y-124656866D01*
X129136024Y-124669654D01*
X129151930Y-124684070D01*
X129166346Y-124699976D01*
X129179134Y-124717219D01*
X129190170Y-124735632D01*
X129199349Y-124755038D01*
X129206581Y-124775250D01*
X129211797Y-124796074D01*
X129214947Y-124817309D01*
X129216000Y-124838750D01*
X129216000Y-125351250D01*
X129214947Y-125372691D01*
X129211797Y-125393926D01*
X129206581Y-125414750D01*
X129199349Y-125434962D01*
X129190170Y-125454368D01*
X129179134Y-125472781D01*
X129166346Y-125490024D01*
X129151930Y-125505930D01*
X129136024Y-125520346D01*
X129118781Y-125533134D01*
X129100368Y-125544170D01*
X129080962Y-125553349D01*
X129060750Y-125560581D01*
X129039926Y-125565797D01*
X129018691Y-125568947D01*
X128997250Y-125570000D01*
X128559750Y-125570000D01*
X128538309Y-125568947D01*
X128517074Y-125565797D01*
X128496250Y-125560581D01*
X128476038Y-125553349D01*
X128456632Y-125544170D01*
X128438219Y-125533134D01*
X128420976Y-125520346D01*
X128405070Y-125505930D01*
X128390654Y-125490024D01*
X128377866Y-125472781D01*
X128366830Y-125454368D01*
X128357651Y-125434962D01*
X128350419Y-125414750D01*
X128345203Y-125393926D01*
X128342053Y-125372691D01*
X128341000Y-125351250D01*
X128341000Y-124838750D01*
X128342053Y-124817309D01*
X128345203Y-124796074D01*
X128350419Y-124775250D01*
X128357651Y-124755038D01*
X128366830Y-124735632D01*
X128377866Y-124717219D01*
X128390654Y-124699976D01*
X128405070Y-124684070D01*
X128420976Y-124669654D01*
X128438219Y-124656866D01*
X128456632Y-124645830D01*
X128476038Y-124636651D01*
X128496250Y-124629419D01*
X128517074Y-124624203D01*
X128538309Y-124621053D01*
X128559750Y-124620000D01*
X128997250Y-124620000D01*
X129018691Y-124621053D01*
X129018691Y-124621053D01*
G37*
D11*
X128778500Y-125095000D03*
D10*
G36*
X130593691Y-124621053D02*
G01*
X130614926Y-124624203D01*
X130635750Y-124629419D01*
X130655962Y-124636651D01*
X130675368Y-124645830D01*
X130693781Y-124656866D01*
X130711024Y-124669654D01*
X130726930Y-124684070D01*
X130741346Y-124699976D01*
X130754134Y-124717219D01*
X130765170Y-124735632D01*
X130774349Y-124755038D01*
X130781581Y-124775250D01*
X130786797Y-124796074D01*
X130789947Y-124817309D01*
X130791000Y-124838750D01*
X130791000Y-125351250D01*
X130789947Y-125372691D01*
X130786797Y-125393926D01*
X130781581Y-125414750D01*
X130774349Y-125434962D01*
X130765170Y-125454368D01*
X130754134Y-125472781D01*
X130741346Y-125490024D01*
X130726930Y-125505930D01*
X130711024Y-125520346D01*
X130693781Y-125533134D01*
X130675368Y-125544170D01*
X130655962Y-125553349D01*
X130635750Y-125560581D01*
X130614926Y-125565797D01*
X130593691Y-125568947D01*
X130572250Y-125570000D01*
X130134750Y-125570000D01*
X130113309Y-125568947D01*
X130092074Y-125565797D01*
X130071250Y-125560581D01*
X130051038Y-125553349D01*
X130031632Y-125544170D01*
X130013219Y-125533134D01*
X129995976Y-125520346D01*
X129980070Y-125505930D01*
X129965654Y-125490024D01*
X129952866Y-125472781D01*
X129941830Y-125454368D01*
X129932651Y-125434962D01*
X129925419Y-125414750D01*
X129920203Y-125393926D01*
X129917053Y-125372691D01*
X129916000Y-125351250D01*
X129916000Y-124838750D01*
X129917053Y-124817309D01*
X129920203Y-124796074D01*
X129925419Y-124775250D01*
X129932651Y-124755038D01*
X129941830Y-124735632D01*
X129952866Y-124717219D01*
X129965654Y-124699976D01*
X129980070Y-124684070D01*
X129995976Y-124669654D01*
X130013219Y-124656866D01*
X130031632Y-124645830D01*
X130051038Y-124636651D01*
X130071250Y-124629419D01*
X130092074Y-124624203D01*
X130113309Y-124621053D01*
X130134750Y-124620000D01*
X130572250Y-124620000D01*
X130593691Y-124621053D01*
X130593691Y-124621053D01*
G37*
D11*
X130353500Y-125095000D03*
D10*
G36*
X119264691Y-80298053D02*
G01*
X119285926Y-80301203D01*
X119306750Y-80306419D01*
X119326962Y-80313651D01*
X119346368Y-80322830D01*
X119364781Y-80333866D01*
X119382024Y-80346654D01*
X119397930Y-80361070D01*
X119412346Y-80376976D01*
X119425134Y-80394219D01*
X119436170Y-80412632D01*
X119445349Y-80432038D01*
X119452581Y-80452250D01*
X119457797Y-80473074D01*
X119460947Y-80494309D01*
X119462000Y-80515750D01*
X119462000Y-81028250D01*
X119460947Y-81049691D01*
X119457797Y-81070926D01*
X119452581Y-81091750D01*
X119445349Y-81111962D01*
X119436170Y-81131368D01*
X119425134Y-81149781D01*
X119412346Y-81167024D01*
X119397930Y-81182930D01*
X119382024Y-81197346D01*
X119364781Y-81210134D01*
X119346368Y-81221170D01*
X119326962Y-81230349D01*
X119306750Y-81237581D01*
X119285926Y-81242797D01*
X119264691Y-81245947D01*
X119243250Y-81247000D01*
X118805750Y-81247000D01*
X118784309Y-81245947D01*
X118763074Y-81242797D01*
X118742250Y-81237581D01*
X118722038Y-81230349D01*
X118702632Y-81221170D01*
X118684219Y-81210134D01*
X118666976Y-81197346D01*
X118651070Y-81182930D01*
X118636654Y-81167024D01*
X118623866Y-81149781D01*
X118612830Y-81131368D01*
X118603651Y-81111962D01*
X118596419Y-81091750D01*
X118591203Y-81070926D01*
X118588053Y-81049691D01*
X118587000Y-81028250D01*
X118587000Y-80515750D01*
X118588053Y-80494309D01*
X118591203Y-80473074D01*
X118596419Y-80452250D01*
X118603651Y-80432038D01*
X118612830Y-80412632D01*
X118623866Y-80394219D01*
X118636654Y-80376976D01*
X118651070Y-80361070D01*
X118666976Y-80346654D01*
X118684219Y-80333866D01*
X118702632Y-80322830D01*
X118722038Y-80313651D01*
X118742250Y-80306419D01*
X118763074Y-80301203D01*
X118784309Y-80298053D01*
X118805750Y-80297000D01*
X119243250Y-80297000D01*
X119264691Y-80298053D01*
X119264691Y-80298053D01*
G37*
D11*
X119024500Y-80772000D03*
D10*
G36*
X117689691Y-80298053D02*
G01*
X117710926Y-80301203D01*
X117731750Y-80306419D01*
X117751962Y-80313651D01*
X117771368Y-80322830D01*
X117789781Y-80333866D01*
X117807024Y-80346654D01*
X117822930Y-80361070D01*
X117837346Y-80376976D01*
X117850134Y-80394219D01*
X117861170Y-80412632D01*
X117870349Y-80432038D01*
X117877581Y-80452250D01*
X117882797Y-80473074D01*
X117885947Y-80494309D01*
X117887000Y-80515750D01*
X117887000Y-81028250D01*
X117885947Y-81049691D01*
X117882797Y-81070926D01*
X117877581Y-81091750D01*
X117870349Y-81111962D01*
X117861170Y-81131368D01*
X117850134Y-81149781D01*
X117837346Y-81167024D01*
X117822930Y-81182930D01*
X117807024Y-81197346D01*
X117789781Y-81210134D01*
X117771368Y-81221170D01*
X117751962Y-81230349D01*
X117731750Y-81237581D01*
X117710926Y-81242797D01*
X117689691Y-81245947D01*
X117668250Y-81247000D01*
X117230750Y-81247000D01*
X117209309Y-81245947D01*
X117188074Y-81242797D01*
X117167250Y-81237581D01*
X117147038Y-81230349D01*
X117127632Y-81221170D01*
X117109219Y-81210134D01*
X117091976Y-81197346D01*
X117076070Y-81182930D01*
X117061654Y-81167024D01*
X117048866Y-81149781D01*
X117037830Y-81131368D01*
X117028651Y-81111962D01*
X117021419Y-81091750D01*
X117016203Y-81070926D01*
X117013053Y-81049691D01*
X117012000Y-81028250D01*
X117012000Y-80515750D01*
X117013053Y-80494309D01*
X117016203Y-80473074D01*
X117021419Y-80452250D01*
X117028651Y-80432038D01*
X117037830Y-80412632D01*
X117048866Y-80394219D01*
X117061654Y-80376976D01*
X117076070Y-80361070D01*
X117091976Y-80346654D01*
X117109219Y-80333866D01*
X117127632Y-80322830D01*
X117147038Y-80313651D01*
X117167250Y-80306419D01*
X117188074Y-80301203D01*
X117209309Y-80298053D01*
X117230750Y-80297000D01*
X117668250Y-80297000D01*
X117689691Y-80298053D01*
X117689691Y-80298053D01*
G37*
D11*
X117449500Y-80772000D03*
D10*
G36*
X117689691Y-82076053D02*
G01*
X117710926Y-82079203D01*
X117731750Y-82084419D01*
X117751962Y-82091651D01*
X117771368Y-82100830D01*
X117789781Y-82111866D01*
X117807024Y-82124654D01*
X117822930Y-82139070D01*
X117837346Y-82154976D01*
X117850134Y-82172219D01*
X117861170Y-82190632D01*
X117870349Y-82210038D01*
X117877581Y-82230250D01*
X117882797Y-82251074D01*
X117885947Y-82272309D01*
X117887000Y-82293750D01*
X117887000Y-82806250D01*
X117885947Y-82827691D01*
X117882797Y-82848926D01*
X117877581Y-82869750D01*
X117870349Y-82889962D01*
X117861170Y-82909368D01*
X117850134Y-82927781D01*
X117837346Y-82945024D01*
X117822930Y-82960930D01*
X117807024Y-82975346D01*
X117789781Y-82988134D01*
X117771368Y-82999170D01*
X117751962Y-83008349D01*
X117731750Y-83015581D01*
X117710926Y-83020797D01*
X117689691Y-83023947D01*
X117668250Y-83025000D01*
X117230750Y-83025000D01*
X117209309Y-83023947D01*
X117188074Y-83020797D01*
X117167250Y-83015581D01*
X117147038Y-83008349D01*
X117127632Y-82999170D01*
X117109219Y-82988134D01*
X117091976Y-82975346D01*
X117076070Y-82960930D01*
X117061654Y-82945024D01*
X117048866Y-82927781D01*
X117037830Y-82909368D01*
X117028651Y-82889962D01*
X117021419Y-82869750D01*
X117016203Y-82848926D01*
X117013053Y-82827691D01*
X117012000Y-82806250D01*
X117012000Y-82293750D01*
X117013053Y-82272309D01*
X117016203Y-82251074D01*
X117021419Y-82230250D01*
X117028651Y-82210038D01*
X117037830Y-82190632D01*
X117048866Y-82172219D01*
X117061654Y-82154976D01*
X117076070Y-82139070D01*
X117091976Y-82124654D01*
X117109219Y-82111866D01*
X117127632Y-82100830D01*
X117147038Y-82091651D01*
X117167250Y-82084419D01*
X117188074Y-82079203D01*
X117209309Y-82076053D01*
X117230750Y-82075000D01*
X117668250Y-82075000D01*
X117689691Y-82076053D01*
X117689691Y-82076053D01*
G37*
D11*
X117449500Y-82550000D03*
D10*
G36*
X119264691Y-82076053D02*
G01*
X119285926Y-82079203D01*
X119306750Y-82084419D01*
X119326962Y-82091651D01*
X119346368Y-82100830D01*
X119364781Y-82111866D01*
X119382024Y-82124654D01*
X119397930Y-82139070D01*
X119412346Y-82154976D01*
X119425134Y-82172219D01*
X119436170Y-82190632D01*
X119445349Y-82210038D01*
X119452581Y-82230250D01*
X119457797Y-82251074D01*
X119460947Y-82272309D01*
X119462000Y-82293750D01*
X119462000Y-82806250D01*
X119460947Y-82827691D01*
X119457797Y-82848926D01*
X119452581Y-82869750D01*
X119445349Y-82889962D01*
X119436170Y-82909368D01*
X119425134Y-82927781D01*
X119412346Y-82945024D01*
X119397930Y-82960930D01*
X119382024Y-82975346D01*
X119364781Y-82988134D01*
X119346368Y-82999170D01*
X119326962Y-83008349D01*
X119306750Y-83015581D01*
X119285926Y-83020797D01*
X119264691Y-83023947D01*
X119243250Y-83025000D01*
X118805750Y-83025000D01*
X118784309Y-83023947D01*
X118763074Y-83020797D01*
X118742250Y-83015581D01*
X118722038Y-83008349D01*
X118702632Y-82999170D01*
X118684219Y-82988134D01*
X118666976Y-82975346D01*
X118651070Y-82960930D01*
X118636654Y-82945024D01*
X118623866Y-82927781D01*
X118612830Y-82909368D01*
X118603651Y-82889962D01*
X118596419Y-82869750D01*
X118591203Y-82848926D01*
X118588053Y-82827691D01*
X118587000Y-82806250D01*
X118587000Y-82293750D01*
X118588053Y-82272309D01*
X118591203Y-82251074D01*
X118596419Y-82230250D01*
X118603651Y-82210038D01*
X118612830Y-82190632D01*
X118623866Y-82172219D01*
X118636654Y-82154976D01*
X118651070Y-82139070D01*
X118666976Y-82124654D01*
X118684219Y-82111866D01*
X118702632Y-82100830D01*
X118722038Y-82091651D01*
X118742250Y-82084419D01*
X118763074Y-82079203D01*
X118784309Y-82076053D01*
X118805750Y-82075000D01*
X119243250Y-82075000D01*
X119264691Y-82076053D01*
X119264691Y-82076053D01*
G37*
D11*
X119024500Y-82550000D03*
D10*
G36*
X118477691Y-85505053D02*
G01*
X118498926Y-85508203D01*
X118519750Y-85513419D01*
X118539962Y-85520651D01*
X118559368Y-85529830D01*
X118577781Y-85540866D01*
X118595024Y-85553654D01*
X118610930Y-85568070D01*
X118625346Y-85583976D01*
X118638134Y-85601219D01*
X118649170Y-85619632D01*
X118658349Y-85639038D01*
X118665581Y-85659250D01*
X118670797Y-85680074D01*
X118673947Y-85701309D01*
X118675000Y-85722750D01*
X118675000Y-86235250D01*
X118673947Y-86256691D01*
X118670797Y-86277926D01*
X118665581Y-86298750D01*
X118658349Y-86318962D01*
X118649170Y-86338368D01*
X118638134Y-86356781D01*
X118625346Y-86374024D01*
X118610930Y-86389930D01*
X118595024Y-86404346D01*
X118577781Y-86417134D01*
X118559368Y-86428170D01*
X118539962Y-86437349D01*
X118519750Y-86444581D01*
X118498926Y-86449797D01*
X118477691Y-86452947D01*
X118456250Y-86454000D01*
X118018750Y-86454000D01*
X117997309Y-86452947D01*
X117976074Y-86449797D01*
X117955250Y-86444581D01*
X117935038Y-86437349D01*
X117915632Y-86428170D01*
X117897219Y-86417134D01*
X117879976Y-86404346D01*
X117864070Y-86389930D01*
X117849654Y-86374024D01*
X117836866Y-86356781D01*
X117825830Y-86338368D01*
X117816651Y-86318962D01*
X117809419Y-86298750D01*
X117804203Y-86277926D01*
X117801053Y-86256691D01*
X117800000Y-86235250D01*
X117800000Y-85722750D01*
X117801053Y-85701309D01*
X117804203Y-85680074D01*
X117809419Y-85659250D01*
X117816651Y-85639038D01*
X117825830Y-85619632D01*
X117836866Y-85601219D01*
X117849654Y-85583976D01*
X117864070Y-85568070D01*
X117879976Y-85553654D01*
X117897219Y-85540866D01*
X117915632Y-85529830D01*
X117935038Y-85520651D01*
X117955250Y-85513419D01*
X117976074Y-85508203D01*
X117997309Y-85505053D01*
X118018750Y-85504000D01*
X118456250Y-85504000D01*
X118477691Y-85505053D01*
X118477691Y-85505053D01*
G37*
D11*
X118237500Y-85979000D03*
D10*
G36*
X120052691Y-85505053D02*
G01*
X120073926Y-85508203D01*
X120094750Y-85513419D01*
X120114962Y-85520651D01*
X120134368Y-85529830D01*
X120152781Y-85540866D01*
X120170024Y-85553654D01*
X120185930Y-85568070D01*
X120200346Y-85583976D01*
X120213134Y-85601219D01*
X120224170Y-85619632D01*
X120233349Y-85639038D01*
X120240581Y-85659250D01*
X120245797Y-85680074D01*
X120248947Y-85701309D01*
X120250000Y-85722750D01*
X120250000Y-86235250D01*
X120248947Y-86256691D01*
X120245797Y-86277926D01*
X120240581Y-86298750D01*
X120233349Y-86318962D01*
X120224170Y-86338368D01*
X120213134Y-86356781D01*
X120200346Y-86374024D01*
X120185930Y-86389930D01*
X120170024Y-86404346D01*
X120152781Y-86417134D01*
X120134368Y-86428170D01*
X120114962Y-86437349D01*
X120094750Y-86444581D01*
X120073926Y-86449797D01*
X120052691Y-86452947D01*
X120031250Y-86454000D01*
X119593750Y-86454000D01*
X119572309Y-86452947D01*
X119551074Y-86449797D01*
X119530250Y-86444581D01*
X119510038Y-86437349D01*
X119490632Y-86428170D01*
X119472219Y-86417134D01*
X119454976Y-86404346D01*
X119439070Y-86389930D01*
X119424654Y-86374024D01*
X119411866Y-86356781D01*
X119400830Y-86338368D01*
X119391651Y-86318962D01*
X119384419Y-86298750D01*
X119379203Y-86277926D01*
X119376053Y-86256691D01*
X119375000Y-86235250D01*
X119375000Y-85722750D01*
X119376053Y-85701309D01*
X119379203Y-85680074D01*
X119384419Y-85659250D01*
X119391651Y-85639038D01*
X119400830Y-85619632D01*
X119411866Y-85601219D01*
X119424654Y-85583976D01*
X119439070Y-85568070D01*
X119454976Y-85553654D01*
X119472219Y-85540866D01*
X119490632Y-85529830D01*
X119510038Y-85520651D01*
X119530250Y-85513419D01*
X119551074Y-85508203D01*
X119572309Y-85505053D01*
X119593750Y-85504000D01*
X120031250Y-85504000D01*
X120052691Y-85505053D01*
X120052691Y-85505053D01*
G37*
D11*
X119812500Y-85979000D03*
D12*
X209374000Y-94690000D03*
X208374000Y-94690000D03*
D13*
X207374000Y-94690000D03*
X206374000Y-94690000D03*
X205374000Y-94690000D03*
X204374000Y-94690000D03*
X203374000Y-94690000D03*
X202374000Y-94690000D03*
X201374000Y-94690000D03*
X200374000Y-94690000D03*
X199374000Y-94690000D03*
D12*
X198374000Y-94690000D03*
D13*
X197374000Y-94690000D03*
D14*
X194954000Y-96940000D03*
D15*
X194954000Y-97940000D03*
D14*
X194954000Y-98940000D03*
X194954000Y-99940000D03*
X194954000Y-100940000D03*
X194954000Y-101940000D03*
X194954000Y-102940000D03*
X194954000Y-103940000D03*
X194954000Y-104940000D03*
D15*
X194954000Y-105940000D03*
D12*
X197374000Y-108190000D03*
D13*
X198374000Y-108190000D03*
X199374000Y-108190000D03*
X200374000Y-108190000D03*
X201374000Y-108190000D03*
X202374000Y-108190000D03*
X203374000Y-108190000D03*
X204374000Y-108190000D03*
X205374000Y-108190000D03*
X206374000Y-108190000D03*
X207374000Y-108190000D03*
D12*
X208374000Y-108190000D03*
X209374000Y-108190000D03*
D15*
X211954000Y-105940000D03*
X211954000Y-104940000D03*
X211954000Y-97940000D03*
X211954000Y-96940000D03*
D16*
X205624000Y-100740000D03*
D17*
X156464000Y-91313000D03*
D18*
X157989000Y-89838000D03*
X157989000Y-92788000D03*
D19*
X202946000Y-118237500D03*
X202946000Y-114172500D03*
X204216000Y-118237500D03*
X204216000Y-114172500D03*
X205486000Y-118237500D03*
X205486000Y-114172500D03*
X206756000Y-118237500D03*
X206756000Y-114172500D03*
X208026000Y-118237500D03*
X208026000Y-114172500D03*
D20*
X181458000Y-99743000D03*
X181458000Y-101243000D03*
X181458000Y-102743000D03*
X181458000Y-104243000D03*
X181458000Y-105743000D03*
D21*
X186508000Y-97143000D03*
X186508000Y-108343000D03*
D22*
X125476000Y-80581000D03*
X125476000Y-82741000D03*
D23*
X171958000Y-81473000D03*
X171958000Y-83373000D03*
D24*
X169164000Y-81473000D03*
X169164000Y-83373000D03*
X166370000Y-83373000D03*
X166370000Y-81473000D03*
X163576000Y-81473000D03*
X163576000Y-83373000D03*
D10*
G36*
X190084142Y-104838174D02*
G01*
X190107803Y-104841684D01*
X190131007Y-104847496D01*
X190153529Y-104855554D01*
X190175153Y-104865782D01*
X190195670Y-104878079D01*
X190214883Y-104892329D01*
X190232607Y-104908393D01*
X190248671Y-104926117D01*
X190262921Y-104945330D01*
X190275218Y-104965847D01*
X190285446Y-104987471D01*
X190293504Y-105009993D01*
X190299316Y-105033197D01*
X190302826Y-105056858D01*
X190304000Y-105080750D01*
X190304000Y-105993250D01*
X190302826Y-106017142D01*
X190299316Y-106040803D01*
X190293504Y-106064007D01*
X190285446Y-106086529D01*
X190275218Y-106108153D01*
X190262921Y-106128670D01*
X190248671Y-106147883D01*
X190232607Y-106165607D01*
X190214883Y-106181671D01*
X190195670Y-106195921D01*
X190175153Y-106208218D01*
X190153529Y-106218446D01*
X190131007Y-106226504D01*
X190107803Y-106232316D01*
X190084142Y-106235826D01*
X190060250Y-106237000D01*
X189572750Y-106237000D01*
X189548858Y-106235826D01*
X189525197Y-106232316D01*
X189501993Y-106226504D01*
X189479471Y-106218446D01*
X189457847Y-106208218D01*
X189437330Y-106195921D01*
X189418117Y-106181671D01*
X189400393Y-106165607D01*
X189384329Y-106147883D01*
X189370079Y-106128670D01*
X189357782Y-106108153D01*
X189347554Y-106086529D01*
X189339496Y-106064007D01*
X189333684Y-106040803D01*
X189330174Y-106017142D01*
X189329000Y-105993250D01*
X189329000Y-105080750D01*
X189330174Y-105056858D01*
X189333684Y-105033197D01*
X189339496Y-105009993D01*
X189347554Y-104987471D01*
X189357782Y-104965847D01*
X189370079Y-104945330D01*
X189384329Y-104926117D01*
X189400393Y-104908393D01*
X189418117Y-104892329D01*
X189437330Y-104878079D01*
X189457847Y-104865782D01*
X189479471Y-104855554D01*
X189501993Y-104847496D01*
X189525197Y-104841684D01*
X189548858Y-104838174D01*
X189572750Y-104837000D01*
X190060250Y-104837000D01*
X190084142Y-104838174D01*
X190084142Y-104838174D01*
G37*
D25*
X189816500Y-105537000D03*
D10*
G36*
X191959142Y-104838174D02*
G01*
X191982803Y-104841684D01*
X192006007Y-104847496D01*
X192028529Y-104855554D01*
X192050153Y-104865782D01*
X192070670Y-104878079D01*
X192089883Y-104892329D01*
X192107607Y-104908393D01*
X192123671Y-104926117D01*
X192137921Y-104945330D01*
X192150218Y-104965847D01*
X192160446Y-104987471D01*
X192168504Y-105009993D01*
X192174316Y-105033197D01*
X192177826Y-105056858D01*
X192179000Y-105080750D01*
X192179000Y-105993250D01*
X192177826Y-106017142D01*
X192174316Y-106040803D01*
X192168504Y-106064007D01*
X192160446Y-106086529D01*
X192150218Y-106108153D01*
X192137921Y-106128670D01*
X192123671Y-106147883D01*
X192107607Y-106165607D01*
X192089883Y-106181671D01*
X192070670Y-106195921D01*
X192050153Y-106208218D01*
X192028529Y-106218446D01*
X192006007Y-106226504D01*
X191982803Y-106232316D01*
X191959142Y-106235826D01*
X191935250Y-106237000D01*
X191447750Y-106237000D01*
X191423858Y-106235826D01*
X191400197Y-106232316D01*
X191376993Y-106226504D01*
X191354471Y-106218446D01*
X191332847Y-106208218D01*
X191312330Y-106195921D01*
X191293117Y-106181671D01*
X191275393Y-106165607D01*
X191259329Y-106147883D01*
X191245079Y-106128670D01*
X191232782Y-106108153D01*
X191222554Y-106086529D01*
X191214496Y-106064007D01*
X191208684Y-106040803D01*
X191205174Y-106017142D01*
X191204000Y-105993250D01*
X191204000Y-105080750D01*
X191205174Y-105056858D01*
X191208684Y-105033197D01*
X191214496Y-105009993D01*
X191222554Y-104987471D01*
X191232782Y-104965847D01*
X191245079Y-104945330D01*
X191259329Y-104926117D01*
X191275393Y-104908393D01*
X191293117Y-104892329D01*
X191312330Y-104878079D01*
X191332847Y-104865782D01*
X191354471Y-104855554D01*
X191376993Y-104847496D01*
X191400197Y-104841684D01*
X191423858Y-104838174D01*
X191447750Y-104837000D01*
X191935250Y-104837000D01*
X191959142Y-104838174D01*
X191959142Y-104838174D01*
G37*
D25*
X191691500Y-105537000D03*
D10*
G36*
X190084142Y-102806174D02*
G01*
X190107803Y-102809684D01*
X190131007Y-102815496D01*
X190153529Y-102823554D01*
X190175153Y-102833782D01*
X190195670Y-102846079D01*
X190214883Y-102860329D01*
X190232607Y-102876393D01*
X190248671Y-102894117D01*
X190262921Y-102913330D01*
X190275218Y-102933847D01*
X190285446Y-102955471D01*
X190293504Y-102977993D01*
X190299316Y-103001197D01*
X190302826Y-103024858D01*
X190304000Y-103048750D01*
X190304000Y-103961250D01*
X190302826Y-103985142D01*
X190299316Y-104008803D01*
X190293504Y-104032007D01*
X190285446Y-104054529D01*
X190275218Y-104076153D01*
X190262921Y-104096670D01*
X190248671Y-104115883D01*
X190232607Y-104133607D01*
X190214883Y-104149671D01*
X190195670Y-104163921D01*
X190175153Y-104176218D01*
X190153529Y-104186446D01*
X190131007Y-104194504D01*
X190107803Y-104200316D01*
X190084142Y-104203826D01*
X190060250Y-104205000D01*
X189572750Y-104205000D01*
X189548858Y-104203826D01*
X189525197Y-104200316D01*
X189501993Y-104194504D01*
X189479471Y-104186446D01*
X189457847Y-104176218D01*
X189437330Y-104163921D01*
X189418117Y-104149671D01*
X189400393Y-104133607D01*
X189384329Y-104115883D01*
X189370079Y-104096670D01*
X189357782Y-104076153D01*
X189347554Y-104054529D01*
X189339496Y-104032007D01*
X189333684Y-104008803D01*
X189330174Y-103985142D01*
X189329000Y-103961250D01*
X189329000Y-103048750D01*
X189330174Y-103024858D01*
X189333684Y-103001197D01*
X189339496Y-102977993D01*
X189347554Y-102955471D01*
X189357782Y-102933847D01*
X189370079Y-102913330D01*
X189384329Y-102894117D01*
X189400393Y-102876393D01*
X189418117Y-102860329D01*
X189437330Y-102846079D01*
X189457847Y-102833782D01*
X189479471Y-102823554D01*
X189501993Y-102815496D01*
X189525197Y-102809684D01*
X189548858Y-102806174D01*
X189572750Y-102805000D01*
X190060250Y-102805000D01*
X190084142Y-102806174D01*
X190084142Y-102806174D01*
G37*
D25*
X189816500Y-103505000D03*
D10*
G36*
X191959142Y-102806174D02*
G01*
X191982803Y-102809684D01*
X192006007Y-102815496D01*
X192028529Y-102823554D01*
X192050153Y-102833782D01*
X192070670Y-102846079D01*
X192089883Y-102860329D01*
X192107607Y-102876393D01*
X192123671Y-102894117D01*
X192137921Y-102913330D01*
X192150218Y-102933847D01*
X192160446Y-102955471D01*
X192168504Y-102977993D01*
X192174316Y-103001197D01*
X192177826Y-103024858D01*
X192179000Y-103048750D01*
X192179000Y-103961250D01*
X192177826Y-103985142D01*
X192174316Y-104008803D01*
X192168504Y-104032007D01*
X192160446Y-104054529D01*
X192150218Y-104076153D01*
X192137921Y-104096670D01*
X192123671Y-104115883D01*
X192107607Y-104133607D01*
X192089883Y-104149671D01*
X192070670Y-104163921D01*
X192050153Y-104176218D01*
X192028529Y-104186446D01*
X192006007Y-104194504D01*
X191982803Y-104200316D01*
X191959142Y-104203826D01*
X191935250Y-104205000D01*
X191447750Y-104205000D01*
X191423858Y-104203826D01*
X191400197Y-104200316D01*
X191376993Y-104194504D01*
X191354471Y-104186446D01*
X191332847Y-104176218D01*
X191312330Y-104163921D01*
X191293117Y-104149671D01*
X191275393Y-104133607D01*
X191259329Y-104115883D01*
X191245079Y-104096670D01*
X191232782Y-104076153D01*
X191222554Y-104054529D01*
X191214496Y-104032007D01*
X191208684Y-104008803D01*
X191205174Y-103985142D01*
X191204000Y-103961250D01*
X191204000Y-103048750D01*
X191205174Y-103024858D01*
X191208684Y-103001197D01*
X191214496Y-102977993D01*
X191222554Y-102955471D01*
X191232782Y-102933847D01*
X191245079Y-102913330D01*
X191259329Y-102894117D01*
X191275393Y-102876393D01*
X191293117Y-102860329D01*
X191312330Y-102846079D01*
X191332847Y-102833782D01*
X191354471Y-102823554D01*
X191376993Y-102815496D01*
X191400197Y-102809684D01*
X191423858Y-102806174D01*
X191447750Y-102805000D01*
X191935250Y-102805000D01*
X191959142Y-102806174D01*
X191959142Y-102806174D01*
G37*
D25*
X191691500Y-103505000D03*
D10*
G36*
X172184142Y-85063174D02*
G01*
X172207803Y-85066684D01*
X172231007Y-85072496D01*
X172253529Y-85080554D01*
X172275153Y-85090782D01*
X172295670Y-85103079D01*
X172314883Y-85117329D01*
X172332607Y-85133393D01*
X172348671Y-85151117D01*
X172362921Y-85170330D01*
X172375218Y-85190847D01*
X172385446Y-85212471D01*
X172393504Y-85234993D01*
X172399316Y-85258197D01*
X172402826Y-85281858D01*
X172404000Y-85305750D01*
X172404000Y-85793250D01*
X172402826Y-85817142D01*
X172399316Y-85840803D01*
X172393504Y-85864007D01*
X172385446Y-85886529D01*
X172375218Y-85908153D01*
X172362921Y-85928670D01*
X172348671Y-85947883D01*
X172332607Y-85965607D01*
X172314883Y-85981671D01*
X172295670Y-85995921D01*
X172275153Y-86008218D01*
X172253529Y-86018446D01*
X172231007Y-86026504D01*
X172207803Y-86032316D01*
X172184142Y-86035826D01*
X172160250Y-86037000D01*
X171247750Y-86037000D01*
X171223858Y-86035826D01*
X171200197Y-86032316D01*
X171176993Y-86026504D01*
X171154471Y-86018446D01*
X171132847Y-86008218D01*
X171112330Y-85995921D01*
X171093117Y-85981671D01*
X171075393Y-85965607D01*
X171059329Y-85947883D01*
X171045079Y-85928670D01*
X171032782Y-85908153D01*
X171022554Y-85886529D01*
X171014496Y-85864007D01*
X171008684Y-85840803D01*
X171005174Y-85817142D01*
X171004000Y-85793250D01*
X171004000Y-85305750D01*
X171005174Y-85281858D01*
X171008684Y-85258197D01*
X171014496Y-85234993D01*
X171022554Y-85212471D01*
X171032782Y-85190847D01*
X171045079Y-85170330D01*
X171059329Y-85151117D01*
X171075393Y-85133393D01*
X171093117Y-85117329D01*
X171112330Y-85103079D01*
X171132847Y-85090782D01*
X171154471Y-85080554D01*
X171176993Y-85072496D01*
X171200197Y-85066684D01*
X171223858Y-85063174D01*
X171247750Y-85062000D01*
X172160250Y-85062000D01*
X172184142Y-85063174D01*
X172184142Y-85063174D01*
G37*
D25*
X171704000Y-85549500D03*
D10*
G36*
X172184142Y-86938174D02*
G01*
X172207803Y-86941684D01*
X172231007Y-86947496D01*
X172253529Y-86955554D01*
X172275153Y-86965782D01*
X172295670Y-86978079D01*
X172314883Y-86992329D01*
X172332607Y-87008393D01*
X172348671Y-87026117D01*
X172362921Y-87045330D01*
X172375218Y-87065847D01*
X172385446Y-87087471D01*
X172393504Y-87109993D01*
X172399316Y-87133197D01*
X172402826Y-87156858D01*
X172404000Y-87180750D01*
X172404000Y-87668250D01*
X172402826Y-87692142D01*
X172399316Y-87715803D01*
X172393504Y-87739007D01*
X172385446Y-87761529D01*
X172375218Y-87783153D01*
X172362921Y-87803670D01*
X172348671Y-87822883D01*
X172332607Y-87840607D01*
X172314883Y-87856671D01*
X172295670Y-87870921D01*
X172275153Y-87883218D01*
X172253529Y-87893446D01*
X172231007Y-87901504D01*
X172207803Y-87907316D01*
X172184142Y-87910826D01*
X172160250Y-87912000D01*
X171247750Y-87912000D01*
X171223858Y-87910826D01*
X171200197Y-87907316D01*
X171176993Y-87901504D01*
X171154471Y-87893446D01*
X171132847Y-87883218D01*
X171112330Y-87870921D01*
X171093117Y-87856671D01*
X171075393Y-87840607D01*
X171059329Y-87822883D01*
X171045079Y-87803670D01*
X171032782Y-87783153D01*
X171022554Y-87761529D01*
X171014496Y-87739007D01*
X171008684Y-87715803D01*
X171005174Y-87692142D01*
X171004000Y-87668250D01*
X171004000Y-87180750D01*
X171005174Y-87156858D01*
X171008684Y-87133197D01*
X171014496Y-87109993D01*
X171022554Y-87087471D01*
X171032782Y-87065847D01*
X171045079Y-87045330D01*
X171059329Y-87026117D01*
X171075393Y-87008393D01*
X171093117Y-86992329D01*
X171112330Y-86978079D01*
X171132847Y-86965782D01*
X171154471Y-86955554D01*
X171176993Y-86947496D01*
X171200197Y-86941684D01*
X171223858Y-86938174D01*
X171247750Y-86937000D01*
X172160250Y-86937000D01*
X172184142Y-86938174D01*
X172184142Y-86938174D01*
G37*
D25*
X171704000Y-87424500D03*
D10*
G36*
X169644142Y-86859674D02*
G01*
X169667803Y-86863184D01*
X169691007Y-86868996D01*
X169713529Y-86877054D01*
X169735153Y-86887282D01*
X169755670Y-86899579D01*
X169774883Y-86913829D01*
X169792607Y-86929893D01*
X169808671Y-86947617D01*
X169822921Y-86966830D01*
X169835218Y-86987347D01*
X169845446Y-87008971D01*
X169853504Y-87031493D01*
X169859316Y-87054697D01*
X169862826Y-87078358D01*
X169864000Y-87102250D01*
X169864000Y-87589750D01*
X169862826Y-87613642D01*
X169859316Y-87637303D01*
X169853504Y-87660507D01*
X169845446Y-87683029D01*
X169835218Y-87704653D01*
X169822921Y-87725170D01*
X169808671Y-87744383D01*
X169792607Y-87762107D01*
X169774883Y-87778171D01*
X169755670Y-87792421D01*
X169735153Y-87804718D01*
X169713529Y-87814946D01*
X169691007Y-87823004D01*
X169667803Y-87828816D01*
X169644142Y-87832326D01*
X169620250Y-87833500D01*
X168707750Y-87833500D01*
X168683858Y-87832326D01*
X168660197Y-87828816D01*
X168636993Y-87823004D01*
X168614471Y-87814946D01*
X168592847Y-87804718D01*
X168572330Y-87792421D01*
X168553117Y-87778171D01*
X168535393Y-87762107D01*
X168519329Y-87744383D01*
X168505079Y-87725170D01*
X168492782Y-87704653D01*
X168482554Y-87683029D01*
X168474496Y-87660507D01*
X168468684Y-87637303D01*
X168465174Y-87613642D01*
X168464000Y-87589750D01*
X168464000Y-87102250D01*
X168465174Y-87078358D01*
X168468684Y-87054697D01*
X168474496Y-87031493D01*
X168482554Y-87008971D01*
X168492782Y-86987347D01*
X168505079Y-86966830D01*
X168519329Y-86947617D01*
X168535393Y-86929893D01*
X168553117Y-86913829D01*
X168572330Y-86899579D01*
X168592847Y-86887282D01*
X168614471Y-86877054D01*
X168636993Y-86868996D01*
X168660197Y-86863184D01*
X168683858Y-86859674D01*
X168707750Y-86858500D01*
X169620250Y-86858500D01*
X169644142Y-86859674D01*
X169644142Y-86859674D01*
G37*
D25*
X169164000Y-87346000D03*
D10*
G36*
X169644142Y-84984674D02*
G01*
X169667803Y-84988184D01*
X169691007Y-84993996D01*
X169713529Y-85002054D01*
X169735153Y-85012282D01*
X169755670Y-85024579D01*
X169774883Y-85038829D01*
X169792607Y-85054893D01*
X169808671Y-85072617D01*
X169822921Y-85091830D01*
X169835218Y-85112347D01*
X169845446Y-85133971D01*
X169853504Y-85156493D01*
X169859316Y-85179697D01*
X169862826Y-85203358D01*
X169864000Y-85227250D01*
X169864000Y-85714750D01*
X169862826Y-85738642D01*
X169859316Y-85762303D01*
X169853504Y-85785507D01*
X169845446Y-85808029D01*
X169835218Y-85829653D01*
X169822921Y-85850170D01*
X169808671Y-85869383D01*
X169792607Y-85887107D01*
X169774883Y-85903171D01*
X169755670Y-85917421D01*
X169735153Y-85929718D01*
X169713529Y-85939946D01*
X169691007Y-85948004D01*
X169667803Y-85953816D01*
X169644142Y-85957326D01*
X169620250Y-85958500D01*
X168707750Y-85958500D01*
X168683858Y-85957326D01*
X168660197Y-85953816D01*
X168636993Y-85948004D01*
X168614471Y-85939946D01*
X168592847Y-85929718D01*
X168572330Y-85917421D01*
X168553117Y-85903171D01*
X168535393Y-85887107D01*
X168519329Y-85869383D01*
X168505079Y-85850170D01*
X168492782Y-85829653D01*
X168482554Y-85808029D01*
X168474496Y-85785507D01*
X168468684Y-85762303D01*
X168465174Y-85738642D01*
X168464000Y-85714750D01*
X168464000Y-85227250D01*
X168465174Y-85203358D01*
X168468684Y-85179697D01*
X168474496Y-85156493D01*
X168482554Y-85133971D01*
X168492782Y-85112347D01*
X168505079Y-85091830D01*
X168519329Y-85072617D01*
X168535393Y-85054893D01*
X168553117Y-85038829D01*
X168572330Y-85024579D01*
X168592847Y-85012282D01*
X168614471Y-85002054D01*
X168636993Y-84993996D01*
X168660197Y-84988184D01*
X168683858Y-84984674D01*
X168707750Y-84983500D01*
X169620250Y-84983500D01*
X169644142Y-84984674D01*
X169644142Y-84984674D01*
G37*
D25*
X169164000Y-85471000D03*
D10*
G36*
X166850142Y-84984674D02*
G01*
X166873803Y-84988184D01*
X166897007Y-84993996D01*
X166919529Y-85002054D01*
X166941153Y-85012282D01*
X166961670Y-85024579D01*
X166980883Y-85038829D01*
X166998607Y-85054893D01*
X167014671Y-85072617D01*
X167028921Y-85091830D01*
X167041218Y-85112347D01*
X167051446Y-85133971D01*
X167059504Y-85156493D01*
X167065316Y-85179697D01*
X167068826Y-85203358D01*
X167070000Y-85227250D01*
X167070000Y-85714750D01*
X167068826Y-85738642D01*
X167065316Y-85762303D01*
X167059504Y-85785507D01*
X167051446Y-85808029D01*
X167041218Y-85829653D01*
X167028921Y-85850170D01*
X167014671Y-85869383D01*
X166998607Y-85887107D01*
X166980883Y-85903171D01*
X166961670Y-85917421D01*
X166941153Y-85929718D01*
X166919529Y-85939946D01*
X166897007Y-85948004D01*
X166873803Y-85953816D01*
X166850142Y-85957326D01*
X166826250Y-85958500D01*
X165913750Y-85958500D01*
X165889858Y-85957326D01*
X165866197Y-85953816D01*
X165842993Y-85948004D01*
X165820471Y-85939946D01*
X165798847Y-85929718D01*
X165778330Y-85917421D01*
X165759117Y-85903171D01*
X165741393Y-85887107D01*
X165725329Y-85869383D01*
X165711079Y-85850170D01*
X165698782Y-85829653D01*
X165688554Y-85808029D01*
X165680496Y-85785507D01*
X165674684Y-85762303D01*
X165671174Y-85738642D01*
X165670000Y-85714750D01*
X165670000Y-85227250D01*
X165671174Y-85203358D01*
X165674684Y-85179697D01*
X165680496Y-85156493D01*
X165688554Y-85133971D01*
X165698782Y-85112347D01*
X165711079Y-85091830D01*
X165725329Y-85072617D01*
X165741393Y-85054893D01*
X165759117Y-85038829D01*
X165778330Y-85024579D01*
X165798847Y-85012282D01*
X165820471Y-85002054D01*
X165842993Y-84993996D01*
X165866197Y-84988184D01*
X165889858Y-84984674D01*
X165913750Y-84983500D01*
X166826250Y-84983500D01*
X166850142Y-84984674D01*
X166850142Y-84984674D01*
G37*
D25*
X166370000Y-85471000D03*
D10*
G36*
X166850142Y-86859674D02*
G01*
X166873803Y-86863184D01*
X166897007Y-86868996D01*
X166919529Y-86877054D01*
X166941153Y-86887282D01*
X166961670Y-86899579D01*
X166980883Y-86913829D01*
X166998607Y-86929893D01*
X167014671Y-86947617D01*
X167028921Y-86966830D01*
X167041218Y-86987347D01*
X167051446Y-87008971D01*
X167059504Y-87031493D01*
X167065316Y-87054697D01*
X167068826Y-87078358D01*
X167070000Y-87102250D01*
X167070000Y-87589750D01*
X167068826Y-87613642D01*
X167065316Y-87637303D01*
X167059504Y-87660507D01*
X167051446Y-87683029D01*
X167041218Y-87704653D01*
X167028921Y-87725170D01*
X167014671Y-87744383D01*
X166998607Y-87762107D01*
X166980883Y-87778171D01*
X166961670Y-87792421D01*
X166941153Y-87804718D01*
X166919529Y-87814946D01*
X166897007Y-87823004D01*
X166873803Y-87828816D01*
X166850142Y-87832326D01*
X166826250Y-87833500D01*
X165913750Y-87833500D01*
X165889858Y-87832326D01*
X165866197Y-87828816D01*
X165842993Y-87823004D01*
X165820471Y-87814946D01*
X165798847Y-87804718D01*
X165778330Y-87792421D01*
X165759117Y-87778171D01*
X165741393Y-87762107D01*
X165725329Y-87744383D01*
X165711079Y-87725170D01*
X165698782Y-87704653D01*
X165688554Y-87683029D01*
X165680496Y-87660507D01*
X165674684Y-87637303D01*
X165671174Y-87613642D01*
X165670000Y-87589750D01*
X165670000Y-87102250D01*
X165671174Y-87078358D01*
X165674684Y-87054697D01*
X165680496Y-87031493D01*
X165688554Y-87008971D01*
X165698782Y-86987347D01*
X165711079Y-86966830D01*
X165725329Y-86947617D01*
X165741393Y-86929893D01*
X165759117Y-86913829D01*
X165778330Y-86899579D01*
X165798847Y-86887282D01*
X165820471Y-86877054D01*
X165842993Y-86868996D01*
X165866197Y-86863184D01*
X165889858Y-86859674D01*
X165913750Y-86858500D01*
X166826250Y-86858500D01*
X166850142Y-86859674D01*
X166850142Y-86859674D01*
G37*
D25*
X166370000Y-87346000D03*
D10*
G36*
X164056142Y-86859674D02*
G01*
X164079803Y-86863184D01*
X164103007Y-86868996D01*
X164125529Y-86877054D01*
X164147153Y-86887282D01*
X164167670Y-86899579D01*
X164186883Y-86913829D01*
X164204607Y-86929893D01*
X164220671Y-86947617D01*
X164234921Y-86966830D01*
X164247218Y-86987347D01*
X164257446Y-87008971D01*
X164265504Y-87031493D01*
X164271316Y-87054697D01*
X164274826Y-87078358D01*
X164276000Y-87102250D01*
X164276000Y-87589750D01*
X164274826Y-87613642D01*
X164271316Y-87637303D01*
X164265504Y-87660507D01*
X164257446Y-87683029D01*
X164247218Y-87704653D01*
X164234921Y-87725170D01*
X164220671Y-87744383D01*
X164204607Y-87762107D01*
X164186883Y-87778171D01*
X164167670Y-87792421D01*
X164147153Y-87804718D01*
X164125529Y-87814946D01*
X164103007Y-87823004D01*
X164079803Y-87828816D01*
X164056142Y-87832326D01*
X164032250Y-87833500D01*
X163119750Y-87833500D01*
X163095858Y-87832326D01*
X163072197Y-87828816D01*
X163048993Y-87823004D01*
X163026471Y-87814946D01*
X163004847Y-87804718D01*
X162984330Y-87792421D01*
X162965117Y-87778171D01*
X162947393Y-87762107D01*
X162931329Y-87744383D01*
X162917079Y-87725170D01*
X162904782Y-87704653D01*
X162894554Y-87683029D01*
X162886496Y-87660507D01*
X162880684Y-87637303D01*
X162877174Y-87613642D01*
X162876000Y-87589750D01*
X162876000Y-87102250D01*
X162877174Y-87078358D01*
X162880684Y-87054697D01*
X162886496Y-87031493D01*
X162894554Y-87008971D01*
X162904782Y-86987347D01*
X162917079Y-86966830D01*
X162931329Y-86947617D01*
X162947393Y-86929893D01*
X162965117Y-86913829D01*
X162984330Y-86899579D01*
X163004847Y-86887282D01*
X163026471Y-86877054D01*
X163048993Y-86868996D01*
X163072197Y-86863184D01*
X163095858Y-86859674D01*
X163119750Y-86858500D01*
X164032250Y-86858500D01*
X164056142Y-86859674D01*
X164056142Y-86859674D01*
G37*
D25*
X163576000Y-87346000D03*
D10*
G36*
X164056142Y-84984674D02*
G01*
X164079803Y-84988184D01*
X164103007Y-84993996D01*
X164125529Y-85002054D01*
X164147153Y-85012282D01*
X164167670Y-85024579D01*
X164186883Y-85038829D01*
X164204607Y-85054893D01*
X164220671Y-85072617D01*
X164234921Y-85091830D01*
X164247218Y-85112347D01*
X164257446Y-85133971D01*
X164265504Y-85156493D01*
X164271316Y-85179697D01*
X164274826Y-85203358D01*
X164276000Y-85227250D01*
X164276000Y-85714750D01*
X164274826Y-85738642D01*
X164271316Y-85762303D01*
X164265504Y-85785507D01*
X164257446Y-85808029D01*
X164247218Y-85829653D01*
X164234921Y-85850170D01*
X164220671Y-85869383D01*
X164204607Y-85887107D01*
X164186883Y-85903171D01*
X164167670Y-85917421D01*
X164147153Y-85929718D01*
X164125529Y-85939946D01*
X164103007Y-85948004D01*
X164079803Y-85953816D01*
X164056142Y-85957326D01*
X164032250Y-85958500D01*
X163119750Y-85958500D01*
X163095858Y-85957326D01*
X163072197Y-85953816D01*
X163048993Y-85948004D01*
X163026471Y-85939946D01*
X163004847Y-85929718D01*
X162984330Y-85917421D01*
X162965117Y-85903171D01*
X162947393Y-85887107D01*
X162931329Y-85869383D01*
X162917079Y-85850170D01*
X162904782Y-85829653D01*
X162894554Y-85808029D01*
X162886496Y-85785507D01*
X162880684Y-85762303D01*
X162877174Y-85738642D01*
X162876000Y-85714750D01*
X162876000Y-85227250D01*
X162877174Y-85203358D01*
X162880684Y-85179697D01*
X162886496Y-85156493D01*
X162894554Y-85133971D01*
X162904782Y-85112347D01*
X162917079Y-85091830D01*
X162931329Y-85072617D01*
X162947393Y-85054893D01*
X162965117Y-85038829D01*
X162984330Y-85024579D01*
X163004847Y-85012282D01*
X163026471Y-85002054D01*
X163048993Y-84993996D01*
X163072197Y-84988184D01*
X163095858Y-84984674D01*
X163119750Y-84983500D01*
X164032250Y-84983500D01*
X164056142Y-84984674D01*
X164056142Y-84984674D01*
G37*
D25*
X163576000Y-85471000D03*
D10*
G36*
X176368142Y-82740174D02*
G01*
X176391803Y-82743684D01*
X176415007Y-82749496D01*
X176437529Y-82757554D01*
X176459153Y-82767782D01*
X176479670Y-82780079D01*
X176498883Y-82794329D01*
X176516607Y-82810393D01*
X176532671Y-82828117D01*
X176546921Y-82847330D01*
X176559218Y-82867847D01*
X176569446Y-82889471D01*
X176577504Y-82911993D01*
X176583316Y-82935197D01*
X176586826Y-82958858D01*
X176588000Y-82982750D01*
X176588000Y-83895250D01*
X176586826Y-83919142D01*
X176583316Y-83942803D01*
X176577504Y-83966007D01*
X176569446Y-83988529D01*
X176559218Y-84010153D01*
X176546921Y-84030670D01*
X176532671Y-84049883D01*
X176516607Y-84067607D01*
X176498883Y-84083671D01*
X176479670Y-84097921D01*
X176459153Y-84110218D01*
X176437529Y-84120446D01*
X176415007Y-84128504D01*
X176391803Y-84134316D01*
X176368142Y-84137826D01*
X176344250Y-84139000D01*
X175856750Y-84139000D01*
X175832858Y-84137826D01*
X175809197Y-84134316D01*
X175785993Y-84128504D01*
X175763471Y-84120446D01*
X175741847Y-84110218D01*
X175721330Y-84097921D01*
X175702117Y-84083671D01*
X175684393Y-84067607D01*
X175668329Y-84049883D01*
X175654079Y-84030670D01*
X175641782Y-84010153D01*
X175631554Y-83988529D01*
X175623496Y-83966007D01*
X175617684Y-83942803D01*
X175614174Y-83919142D01*
X175613000Y-83895250D01*
X175613000Y-82982750D01*
X175614174Y-82958858D01*
X175617684Y-82935197D01*
X175623496Y-82911993D01*
X175631554Y-82889471D01*
X175641782Y-82867847D01*
X175654079Y-82847330D01*
X175668329Y-82828117D01*
X175684393Y-82810393D01*
X175702117Y-82794329D01*
X175721330Y-82780079D01*
X175741847Y-82767782D01*
X175763471Y-82757554D01*
X175785993Y-82749496D01*
X175809197Y-82743684D01*
X175832858Y-82740174D01*
X175856750Y-82739000D01*
X176344250Y-82739000D01*
X176368142Y-82740174D01*
X176368142Y-82740174D01*
G37*
D25*
X176100500Y-83439000D03*
D10*
G36*
X178243142Y-82740174D02*
G01*
X178266803Y-82743684D01*
X178290007Y-82749496D01*
X178312529Y-82757554D01*
X178334153Y-82767782D01*
X178354670Y-82780079D01*
X178373883Y-82794329D01*
X178391607Y-82810393D01*
X178407671Y-82828117D01*
X178421921Y-82847330D01*
X178434218Y-82867847D01*
X178444446Y-82889471D01*
X178452504Y-82911993D01*
X178458316Y-82935197D01*
X178461826Y-82958858D01*
X178463000Y-82982750D01*
X178463000Y-83895250D01*
X178461826Y-83919142D01*
X178458316Y-83942803D01*
X178452504Y-83966007D01*
X178444446Y-83988529D01*
X178434218Y-84010153D01*
X178421921Y-84030670D01*
X178407671Y-84049883D01*
X178391607Y-84067607D01*
X178373883Y-84083671D01*
X178354670Y-84097921D01*
X178334153Y-84110218D01*
X178312529Y-84120446D01*
X178290007Y-84128504D01*
X178266803Y-84134316D01*
X178243142Y-84137826D01*
X178219250Y-84139000D01*
X177731750Y-84139000D01*
X177707858Y-84137826D01*
X177684197Y-84134316D01*
X177660993Y-84128504D01*
X177638471Y-84120446D01*
X177616847Y-84110218D01*
X177596330Y-84097921D01*
X177577117Y-84083671D01*
X177559393Y-84067607D01*
X177543329Y-84049883D01*
X177529079Y-84030670D01*
X177516782Y-84010153D01*
X177506554Y-83988529D01*
X177498496Y-83966007D01*
X177492684Y-83942803D01*
X177489174Y-83919142D01*
X177488000Y-83895250D01*
X177488000Y-82982750D01*
X177489174Y-82958858D01*
X177492684Y-82935197D01*
X177498496Y-82911993D01*
X177506554Y-82889471D01*
X177516782Y-82867847D01*
X177529079Y-82847330D01*
X177543329Y-82828117D01*
X177559393Y-82810393D01*
X177577117Y-82794329D01*
X177596330Y-82780079D01*
X177616847Y-82767782D01*
X177638471Y-82757554D01*
X177660993Y-82749496D01*
X177684197Y-82743684D01*
X177707858Y-82740174D01*
X177731750Y-82739000D01*
X178219250Y-82739000D01*
X178243142Y-82740174D01*
X178243142Y-82740174D01*
G37*
D25*
X177975500Y-83439000D03*
D10*
G36*
X168748142Y-94805174D02*
G01*
X168771803Y-94808684D01*
X168795007Y-94814496D01*
X168817529Y-94822554D01*
X168839153Y-94832782D01*
X168859670Y-94845079D01*
X168878883Y-94859329D01*
X168896607Y-94875393D01*
X168912671Y-94893117D01*
X168926921Y-94912330D01*
X168939218Y-94932847D01*
X168949446Y-94954471D01*
X168957504Y-94976993D01*
X168963316Y-95000197D01*
X168966826Y-95023858D01*
X168968000Y-95047750D01*
X168968000Y-95960250D01*
X168966826Y-95984142D01*
X168963316Y-96007803D01*
X168957504Y-96031007D01*
X168949446Y-96053529D01*
X168939218Y-96075153D01*
X168926921Y-96095670D01*
X168912671Y-96114883D01*
X168896607Y-96132607D01*
X168878883Y-96148671D01*
X168859670Y-96162921D01*
X168839153Y-96175218D01*
X168817529Y-96185446D01*
X168795007Y-96193504D01*
X168771803Y-96199316D01*
X168748142Y-96202826D01*
X168724250Y-96204000D01*
X168236750Y-96204000D01*
X168212858Y-96202826D01*
X168189197Y-96199316D01*
X168165993Y-96193504D01*
X168143471Y-96185446D01*
X168121847Y-96175218D01*
X168101330Y-96162921D01*
X168082117Y-96148671D01*
X168064393Y-96132607D01*
X168048329Y-96114883D01*
X168034079Y-96095670D01*
X168021782Y-96075153D01*
X168011554Y-96053529D01*
X168003496Y-96031007D01*
X167997684Y-96007803D01*
X167994174Y-95984142D01*
X167993000Y-95960250D01*
X167993000Y-95047750D01*
X167994174Y-95023858D01*
X167997684Y-95000197D01*
X168003496Y-94976993D01*
X168011554Y-94954471D01*
X168021782Y-94932847D01*
X168034079Y-94912330D01*
X168048329Y-94893117D01*
X168064393Y-94875393D01*
X168082117Y-94859329D01*
X168101330Y-94845079D01*
X168121847Y-94832782D01*
X168143471Y-94822554D01*
X168165993Y-94814496D01*
X168189197Y-94808684D01*
X168212858Y-94805174D01*
X168236750Y-94804000D01*
X168724250Y-94804000D01*
X168748142Y-94805174D01*
X168748142Y-94805174D01*
G37*
D25*
X168480500Y-95504000D03*
D10*
G36*
X170623142Y-94805174D02*
G01*
X170646803Y-94808684D01*
X170670007Y-94814496D01*
X170692529Y-94822554D01*
X170714153Y-94832782D01*
X170734670Y-94845079D01*
X170753883Y-94859329D01*
X170771607Y-94875393D01*
X170787671Y-94893117D01*
X170801921Y-94912330D01*
X170814218Y-94932847D01*
X170824446Y-94954471D01*
X170832504Y-94976993D01*
X170838316Y-95000197D01*
X170841826Y-95023858D01*
X170843000Y-95047750D01*
X170843000Y-95960250D01*
X170841826Y-95984142D01*
X170838316Y-96007803D01*
X170832504Y-96031007D01*
X170824446Y-96053529D01*
X170814218Y-96075153D01*
X170801921Y-96095670D01*
X170787671Y-96114883D01*
X170771607Y-96132607D01*
X170753883Y-96148671D01*
X170734670Y-96162921D01*
X170714153Y-96175218D01*
X170692529Y-96185446D01*
X170670007Y-96193504D01*
X170646803Y-96199316D01*
X170623142Y-96202826D01*
X170599250Y-96204000D01*
X170111750Y-96204000D01*
X170087858Y-96202826D01*
X170064197Y-96199316D01*
X170040993Y-96193504D01*
X170018471Y-96185446D01*
X169996847Y-96175218D01*
X169976330Y-96162921D01*
X169957117Y-96148671D01*
X169939393Y-96132607D01*
X169923329Y-96114883D01*
X169909079Y-96095670D01*
X169896782Y-96075153D01*
X169886554Y-96053529D01*
X169878496Y-96031007D01*
X169872684Y-96007803D01*
X169869174Y-95984142D01*
X169868000Y-95960250D01*
X169868000Y-95047750D01*
X169869174Y-95023858D01*
X169872684Y-95000197D01*
X169878496Y-94976993D01*
X169886554Y-94954471D01*
X169896782Y-94932847D01*
X169909079Y-94912330D01*
X169923329Y-94893117D01*
X169939393Y-94875393D01*
X169957117Y-94859329D01*
X169976330Y-94845079D01*
X169996847Y-94832782D01*
X170018471Y-94822554D01*
X170040993Y-94814496D01*
X170064197Y-94808684D01*
X170087858Y-94805174D01*
X170111750Y-94804000D01*
X170599250Y-94804000D01*
X170623142Y-94805174D01*
X170623142Y-94805174D01*
G37*
D25*
X170355500Y-95504000D03*
D10*
G36*
X128792142Y-122110174D02*
G01*
X128815803Y-122113684D01*
X128839007Y-122119496D01*
X128861529Y-122127554D01*
X128883153Y-122137782D01*
X128903670Y-122150079D01*
X128922883Y-122164329D01*
X128940607Y-122180393D01*
X128956671Y-122198117D01*
X128970921Y-122217330D01*
X128983218Y-122237847D01*
X128993446Y-122259471D01*
X129001504Y-122281993D01*
X129007316Y-122305197D01*
X129010826Y-122328858D01*
X129012000Y-122352750D01*
X129012000Y-123265250D01*
X129010826Y-123289142D01*
X129007316Y-123312803D01*
X129001504Y-123336007D01*
X128993446Y-123358529D01*
X128983218Y-123380153D01*
X128970921Y-123400670D01*
X128956671Y-123419883D01*
X128940607Y-123437607D01*
X128922883Y-123453671D01*
X128903670Y-123467921D01*
X128883153Y-123480218D01*
X128861529Y-123490446D01*
X128839007Y-123498504D01*
X128815803Y-123504316D01*
X128792142Y-123507826D01*
X128768250Y-123509000D01*
X128280750Y-123509000D01*
X128256858Y-123507826D01*
X128233197Y-123504316D01*
X128209993Y-123498504D01*
X128187471Y-123490446D01*
X128165847Y-123480218D01*
X128145330Y-123467921D01*
X128126117Y-123453671D01*
X128108393Y-123437607D01*
X128092329Y-123419883D01*
X128078079Y-123400670D01*
X128065782Y-123380153D01*
X128055554Y-123358529D01*
X128047496Y-123336007D01*
X128041684Y-123312803D01*
X128038174Y-123289142D01*
X128037000Y-123265250D01*
X128037000Y-122352750D01*
X128038174Y-122328858D01*
X128041684Y-122305197D01*
X128047496Y-122281993D01*
X128055554Y-122259471D01*
X128065782Y-122237847D01*
X128078079Y-122217330D01*
X128092329Y-122198117D01*
X128108393Y-122180393D01*
X128126117Y-122164329D01*
X128145330Y-122150079D01*
X128165847Y-122137782D01*
X128187471Y-122127554D01*
X128209993Y-122119496D01*
X128233197Y-122113684D01*
X128256858Y-122110174D01*
X128280750Y-122109000D01*
X128768250Y-122109000D01*
X128792142Y-122110174D01*
X128792142Y-122110174D01*
G37*
D25*
X128524500Y-122809000D03*
D10*
G36*
X130667142Y-122110174D02*
G01*
X130690803Y-122113684D01*
X130714007Y-122119496D01*
X130736529Y-122127554D01*
X130758153Y-122137782D01*
X130778670Y-122150079D01*
X130797883Y-122164329D01*
X130815607Y-122180393D01*
X130831671Y-122198117D01*
X130845921Y-122217330D01*
X130858218Y-122237847D01*
X130868446Y-122259471D01*
X130876504Y-122281993D01*
X130882316Y-122305197D01*
X130885826Y-122328858D01*
X130887000Y-122352750D01*
X130887000Y-123265250D01*
X130885826Y-123289142D01*
X130882316Y-123312803D01*
X130876504Y-123336007D01*
X130868446Y-123358529D01*
X130858218Y-123380153D01*
X130845921Y-123400670D01*
X130831671Y-123419883D01*
X130815607Y-123437607D01*
X130797883Y-123453671D01*
X130778670Y-123467921D01*
X130758153Y-123480218D01*
X130736529Y-123490446D01*
X130714007Y-123498504D01*
X130690803Y-123504316D01*
X130667142Y-123507826D01*
X130643250Y-123509000D01*
X130155750Y-123509000D01*
X130131858Y-123507826D01*
X130108197Y-123504316D01*
X130084993Y-123498504D01*
X130062471Y-123490446D01*
X130040847Y-123480218D01*
X130020330Y-123467921D01*
X130001117Y-123453671D01*
X129983393Y-123437607D01*
X129967329Y-123419883D01*
X129953079Y-123400670D01*
X129940782Y-123380153D01*
X129930554Y-123358529D01*
X129922496Y-123336007D01*
X129916684Y-123312803D01*
X129913174Y-123289142D01*
X129912000Y-123265250D01*
X129912000Y-122352750D01*
X129913174Y-122328858D01*
X129916684Y-122305197D01*
X129922496Y-122281993D01*
X129930554Y-122259471D01*
X129940782Y-122237847D01*
X129953079Y-122217330D01*
X129967329Y-122198117D01*
X129983393Y-122180393D01*
X130001117Y-122164329D01*
X130020330Y-122150079D01*
X130040847Y-122137782D01*
X130062471Y-122127554D01*
X130084993Y-122119496D01*
X130108197Y-122113684D01*
X130131858Y-122110174D01*
X130155750Y-122109000D01*
X130643250Y-122109000D01*
X130667142Y-122110174D01*
X130667142Y-122110174D01*
G37*
D25*
X130399500Y-122809000D03*
D10*
G36*
X113073142Y-80581174D02*
G01*
X113096803Y-80584684D01*
X113120007Y-80590496D01*
X113142529Y-80598554D01*
X113164153Y-80608782D01*
X113184670Y-80621079D01*
X113203883Y-80635329D01*
X113221607Y-80651393D01*
X113237671Y-80669117D01*
X113251921Y-80688330D01*
X113264218Y-80708847D01*
X113274446Y-80730471D01*
X113282504Y-80752993D01*
X113288316Y-80776197D01*
X113291826Y-80799858D01*
X113293000Y-80823750D01*
X113293000Y-81736250D01*
X113291826Y-81760142D01*
X113288316Y-81783803D01*
X113282504Y-81807007D01*
X113274446Y-81829529D01*
X113264218Y-81851153D01*
X113251921Y-81871670D01*
X113237671Y-81890883D01*
X113221607Y-81908607D01*
X113203883Y-81924671D01*
X113184670Y-81938921D01*
X113164153Y-81951218D01*
X113142529Y-81961446D01*
X113120007Y-81969504D01*
X113096803Y-81975316D01*
X113073142Y-81978826D01*
X113049250Y-81980000D01*
X112561750Y-81980000D01*
X112537858Y-81978826D01*
X112514197Y-81975316D01*
X112490993Y-81969504D01*
X112468471Y-81961446D01*
X112446847Y-81951218D01*
X112426330Y-81938921D01*
X112407117Y-81924671D01*
X112389393Y-81908607D01*
X112373329Y-81890883D01*
X112359079Y-81871670D01*
X112346782Y-81851153D01*
X112336554Y-81829529D01*
X112328496Y-81807007D01*
X112322684Y-81783803D01*
X112319174Y-81760142D01*
X112318000Y-81736250D01*
X112318000Y-80823750D01*
X112319174Y-80799858D01*
X112322684Y-80776197D01*
X112328496Y-80752993D01*
X112336554Y-80730471D01*
X112346782Y-80708847D01*
X112359079Y-80688330D01*
X112373329Y-80669117D01*
X112389393Y-80651393D01*
X112407117Y-80635329D01*
X112426330Y-80621079D01*
X112446847Y-80608782D01*
X112468471Y-80598554D01*
X112490993Y-80590496D01*
X112514197Y-80584684D01*
X112537858Y-80581174D01*
X112561750Y-80580000D01*
X113049250Y-80580000D01*
X113073142Y-80581174D01*
X113073142Y-80581174D01*
G37*
D25*
X112805500Y-81280000D03*
D10*
G36*
X114948142Y-80581174D02*
G01*
X114971803Y-80584684D01*
X114995007Y-80590496D01*
X115017529Y-80598554D01*
X115039153Y-80608782D01*
X115059670Y-80621079D01*
X115078883Y-80635329D01*
X115096607Y-80651393D01*
X115112671Y-80669117D01*
X115126921Y-80688330D01*
X115139218Y-80708847D01*
X115149446Y-80730471D01*
X115157504Y-80752993D01*
X115163316Y-80776197D01*
X115166826Y-80799858D01*
X115168000Y-80823750D01*
X115168000Y-81736250D01*
X115166826Y-81760142D01*
X115163316Y-81783803D01*
X115157504Y-81807007D01*
X115149446Y-81829529D01*
X115139218Y-81851153D01*
X115126921Y-81871670D01*
X115112671Y-81890883D01*
X115096607Y-81908607D01*
X115078883Y-81924671D01*
X115059670Y-81938921D01*
X115039153Y-81951218D01*
X115017529Y-81961446D01*
X114995007Y-81969504D01*
X114971803Y-81975316D01*
X114948142Y-81978826D01*
X114924250Y-81980000D01*
X114436750Y-81980000D01*
X114412858Y-81978826D01*
X114389197Y-81975316D01*
X114365993Y-81969504D01*
X114343471Y-81961446D01*
X114321847Y-81951218D01*
X114301330Y-81938921D01*
X114282117Y-81924671D01*
X114264393Y-81908607D01*
X114248329Y-81890883D01*
X114234079Y-81871670D01*
X114221782Y-81851153D01*
X114211554Y-81829529D01*
X114203496Y-81807007D01*
X114197684Y-81783803D01*
X114194174Y-81760142D01*
X114193000Y-81736250D01*
X114193000Y-80823750D01*
X114194174Y-80799858D01*
X114197684Y-80776197D01*
X114203496Y-80752993D01*
X114211554Y-80730471D01*
X114221782Y-80708847D01*
X114234079Y-80688330D01*
X114248329Y-80669117D01*
X114264393Y-80651393D01*
X114282117Y-80635329D01*
X114301330Y-80621079D01*
X114321847Y-80608782D01*
X114343471Y-80598554D01*
X114365993Y-80590496D01*
X114389197Y-80584684D01*
X114412858Y-80581174D01*
X114436750Y-80580000D01*
X114924250Y-80580000D01*
X114948142Y-80581174D01*
X114948142Y-80581174D01*
G37*
D25*
X114680500Y-81280000D03*
D10*
G36*
X114616142Y-93662174D02*
G01*
X114639803Y-93665684D01*
X114663007Y-93671496D01*
X114685529Y-93679554D01*
X114707153Y-93689782D01*
X114727670Y-93702079D01*
X114746883Y-93716329D01*
X114764607Y-93732393D01*
X114780671Y-93750117D01*
X114794921Y-93769330D01*
X114807218Y-93789847D01*
X114817446Y-93811471D01*
X114825504Y-93833993D01*
X114831316Y-93857197D01*
X114834826Y-93880858D01*
X114836000Y-93904750D01*
X114836000Y-94817250D01*
X114834826Y-94841142D01*
X114831316Y-94864803D01*
X114825504Y-94888007D01*
X114817446Y-94910529D01*
X114807218Y-94932153D01*
X114794921Y-94952670D01*
X114780671Y-94971883D01*
X114764607Y-94989607D01*
X114746883Y-95005671D01*
X114727670Y-95019921D01*
X114707153Y-95032218D01*
X114685529Y-95042446D01*
X114663007Y-95050504D01*
X114639803Y-95056316D01*
X114616142Y-95059826D01*
X114592250Y-95061000D01*
X114104750Y-95061000D01*
X114080858Y-95059826D01*
X114057197Y-95056316D01*
X114033993Y-95050504D01*
X114011471Y-95042446D01*
X113989847Y-95032218D01*
X113969330Y-95019921D01*
X113950117Y-95005671D01*
X113932393Y-94989607D01*
X113916329Y-94971883D01*
X113902079Y-94952670D01*
X113889782Y-94932153D01*
X113879554Y-94910529D01*
X113871496Y-94888007D01*
X113865684Y-94864803D01*
X113862174Y-94841142D01*
X113861000Y-94817250D01*
X113861000Y-93904750D01*
X113862174Y-93880858D01*
X113865684Y-93857197D01*
X113871496Y-93833993D01*
X113879554Y-93811471D01*
X113889782Y-93789847D01*
X113902079Y-93769330D01*
X113916329Y-93750117D01*
X113932393Y-93732393D01*
X113950117Y-93716329D01*
X113969330Y-93702079D01*
X113989847Y-93689782D01*
X114011471Y-93679554D01*
X114033993Y-93671496D01*
X114057197Y-93665684D01*
X114080858Y-93662174D01*
X114104750Y-93661000D01*
X114592250Y-93661000D01*
X114616142Y-93662174D01*
X114616142Y-93662174D01*
G37*
D25*
X114348500Y-94361000D03*
D10*
G36*
X112741142Y-93662174D02*
G01*
X112764803Y-93665684D01*
X112788007Y-93671496D01*
X112810529Y-93679554D01*
X112832153Y-93689782D01*
X112852670Y-93702079D01*
X112871883Y-93716329D01*
X112889607Y-93732393D01*
X112905671Y-93750117D01*
X112919921Y-93769330D01*
X112932218Y-93789847D01*
X112942446Y-93811471D01*
X112950504Y-93833993D01*
X112956316Y-93857197D01*
X112959826Y-93880858D01*
X112961000Y-93904750D01*
X112961000Y-94817250D01*
X112959826Y-94841142D01*
X112956316Y-94864803D01*
X112950504Y-94888007D01*
X112942446Y-94910529D01*
X112932218Y-94932153D01*
X112919921Y-94952670D01*
X112905671Y-94971883D01*
X112889607Y-94989607D01*
X112871883Y-95005671D01*
X112852670Y-95019921D01*
X112832153Y-95032218D01*
X112810529Y-95042446D01*
X112788007Y-95050504D01*
X112764803Y-95056316D01*
X112741142Y-95059826D01*
X112717250Y-95061000D01*
X112229750Y-95061000D01*
X112205858Y-95059826D01*
X112182197Y-95056316D01*
X112158993Y-95050504D01*
X112136471Y-95042446D01*
X112114847Y-95032218D01*
X112094330Y-95019921D01*
X112075117Y-95005671D01*
X112057393Y-94989607D01*
X112041329Y-94971883D01*
X112027079Y-94952670D01*
X112014782Y-94932153D01*
X112004554Y-94910529D01*
X111996496Y-94888007D01*
X111990684Y-94864803D01*
X111987174Y-94841142D01*
X111986000Y-94817250D01*
X111986000Y-93904750D01*
X111987174Y-93880858D01*
X111990684Y-93857197D01*
X111996496Y-93833993D01*
X112004554Y-93811471D01*
X112014782Y-93789847D01*
X112027079Y-93769330D01*
X112041329Y-93750117D01*
X112057393Y-93732393D01*
X112075117Y-93716329D01*
X112094330Y-93702079D01*
X112114847Y-93689782D01*
X112136471Y-93679554D01*
X112158993Y-93671496D01*
X112182197Y-93665684D01*
X112205858Y-93662174D01*
X112229750Y-93661000D01*
X112717250Y-93661000D01*
X112741142Y-93662174D01*
X112741142Y-93662174D01*
G37*
D25*
X112473500Y-94361000D03*
D10*
G36*
X114616142Y-97091174D02*
G01*
X114639803Y-97094684D01*
X114663007Y-97100496D01*
X114685529Y-97108554D01*
X114707153Y-97118782D01*
X114727670Y-97131079D01*
X114746883Y-97145329D01*
X114764607Y-97161393D01*
X114780671Y-97179117D01*
X114794921Y-97198330D01*
X114807218Y-97218847D01*
X114817446Y-97240471D01*
X114825504Y-97262993D01*
X114831316Y-97286197D01*
X114834826Y-97309858D01*
X114836000Y-97333750D01*
X114836000Y-98246250D01*
X114834826Y-98270142D01*
X114831316Y-98293803D01*
X114825504Y-98317007D01*
X114817446Y-98339529D01*
X114807218Y-98361153D01*
X114794921Y-98381670D01*
X114780671Y-98400883D01*
X114764607Y-98418607D01*
X114746883Y-98434671D01*
X114727670Y-98448921D01*
X114707153Y-98461218D01*
X114685529Y-98471446D01*
X114663007Y-98479504D01*
X114639803Y-98485316D01*
X114616142Y-98488826D01*
X114592250Y-98490000D01*
X114104750Y-98490000D01*
X114080858Y-98488826D01*
X114057197Y-98485316D01*
X114033993Y-98479504D01*
X114011471Y-98471446D01*
X113989847Y-98461218D01*
X113969330Y-98448921D01*
X113950117Y-98434671D01*
X113932393Y-98418607D01*
X113916329Y-98400883D01*
X113902079Y-98381670D01*
X113889782Y-98361153D01*
X113879554Y-98339529D01*
X113871496Y-98317007D01*
X113865684Y-98293803D01*
X113862174Y-98270142D01*
X113861000Y-98246250D01*
X113861000Y-97333750D01*
X113862174Y-97309858D01*
X113865684Y-97286197D01*
X113871496Y-97262993D01*
X113879554Y-97240471D01*
X113889782Y-97218847D01*
X113902079Y-97198330D01*
X113916329Y-97179117D01*
X113932393Y-97161393D01*
X113950117Y-97145329D01*
X113969330Y-97131079D01*
X113989847Y-97118782D01*
X114011471Y-97108554D01*
X114033993Y-97100496D01*
X114057197Y-97094684D01*
X114080858Y-97091174D01*
X114104750Y-97090000D01*
X114592250Y-97090000D01*
X114616142Y-97091174D01*
X114616142Y-97091174D01*
G37*
D25*
X114348500Y-97790000D03*
D10*
G36*
X112741142Y-97091174D02*
G01*
X112764803Y-97094684D01*
X112788007Y-97100496D01*
X112810529Y-97108554D01*
X112832153Y-97118782D01*
X112852670Y-97131079D01*
X112871883Y-97145329D01*
X112889607Y-97161393D01*
X112905671Y-97179117D01*
X112919921Y-97198330D01*
X112932218Y-97218847D01*
X112942446Y-97240471D01*
X112950504Y-97262993D01*
X112956316Y-97286197D01*
X112959826Y-97309858D01*
X112961000Y-97333750D01*
X112961000Y-98246250D01*
X112959826Y-98270142D01*
X112956316Y-98293803D01*
X112950504Y-98317007D01*
X112942446Y-98339529D01*
X112932218Y-98361153D01*
X112919921Y-98381670D01*
X112905671Y-98400883D01*
X112889607Y-98418607D01*
X112871883Y-98434671D01*
X112852670Y-98448921D01*
X112832153Y-98461218D01*
X112810529Y-98471446D01*
X112788007Y-98479504D01*
X112764803Y-98485316D01*
X112741142Y-98488826D01*
X112717250Y-98490000D01*
X112229750Y-98490000D01*
X112205858Y-98488826D01*
X112182197Y-98485316D01*
X112158993Y-98479504D01*
X112136471Y-98471446D01*
X112114847Y-98461218D01*
X112094330Y-98448921D01*
X112075117Y-98434671D01*
X112057393Y-98418607D01*
X112041329Y-98400883D01*
X112027079Y-98381670D01*
X112014782Y-98361153D01*
X112004554Y-98339529D01*
X111996496Y-98317007D01*
X111990684Y-98293803D01*
X111987174Y-98270142D01*
X111986000Y-98246250D01*
X111986000Y-97333750D01*
X111987174Y-97309858D01*
X111990684Y-97286197D01*
X111996496Y-97262993D01*
X112004554Y-97240471D01*
X112014782Y-97218847D01*
X112027079Y-97198330D01*
X112041329Y-97179117D01*
X112057393Y-97161393D01*
X112075117Y-97145329D01*
X112094330Y-97131079D01*
X112114847Y-97118782D01*
X112136471Y-97108554D01*
X112158993Y-97100496D01*
X112182197Y-97094684D01*
X112205858Y-97091174D01*
X112229750Y-97090000D01*
X112717250Y-97090000D01*
X112741142Y-97091174D01*
X112741142Y-97091174D01*
G37*
D25*
X112473500Y-97790000D03*
D26*
X198247000Y-89283000D03*
X199517000Y-89283000D03*
X200787000Y-89283000D03*
X202057000Y-89283000D03*
X203327000Y-89283000D03*
X204597000Y-89283000D03*
X205867000Y-89283000D03*
X207137000Y-89283000D03*
X207137000Y-83183000D03*
X205867000Y-83183000D03*
X204597000Y-83183000D03*
X203327000Y-83183000D03*
X202057000Y-83183000D03*
X200787000Y-83183000D03*
X199517000Y-83183000D03*
X198247000Y-83183000D03*
D27*
X194754000Y-120523000D03*
X186754000Y-120523000D03*
D10*
G36*
X114319390Y-84438510D02*
G01*
X114329680Y-84440037D01*
X114339770Y-84442564D01*
X114349564Y-84446069D01*
X114358968Y-84450516D01*
X114367890Y-84455864D01*
X114376246Y-84462061D01*
X114383953Y-84469047D01*
X114390939Y-84476754D01*
X114397136Y-84485110D01*
X114402484Y-84494032D01*
X114406931Y-84503436D01*
X114410436Y-84513230D01*
X114412963Y-84523320D01*
X114414490Y-84533610D01*
X114415000Y-84544000D01*
X114415000Y-85392000D01*
X114414490Y-85402390D01*
X114412963Y-85412680D01*
X114410436Y-85422770D01*
X114406931Y-85432564D01*
X114402484Y-85441968D01*
X114397136Y-85450890D01*
X114390939Y-85459246D01*
X114383953Y-85466953D01*
X114376246Y-85473939D01*
X114367890Y-85480136D01*
X114358968Y-85485484D01*
X114349564Y-85489931D01*
X114339770Y-85493436D01*
X114329680Y-85495963D01*
X114319390Y-85497490D01*
X114309000Y-85498000D01*
X113021000Y-85498000D01*
X113010610Y-85497490D01*
X113000320Y-85495963D01*
X112990230Y-85493436D01*
X112980436Y-85489931D01*
X112971032Y-85485484D01*
X112962110Y-85480136D01*
X112953754Y-85473939D01*
X112946047Y-85466953D01*
X112939061Y-85459246D01*
X112932864Y-85450890D01*
X112927516Y-85441968D01*
X112923069Y-85432564D01*
X112919564Y-85422770D01*
X112917037Y-85412680D01*
X112915510Y-85402390D01*
X112915000Y-85392000D01*
X112915000Y-84544000D01*
X112915510Y-84533610D01*
X112917037Y-84523320D01*
X112919564Y-84513230D01*
X112923069Y-84503436D01*
X112927516Y-84494032D01*
X112932864Y-84485110D01*
X112939061Y-84476754D01*
X112946047Y-84469047D01*
X112953754Y-84462061D01*
X112962110Y-84455864D01*
X112971032Y-84450516D01*
X112980436Y-84446069D01*
X112990230Y-84442564D01*
X113000320Y-84440037D01*
X113010610Y-84438510D01*
X113021000Y-84438000D01*
X114309000Y-84438000D01*
X114319390Y-84438510D01*
X114319390Y-84438510D01*
G37*
D28*
X113665000Y-84968000D03*
D10*
G36*
X114319390Y-85698510D02*
G01*
X114329680Y-85700037D01*
X114339770Y-85702564D01*
X114349564Y-85706069D01*
X114358968Y-85710516D01*
X114367890Y-85715864D01*
X114376246Y-85722061D01*
X114383953Y-85729047D01*
X114390939Y-85736754D01*
X114397136Y-85745110D01*
X114402484Y-85754032D01*
X114406931Y-85763436D01*
X114410436Y-85773230D01*
X114412963Y-85783320D01*
X114414490Y-85793610D01*
X114415000Y-85804000D01*
X114415000Y-86652000D01*
X114414490Y-86662390D01*
X114412963Y-86672680D01*
X114410436Y-86682770D01*
X114406931Y-86692564D01*
X114402484Y-86701968D01*
X114397136Y-86710890D01*
X114390939Y-86719246D01*
X114383953Y-86726953D01*
X114376246Y-86733939D01*
X114367890Y-86740136D01*
X114358968Y-86745484D01*
X114349564Y-86749931D01*
X114339770Y-86753436D01*
X114329680Y-86755963D01*
X114319390Y-86757490D01*
X114309000Y-86758000D01*
X113021000Y-86758000D01*
X113010610Y-86757490D01*
X113000320Y-86755963D01*
X112990230Y-86753436D01*
X112980436Y-86749931D01*
X112971032Y-86745484D01*
X112962110Y-86740136D01*
X112953754Y-86733939D01*
X112946047Y-86726953D01*
X112939061Y-86719246D01*
X112932864Y-86710890D01*
X112927516Y-86701968D01*
X112923069Y-86692564D01*
X112919564Y-86682770D01*
X112917037Y-86672680D01*
X112915510Y-86662390D01*
X112915000Y-86652000D01*
X112915000Y-85804000D01*
X112915510Y-85793610D01*
X112917037Y-85783320D01*
X112919564Y-85773230D01*
X112923069Y-85763436D01*
X112927516Y-85754032D01*
X112932864Y-85745110D01*
X112939061Y-85736754D01*
X112946047Y-85729047D01*
X112953754Y-85722061D01*
X112962110Y-85715864D01*
X112971032Y-85710516D01*
X112980436Y-85706069D01*
X112990230Y-85702564D01*
X113000320Y-85700037D01*
X113010610Y-85698510D01*
X113021000Y-85698000D01*
X114309000Y-85698000D01*
X114319390Y-85698510D01*
X114319390Y-85698510D01*
G37*
D28*
X113665000Y-86228000D03*
D10*
G36*
X114017450Y-86958120D02*
G01*
X114019877Y-86958480D01*
X114022257Y-86959076D01*
X114024567Y-86959903D01*
X114026785Y-86960952D01*
X114028889Y-86962213D01*
X114030860Y-86963675D01*
X114032678Y-86965322D01*
X114034325Y-86967140D01*
X114035787Y-86969111D01*
X114037048Y-86971215D01*
X114038097Y-86973433D01*
X114038924Y-86975743D01*
X114039520Y-86978123D01*
X114039880Y-86980550D01*
X114040000Y-86983000D01*
X114040000Y-87273000D01*
X114039880Y-87275450D01*
X114039520Y-87277877D01*
X114038924Y-87280257D01*
X114038097Y-87282567D01*
X114037048Y-87284785D01*
X114035787Y-87286889D01*
X114034325Y-87288860D01*
X114032678Y-87290678D01*
X114030860Y-87292325D01*
X114028889Y-87293787D01*
X114026785Y-87295048D01*
X114024567Y-87296097D01*
X114022257Y-87296924D01*
X114019877Y-87297520D01*
X114017450Y-87297880D01*
X114015000Y-87298000D01*
X113815000Y-87298000D01*
X113812550Y-87297880D01*
X113810123Y-87297520D01*
X113807743Y-87296924D01*
X113805433Y-87296097D01*
X113803215Y-87295048D01*
X113801111Y-87293787D01*
X113799140Y-87292325D01*
X113797322Y-87290678D01*
X113795675Y-87288860D01*
X113794213Y-87286889D01*
X113792952Y-87284785D01*
X113791903Y-87282567D01*
X113791076Y-87280257D01*
X113790480Y-87277877D01*
X113790120Y-87275450D01*
X113790000Y-87273000D01*
X113790000Y-86983000D01*
X113790120Y-86980550D01*
X113790480Y-86978123D01*
X113791076Y-86975743D01*
X113791903Y-86973433D01*
X113792952Y-86971215D01*
X113794213Y-86969111D01*
X113795675Y-86967140D01*
X113797322Y-86965322D01*
X113799140Y-86963675D01*
X113801111Y-86962213D01*
X113803215Y-86960952D01*
X113805433Y-86959903D01*
X113807743Y-86959076D01*
X113810123Y-86958480D01*
X113812550Y-86958120D01*
X113815000Y-86958000D01*
X114015000Y-86958000D01*
X114017450Y-86958120D01*
X114017450Y-86958120D01*
G37*
D29*
X113915000Y-87128000D03*
D10*
G36*
X113517450Y-86958120D02*
G01*
X113519877Y-86958480D01*
X113522257Y-86959076D01*
X113524567Y-86959903D01*
X113526785Y-86960952D01*
X113528889Y-86962213D01*
X113530860Y-86963675D01*
X113532678Y-86965322D01*
X113534325Y-86967140D01*
X113535787Y-86969111D01*
X113537048Y-86971215D01*
X113538097Y-86973433D01*
X113538924Y-86975743D01*
X113539520Y-86978123D01*
X113539880Y-86980550D01*
X113540000Y-86983000D01*
X113540000Y-87273000D01*
X113539880Y-87275450D01*
X113539520Y-87277877D01*
X113538924Y-87280257D01*
X113538097Y-87282567D01*
X113537048Y-87284785D01*
X113535787Y-87286889D01*
X113534325Y-87288860D01*
X113532678Y-87290678D01*
X113530860Y-87292325D01*
X113528889Y-87293787D01*
X113526785Y-87295048D01*
X113524567Y-87296097D01*
X113522257Y-87296924D01*
X113519877Y-87297520D01*
X113517450Y-87297880D01*
X113515000Y-87298000D01*
X113315000Y-87298000D01*
X113312550Y-87297880D01*
X113310123Y-87297520D01*
X113307743Y-87296924D01*
X113305433Y-87296097D01*
X113303215Y-87295048D01*
X113301111Y-87293787D01*
X113299140Y-87292325D01*
X113297322Y-87290678D01*
X113295675Y-87288860D01*
X113294213Y-87286889D01*
X113292952Y-87284785D01*
X113291903Y-87282567D01*
X113291076Y-87280257D01*
X113290480Y-87277877D01*
X113290120Y-87275450D01*
X113290000Y-87273000D01*
X113290000Y-86983000D01*
X113290120Y-86980550D01*
X113290480Y-86978123D01*
X113291076Y-86975743D01*
X113291903Y-86973433D01*
X113292952Y-86971215D01*
X113294213Y-86969111D01*
X113295675Y-86967140D01*
X113297322Y-86965322D01*
X113299140Y-86963675D01*
X113301111Y-86962213D01*
X113303215Y-86960952D01*
X113305433Y-86959903D01*
X113307743Y-86959076D01*
X113310123Y-86958480D01*
X113312550Y-86958120D01*
X113315000Y-86958000D01*
X113515000Y-86958000D01*
X113517450Y-86958120D01*
X113517450Y-86958120D01*
G37*
D29*
X113415000Y-87128000D03*
D10*
G36*
X114017450Y-83898120D02*
G01*
X114019877Y-83898480D01*
X114022257Y-83899076D01*
X114024567Y-83899903D01*
X114026785Y-83900952D01*
X114028889Y-83902213D01*
X114030860Y-83903675D01*
X114032678Y-83905322D01*
X114034325Y-83907140D01*
X114035787Y-83909111D01*
X114037048Y-83911215D01*
X114038097Y-83913433D01*
X114038924Y-83915743D01*
X114039520Y-83918123D01*
X114039880Y-83920550D01*
X114040000Y-83923000D01*
X114040000Y-84213000D01*
X114039880Y-84215450D01*
X114039520Y-84217877D01*
X114038924Y-84220257D01*
X114038097Y-84222567D01*
X114037048Y-84224785D01*
X114035787Y-84226889D01*
X114034325Y-84228860D01*
X114032678Y-84230678D01*
X114030860Y-84232325D01*
X114028889Y-84233787D01*
X114026785Y-84235048D01*
X114024567Y-84236097D01*
X114022257Y-84236924D01*
X114019877Y-84237520D01*
X114017450Y-84237880D01*
X114015000Y-84238000D01*
X113815000Y-84238000D01*
X113812550Y-84237880D01*
X113810123Y-84237520D01*
X113807743Y-84236924D01*
X113805433Y-84236097D01*
X113803215Y-84235048D01*
X113801111Y-84233787D01*
X113799140Y-84232325D01*
X113797322Y-84230678D01*
X113795675Y-84228860D01*
X113794213Y-84226889D01*
X113792952Y-84224785D01*
X113791903Y-84222567D01*
X113791076Y-84220257D01*
X113790480Y-84217877D01*
X113790120Y-84215450D01*
X113790000Y-84213000D01*
X113790000Y-83923000D01*
X113790120Y-83920550D01*
X113790480Y-83918123D01*
X113791076Y-83915743D01*
X113791903Y-83913433D01*
X113792952Y-83911215D01*
X113794213Y-83909111D01*
X113795675Y-83907140D01*
X113797322Y-83905322D01*
X113799140Y-83903675D01*
X113801111Y-83902213D01*
X113803215Y-83900952D01*
X113805433Y-83899903D01*
X113807743Y-83899076D01*
X113810123Y-83898480D01*
X113812550Y-83898120D01*
X113815000Y-83898000D01*
X114015000Y-83898000D01*
X114017450Y-83898120D01*
X114017450Y-83898120D01*
G37*
D29*
X113915000Y-84068000D03*
D10*
G36*
X113517450Y-83898120D02*
G01*
X113519877Y-83898480D01*
X113522257Y-83899076D01*
X113524567Y-83899903D01*
X113526785Y-83900952D01*
X113528889Y-83902213D01*
X113530860Y-83903675D01*
X113532678Y-83905322D01*
X113534325Y-83907140D01*
X113535787Y-83909111D01*
X113537048Y-83911215D01*
X113538097Y-83913433D01*
X113538924Y-83915743D01*
X113539520Y-83918123D01*
X113539880Y-83920550D01*
X113540000Y-83923000D01*
X113540000Y-84213000D01*
X113539880Y-84215450D01*
X113539520Y-84217877D01*
X113538924Y-84220257D01*
X113538097Y-84222567D01*
X113537048Y-84224785D01*
X113535787Y-84226889D01*
X113534325Y-84228860D01*
X113532678Y-84230678D01*
X113530860Y-84232325D01*
X113528889Y-84233787D01*
X113526785Y-84235048D01*
X113524567Y-84236097D01*
X113522257Y-84236924D01*
X113519877Y-84237520D01*
X113517450Y-84237880D01*
X113515000Y-84238000D01*
X113315000Y-84238000D01*
X113312550Y-84237880D01*
X113310123Y-84237520D01*
X113307743Y-84236924D01*
X113305433Y-84236097D01*
X113303215Y-84235048D01*
X113301111Y-84233787D01*
X113299140Y-84232325D01*
X113297322Y-84230678D01*
X113295675Y-84228860D01*
X113294213Y-84226889D01*
X113292952Y-84224785D01*
X113291903Y-84222567D01*
X113291076Y-84220257D01*
X113290480Y-84217877D01*
X113290120Y-84215450D01*
X113290000Y-84213000D01*
X113290000Y-83923000D01*
X113290120Y-83920550D01*
X113290480Y-83918123D01*
X113291076Y-83915743D01*
X113291903Y-83913433D01*
X113292952Y-83911215D01*
X113294213Y-83909111D01*
X113295675Y-83907140D01*
X113297322Y-83905322D01*
X113299140Y-83903675D01*
X113301111Y-83902213D01*
X113303215Y-83900952D01*
X113305433Y-83899903D01*
X113307743Y-83899076D01*
X113310123Y-83898480D01*
X113312550Y-83898120D01*
X113315000Y-83898000D01*
X113515000Y-83898000D01*
X113517450Y-83898120D01*
X113517450Y-83898120D01*
G37*
D29*
X113415000Y-84068000D03*
D30*
X115065000Y-86598000D03*
X115065000Y-86098000D03*
X115065000Y-85598000D03*
X115065000Y-85098000D03*
X115065000Y-84598000D03*
X112265000Y-84598000D03*
X112265000Y-85098000D03*
X112265000Y-85598000D03*
X112265000Y-86098000D03*
X112265000Y-86598000D03*
D31*
X209720000Y-76647000D03*
X209720000Y-78547000D03*
X211920000Y-77597000D03*
D32*
X193577000Y-112365000D03*
X191677000Y-112365000D03*
D10*
G36*
X207236142Y-78048174D02*
G01*
X207259803Y-78051684D01*
X207283007Y-78057496D01*
X207305529Y-78065554D01*
X207327153Y-78075782D01*
X207347670Y-78088079D01*
X207366883Y-78102329D01*
X207384607Y-78118393D01*
X207400671Y-78136117D01*
X207414921Y-78155330D01*
X207427218Y-78175847D01*
X207437446Y-78197471D01*
X207445504Y-78219993D01*
X207451316Y-78243197D01*
X207454826Y-78266858D01*
X207456000Y-78290750D01*
X207456000Y-78778250D01*
X207454826Y-78802142D01*
X207451316Y-78825803D01*
X207445504Y-78849007D01*
X207437446Y-78871529D01*
X207427218Y-78893153D01*
X207414921Y-78913670D01*
X207400671Y-78932883D01*
X207384607Y-78950607D01*
X207366883Y-78966671D01*
X207347670Y-78980921D01*
X207327153Y-78993218D01*
X207305529Y-79003446D01*
X207283007Y-79011504D01*
X207259803Y-79017316D01*
X207236142Y-79020826D01*
X207212250Y-79022000D01*
X206299750Y-79022000D01*
X206275858Y-79020826D01*
X206252197Y-79017316D01*
X206228993Y-79011504D01*
X206206471Y-79003446D01*
X206184847Y-78993218D01*
X206164330Y-78980921D01*
X206145117Y-78966671D01*
X206127393Y-78950607D01*
X206111329Y-78932883D01*
X206097079Y-78913670D01*
X206084782Y-78893153D01*
X206074554Y-78871529D01*
X206066496Y-78849007D01*
X206060684Y-78825803D01*
X206057174Y-78802142D01*
X206056000Y-78778250D01*
X206056000Y-78290750D01*
X206057174Y-78266858D01*
X206060684Y-78243197D01*
X206066496Y-78219993D01*
X206074554Y-78197471D01*
X206084782Y-78175847D01*
X206097079Y-78155330D01*
X206111329Y-78136117D01*
X206127393Y-78118393D01*
X206145117Y-78102329D01*
X206164330Y-78088079D01*
X206184847Y-78075782D01*
X206206471Y-78065554D01*
X206228993Y-78057496D01*
X206252197Y-78051684D01*
X206275858Y-78048174D01*
X206299750Y-78047000D01*
X207212250Y-78047000D01*
X207236142Y-78048174D01*
X207236142Y-78048174D01*
G37*
D25*
X206756000Y-78534500D03*
D10*
G36*
X207236142Y-76173174D02*
G01*
X207259803Y-76176684D01*
X207283007Y-76182496D01*
X207305529Y-76190554D01*
X207327153Y-76200782D01*
X207347670Y-76213079D01*
X207366883Y-76227329D01*
X207384607Y-76243393D01*
X207400671Y-76261117D01*
X207414921Y-76280330D01*
X207427218Y-76300847D01*
X207437446Y-76322471D01*
X207445504Y-76344993D01*
X207451316Y-76368197D01*
X207454826Y-76391858D01*
X207456000Y-76415750D01*
X207456000Y-76903250D01*
X207454826Y-76927142D01*
X207451316Y-76950803D01*
X207445504Y-76974007D01*
X207437446Y-76996529D01*
X207427218Y-77018153D01*
X207414921Y-77038670D01*
X207400671Y-77057883D01*
X207384607Y-77075607D01*
X207366883Y-77091671D01*
X207347670Y-77105921D01*
X207327153Y-77118218D01*
X207305529Y-77128446D01*
X207283007Y-77136504D01*
X207259803Y-77142316D01*
X207236142Y-77145826D01*
X207212250Y-77147000D01*
X206299750Y-77147000D01*
X206275858Y-77145826D01*
X206252197Y-77142316D01*
X206228993Y-77136504D01*
X206206471Y-77128446D01*
X206184847Y-77118218D01*
X206164330Y-77105921D01*
X206145117Y-77091671D01*
X206127393Y-77075607D01*
X206111329Y-77057883D01*
X206097079Y-77038670D01*
X206084782Y-77018153D01*
X206074554Y-76996529D01*
X206066496Y-76974007D01*
X206060684Y-76950803D01*
X206057174Y-76927142D01*
X206056000Y-76903250D01*
X206056000Y-76415750D01*
X206057174Y-76391858D01*
X206060684Y-76368197D01*
X206066496Y-76344993D01*
X206074554Y-76322471D01*
X206084782Y-76300847D01*
X206097079Y-76280330D01*
X206111329Y-76261117D01*
X206127393Y-76243393D01*
X206145117Y-76227329D01*
X206164330Y-76213079D01*
X206184847Y-76200782D01*
X206206471Y-76190554D01*
X206228993Y-76182496D01*
X206252197Y-76176684D01*
X206275858Y-76173174D01*
X206299750Y-76172000D01*
X207212250Y-76172000D01*
X207236142Y-76173174D01*
X207236142Y-76173174D01*
G37*
D25*
X206756000Y-76659500D03*
D10*
G36*
X189927142Y-111823174D02*
G01*
X189950803Y-111826684D01*
X189974007Y-111832496D01*
X189996529Y-111840554D01*
X190018153Y-111850782D01*
X190038670Y-111863079D01*
X190057883Y-111877329D01*
X190075607Y-111893393D01*
X190091671Y-111911117D01*
X190105921Y-111930330D01*
X190118218Y-111950847D01*
X190128446Y-111972471D01*
X190136504Y-111994993D01*
X190142316Y-112018197D01*
X190145826Y-112041858D01*
X190147000Y-112065750D01*
X190147000Y-112978250D01*
X190145826Y-113002142D01*
X190142316Y-113025803D01*
X190136504Y-113049007D01*
X190128446Y-113071529D01*
X190118218Y-113093153D01*
X190105921Y-113113670D01*
X190091671Y-113132883D01*
X190075607Y-113150607D01*
X190057883Y-113166671D01*
X190038670Y-113180921D01*
X190018153Y-113193218D01*
X189996529Y-113203446D01*
X189974007Y-113211504D01*
X189950803Y-113217316D01*
X189927142Y-113220826D01*
X189903250Y-113222000D01*
X189415750Y-113222000D01*
X189391858Y-113220826D01*
X189368197Y-113217316D01*
X189344993Y-113211504D01*
X189322471Y-113203446D01*
X189300847Y-113193218D01*
X189280330Y-113180921D01*
X189261117Y-113166671D01*
X189243393Y-113150607D01*
X189227329Y-113132883D01*
X189213079Y-113113670D01*
X189200782Y-113093153D01*
X189190554Y-113071529D01*
X189182496Y-113049007D01*
X189176684Y-113025803D01*
X189173174Y-113002142D01*
X189172000Y-112978250D01*
X189172000Y-112065750D01*
X189173174Y-112041858D01*
X189176684Y-112018197D01*
X189182496Y-111994993D01*
X189190554Y-111972471D01*
X189200782Y-111950847D01*
X189213079Y-111930330D01*
X189227329Y-111911117D01*
X189243393Y-111893393D01*
X189261117Y-111877329D01*
X189280330Y-111863079D01*
X189300847Y-111850782D01*
X189322471Y-111840554D01*
X189344993Y-111832496D01*
X189368197Y-111826684D01*
X189391858Y-111823174D01*
X189415750Y-111822000D01*
X189903250Y-111822000D01*
X189927142Y-111823174D01*
X189927142Y-111823174D01*
G37*
D25*
X189659500Y-112522000D03*
D10*
G36*
X188052142Y-111823174D02*
G01*
X188075803Y-111826684D01*
X188099007Y-111832496D01*
X188121529Y-111840554D01*
X188143153Y-111850782D01*
X188163670Y-111863079D01*
X188182883Y-111877329D01*
X188200607Y-111893393D01*
X188216671Y-111911117D01*
X188230921Y-111930330D01*
X188243218Y-111950847D01*
X188253446Y-111972471D01*
X188261504Y-111994993D01*
X188267316Y-112018197D01*
X188270826Y-112041858D01*
X188272000Y-112065750D01*
X188272000Y-112978250D01*
X188270826Y-113002142D01*
X188267316Y-113025803D01*
X188261504Y-113049007D01*
X188253446Y-113071529D01*
X188243218Y-113093153D01*
X188230921Y-113113670D01*
X188216671Y-113132883D01*
X188200607Y-113150607D01*
X188182883Y-113166671D01*
X188163670Y-113180921D01*
X188143153Y-113193218D01*
X188121529Y-113203446D01*
X188099007Y-113211504D01*
X188075803Y-113217316D01*
X188052142Y-113220826D01*
X188028250Y-113222000D01*
X187540750Y-113222000D01*
X187516858Y-113220826D01*
X187493197Y-113217316D01*
X187469993Y-113211504D01*
X187447471Y-113203446D01*
X187425847Y-113193218D01*
X187405330Y-113180921D01*
X187386117Y-113166671D01*
X187368393Y-113150607D01*
X187352329Y-113132883D01*
X187338079Y-113113670D01*
X187325782Y-113093153D01*
X187315554Y-113071529D01*
X187307496Y-113049007D01*
X187301684Y-113025803D01*
X187298174Y-113002142D01*
X187297000Y-112978250D01*
X187297000Y-112065750D01*
X187298174Y-112041858D01*
X187301684Y-112018197D01*
X187307496Y-111994993D01*
X187315554Y-111972471D01*
X187325782Y-111950847D01*
X187338079Y-111930330D01*
X187352329Y-111911117D01*
X187368393Y-111893393D01*
X187386117Y-111877329D01*
X187405330Y-111863079D01*
X187425847Y-111850782D01*
X187447471Y-111840554D01*
X187469993Y-111832496D01*
X187493197Y-111826684D01*
X187516858Y-111823174D01*
X187540750Y-111822000D01*
X188028250Y-111822000D01*
X188052142Y-111823174D01*
X188052142Y-111823174D01*
G37*
D25*
X187784500Y-112522000D03*
D10*
G36*
X114438691Y-90839053D02*
G01*
X114459926Y-90842203D01*
X114480750Y-90847419D01*
X114500962Y-90854651D01*
X114520368Y-90863830D01*
X114538781Y-90874866D01*
X114556024Y-90887654D01*
X114571930Y-90902070D01*
X114586346Y-90917976D01*
X114599134Y-90935219D01*
X114610170Y-90953632D01*
X114619349Y-90973038D01*
X114626581Y-90993250D01*
X114631797Y-91014074D01*
X114634947Y-91035309D01*
X114636000Y-91056750D01*
X114636000Y-91569250D01*
X114634947Y-91590691D01*
X114631797Y-91611926D01*
X114626581Y-91632750D01*
X114619349Y-91652962D01*
X114610170Y-91672368D01*
X114599134Y-91690781D01*
X114586346Y-91708024D01*
X114571930Y-91723930D01*
X114556024Y-91738346D01*
X114538781Y-91751134D01*
X114520368Y-91762170D01*
X114500962Y-91771349D01*
X114480750Y-91778581D01*
X114459926Y-91783797D01*
X114438691Y-91786947D01*
X114417250Y-91788000D01*
X113979750Y-91788000D01*
X113958309Y-91786947D01*
X113937074Y-91783797D01*
X113916250Y-91778581D01*
X113896038Y-91771349D01*
X113876632Y-91762170D01*
X113858219Y-91751134D01*
X113840976Y-91738346D01*
X113825070Y-91723930D01*
X113810654Y-91708024D01*
X113797866Y-91690781D01*
X113786830Y-91672368D01*
X113777651Y-91652962D01*
X113770419Y-91632750D01*
X113765203Y-91611926D01*
X113762053Y-91590691D01*
X113761000Y-91569250D01*
X113761000Y-91056750D01*
X113762053Y-91035309D01*
X113765203Y-91014074D01*
X113770419Y-90993250D01*
X113777651Y-90973038D01*
X113786830Y-90953632D01*
X113797866Y-90935219D01*
X113810654Y-90917976D01*
X113825070Y-90902070D01*
X113840976Y-90887654D01*
X113858219Y-90874866D01*
X113876632Y-90863830D01*
X113896038Y-90854651D01*
X113916250Y-90847419D01*
X113937074Y-90842203D01*
X113958309Y-90839053D01*
X113979750Y-90838000D01*
X114417250Y-90838000D01*
X114438691Y-90839053D01*
X114438691Y-90839053D01*
G37*
D11*
X114198500Y-91313000D03*
D10*
G36*
X112863691Y-90839053D02*
G01*
X112884926Y-90842203D01*
X112905750Y-90847419D01*
X112925962Y-90854651D01*
X112945368Y-90863830D01*
X112963781Y-90874866D01*
X112981024Y-90887654D01*
X112996930Y-90902070D01*
X113011346Y-90917976D01*
X113024134Y-90935219D01*
X113035170Y-90953632D01*
X113044349Y-90973038D01*
X113051581Y-90993250D01*
X113056797Y-91014074D01*
X113059947Y-91035309D01*
X113061000Y-91056750D01*
X113061000Y-91569250D01*
X113059947Y-91590691D01*
X113056797Y-91611926D01*
X113051581Y-91632750D01*
X113044349Y-91652962D01*
X113035170Y-91672368D01*
X113024134Y-91690781D01*
X113011346Y-91708024D01*
X112996930Y-91723930D01*
X112981024Y-91738346D01*
X112963781Y-91751134D01*
X112945368Y-91762170D01*
X112925962Y-91771349D01*
X112905750Y-91778581D01*
X112884926Y-91783797D01*
X112863691Y-91786947D01*
X112842250Y-91788000D01*
X112404750Y-91788000D01*
X112383309Y-91786947D01*
X112362074Y-91783797D01*
X112341250Y-91778581D01*
X112321038Y-91771349D01*
X112301632Y-91762170D01*
X112283219Y-91751134D01*
X112265976Y-91738346D01*
X112250070Y-91723930D01*
X112235654Y-91708024D01*
X112222866Y-91690781D01*
X112211830Y-91672368D01*
X112202651Y-91652962D01*
X112195419Y-91632750D01*
X112190203Y-91611926D01*
X112187053Y-91590691D01*
X112186000Y-91569250D01*
X112186000Y-91056750D01*
X112187053Y-91035309D01*
X112190203Y-91014074D01*
X112195419Y-90993250D01*
X112202651Y-90973038D01*
X112211830Y-90953632D01*
X112222866Y-90935219D01*
X112235654Y-90917976D01*
X112250070Y-90902070D01*
X112265976Y-90887654D01*
X112283219Y-90874866D01*
X112301632Y-90863830D01*
X112321038Y-90854651D01*
X112341250Y-90847419D01*
X112362074Y-90842203D01*
X112383309Y-90839053D01*
X112404750Y-90838000D01*
X112842250Y-90838000D01*
X112863691Y-90839053D01*
X112863691Y-90839053D01*
G37*
D11*
X112623500Y-91313000D03*
D33*
X118734000Y-101240000D03*
X118734000Y-91140000D03*
D34*
X165529000Y-100698000D03*
X165529000Y-101198000D03*
X165529000Y-101698000D03*
X165529000Y-102198000D03*
X165529000Y-102698000D03*
X165529000Y-103198000D03*
X165529000Y-103698000D03*
X165529000Y-104198000D03*
X165529000Y-104698000D03*
X165529000Y-105198000D03*
D35*
X163604000Y-98248000D03*
X163604000Y-107648000D03*
D10*
G36*
X146276142Y-80237174D02*
G01*
X146299803Y-80240684D01*
X146323007Y-80246496D01*
X146345529Y-80254554D01*
X146367153Y-80264782D01*
X146387670Y-80277079D01*
X146406883Y-80291329D01*
X146424607Y-80307393D01*
X146440671Y-80325117D01*
X146454921Y-80344330D01*
X146467218Y-80364847D01*
X146477446Y-80386471D01*
X146485504Y-80408993D01*
X146491316Y-80432197D01*
X146494826Y-80455858D01*
X146496000Y-80479750D01*
X146496000Y-80967250D01*
X146494826Y-80991142D01*
X146491316Y-81014803D01*
X146485504Y-81038007D01*
X146477446Y-81060529D01*
X146467218Y-81082153D01*
X146454921Y-81102670D01*
X146440671Y-81121883D01*
X146424607Y-81139607D01*
X146406883Y-81155671D01*
X146387670Y-81169921D01*
X146367153Y-81182218D01*
X146345529Y-81192446D01*
X146323007Y-81200504D01*
X146299803Y-81206316D01*
X146276142Y-81209826D01*
X146252250Y-81211000D01*
X145339750Y-81211000D01*
X145315858Y-81209826D01*
X145292197Y-81206316D01*
X145268993Y-81200504D01*
X145246471Y-81192446D01*
X145224847Y-81182218D01*
X145204330Y-81169921D01*
X145185117Y-81155671D01*
X145167393Y-81139607D01*
X145151329Y-81121883D01*
X145137079Y-81102670D01*
X145124782Y-81082153D01*
X145114554Y-81060529D01*
X145106496Y-81038007D01*
X145100684Y-81014803D01*
X145097174Y-80991142D01*
X145096000Y-80967250D01*
X145096000Y-80479750D01*
X145097174Y-80455858D01*
X145100684Y-80432197D01*
X145106496Y-80408993D01*
X145114554Y-80386471D01*
X145124782Y-80364847D01*
X145137079Y-80344330D01*
X145151329Y-80325117D01*
X145167393Y-80307393D01*
X145185117Y-80291329D01*
X145204330Y-80277079D01*
X145224847Y-80264782D01*
X145246471Y-80254554D01*
X145268993Y-80246496D01*
X145292197Y-80240684D01*
X145315858Y-80237174D01*
X145339750Y-80236000D01*
X146252250Y-80236000D01*
X146276142Y-80237174D01*
X146276142Y-80237174D01*
G37*
D25*
X145796000Y-80723500D03*
D10*
G36*
X146276142Y-82112174D02*
G01*
X146299803Y-82115684D01*
X146323007Y-82121496D01*
X146345529Y-82129554D01*
X146367153Y-82139782D01*
X146387670Y-82152079D01*
X146406883Y-82166329D01*
X146424607Y-82182393D01*
X146440671Y-82200117D01*
X146454921Y-82219330D01*
X146467218Y-82239847D01*
X146477446Y-82261471D01*
X146485504Y-82283993D01*
X146491316Y-82307197D01*
X146494826Y-82330858D01*
X146496000Y-82354750D01*
X146496000Y-82842250D01*
X146494826Y-82866142D01*
X146491316Y-82889803D01*
X146485504Y-82913007D01*
X146477446Y-82935529D01*
X146467218Y-82957153D01*
X146454921Y-82977670D01*
X146440671Y-82996883D01*
X146424607Y-83014607D01*
X146406883Y-83030671D01*
X146387670Y-83044921D01*
X146367153Y-83057218D01*
X146345529Y-83067446D01*
X146323007Y-83075504D01*
X146299803Y-83081316D01*
X146276142Y-83084826D01*
X146252250Y-83086000D01*
X145339750Y-83086000D01*
X145315858Y-83084826D01*
X145292197Y-83081316D01*
X145268993Y-83075504D01*
X145246471Y-83067446D01*
X145224847Y-83057218D01*
X145204330Y-83044921D01*
X145185117Y-83030671D01*
X145167393Y-83014607D01*
X145151329Y-82996883D01*
X145137079Y-82977670D01*
X145124782Y-82957153D01*
X145114554Y-82935529D01*
X145106496Y-82913007D01*
X145100684Y-82889803D01*
X145097174Y-82866142D01*
X145096000Y-82842250D01*
X145096000Y-82354750D01*
X145097174Y-82330858D01*
X145100684Y-82307197D01*
X145106496Y-82283993D01*
X145114554Y-82261471D01*
X145124782Y-82239847D01*
X145137079Y-82219330D01*
X145151329Y-82200117D01*
X145167393Y-82182393D01*
X145185117Y-82166329D01*
X145204330Y-82152079D01*
X145224847Y-82139782D01*
X145246471Y-82129554D01*
X145268993Y-82121496D01*
X145292197Y-82115684D01*
X145315858Y-82112174D01*
X145339750Y-82111000D01*
X146252250Y-82111000D01*
X146276142Y-82112174D01*
X146276142Y-82112174D01*
G37*
D25*
X145796000Y-82598500D03*
D10*
G36*
X142974142Y-82112174D02*
G01*
X142997803Y-82115684D01*
X143021007Y-82121496D01*
X143043529Y-82129554D01*
X143065153Y-82139782D01*
X143085670Y-82152079D01*
X143104883Y-82166329D01*
X143122607Y-82182393D01*
X143138671Y-82200117D01*
X143152921Y-82219330D01*
X143165218Y-82239847D01*
X143175446Y-82261471D01*
X143183504Y-82283993D01*
X143189316Y-82307197D01*
X143192826Y-82330858D01*
X143194000Y-82354750D01*
X143194000Y-82842250D01*
X143192826Y-82866142D01*
X143189316Y-82889803D01*
X143183504Y-82913007D01*
X143175446Y-82935529D01*
X143165218Y-82957153D01*
X143152921Y-82977670D01*
X143138671Y-82996883D01*
X143122607Y-83014607D01*
X143104883Y-83030671D01*
X143085670Y-83044921D01*
X143065153Y-83057218D01*
X143043529Y-83067446D01*
X143021007Y-83075504D01*
X142997803Y-83081316D01*
X142974142Y-83084826D01*
X142950250Y-83086000D01*
X142037750Y-83086000D01*
X142013858Y-83084826D01*
X141990197Y-83081316D01*
X141966993Y-83075504D01*
X141944471Y-83067446D01*
X141922847Y-83057218D01*
X141902330Y-83044921D01*
X141883117Y-83030671D01*
X141865393Y-83014607D01*
X141849329Y-82996883D01*
X141835079Y-82977670D01*
X141822782Y-82957153D01*
X141812554Y-82935529D01*
X141804496Y-82913007D01*
X141798684Y-82889803D01*
X141795174Y-82866142D01*
X141794000Y-82842250D01*
X141794000Y-82354750D01*
X141795174Y-82330858D01*
X141798684Y-82307197D01*
X141804496Y-82283993D01*
X141812554Y-82261471D01*
X141822782Y-82239847D01*
X141835079Y-82219330D01*
X141849329Y-82200117D01*
X141865393Y-82182393D01*
X141883117Y-82166329D01*
X141902330Y-82152079D01*
X141922847Y-82139782D01*
X141944471Y-82129554D01*
X141966993Y-82121496D01*
X141990197Y-82115684D01*
X142013858Y-82112174D01*
X142037750Y-82111000D01*
X142950250Y-82111000D01*
X142974142Y-82112174D01*
X142974142Y-82112174D01*
G37*
D25*
X142494000Y-82598500D03*
D10*
G36*
X142974142Y-80237174D02*
G01*
X142997803Y-80240684D01*
X143021007Y-80246496D01*
X143043529Y-80254554D01*
X143065153Y-80264782D01*
X143085670Y-80277079D01*
X143104883Y-80291329D01*
X143122607Y-80307393D01*
X143138671Y-80325117D01*
X143152921Y-80344330D01*
X143165218Y-80364847D01*
X143175446Y-80386471D01*
X143183504Y-80408993D01*
X143189316Y-80432197D01*
X143192826Y-80455858D01*
X143194000Y-80479750D01*
X143194000Y-80967250D01*
X143192826Y-80991142D01*
X143189316Y-81014803D01*
X143183504Y-81038007D01*
X143175446Y-81060529D01*
X143165218Y-81082153D01*
X143152921Y-81102670D01*
X143138671Y-81121883D01*
X143122607Y-81139607D01*
X143104883Y-81155671D01*
X143085670Y-81169921D01*
X143065153Y-81182218D01*
X143043529Y-81192446D01*
X143021007Y-81200504D01*
X142997803Y-81206316D01*
X142974142Y-81209826D01*
X142950250Y-81211000D01*
X142037750Y-81211000D01*
X142013858Y-81209826D01*
X141990197Y-81206316D01*
X141966993Y-81200504D01*
X141944471Y-81192446D01*
X141922847Y-81182218D01*
X141902330Y-81169921D01*
X141883117Y-81155671D01*
X141865393Y-81139607D01*
X141849329Y-81121883D01*
X141835079Y-81102670D01*
X141822782Y-81082153D01*
X141812554Y-81060529D01*
X141804496Y-81038007D01*
X141798684Y-81014803D01*
X141795174Y-80991142D01*
X141794000Y-80967250D01*
X141794000Y-80479750D01*
X141795174Y-80455858D01*
X141798684Y-80432197D01*
X141804496Y-80408993D01*
X141812554Y-80386471D01*
X141822782Y-80364847D01*
X141835079Y-80344330D01*
X141849329Y-80325117D01*
X141865393Y-80307393D01*
X141883117Y-80291329D01*
X141902330Y-80277079D01*
X141922847Y-80264782D01*
X141944471Y-80254554D01*
X141966993Y-80246496D01*
X141990197Y-80240684D01*
X142013858Y-80237174D01*
X142037750Y-80236000D01*
X142950250Y-80236000D01*
X142974142Y-80237174D01*
X142974142Y-80237174D01*
G37*
D25*
X142494000Y-80723500D03*
D27*
X164782000Y-114427000D03*
X156782000Y-114427000D03*
X176593000Y-108458000D03*
X168593000Y-108458000D03*
D20*
X181458000Y-84122000D03*
X181458000Y-85622000D03*
X181458000Y-87122000D03*
X181458000Y-88622000D03*
X181458000Y-90122000D03*
D21*
X186508000Y-81522000D03*
X186508000Y-92722000D03*
D10*
G36*
X178243142Y-84772174D02*
G01*
X178266803Y-84775684D01*
X178290007Y-84781496D01*
X178312529Y-84789554D01*
X178334153Y-84799782D01*
X178354670Y-84812079D01*
X178373883Y-84826329D01*
X178391607Y-84842393D01*
X178407671Y-84860117D01*
X178421921Y-84879330D01*
X178434218Y-84899847D01*
X178444446Y-84921471D01*
X178452504Y-84943993D01*
X178458316Y-84967197D01*
X178461826Y-84990858D01*
X178463000Y-85014750D01*
X178463000Y-85927250D01*
X178461826Y-85951142D01*
X178458316Y-85974803D01*
X178452504Y-85998007D01*
X178444446Y-86020529D01*
X178434218Y-86042153D01*
X178421921Y-86062670D01*
X178407671Y-86081883D01*
X178391607Y-86099607D01*
X178373883Y-86115671D01*
X178354670Y-86129921D01*
X178334153Y-86142218D01*
X178312529Y-86152446D01*
X178290007Y-86160504D01*
X178266803Y-86166316D01*
X178243142Y-86169826D01*
X178219250Y-86171000D01*
X177731750Y-86171000D01*
X177707858Y-86169826D01*
X177684197Y-86166316D01*
X177660993Y-86160504D01*
X177638471Y-86152446D01*
X177616847Y-86142218D01*
X177596330Y-86129921D01*
X177577117Y-86115671D01*
X177559393Y-86099607D01*
X177543329Y-86081883D01*
X177529079Y-86062670D01*
X177516782Y-86042153D01*
X177506554Y-86020529D01*
X177498496Y-85998007D01*
X177492684Y-85974803D01*
X177489174Y-85951142D01*
X177488000Y-85927250D01*
X177488000Y-85014750D01*
X177489174Y-84990858D01*
X177492684Y-84967197D01*
X177498496Y-84943993D01*
X177506554Y-84921471D01*
X177516782Y-84899847D01*
X177529079Y-84879330D01*
X177543329Y-84860117D01*
X177559393Y-84842393D01*
X177577117Y-84826329D01*
X177596330Y-84812079D01*
X177616847Y-84799782D01*
X177638471Y-84789554D01*
X177660993Y-84781496D01*
X177684197Y-84775684D01*
X177707858Y-84772174D01*
X177731750Y-84771000D01*
X178219250Y-84771000D01*
X178243142Y-84772174D01*
X178243142Y-84772174D01*
G37*
D25*
X177975500Y-85471000D03*
D10*
G36*
X176368142Y-84772174D02*
G01*
X176391803Y-84775684D01*
X176415007Y-84781496D01*
X176437529Y-84789554D01*
X176459153Y-84799782D01*
X176479670Y-84812079D01*
X176498883Y-84826329D01*
X176516607Y-84842393D01*
X176532671Y-84860117D01*
X176546921Y-84879330D01*
X176559218Y-84899847D01*
X176569446Y-84921471D01*
X176577504Y-84943993D01*
X176583316Y-84967197D01*
X176586826Y-84990858D01*
X176588000Y-85014750D01*
X176588000Y-85927250D01*
X176586826Y-85951142D01*
X176583316Y-85974803D01*
X176577504Y-85998007D01*
X176569446Y-86020529D01*
X176559218Y-86042153D01*
X176546921Y-86062670D01*
X176532671Y-86081883D01*
X176516607Y-86099607D01*
X176498883Y-86115671D01*
X176479670Y-86129921D01*
X176459153Y-86142218D01*
X176437529Y-86152446D01*
X176415007Y-86160504D01*
X176391803Y-86166316D01*
X176368142Y-86169826D01*
X176344250Y-86171000D01*
X175856750Y-86171000D01*
X175832858Y-86169826D01*
X175809197Y-86166316D01*
X175785993Y-86160504D01*
X175763471Y-86152446D01*
X175741847Y-86142218D01*
X175721330Y-86129921D01*
X175702117Y-86115671D01*
X175684393Y-86099607D01*
X175668329Y-86081883D01*
X175654079Y-86062670D01*
X175641782Y-86042153D01*
X175631554Y-86020529D01*
X175623496Y-85998007D01*
X175617684Y-85974803D01*
X175614174Y-85951142D01*
X175613000Y-85927250D01*
X175613000Y-85014750D01*
X175614174Y-84990858D01*
X175617684Y-84967197D01*
X175623496Y-84943993D01*
X175631554Y-84921471D01*
X175641782Y-84899847D01*
X175654079Y-84879330D01*
X175668329Y-84860117D01*
X175684393Y-84842393D01*
X175702117Y-84826329D01*
X175721330Y-84812079D01*
X175741847Y-84799782D01*
X175763471Y-84789554D01*
X175785993Y-84781496D01*
X175809197Y-84775684D01*
X175832858Y-84772174D01*
X175856750Y-84771000D01*
X176344250Y-84771000D01*
X176368142Y-84772174D01*
X176368142Y-84772174D01*
G37*
D25*
X176100500Y-85471000D03*
M02*
