M48
INCH,TZ
T1C0.0079
T2C0.0157
T3C0.0236
T4C0.0256
T5C0.0394
T6C0.0400
T7C0.1200
%
G90
G05
T1
X44524Y-33700
X44750Y-33326
X44750Y-34074
X44976Y-33700
T2
X44977Y-32653
X45711Y-31596
X45930Y-32190
X46239Y-32917
X46545Y-42426
X46761Y-41749
X47429Y-39640
X47482Y-36157
X48019Y-40855
X49053Y-40993
X50208Y-37517
X51261Y-37517
X51713Y-36305
X51920Y-40621
X52131Y-31419
X52152Y-41663
X52379Y-41433
X52594Y-40993
X53177Y-35243
X53738Y-36481
X54561Y-44386
X55154Y-31896
X55259Y-35577
X55834Y-37140
X56494Y-36380
X56553Y-36697
X57441Y-40859
X57917Y-35577
X58049Y-43428
X58500Y-41300
X58624Y-46076
X59539Y-34864
X60269Y-44909
X61083Y-35950
X62011Y-47099
X62777Y-44346
X62884Y-44820
X63386Y-46558
X63714Y-32774
X63995Y-31741
X64191Y-44893
X64201Y-40629
X64278Y-41217
X64623Y-43530
X64798Y-35610
X64803Y-41278
X64908Y-31104
X65213Y-42141
X65525Y-41322
X65652Y-40692
X65661Y-47411
X65990Y-47411
X66034Y-33752
X66079Y-29290
X66129Y-40967
X66239Y-41416
X66320Y-31360
X66751Y-47050
X67162Y-49310
X67565Y-44490
X67774Y-39912
X68032Y-43008
X68094Y-31700
X68210Y-41966
X68321Y-34470
X68920Y-43475
X69310Y-29219
X69385Y-32140
X69472Y-48999
X69485Y-41001
X70410Y-40676
X70720Y-41326
X70864Y-31784
X70950Y-45050
X72045Y-32607
X72183Y-31208
X72200Y-49050
X72220Y-41898
X72447Y-39728
X72502Y-38589
X72504Y-34891
X72550Y-49050
X72625Y-40040
X72884Y-44567
X73005Y-37690
X73284Y-41087
X73905Y-40055
X73990Y-43505
X74485Y-43199
X74625Y-37725
X74645Y-39977
X74779Y-46914
X74888Y-46570
X74999Y-38960
X75241Y-46643
X75292Y-37047
X75492Y-42146
X75511Y-46897
X75583Y-44742
X75676Y-40264
X75778Y-46469
X75800Y-34900
X75842Y-37844
X75883Y-44817
X76000Y-35502
X76027Y-45354
X77261Y-41283
X77685Y-33092
X78054Y-44238
X78216Y-39681
X78630Y-35669
X78855Y-39689
X79084Y-41977
X79270Y-45205
X79281Y-36775
X79668Y-36783
X80581Y-41508
X80655Y-42092
X81250Y-43093
T3
X44596Y-42454
X44625Y-32675
X44750Y-34700
X44750Y-35050
X45200Y-29950
X47100Y-36650
X47174Y-42426
X52329Y-36921
X53000Y-32800
X54800Y-44600
X58450Y-32300
X59250Y-45450
X61200Y-46600
X61584Y-48084
X64191Y-45491
X65290Y-34860
X65290Y-35260
X65603Y-37597
X68847Y-34053
X71100Y-44050
X75800Y-35200
T4
X46391Y-37555
X46391Y-38185
X47100Y-37240
X47100Y-37870
X47100Y-38500
T5
X59150Y-32250
X60150Y-32250
X71600Y-44050
X71600Y-45050
X71600Y-46050
X71600Y-47050
X71600Y-48050
X71600Y-49050
X68700Y-37750
X68700Y-38750
X68700Y-39750
X69700Y-37750
X69700Y-38750
X69700Y-39750
X51500Y-32250
X52500Y-32250
X53500Y-32250
X54500Y-32250
X44600Y-46750
X44600Y-47750
X44600Y-48750
X44600Y-42950
X44600Y-43950
X44600Y-44950
X45200Y-30650
X46200Y-30650
X45200Y-28550
X46200Y-28550
T6
X51100Y-29750
X52100Y-29750
X53100Y-29750
X54100Y-29750
X55100Y-29750
X56100Y-29750
X57100Y-29750
X58100Y-29750
X59100Y-29750
X60100Y-29750
X70700Y-29750
X71700Y-29750
X72700Y-29750
X73700Y-29750
X74700Y-29750
X75700Y-29750
X76700Y-29750
X77700Y-29750
X54700Y-48750
X55700Y-48750
X56700Y-48750
X57700Y-48750
X58700Y-48750
X59700Y-48750
X60700Y-48750
X61700Y-48750
X63700Y-48750
X64700Y-48750
X65700Y-48750
X66700Y-48750
X67700Y-48750
X68700Y-48750
X61700Y-29750
X62700Y-29750
X63700Y-29750
X64700Y-29750
X65700Y-29750
X66700Y-29750
X67700Y-29750
X68700Y-29750
T7
X49200Y-48750
X81600Y-48750
X69700Y-46750
X79000Y-29750
X49700Y-29750
X69700Y-35750
T0
M30
