M48
INCH,TZ
T1C0.0079
T2C0.0157
T3C0.0256
T4C0.0394
T5C0.0400
T6C0.1200
%
G90
G05
T1
X44474Y-35750
X44700Y-35376
X44700Y-36124
X44926Y-35750
T2
X44700Y-40200
X44700Y-40568
X44800Y-34450
X45443Y-42191
X45443Y-42543
X45453Y-45877
X45595Y-33450
X45595Y-35090
X45600Y-34500
X45600Y-34800
X45652Y-43448
X45750Y-45900
X46002Y-43448
X47253Y-38982
X47850Y-43506
X48100Y-43750
X48680Y-44627
X48759Y-33000
X49006Y-44506
X49594Y-32956
X49763Y-32297
X50941Y-32297
X51409Y-36415
X51616Y-31258
X51868Y-41644
X52204Y-40820
X52577Y-37496
X52686Y-35947
X52700Y-35438
X54178Y-42436
X54394Y-32849
X54701Y-32849
X55175Y-32425
X55739Y-37450
X57454Y-46353
X57489Y-39645
X57738Y-46576
X57938Y-39683
X58299Y-45801
X58619Y-45801
X58708Y-44909
X58929Y-37370
X59743Y-46063
X60050Y-41950
X60438Y-43031
X62480Y-31084
X63456Y-32806
X63468Y-41616
X63776Y-32806
X64312Y-37113
X64619Y-40629
X64619Y-41023
X64735Y-43021
X64813Y-40160
X64900Y-34100
X65017Y-32446
X65022Y-34388
X65524Y-41276
X65559Y-42991
X65649Y-36351
X66052Y-34068
X66121Y-39645
X66333Y-31438
X66420Y-40968
X66634Y-44294
X66900Y-41409
X66960Y-42762
X67106Y-44294
X67145Y-32583
X67671Y-40755
X68059Y-43080
X68179Y-40249
X68188Y-32098
X68684Y-42291
X69109Y-44184
X69459Y-29277
X69485Y-43843
X70737Y-40347
X71100Y-44050
X71849Y-31311
X72059Y-31650
X72101Y-34025
X72125Y-39289
X72310Y-43485
X72440Y-35398
X72493Y-34891
X73116Y-39869
X73323Y-31323
X73449Y-39751
X74101Y-39425
X74180Y-43485
X74359Y-42295
X74511Y-39126
X74666Y-38400
X75029Y-46921
X75171Y-30664
X75431Y-46921
X75529Y-37328
X75714Y-34186
X75816Y-46884
X75818Y-44767
X75850Y-41900
X75861Y-38853
X75894Y-40545
X75900Y-35750
X76100Y-44750
X77344Y-43384
X77669Y-33169
X77888Y-31737
X77911Y-46584
X78366Y-43355
X78674Y-35673
X78940Y-43274
X78967Y-41994
X79417Y-43388
X79764Y-36778
X79799Y-40903
X79926Y-38994
X80029Y-35919
X80319Y-43250
X80658Y-44194
X80723Y-42097
X80759Y-41664
T3
X46241Y-40655
X46241Y-41285
X46950Y-40340
X46950Y-40970
X46950Y-41600
T4
X71600Y-44050
X71600Y-45050
X71600Y-46050
X71600Y-47050
X71600Y-48050
X71600Y-49050
X51500Y-32250
X52500Y-32250
X53500Y-32250
X54500Y-32250
X75250Y-33650
X76250Y-33650
X44600Y-46750
X44600Y-47750
X44600Y-48750
X44600Y-42950
X44600Y-43950
X44600Y-44950
X46900Y-29150
X46900Y-30150
X68750Y-37750
X68750Y-38750
X68750Y-39750
X69750Y-37750
X69750Y-38750
X69750Y-39750
X44800Y-29150
X44800Y-30150
X75250Y-35100
X76250Y-35100
X59150Y-32250
X60150Y-32250
T5
X51100Y-29750
X52100Y-29750
X53100Y-29750
X54100Y-29750
X55100Y-29750
X56100Y-29750
X57100Y-29750
X58100Y-29750
X59100Y-29750
X60100Y-29750
X70700Y-29750
X71700Y-29750
X72700Y-29750
X73700Y-29750
X74700Y-29750
X75700Y-29750
X76700Y-29750
X77700Y-29750
X54700Y-48750
X55700Y-48750
X56700Y-48750
X57700Y-48750
X58700Y-48750
X59700Y-48750
X60700Y-48750
X61700Y-48750
X63700Y-48750
X64700Y-48750
X65700Y-48750
X66700Y-48750
X67700Y-48750
X68700Y-48750
X61700Y-29750
X62700Y-29750
X63700Y-29750
X64700Y-29750
X65700Y-29750
X66700Y-29750
X67700Y-29750
X68700Y-29750
T6
X49200Y-48750
X81600Y-48750
X69700Y-46750
X79000Y-29750
X49700Y-29750
X69700Y-35750
T0
M30
