G04 #@! TF.GenerationSoftware,KiCad,Pcbnew,(5.1.4)-1*
G04 #@! TF.CreationDate,2021-04-19T15:03:55+02:00*
G04 #@! TF.ProjectId,cSLIM-shield,63534c49-4d2d-4736-9869-656c642e6b69,rev?*
G04 #@! TF.SameCoordinates,Original*
G04 #@! TF.FileFunction,Legend,Bot*
G04 #@! TF.FilePolarity,Positive*
%FSLAX46Y46*%
G04 Gerber Fmt 4.6, Leading zero omitted, Abs format (unit mm)*
G04 Created by KiCad (PCBNEW (5.1.4)-1) date 2021-04-19 15:03:55*
%MOMM*%
%LPD*%
G04 APERTURE LIST*
%ADD10C,0.150000*%
%ADD11C,0.200000*%
%ADD12C,0.120000*%
%ADD13C,0.100000*%
%ADD14C,0.250000*%
%ADD15C,0.254000*%
G04 APERTURE END LIST*
D10*
X136715047Y-117975571D02*
X136381714Y-117975571D01*
X136238857Y-118499380D02*
X136715047Y-118499380D01*
X136715047Y-117499380D01*
X136238857Y-117499380D01*
X135810285Y-118404142D02*
X135762666Y-118451761D01*
X135810285Y-118499380D01*
X135857904Y-118451761D01*
X135810285Y-118404142D01*
X135810285Y-118499380D01*
X135048380Y-117499380D02*
X135048380Y-118213666D01*
X135096000Y-118356523D01*
X135191238Y-118451761D01*
X135334095Y-118499380D01*
X135429333Y-118499380D01*
X134048380Y-117832714D02*
X134667428Y-118499380D01*
X134429333Y-118499380D02*
X134524571Y-118451761D01*
X134572190Y-118404142D01*
X134619809Y-118308904D01*
X134619809Y-118023190D01*
X134572190Y-117927952D01*
X134524571Y-117880333D01*
X134429333Y-117832714D01*
X134286476Y-117832714D01*
X134191238Y-117880333D01*
X134143619Y-117927952D01*
X134096000Y-118023190D01*
X134096000Y-118308904D01*
X134143619Y-118404142D01*
X134191238Y-118451761D01*
X134286476Y-118499380D01*
X134429333Y-118499380D01*
X133524571Y-118499380D02*
X133619809Y-118451761D01*
X133667428Y-118356523D01*
X133667428Y-117499380D01*
X133191238Y-118451761D02*
X133096000Y-118499380D01*
X132905523Y-118499380D01*
X132810285Y-118451761D01*
X132762666Y-118356523D01*
X132762666Y-118308904D01*
X132810285Y-118213666D01*
X132905523Y-118166047D01*
X133048380Y-118166047D01*
X133143619Y-118118428D01*
X133191238Y-118023190D01*
X133191238Y-117975571D01*
X133143619Y-117880333D01*
X133048380Y-117832714D01*
X132905523Y-117832714D01*
X132810285Y-117880333D01*
X131905523Y-117832714D02*
X131905523Y-118642238D01*
X131953142Y-118737476D01*
X132000761Y-118785095D01*
X132096000Y-118832714D01*
X132238857Y-118832714D01*
X132334095Y-118785095D01*
X131905523Y-118451761D02*
X132000761Y-118499380D01*
X132191238Y-118499380D01*
X132286476Y-118451761D01*
X132334095Y-118404142D01*
X132381714Y-118308904D01*
X132381714Y-118023190D01*
X132334095Y-117927952D01*
X132286476Y-117880333D01*
X132191238Y-117832714D01*
X132000761Y-117832714D01*
X131905523Y-117880333D01*
X131000761Y-118499380D02*
X131000761Y-117975571D01*
X131048380Y-117880333D01*
X131143619Y-117832714D01*
X131334095Y-117832714D01*
X131429333Y-117880333D01*
X131000761Y-118451761D02*
X131096000Y-118499380D01*
X131334095Y-118499380D01*
X131429333Y-118451761D01*
X131476952Y-118356523D01*
X131476952Y-118261285D01*
X131429333Y-118166047D01*
X131334095Y-118118428D01*
X131096000Y-118118428D01*
X131000761Y-118070809D01*
X130524571Y-118499380D02*
X130524571Y-117832714D01*
X130524571Y-118023190D02*
X130476952Y-117927952D01*
X130429333Y-117880333D01*
X130334095Y-117832714D01*
X130238857Y-117832714D01*
X129476952Y-118499380D02*
X129476952Y-117499380D01*
X129476952Y-118451761D02*
X129572190Y-118499380D01*
X129762666Y-118499380D01*
X129857904Y-118451761D01*
X129905523Y-118404142D01*
X129953142Y-118308904D01*
X129953142Y-118023190D01*
X129905523Y-117927952D01*
X129857904Y-117880333D01*
X129762666Y-117832714D01*
X129572190Y-117832714D01*
X129476952Y-117880333D01*
X134810285Y-119244619D02*
X134762666Y-119197000D01*
X134667428Y-119149380D01*
X134429333Y-119149380D01*
X134334095Y-119197000D01*
X134286476Y-119244619D01*
X134238857Y-119339857D01*
X134238857Y-119435095D01*
X134286476Y-119577952D01*
X134857904Y-120149380D01*
X134238857Y-120149380D01*
X133619809Y-119149380D02*
X133524571Y-119149380D01*
X133429333Y-119197000D01*
X133381714Y-119244619D01*
X133334095Y-119339857D01*
X133286476Y-119530333D01*
X133286476Y-119768428D01*
X133334095Y-119958904D01*
X133381714Y-120054142D01*
X133429333Y-120101761D01*
X133524571Y-120149380D01*
X133619809Y-120149380D01*
X133715047Y-120101761D01*
X133762666Y-120054142D01*
X133810285Y-119958904D01*
X133857904Y-119768428D01*
X133857904Y-119530333D01*
X133810285Y-119339857D01*
X133762666Y-119244619D01*
X133715047Y-119197000D01*
X133619809Y-119149380D01*
X132905523Y-119244619D02*
X132857904Y-119197000D01*
X132762666Y-119149380D01*
X132524571Y-119149380D01*
X132429333Y-119197000D01*
X132381714Y-119244619D01*
X132334095Y-119339857D01*
X132334095Y-119435095D01*
X132381714Y-119577952D01*
X132953142Y-120149380D01*
X132334095Y-120149380D01*
X131381714Y-120149380D02*
X131953142Y-120149380D01*
X131667428Y-120149380D02*
X131667428Y-119149380D01*
X131762666Y-119292238D01*
X131857904Y-119387476D01*
X131953142Y-119435095D01*
D11*
X159051714Y-93972000D02*
X158956476Y-94019619D01*
X158813619Y-94019619D01*
X158670761Y-93972000D01*
X158575523Y-93876761D01*
X158527904Y-93781523D01*
X158480285Y-93591047D01*
X158480285Y-93448190D01*
X158527904Y-93257714D01*
X158575523Y-93162476D01*
X158670761Y-93067238D01*
X158813619Y-93019619D01*
X158908857Y-93019619D01*
X159051714Y-93067238D01*
X159099333Y-93114857D01*
X159099333Y-93448190D01*
X158908857Y-93448190D01*
X159527904Y-93019619D02*
X159527904Y-94019619D01*
X159908857Y-94019619D01*
X160004095Y-93972000D01*
X160051714Y-93924380D01*
X160099333Y-93829142D01*
X160099333Y-93686285D01*
X160051714Y-93591047D01*
X160004095Y-93543428D01*
X159908857Y-93495809D01*
X159527904Y-93495809D01*
X160480285Y-93067238D02*
X160623142Y-93019619D01*
X160861238Y-93019619D01*
X160956476Y-93067238D01*
X161004095Y-93114857D01*
X161051714Y-93210095D01*
X161051714Y-93305333D01*
X161004095Y-93400571D01*
X160956476Y-93448190D01*
X160861238Y-93495809D01*
X160670761Y-93543428D01*
X160575523Y-93591047D01*
X160527904Y-93638666D01*
X160480285Y-93733904D01*
X160480285Y-93829142D01*
X160527904Y-93924380D01*
X160575523Y-93972000D01*
X160670761Y-94019619D01*
X160908857Y-94019619D01*
X161051714Y-93972000D01*
D12*
X165349422Y-106882000D02*
X165866578Y-106882000D01*
X165349422Y-105462000D02*
X165866578Y-105462000D01*
X191831779Y-102491000D02*
X191506221Y-102491000D01*
X191831779Y-101471000D02*
X191506221Y-101471000D01*
X196433221Y-79631000D02*
X196758779Y-79631000D01*
X196433221Y-78611000D02*
X196758779Y-78611000D01*
X196433221Y-83187000D02*
X196758779Y-83187000D01*
X196433221Y-82167000D02*
X196758779Y-82167000D01*
X192784000Y-82539721D02*
X192784000Y-82865279D01*
X193804000Y-82539721D02*
X193804000Y-82865279D01*
X193804000Y-79186721D02*
X193804000Y-79512279D01*
X192784000Y-79186721D02*
X192784000Y-79512279D01*
X181866000Y-79466221D02*
X181866000Y-79791779D01*
X180846000Y-79466221D02*
X180846000Y-79791779D01*
X123383221Y-104011000D02*
X123708779Y-104011000D01*
X123383221Y-105031000D02*
X123708779Y-105031000D01*
X122489779Y-108329000D02*
X122164221Y-108329000D01*
X122489779Y-109349000D02*
X122164221Y-109349000D01*
X122489779Y-93347000D02*
X122164221Y-93347000D01*
X122489779Y-92327000D02*
X122164221Y-92327000D01*
X118582221Y-108329000D02*
X118907779Y-108329000D01*
X118582221Y-109349000D02*
X118907779Y-109349000D01*
X139582779Y-112270000D02*
X139257221Y-112270000D01*
X139582779Y-111250000D02*
X139257221Y-111250000D01*
X129631221Y-93343000D02*
X129956779Y-93343000D01*
X129631221Y-94363000D02*
X129956779Y-94363000D01*
X159095221Y-118620000D02*
X159420779Y-118620000D01*
X159095221Y-117600000D02*
X159420779Y-117600000D01*
X117922221Y-86235000D02*
X118247779Y-86235000D01*
X117922221Y-85215000D02*
X118247779Y-85215000D01*
D11*
X194767000Y-90768000D02*
X191567000Y-90768000D01*
X191567000Y-90768000D02*
X191567000Y-95668000D01*
X191567000Y-95668000D02*
X194767000Y-95668000D01*
X194767000Y-95668000D02*
X194767000Y-90768000D01*
X196642000Y-90638000D02*
X195117000Y-90638000D01*
X194190000Y-97560000D02*
X191890000Y-97560000D01*
X191890000Y-97560000D02*
X191890000Y-100560000D01*
X191890000Y-100560000D02*
X194190000Y-100560000D01*
X194190000Y-100560000D02*
X194190000Y-97560000D01*
X195965000Y-97510000D02*
X194540000Y-97510000D01*
X189556000Y-78399000D02*
X185856000Y-78399000D01*
X185856000Y-78399000D02*
X185856000Y-83399000D01*
X185856000Y-83399000D02*
X189556000Y-83399000D01*
X189556000Y-83399000D02*
X189556000Y-78399000D01*
X191381000Y-78049000D02*
X189906000Y-78049000D01*
X122627000Y-114451000D02*
X118927000Y-114451000D01*
X118927000Y-114451000D02*
X118927000Y-117451000D01*
X118927000Y-117451000D02*
X122627000Y-117451000D01*
X122627000Y-117451000D02*
X122627000Y-114451000D01*
X124452000Y-114401000D02*
X122977000Y-114401000D01*
X183332000Y-102370000D02*
X183332000Y-103845000D01*
X188682000Y-104195000D02*
X183682000Y-104195000D01*
X188682000Y-107895000D02*
X188682000Y-104195000D01*
X183682000Y-107895000D02*
X188682000Y-107895000D01*
X183682000Y-104195000D02*
X183682000Y-107895000D01*
X191995000Y-106881000D02*
X191545000Y-106881000D01*
X191545000Y-106881000D02*
X191545000Y-109781000D01*
X191545000Y-109781000D02*
X191995000Y-109781000D01*
X191995000Y-109781000D02*
X191995000Y-106881000D01*
X193395000Y-106831000D02*
X192345000Y-106831000D01*
X137542000Y-108716000D02*
X137542000Y-96516000D01*
X153542000Y-96516000D02*
X153542000Y-108716000D01*
X138616000Y-95102000D02*
G75*
G03X138616000Y-95102000I-62000J0D01*
G01*
X129072000Y-102290000D02*
X129072000Y-105990000D01*
X129072000Y-105990000D02*
X134072000Y-105990000D01*
X134072000Y-105990000D02*
X134072000Y-102290000D01*
X134072000Y-102290000D02*
X129072000Y-102290000D01*
X128722000Y-100465000D02*
X128722000Y-101940000D01*
X142901000Y-92813000D02*
X143951000Y-92813000D01*
X144301000Y-89863000D02*
X144301000Y-92763000D01*
X144751000Y-89863000D02*
X144301000Y-89863000D01*
X144751000Y-92763000D02*
X144751000Y-89863000D01*
X144301000Y-92763000D02*
X144751000Y-92763000D01*
X197491000Y-112933000D02*
X197491000Y-122612000D01*
X197491000Y-112933000D02*
X196430000Y-112933000D01*
X194016000Y-112933000D02*
X190516000Y-112933000D01*
X185541000Y-112933000D02*
X188061000Y-112933000D01*
X185541000Y-115036000D02*
X185541000Y-117117000D01*
X185541000Y-118732000D02*
X185541000Y-122966000D01*
X187777000Y-124333000D02*
X186956000Y-124333000D01*
X187995360Y-124938000D02*
G75*
G03X187995360Y-124938000I-113360J0D01*
G01*
X154656000Y-95153000D02*
X157256000Y-95153000D01*
X154656000Y-92553000D02*
X155195000Y-92553000D01*
X157256000Y-92553000D02*
X156717000Y-92553000D01*
X155974000Y-91500000D02*
G75*
G03X155974000Y-91500000I-31000J0D01*
G01*
D12*
X152102578Y-92762000D02*
X151585422Y-92762000D01*
X152102578Y-94182000D02*
X151585422Y-94182000D01*
D11*
X134108000Y-90005000D02*
X133608000Y-90005000D01*
X133608000Y-90005000D02*
X133608000Y-91605000D01*
X133608000Y-91605000D02*
X134108000Y-91605000D01*
X134108000Y-91605000D02*
X134108000Y-90005000D01*
X134928000Y-89905000D02*
X134458000Y-89905000D01*
D12*
X186361000Y-92783922D02*
X186361000Y-93301078D01*
X187781000Y-92783922D02*
X187781000Y-93301078D01*
X122169422Y-97865000D02*
X122686578Y-97865000D01*
X122169422Y-96445000D02*
X122686578Y-96445000D01*
X122735578Y-90095000D02*
X122218422Y-90095000D01*
X122735578Y-91515000D02*
X122218422Y-91515000D01*
X122735578Y-111304000D02*
X122218422Y-111304000D01*
X122735578Y-112724000D02*
X122218422Y-112724000D01*
X122735578Y-95579000D02*
X122218422Y-95579000D01*
X122735578Y-94159000D02*
X122218422Y-94159000D01*
X123399578Y-119963000D02*
X122882422Y-119963000D01*
X123399578Y-118543000D02*
X122882422Y-118543000D01*
X118310422Y-112724000D02*
X118827578Y-112724000D01*
X118310422Y-111304000D02*
X118827578Y-111304000D01*
X181154000Y-107564422D02*
X181154000Y-108081578D01*
X182574000Y-107564422D02*
X182574000Y-108081578D01*
X182574000Y-103754422D02*
X182574000Y-104271578D01*
X181154000Y-103754422D02*
X181154000Y-104271578D01*
X196290000Y-107993422D02*
X196290000Y-108510578D01*
X194870000Y-107993422D02*
X194870000Y-108510578D01*
X131266000Y-97609922D02*
X131266000Y-98127078D01*
X129846000Y-97609922D02*
X129846000Y-98127078D01*
X133298000Y-97609922D02*
X133298000Y-98127078D01*
X131878000Y-97609922D02*
X131878000Y-98127078D01*
X139498000Y-91571578D02*
X139498000Y-91054422D01*
X140918000Y-91571578D02*
X140918000Y-91054422D01*
X138124000Y-91054422D02*
X138124000Y-91571578D01*
X136704000Y-91054422D02*
X136704000Y-91571578D01*
X147950422Y-92635000D02*
X148467578Y-92635000D01*
X147950422Y-94055000D02*
X148467578Y-94055000D01*
X129330422Y-91261000D02*
X129847578Y-91261000D01*
X129330422Y-89841000D02*
X129847578Y-89841000D01*
X148721578Y-112066000D02*
X148204422Y-112066000D01*
X148721578Y-113486000D02*
X148204422Y-113486000D01*
X159692578Y-115495000D02*
X159175422Y-115495000D01*
X159692578Y-116915000D02*
X159175422Y-116915000D01*
X152834578Y-113486000D02*
X152317422Y-113486000D01*
X152834578Y-112066000D02*
X152317422Y-112066000D01*
X117337000Y-88875000D02*
X119137000Y-88875000D01*
X119137000Y-92095000D02*
X116687000Y-92095000D01*
D11*
X176348000Y-105323000D02*
X172648000Y-105323000D01*
X172648000Y-105323000D02*
X172648000Y-110323000D01*
X172648000Y-110323000D02*
X176348000Y-110323000D01*
X176348000Y-110323000D02*
X176348000Y-105323000D01*
X178173000Y-104973000D02*
X176698000Y-104973000D01*
D12*
X174804000Y-113914422D02*
X174804000Y-114431578D01*
X176224000Y-113914422D02*
X176224000Y-114431578D01*
X162151221Y-109577000D02*
X162476779Y-109577000D01*
X162151221Y-110597000D02*
X162476779Y-110597000D01*
X165445221Y-100078000D02*
X165770779Y-100078000D01*
X165445221Y-99058000D02*
X165770779Y-99058000D01*
X166161221Y-109577000D02*
X166486779Y-109577000D01*
X166161221Y-110597000D02*
X166486779Y-110597000D01*
X165445221Y-98046000D02*
X165770779Y-98046000D01*
X165445221Y-97026000D02*
X165770779Y-97026000D01*
X166561221Y-112527000D02*
X166886779Y-112527000D01*
X166561221Y-113547000D02*
X166886779Y-113547000D01*
X162255422Y-112107000D02*
X162772578Y-112107000D01*
X162255422Y-113527000D02*
X162772578Y-113527000D01*
X177344000Y-113914422D02*
X177344000Y-114431578D01*
X178764000Y-113914422D02*
X178764000Y-114431578D01*
X158190000Y-81021422D02*
X158190000Y-81538578D01*
X156770000Y-81021422D02*
X156770000Y-81538578D01*
X162000000Y-81538578D02*
X162000000Y-81021422D01*
X160580000Y-81538578D02*
X160580000Y-81021422D01*
X177471000Y-80063078D02*
X177471000Y-79545922D01*
X178891000Y-80063078D02*
X178891000Y-79545922D01*
D13*
X171707000Y-79245000D02*
X171707000Y-79245000D01*
X171807000Y-79245000D02*
X171807000Y-79245000D01*
X171807000Y-79245000D02*
G75*
G03X171707000Y-79245000I-50000J0D01*
G01*
X171707000Y-79245000D02*
G75*
G03X171807000Y-79245000I50000J0D01*
G01*
D11*
X150609000Y-119115000D02*
X152159000Y-119115000D01*
X152159000Y-119115000D02*
X152159000Y-115835000D01*
X152159000Y-115835000D02*
X150609000Y-115835000D01*
X150609000Y-115835000D02*
X150609000Y-119115000D01*
D14*
X149534000Y-119125000D02*
G75*
G03X149534000Y-119125000I-125000J0D01*
G01*
D12*
X182621422Y-91896000D02*
X183138578Y-91896000D01*
X182621422Y-90476000D02*
X183138578Y-90476000D01*
X183265578Y-95452000D02*
X182748422Y-95452000D01*
X183265578Y-94032000D02*
X182748422Y-94032000D01*
D10*
X170410047Y-106624380D02*
X170743380Y-106148190D01*
X170981476Y-106624380D02*
X170981476Y-105624380D01*
X170600523Y-105624380D01*
X170505285Y-105672000D01*
X170457666Y-105719619D01*
X170410047Y-105814857D01*
X170410047Y-105957714D01*
X170457666Y-106052952D01*
X170505285Y-106100571D01*
X170600523Y-106148190D01*
X170981476Y-106148190D01*
X169838619Y-106052952D02*
X169933857Y-106005333D01*
X169981476Y-105957714D01*
X170029095Y-105862476D01*
X170029095Y-105814857D01*
X169981476Y-105719619D01*
X169933857Y-105672000D01*
X169838619Y-105624380D01*
X169648142Y-105624380D01*
X169552904Y-105672000D01*
X169505285Y-105719619D01*
X169457666Y-105814857D01*
X169457666Y-105862476D01*
X169505285Y-105957714D01*
X169552904Y-106005333D01*
X169648142Y-106052952D01*
X169838619Y-106052952D01*
X169933857Y-106100571D01*
X169981476Y-106148190D01*
X170029095Y-106243428D01*
X170029095Y-106433904D01*
X169981476Y-106529142D01*
X169933857Y-106576761D01*
X169838619Y-106624380D01*
X169648142Y-106624380D01*
X169552904Y-106576761D01*
X169505285Y-106529142D01*
X169457666Y-106433904D01*
X169457666Y-106243428D01*
X169505285Y-106148190D01*
X169552904Y-106100571D01*
X169648142Y-106052952D01*
X168838619Y-105624380D02*
X168743380Y-105624380D01*
X168648142Y-105672000D01*
X168600523Y-105719619D01*
X168552904Y-105814857D01*
X168505285Y-106005333D01*
X168505285Y-106243428D01*
X168552904Y-106433904D01*
X168600523Y-106529142D01*
X168648142Y-106576761D01*
X168743380Y-106624380D01*
X168838619Y-106624380D01*
X168933857Y-106576761D01*
X168981476Y-106529142D01*
X169029095Y-106433904D01*
X169076714Y-106243428D01*
X169076714Y-106005333D01*
X169029095Y-105814857D01*
X168981476Y-105719619D01*
X168933857Y-105672000D01*
X168838619Y-105624380D01*
X167552904Y-106624380D02*
X168124333Y-106624380D01*
X167838619Y-106624380D02*
X167838619Y-105624380D01*
X167933857Y-105767238D01*
X168029095Y-105862476D01*
X168124333Y-105910095D01*
X196191547Y-102465142D02*
X196239166Y-102512761D01*
X196382023Y-102560380D01*
X196477261Y-102560380D01*
X196620119Y-102512761D01*
X196715357Y-102417523D01*
X196762976Y-102322285D01*
X196810595Y-102131809D01*
X196810595Y-101988952D01*
X196762976Y-101798476D01*
X196715357Y-101703238D01*
X196620119Y-101608000D01*
X196477261Y-101560380D01*
X196382023Y-101560380D01*
X196239166Y-101608000D01*
X196191547Y-101655619D01*
X195858214Y-101560380D02*
X195239166Y-101560380D01*
X195572500Y-101941333D01*
X195429642Y-101941333D01*
X195334404Y-101988952D01*
X195286785Y-102036571D01*
X195239166Y-102131809D01*
X195239166Y-102369904D01*
X195286785Y-102465142D01*
X195334404Y-102512761D01*
X195429642Y-102560380D01*
X195715357Y-102560380D01*
X195810595Y-102512761D01*
X195858214Y-102465142D01*
X194620119Y-101560380D02*
X194524880Y-101560380D01*
X194429642Y-101608000D01*
X194382023Y-101655619D01*
X194334404Y-101750857D01*
X194286785Y-101941333D01*
X194286785Y-102179428D01*
X194334404Y-102369904D01*
X194382023Y-102465142D01*
X194429642Y-102512761D01*
X194524880Y-102560380D01*
X194620119Y-102560380D01*
X194715357Y-102512761D01*
X194762976Y-102465142D01*
X194810595Y-102369904D01*
X194858214Y-102179428D01*
X194858214Y-101941333D01*
X194810595Y-101750857D01*
X194762976Y-101655619D01*
X194715357Y-101608000D01*
X194620119Y-101560380D01*
X193334404Y-102560380D02*
X193905833Y-102560380D01*
X193620119Y-102560380D02*
X193620119Y-101560380D01*
X193715357Y-101703238D01*
X193810595Y-101798476D01*
X193905833Y-101846095D01*
D13*
X198806571Y-78815476D02*
X198830380Y-78791666D01*
X198854190Y-78720238D01*
X198854190Y-78672619D01*
X198830380Y-78601190D01*
X198782761Y-78553571D01*
X198735142Y-78529761D01*
X198639904Y-78505952D01*
X198568476Y-78505952D01*
X198473238Y-78529761D01*
X198425619Y-78553571D01*
X198378000Y-78601190D01*
X198354190Y-78672619D01*
X198354190Y-78720238D01*
X198378000Y-78791666D01*
X198401809Y-78815476D01*
X198520857Y-79244047D02*
X198854190Y-79244047D01*
X198330380Y-79125000D02*
X198687523Y-79005952D01*
X198687523Y-79315476D01*
X198354190Y-79601190D02*
X198354190Y-79648809D01*
X198378000Y-79696428D01*
X198401809Y-79720238D01*
X198449428Y-79744047D01*
X198544666Y-79767857D01*
X198663714Y-79767857D01*
X198758952Y-79744047D01*
X198806571Y-79720238D01*
X198830380Y-79696428D01*
X198854190Y-79648809D01*
X198854190Y-79601190D01*
X198830380Y-79553571D01*
X198806571Y-79529761D01*
X198758952Y-79505952D01*
X198663714Y-79482142D01*
X198544666Y-79482142D01*
X198449428Y-79505952D01*
X198401809Y-79529761D01*
X198378000Y-79553571D01*
X198354190Y-79601190D01*
X198854190Y-80244047D02*
X198854190Y-79958333D01*
X198854190Y-80101190D02*
X198354190Y-80101190D01*
X198425619Y-80053571D01*
X198473238Y-80005952D01*
X198497047Y-79958333D01*
X198806571Y-82117476D02*
X198830380Y-82093666D01*
X198854190Y-82022238D01*
X198854190Y-81974619D01*
X198830380Y-81903190D01*
X198782761Y-81855571D01*
X198735142Y-81831761D01*
X198639904Y-81807952D01*
X198568476Y-81807952D01*
X198473238Y-81831761D01*
X198425619Y-81855571D01*
X198378000Y-81903190D01*
X198354190Y-81974619D01*
X198354190Y-82022238D01*
X198378000Y-82093666D01*
X198401809Y-82117476D01*
X198520857Y-82546047D02*
X198854190Y-82546047D01*
X198330380Y-82427000D02*
X198687523Y-82307952D01*
X198687523Y-82617476D01*
X198354190Y-82903190D02*
X198354190Y-82950809D01*
X198378000Y-82998428D01*
X198401809Y-83022238D01*
X198449428Y-83046047D01*
X198544666Y-83069857D01*
X198663714Y-83069857D01*
X198758952Y-83046047D01*
X198806571Y-83022238D01*
X198830380Y-82998428D01*
X198854190Y-82950809D01*
X198854190Y-82903190D01*
X198830380Y-82855571D01*
X198806571Y-82831761D01*
X198758952Y-82807952D01*
X198663714Y-82784142D01*
X198544666Y-82784142D01*
X198449428Y-82807952D01*
X198401809Y-82831761D01*
X198378000Y-82855571D01*
X198354190Y-82903190D01*
X198401809Y-83260333D02*
X198378000Y-83284142D01*
X198354190Y-83331761D01*
X198354190Y-83450809D01*
X198378000Y-83498428D01*
X198401809Y-83522238D01*
X198449428Y-83546047D01*
X198497047Y-83546047D01*
X198568476Y-83522238D01*
X198854190Y-83236523D01*
X198854190Y-83546047D01*
X194488571Y-82142976D02*
X194512380Y-82119166D01*
X194536190Y-82047738D01*
X194536190Y-82000119D01*
X194512380Y-81928690D01*
X194464761Y-81881071D01*
X194417142Y-81857261D01*
X194321904Y-81833452D01*
X194250476Y-81833452D01*
X194155238Y-81857261D01*
X194107619Y-81881071D01*
X194060000Y-81928690D01*
X194036190Y-82000119D01*
X194036190Y-82047738D01*
X194060000Y-82119166D01*
X194083809Y-82142976D01*
X194202857Y-82571547D02*
X194536190Y-82571547D01*
X194012380Y-82452500D02*
X194369523Y-82333452D01*
X194369523Y-82642976D01*
X194036190Y-82928690D02*
X194036190Y-82976309D01*
X194060000Y-83023928D01*
X194083809Y-83047738D01*
X194131428Y-83071547D01*
X194226666Y-83095357D01*
X194345714Y-83095357D01*
X194440952Y-83071547D01*
X194488571Y-83047738D01*
X194512380Y-83023928D01*
X194536190Y-82976309D01*
X194536190Y-82928690D01*
X194512380Y-82881071D01*
X194488571Y-82857261D01*
X194440952Y-82833452D01*
X194345714Y-82809642D01*
X194226666Y-82809642D01*
X194131428Y-82833452D01*
X194083809Y-82857261D01*
X194060000Y-82881071D01*
X194036190Y-82928690D01*
X194036190Y-83262023D02*
X194036190Y-83571547D01*
X194226666Y-83404880D01*
X194226666Y-83476309D01*
X194250476Y-83523928D01*
X194274285Y-83547738D01*
X194321904Y-83571547D01*
X194440952Y-83571547D01*
X194488571Y-83547738D01*
X194512380Y-83523928D01*
X194536190Y-83476309D01*
X194536190Y-83333452D01*
X194512380Y-83285833D01*
X194488571Y-83262023D01*
X194488571Y-78789976D02*
X194512380Y-78766166D01*
X194536190Y-78694738D01*
X194536190Y-78647119D01*
X194512380Y-78575690D01*
X194464761Y-78528071D01*
X194417142Y-78504261D01*
X194321904Y-78480452D01*
X194250476Y-78480452D01*
X194155238Y-78504261D01*
X194107619Y-78528071D01*
X194060000Y-78575690D01*
X194036190Y-78647119D01*
X194036190Y-78694738D01*
X194060000Y-78766166D01*
X194083809Y-78789976D01*
X194202857Y-79218547D02*
X194536190Y-79218547D01*
X194012380Y-79099500D02*
X194369523Y-78980452D01*
X194369523Y-79289976D01*
X194036190Y-79575690D02*
X194036190Y-79623309D01*
X194060000Y-79670928D01*
X194083809Y-79694738D01*
X194131428Y-79718547D01*
X194226666Y-79742357D01*
X194345714Y-79742357D01*
X194440952Y-79718547D01*
X194488571Y-79694738D01*
X194512380Y-79670928D01*
X194536190Y-79623309D01*
X194536190Y-79575690D01*
X194512380Y-79528071D01*
X194488571Y-79504261D01*
X194440952Y-79480452D01*
X194345714Y-79456642D01*
X194226666Y-79456642D01*
X194131428Y-79480452D01*
X194083809Y-79504261D01*
X194060000Y-79528071D01*
X194036190Y-79575690D01*
X194202857Y-80170928D02*
X194536190Y-80170928D01*
X194012380Y-80051880D02*
X194369523Y-79932833D01*
X194369523Y-80242357D01*
X180104571Y-79069476D02*
X180128380Y-79045666D01*
X180152190Y-78974238D01*
X180152190Y-78926619D01*
X180128380Y-78855190D01*
X180080761Y-78807571D01*
X180033142Y-78783761D01*
X179937904Y-78759952D01*
X179866476Y-78759952D01*
X179771238Y-78783761D01*
X179723619Y-78807571D01*
X179676000Y-78855190D01*
X179652190Y-78926619D01*
X179652190Y-78974238D01*
X179676000Y-79045666D01*
X179699809Y-79069476D01*
X179818857Y-79498047D02*
X180152190Y-79498047D01*
X179628380Y-79379000D02*
X179985523Y-79259952D01*
X179985523Y-79569476D01*
X179652190Y-79855190D02*
X179652190Y-79902809D01*
X179676000Y-79950428D01*
X179699809Y-79974238D01*
X179747428Y-79998047D01*
X179842666Y-80021857D01*
X179961714Y-80021857D01*
X180056952Y-79998047D01*
X180104571Y-79974238D01*
X180128380Y-79950428D01*
X180152190Y-79902809D01*
X180152190Y-79855190D01*
X180128380Y-79807571D01*
X180104571Y-79783761D01*
X180056952Y-79759952D01*
X179961714Y-79736142D01*
X179842666Y-79736142D01*
X179747428Y-79759952D01*
X179699809Y-79783761D01*
X179676000Y-79807571D01*
X179652190Y-79855190D01*
X179652190Y-80474238D02*
X179652190Y-80236142D01*
X179890285Y-80212333D01*
X179866476Y-80236142D01*
X179842666Y-80283761D01*
X179842666Y-80402809D01*
X179866476Y-80450428D01*
X179890285Y-80474238D01*
X179937904Y-80498047D01*
X180056952Y-80498047D01*
X180104571Y-80474238D01*
X180128380Y-80450428D01*
X180152190Y-80402809D01*
X180152190Y-80283761D01*
X180128380Y-80236142D01*
X180104571Y-80212333D01*
D10*
X128094047Y-104878142D02*
X128141666Y-104925761D01*
X128284523Y-104973380D01*
X128379761Y-104973380D01*
X128522619Y-104925761D01*
X128617857Y-104830523D01*
X128665476Y-104735285D01*
X128713095Y-104544809D01*
X128713095Y-104401952D01*
X128665476Y-104211476D01*
X128617857Y-104116238D01*
X128522619Y-104021000D01*
X128379761Y-103973380D01*
X128284523Y-103973380D01*
X128141666Y-104021000D01*
X128094047Y-104068619D01*
X127189285Y-103973380D02*
X127665476Y-103973380D01*
X127713095Y-104449571D01*
X127665476Y-104401952D01*
X127570238Y-104354333D01*
X127332142Y-104354333D01*
X127236904Y-104401952D01*
X127189285Y-104449571D01*
X127141666Y-104544809D01*
X127141666Y-104782904D01*
X127189285Y-104878142D01*
X127236904Y-104925761D01*
X127332142Y-104973380D01*
X127570238Y-104973380D01*
X127665476Y-104925761D01*
X127713095Y-104878142D01*
X126522619Y-103973380D02*
X126427380Y-103973380D01*
X126332142Y-104021000D01*
X126284523Y-104068619D01*
X126236904Y-104163857D01*
X126189285Y-104354333D01*
X126189285Y-104592428D01*
X126236904Y-104782904D01*
X126284523Y-104878142D01*
X126332142Y-104925761D01*
X126427380Y-104973380D01*
X126522619Y-104973380D01*
X126617857Y-104925761D01*
X126665476Y-104878142D01*
X126713095Y-104782904D01*
X126760714Y-104592428D01*
X126760714Y-104354333D01*
X126713095Y-104163857D01*
X126665476Y-104068619D01*
X126617857Y-104021000D01*
X126522619Y-103973380D01*
X125236904Y-104973380D02*
X125808333Y-104973380D01*
X125522619Y-104973380D02*
X125522619Y-103973380D01*
X125617857Y-104116238D01*
X125713095Y-104211476D01*
X125808333Y-104259095D01*
X123547047Y-107672142D02*
X123594666Y-107719761D01*
X123737523Y-107767380D01*
X123832761Y-107767380D01*
X123975619Y-107719761D01*
X124070857Y-107624523D01*
X124118476Y-107529285D01*
X124166095Y-107338809D01*
X124166095Y-107195952D01*
X124118476Y-107005476D01*
X124070857Y-106910238D01*
X123975619Y-106815000D01*
X123832761Y-106767380D01*
X123737523Y-106767380D01*
X123594666Y-106815000D01*
X123547047Y-106862619D01*
X122689904Y-106767380D02*
X122880380Y-106767380D01*
X122975619Y-106815000D01*
X123023238Y-106862619D01*
X123118476Y-107005476D01*
X123166095Y-107195952D01*
X123166095Y-107576904D01*
X123118476Y-107672142D01*
X123070857Y-107719761D01*
X122975619Y-107767380D01*
X122785142Y-107767380D01*
X122689904Y-107719761D01*
X122642285Y-107672142D01*
X122594666Y-107576904D01*
X122594666Y-107338809D01*
X122642285Y-107243571D01*
X122689904Y-107195952D01*
X122785142Y-107148333D01*
X122975619Y-107148333D01*
X123070857Y-107195952D01*
X123118476Y-107243571D01*
X123166095Y-107338809D01*
X121975619Y-106767380D02*
X121880380Y-106767380D01*
X121785142Y-106815000D01*
X121737523Y-106862619D01*
X121689904Y-106957857D01*
X121642285Y-107148333D01*
X121642285Y-107386428D01*
X121689904Y-107576904D01*
X121737523Y-107672142D01*
X121785142Y-107719761D01*
X121880380Y-107767380D01*
X121975619Y-107767380D01*
X122070857Y-107719761D01*
X122118476Y-107672142D01*
X122166095Y-107576904D01*
X122213714Y-107386428D01*
X122213714Y-107148333D01*
X122166095Y-106957857D01*
X122118476Y-106862619D01*
X122070857Y-106815000D01*
X121975619Y-106767380D01*
X120689904Y-107767380D02*
X121261333Y-107767380D01*
X120975619Y-107767380D02*
X120975619Y-106767380D01*
X121070857Y-106910238D01*
X121166095Y-107005476D01*
X121261333Y-107053095D01*
X126976547Y-93194142D02*
X127024166Y-93241761D01*
X127167023Y-93289380D01*
X127262261Y-93289380D01*
X127405119Y-93241761D01*
X127500357Y-93146523D01*
X127547976Y-93051285D01*
X127595595Y-92860809D01*
X127595595Y-92717952D01*
X127547976Y-92527476D01*
X127500357Y-92432238D01*
X127405119Y-92337000D01*
X127262261Y-92289380D01*
X127167023Y-92289380D01*
X127024166Y-92337000D01*
X126976547Y-92384619D01*
X126119404Y-92289380D02*
X126309880Y-92289380D01*
X126405119Y-92337000D01*
X126452738Y-92384619D01*
X126547976Y-92527476D01*
X126595595Y-92717952D01*
X126595595Y-93098904D01*
X126547976Y-93194142D01*
X126500357Y-93241761D01*
X126405119Y-93289380D01*
X126214642Y-93289380D01*
X126119404Y-93241761D01*
X126071785Y-93194142D01*
X126024166Y-93098904D01*
X126024166Y-92860809D01*
X126071785Y-92765571D01*
X126119404Y-92717952D01*
X126214642Y-92670333D01*
X126405119Y-92670333D01*
X126500357Y-92717952D01*
X126547976Y-92765571D01*
X126595595Y-92860809D01*
X125405119Y-92289380D02*
X125309880Y-92289380D01*
X125214642Y-92337000D01*
X125167023Y-92384619D01*
X125119404Y-92479857D01*
X125071785Y-92670333D01*
X125071785Y-92908428D01*
X125119404Y-93098904D01*
X125167023Y-93194142D01*
X125214642Y-93241761D01*
X125309880Y-93289380D01*
X125405119Y-93289380D01*
X125500357Y-93241761D01*
X125547976Y-93194142D01*
X125595595Y-93098904D01*
X125643214Y-92908428D01*
X125643214Y-92670333D01*
X125595595Y-92479857D01*
X125547976Y-92384619D01*
X125500357Y-92337000D01*
X125405119Y-92289380D01*
X124690833Y-92384619D02*
X124643214Y-92337000D01*
X124547976Y-92289380D01*
X124309880Y-92289380D01*
X124214642Y-92337000D01*
X124167023Y-92384619D01*
X124119404Y-92479857D01*
X124119404Y-92575095D01*
X124167023Y-92717952D01*
X124738452Y-93289380D01*
X124119404Y-93289380D01*
X119610047Y-107672142D02*
X119657666Y-107719761D01*
X119800523Y-107767380D01*
X119895761Y-107767380D01*
X120038619Y-107719761D01*
X120133857Y-107624523D01*
X120181476Y-107529285D01*
X120229095Y-107338809D01*
X120229095Y-107195952D01*
X120181476Y-107005476D01*
X120133857Y-106910238D01*
X120038619Y-106815000D01*
X119895761Y-106767380D01*
X119800523Y-106767380D01*
X119657666Y-106815000D01*
X119610047Y-106862619D01*
X118752904Y-106767380D02*
X118943380Y-106767380D01*
X119038619Y-106815000D01*
X119086238Y-106862619D01*
X119181476Y-107005476D01*
X119229095Y-107195952D01*
X119229095Y-107576904D01*
X119181476Y-107672142D01*
X119133857Y-107719761D01*
X119038619Y-107767380D01*
X118848142Y-107767380D01*
X118752904Y-107719761D01*
X118705285Y-107672142D01*
X118657666Y-107576904D01*
X118657666Y-107338809D01*
X118705285Y-107243571D01*
X118752904Y-107195952D01*
X118848142Y-107148333D01*
X119038619Y-107148333D01*
X119133857Y-107195952D01*
X119181476Y-107243571D01*
X119229095Y-107338809D01*
X118038619Y-106767380D02*
X117943380Y-106767380D01*
X117848142Y-106815000D01*
X117800523Y-106862619D01*
X117752904Y-106957857D01*
X117705285Y-107148333D01*
X117705285Y-107386428D01*
X117752904Y-107576904D01*
X117800523Y-107672142D01*
X117848142Y-107719761D01*
X117943380Y-107767380D01*
X118038619Y-107767380D01*
X118133857Y-107719761D01*
X118181476Y-107672142D01*
X118229095Y-107576904D01*
X118276714Y-107386428D01*
X118276714Y-107148333D01*
X118229095Y-106957857D01*
X118181476Y-106862619D01*
X118133857Y-106815000D01*
X118038619Y-106767380D01*
X116848142Y-107100714D02*
X116848142Y-107767380D01*
X117086238Y-106719761D02*
X117324333Y-107434047D01*
X116705285Y-107434047D01*
X144069547Y-112117142D02*
X144117166Y-112164761D01*
X144260023Y-112212380D01*
X144355261Y-112212380D01*
X144498119Y-112164761D01*
X144593357Y-112069523D01*
X144640976Y-111974285D01*
X144688595Y-111783809D01*
X144688595Y-111640952D01*
X144640976Y-111450476D01*
X144593357Y-111355238D01*
X144498119Y-111260000D01*
X144355261Y-111212380D01*
X144260023Y-111212380D01*
X144117166Y-111260000D01*
X144069547Y-111307619D01*
X143593357Y-112212380D02*
X143402880Y-112212380D01*
X143307642Y-112164761D01*
X143260023Y-112117142D01*
X143164785Y-111974285D01*
X143117166Y-111783809D01*
X143117166Y-111402857D01*
X143164785Y-111307619D01*
X143212404Y-111260000D01*
X143307642Y-111212380D01*
X143498119Y-111212380D01*
X143593357Y-111260000D01*
X143640976Y-111307619D01*
X143688595Y-111402857D01*
X143688595Y-111640952D01*
X143640976Y-111736190D01*
X143593357Y-111783809D01*
X143498119Y-111831428D01*
X143307642Y-111831428D01*
X143212404Y-111783809D01*
X143164785Y-111736190D01*
X143117166Y-111640952D01*
X142498119Y-111212380D02*
X142402880Y-111212380D01*
X142307642Y-111260000D01*
X142260023Y-111307619D01*
X142212404Y-111402857D01*
X142164785Y-111593333D01*
X142164785Y-111831428D01*
X142212404Y-112021904D01*
X142260023Y-112117142D01*
X142307642Y-112164761D01*
X142402880Y-112212380D01*
X142498119Y-112212380D01*
X142593357Y-112164761D01*
X142640976Y-112117142D01*
X142688595Y-112021904D01*
X142736214Y-111831428D01*
X142736214Y-111593333D01*
X142688595Y-111402857D01*
X142640976Y-111307619D01*
X142593357Y-111260000D01*
X142498119Y-111212380D01*
X141212404Y-112212380D02*
X141783833Y-112212380D01*
X141498119Y-112212380D02*
X141498119Y-111212380D01*
X141593357Y-111355238D01*
X141688595Y-111450476D01*
X141783833Y-111498095D01*
X130684547Y-92686142D02*
X130732166Y-92733761D01*
X130875023Y-92781380D01*
X130970261Y-92781380D01*
X131113119Y-92733761D01*
X131208357Y-92638523D01*
X131255976Y-92543285D01*
X131303595Y-92352809D01*
X131303595Y-92209952D01*
X131255976Y-92019476D01*
X131208357Y-91924238D01*
X131113119Y-91829000D01*
X130970261Y-91781380D01*
X130875023Y-91781380D01*
X130732166Y-91829000D01*
X130684547Y-91876619D01*
X130208357Y-92781380D02*
X130017880Y-92781380D01*
X129922642Y-92733761D01*
X129875023Y-92686142D01*
X129779785Y-92543285D01*
X129732166Y-92352809D01*
X129732166Y-91971857D01*
X129779785Y-91876619D01*
X129827404Y-91829000D01*
X129922642Y-91781380D01*
X130113119Y-91781380D01*
X130208357Y-91829000D01*
X130255976Y-91876619D01*
X130303595Y-91971857D01*
X130303595Y-92209952D01*
X130255976Y-92305190D01*
X130208357Y-92352809D01*
X130113119Y-92400428D01*
X129922642Y-92400428D01*
X129827404Y-92352809D01*
X129779785Y-92305190D01*
X129732166Y-92209952D01*
X129113119Y-91781380D02*
X129017880Y-91781380D01*
X128922642Y-91829000D01*
X128875023Y-91876619D01*
X128827404Y-91971857D01*
X128779785Y-92162333D01*
X128779785Y-92400428D01*
X128827404Y-92590904D01*
X128875023Y-92686142D01*
X128922642Y-92733761D01*
X129017880Y-92781380D01*
X129113119Y-92781380D01*
X129208357Y-92733761D01*
X129255976Y-92686142D01*
X129303595Y-92590904D01*
X129351214Y-92400428D01*
X129351214Y-92162333D01*
X129303595Y-91971857D01*
X129255976Y-91876619D01*
X129208357Y-91829000D01*
X129113119Y-91781380D01*
X128398833Y-91876619D02*
X128351214Y-91829000D01*
X128255976Y-91781380D01*
X128017880Y-91781380D01*
X127922642Y-91829000D01*
X127875023Y-91876619D01*
X127827404Y-91971857D01*
X127827404Y-92067095D01*
X127875023Y-92209952D01*
X128446452Y-92781380D01*
X127827404Y-92781380D01*
X163676666Y-118360000D02*
X163710000Y-118393333D01*
X163810000Y-118426666D01*
X163876666Y-118426666D01*
X163976666Y-118393333D01*
X164043333Y-118326666D01*
X164076666Y-118260000D01*
X164110000Y-118126666D01*
X164110000Y-118026666D01*
X164076666Y-117893333D01*
X164043333Y-117826666D01*
X163976666Y-117760000D01*
X163876666Y-117726666D01*
X163810000Y-117726666D01*
X163710000Y-117760000D01*
X163676666Y-117793333D01*
X163010000Y-118426666D02*
X163410000Y-118426666D01*
X163210000Y-118426666D02*
X163210000Y-117726666D01*
X163276666Y-117826666D01*
X163343333Y-117893333D01*
X163410000Y-117926666D01*
X162576666Y-117726666D02*
X162510000Y-117726666D01*
X162443333Y-117760000D01*
X162410000Y-117793333D01*
X162376666Y-117860000D01*
X162343333Y-117993333D01*
X162343333Y-118160000D01*
X162376666Y-118293333D01*
X162410000Y-118360000D01*
X162443333Y-118393333D01*
X162510000Y-118426666D01*
X162576666Y-118426666D01*
X162643333Y-118393333D01*
X162676666Y-118360000D01*
X162710000Y-118293333D01*
X162743333Y-118160000D01*
X162743333Y-117993333D01*
X162710000Y-117860000D01*
X162676666Y-117793333D01*
X162643333Y-117760000D01*
X162576666Y-117726666D01*
X161910000Y-117726666D02*
X161843333Y-117726666D01*
X161776666Y-117760000D01*
X161743333Y-117793333D01*
X161710000Y-117860000D01*
X161676666Y-117993333D01*
X161676666Y-118160000D01*
X161710000Y-118293333D01*
X161743333Y-118360000D01*
X161776666Y-118393333D01*
X161843333Y-118426666D01*
X161910000Y-118426666D01*
X161976666Y-118393333D01*
X162010000Y-118360000D01*
X162043333Y-118293333D01*
X162076666Y-118160000D01*
X162076666Y-117993333D01*
X162043333Y-117860000D01*
X162010000Y-117793333D01*
X161976666Y-117760000D01*
X161910000Y-117726666D01*
X161010000Y-118426666D02*
X161410000Y-118426666D01*
X161210000Y-118426666D02*
X161210000Y-117726666D01*
X161276666Y-117826666D01*
X161343333Y-117893333D01*
X161410000Y-117926666D01*
D13*
X119003857Y-84546285D02*
X119170523Y-84546285D01*
X119170523Y-84808190D02*
X119170523Y-84308190D01*
X118932428Y-84308190D01*
X118575285Y-84546285D02*
X118503857Y-84570095D01*
X118480047Y-84593904D01*
X118456238Y-84641523D01*
X118456238Y-84712952D01*
X118480047Y-84760571D01*
X118503857Y-84784380D01*
X118551476Y-84808190D01*
X118741952Y-84808190D01*
X118741952Y-84308190D01*
X118575285Y-84308190D01*
X118527666Y-84332000D01*
X118503857Y-84355809D01*
X118480047Y-84403428D01*
X118480047Y-84451047D01*
X118503857Y-84498666D01*
X118527666Y-84522476D01*
X118575285Y-84546285D01*
X118741952Y-84546285D01*
X118003857Y-84308190D02*
X118241952Y-84308190D01*
X118265761Y-84546285D01*
X118241952Y-84522476D01*
X118194333Y-84498666D01*
X118075285Y-84498666D01*
X118027666Y-84522476D01*
X118003857Y-84546285D01*
X117980047Y-84593904D01*
X117980047Y-84712952D01*
X118003857Y-84760571D01*
X118027666Y-84784380D01*
X118075285Y-84808190D01*
X118194333Y-84808190D01*
X118241952Y-84784380D01*
X118265761Y-84760571D01*
X117670523Y-84308190D02*
X117622904Y-84308190D01*
X117575285Y-84332000D01*
X117551476Y-84355809D01*
X117527666Y-84403428D01*
X117503857Y-84498666D01*
X117503857Y-84617714D01*
X117527666Y-84712952D01*
X117551476Y-84760571D01*
X117575285Y-84784380D01*
X117622904Y-84808190D01*
X117670523Y-84808190D01*
X117718142Y-84784380D01*
X117741952Y-84760571D01*
X117765761Y-84712952D01*
X117789571Y-84617714D01*
X117789571Y-84498666D01*
X117765761Y-84403428D01*
X117741952Y-84355809D01*
X117718142Y-84332000D01*
X117670523Y-84308190D01*
X117027666Y-84808190D02*
X117313380Y-84808190D01*
X117170523Y-84808190D02*
X117170523Y-84308190D01*
X117218142Y-84379619D01*
X117265761Y-84427238D01*
X117313380Y-84451047D01*
D10*
X196803000Y-90359666D02*
X196803000Y-89659666D01*
X196069666Y-90293000D02*
X196103000Y-90326333D01*
X196203000Y-90359666D01*
X196269666Y-90359666D01*
X196369666Y-90326333D01*
X196436333Y-90259666D01*
X196469666Y-90193000D01*
X196503000Y-90059666D01*
X196503000Y-89959666D01*
X196469666Y-89826333D01*
X196436333Y-89759666D01*
X196369666Y-89693000D01*
X196269666Y-89659666D01*
X196203000Y-89659666D01*
X196103000Y-89693000D01*
X196069666Y-89726333D01*
X195836333Y-89659666D02*
X195403000Y-89659666D01*
X195636333Y-89926333D01*
X195536333Y-89926333D01*
X195469666Y-89959666D01*
X195436333Y-89993000D01*
X195403000Y-90059666D01*
X195403000Y-90226333D01*
X195436333Y-90293000D01*
X195469666Y-90326333D01*
X195536333Y-90359666D01*
X195736333Y-90359666D01*
X195803000Y-90326333D01*
X195836333Y-90293000D01*
X194969666Y-89659666D02*
X194903000Y-89659666D01*
X194836333Y-89693000D01*
X194803000Y-89726333D01*
X194769666Y-89793000D01*
X194736333Y-89926333D01*
X194736333Y-90093000D01*
X194769666Y-90226333D01*
X194803000Y-90293000D01*
X194836333Y-90326333D01*
X194903000Y-90359666D01*
X194969666Y-90359666D01*
X195036333Y-90326333D01*
X195069666Y-90293000D01*
X195103000Y-90226333D01*
X195136333Y-90093000D01*
X195136333Y-89926333D01*
X195103000Y-89793000D01*
X195069666Y-89726333D01*
X195036333Y-89693000D01*
X194969666Y-89659666D01*
X194069666Y-90359666D02*
X194469666Y-90359666D01*
X194269666Y-90359666D02*
X194269666Y-89659666D01*
X194336333Y-89759666D01*
X194403000Y-89826333D01*
X194469666Y-89859666D01*
X195914000Y-97090666D02*
X195914000Y-96390666D01*
X195180666Y-97024000D02*
X195214000Y-97057333D01*
X195314000Y-97090666D01*
X195380666Y-97090666D01*
X195480666Y-97057333D01*
X195547333Y-96990666D01*
X195580666Y-96924000D01*
X195614000Y-96790666D01*
X195614000Y-96690666D01*
X195580666Y-96557333D01*
X195547333Y-96490666D01*
X195480666Y-96424000D01*
X195380666Y-96390666D01*
X195314000Y-96390666D01*
X195214000Y-96424000D01*
X195180666Y-96457333D01*
X194947333Y-96390666D02*
X194514000Y-96390666D01*
X194747333Y-96657333D01*
X194647333Y-96657333D01*
X194580666Y-96690666D01*
X194547333Y-96724000D01*
X194514000Y-96790666D01*
X194514000Y-96957333D01*
X194547333Y-97024000D01*
X194580666Y-97057333D01*
X194647333Y-97090666D01*
X194847333Y-97090666D01*
X194914000Y-97057333D01*
X194947333Y-97024000D01*
X194080666Y-96390666D02*
X194014000Y-96390666D01*
X193947333Y-96424000D01*
X193914000Y-96457333D01*
X193880666Y-96524000D01*
X193847333Y-96657333D01*
X193847333Y-96824000D01*
X193880666Y-96957333D01*
X193914000Y-97024000D01*
X193947333Y-97057333D01*
X194014000Y-97090666D01*
X194080666Y-97090666D01*
X194147333Y-97057333D01*
X194180666Y-97024000D01*
X194214000Y-96957333D01*
X194247333Y-96824000D01*
X194247333Y-96657333D01*
X194214000Y-96524000D01*
X194180666Y-96457333D01*
X194147333Y-96424000D01*
X194080666Y-96390666D01*
X193580666Y-96457333D02*
X193547333Y-96424000D01*
X193480666Y-96390666D01*
X193314000Y-96390666D01*
X193247333Y-96424000D01*
X193214000Y-96457333D01*
X193180666Y-96524000D01*
X193180666Y-96590666D01*
X193214000Y-96690666D01*
X193614000Y-97090666D01*
X193180666Y-97090666D01*
X186516000Y-84517666D02*
X186516000Y-83817666D01*
X185782666Y-84451000D02*
X185816000Y-84484333D01*
X185916000Y-84517666D01*
X185982666Y-84517666D01*
X186082666Y-84484333D01*
X186149333Y-84417666D01*
X186182666Y-84351000D01*
X186216000Y-84217666D01*
X186216000Y-84117666D01*
X186182666Y-83984333D01*
X186149333Y-83917666D01*
X186082666Y-83851000D01*
X185982666Y-83817666D01*
X185916000Y-83817666D01*
X185816000Y-83851000D01*
X185782666Y-83884333D01*
X185182666Y-84051000D02*
X185182666Y-84517666D01*
X185349333Y-83784333D02*
X185516000Y-84284333D01*
X185082666Y-84284333D01*
X184682666Y-83817666D02*
X184616000Y-83817666D01*
X184549333Y-83851000D01*
X184516000Y-83884333D01*
X184482666Y-83951000D01*
X184449333Y-84084333D01*
X184449333Y-84251000D01*
X184482666Y-84384333D01*
X184516000Y-84451000D01*
X184549333Y-84484333D01*
X184616000Y-84517666D01*
X184682666Y-84517666D01*
X184749333Y-84484333D01*
X184782666Y-84451000D01*
X184816000Y-84384333D01*
X184849333Y-84251000D01*
X184849333Y-84084333D01*
X184816000Y-83951000D01*
X184782666Y-83884333D01*
X184749333Y-83851000D01*
X184682666Y-83817666D01*
X183782666Y-84517666D02*
X184182666Y-84517666D01*
X183982666Y-84517666D02*
X183982666Y-83817666D01*
X184049333Y-83917666D01*
X184116000Y-83984333D01*
X184182666Y-84017666D01*
X124921000Y-113981666D02*
X124921000Y-113281666D01*
X124187666Y-113915000D02*
X124221000Y-113948333D01*
X124321000Y-113981666D01*
X124387666Y-113981666D01*
X124487666Y-113948333D01*
X124554333Y-113881666D01*
X124587666Y-113815000D01*
X124621000Y-113681666D01*
X124621000Y-113581666D01*
X124587666Y-113448333D01*
X124554333Y-113381666D01*
X124487666Y-113315000D01*
X124387666Y-113281666D01*
X124321000Y-113281666D01*
X124221000Y-113315000D01*
X124187666Y-113348333D01*
X123587666Y-113281666D02*
X123721000Y-113281666D01*
X123787666Y-113315000D01*
X123821000Y-113348333D01*
X123887666Y-113448333D01*
X123921000Y-113581666D01*
X123921000Y-113848333D01*
X123887666Y-113915000D01*
X123854333Y-113948333D01*
X123787666Y-113981666D01*
X123654333Y-113981666D01*
X123587666Y-113948333D01*
X123554333Y-113915000D01*
X123521000Y-113848333D01*
X123521000Y-113681666D01*
X123554333Y-113615000D01*
X123587666Y-113581666D01*
X123654333Y-113548333D01*
X123787666Y-113548333D01*
X123854333Y-113581666D01*
X123887666Y-113615000D01*
X123921000Y-113681666D01*
X123087666Y-113281666D02*
X123021000Y-113281666D01*
X122954333Y-113315000D01*
X122921000Y-113348333D01*
X122887666Y-113415000D01*
X122854333Y-113548333D01*
X122854333Y-113715000D01*
X122887666Y-113848333D01*
X122921000Y-113915000D01*
X122954333Y-113948333D01*
X123021000Y-113981666D01*
X123087666Y-113981666D01*
X123154333Y-113948333D01*
X123187666Y-113915000D01*
X123221000Y-113848333D01*
X123254333Y-113715000D01*
X123254333Y-113548333D01*
X123221000Y-113415000D01*
X123187666Y-113348333D01*
X123154333Y-113315000D01*
X123087666Y-113281666D01*
X122187666Y-113981666D02*
X122587666Y-113981666D01*
X122387666Y-113981666D02*
X122387666Y-113281666D01*
X122454333Y-113381666D01*
X122521000Y-113448333D01*
X122587666Y-113481666D01*
X188802000Y-101789666D02*
X188802000Y-101089666D01*
X188068666Y-101723000D02*
X188102000Y-101756333D01*
X188202000Y-101789666D01*
X188268666Y-101789666D01*
X188368666Y-101756333D01*
X188435333Y-101689666D01*
X188468666Y-101623000D01*
X188502000Y-101489666D01*
X188502000Y-101389666D01*
X188468666Y-101256333D01*
X188435333Y-101189666D01*
X188368666Y-101123000D01*
X188268666Y-101089666D01*
X188202000Y-101089666D01*
X188102000Y-101123000D01*
X188068666Y-101156333D01*
X187835333Y-101089666D02*
X187368666Y-101089666D01*
X187668666Y-101789666D01*
X186968666Y-101089666D02*
X186902000Y-101089666D01*
X186835333Y-101123000D01*
X186802000Y-101156333D01*
X186768666Y-101223000D01*
X186735333Y-101356333D01*
X186735333Y-101523000D01*
X186768666Y-101656333D01*
X186802000Y-101723000D01*
X186835333Y-101756333D01*
X186902000Y-101789666D01*
X186968666Y-101789666D01*
X187035333Y-101756333D01*
X187068666Y-101723000D01*
X187102000Y-101656333D01*
X187135333Y-101523000D01*
X187135333Y-101356333D01*
X187102000Y-101223000D01*
X187068666Y-101156333D01*
X187035333Y-101123000D01*
X186968666Y-101089666D01*
X186068666Y-101789666D02*
X186468666Y-101789666D01*
X186268666Y-101789666D02*
X186268666Y-101089666D01*
X186335333Y-101189666D01*
X186402000Y-101256333D01*
X186468666Y-101289666D01*
X193628000Y-106361666D02*
X193628000Y-105661666D01*
X192894666Y-106295000D02*
X192928000Y-106328333D01*
X193028000Y-106361666D01*
X193094666Y-106361666D01*
X193194666Y-106328333D01*
X193261333Y-106261666D01*
X193294666Y-106195000D01*
X193328000Y-106061666D01*
X193328000Y-105961666D01*
X193294666Y-105828333D01*
X193261333Y-105761666D01*
X193194666Y-105695000D01*
X193094666Y-105661666D01*
X193028000Y-105661666D01*
X192928000Y-105695000D01*
X192894666Y-105728333D01*
X192661333Y-105661666D02*
X192194666Y-105661666D01*
X192494666Y-106361666D01*
X191794666Y-105661666D02*
X191728000Y-105661666D01*
X191661333Y-105695000D01*
X191628000Y-105728333D01*
X191594666Y-105795000D01*
X191561333Y-105928333D01*
X191561333Y-106095000D01*
X191594666Y-106228333D01*
X191628000Y-106295000D01*
X191661333Y-106328333D01*
X191728000Y-106361666D01*
X191794666Y-106361666D01*
X191861333Y-106328333D01*
X191894666Y-106295000D01*
X191928000Y-106228333D01*
X191961333Y-106095000D01*
X191961333Y-105928333D01*
X191928000Y-105795000D01*
X191894666Y-105728333D01*
X191861333Y-105695000D01*
X191794666Y-105661666D01*
X191294666Y-105728333D02*
X191261333Y-105695000D01*
X191194666Y-105661666D01*
X191028000Y-105661666D01*
X190961333Y-105695000D01*
X190928000Y-105728333D01*
X190894666Y-105795000D01*
X190894666Y-105861666D01*
X190928000Y-105961666D01*
X191328000Y-106361666D01*
X190894666Y-106361666D01*
X153242000Y-95312666D02*
X153242000Y-94612666D01*
X152508666Y-95246000D02*
X152542000Y-95279333D01*
X152642000Y-95312666D01*
X152708666Y-95312666D01*
X152808666Y-95279333D01*
X152875333Y-95212666D01*
X152908666Y-95146000D01*
X152942000Y-95012666D01*
X152942000Y-94912666D01*
X152908666Y-94779333D01*
X152875333Y-94712666D01*
X152808666Y-94646000D01*
X152708666Y-94612666D01*
X152642000Y-94612666D01*
X152542000Y-94646000D01*
X152508666Y-94679333D01*
X152175333Y-95312666D02*
X152042000Y-95312666D01*
X151975333Y-95279333D01*
X151942000Y-95246000D01*
X151875333Y-95146000D01*
X151842000Y-95012666D01*
X151842000Y-94746000D01*
X151875333Y-94679333D01*
X151908666Y-94646000D01*
X151975333Y-94612666D01*
X152108666Y-94612666D01*
X152175333Y-94646000D01*
X152208666Y-94679333D01*
X152242000Y-94746000D01*
X152242000Y-94912666D01*
X152208666Y-94979333D01*
X152175333Y-95012666D01*
X152108666Y-95046000D01*
X151975333Y-95046000D01*
X151908666Y-95012666D01*
X151875333Y-94979333D01*
X151842000Y-94912666D01*
X151408666Y-94612666D02*
X151342000Y-94612666D01*
X151275333Y-94646000D01*
X151242000Y-94679333D01*
X151208666Y-94746000D01*
X151175333Y-94879333D01*
X151175333Y-95046000D01*
X151208666Y-95179333D01*
X151242000Y-95246000D01*
X151275333Y-95279333D01*
X151342000Y-95312666D01*
X151408666Y-95312666D01*
X151475333Y-95279333D01*
X151508666Y-95246000D01*
X151542000Y-95179333D01*
X151575333Y-95046000D01*
X151575333Y-94879333D01*
X151542000Y-94746000D01*
X151508666Y-94679333D01*
X151475333Y-94646000D01*
X151408666Y-94612666D01*
X150508666Y-95312666D02*
X150908666Y-95312666D01*
X150708666Y-95312666D02*
X150708666Y-94612666D01*
X150775333Y-94712666D01*
X150842000Y-94779333D01*
X150908666Y-94812666D01*
X131652000Y-109028666D02*
X131652000Y-108328666D01*
X130918666Y-108962000D02*
X130952000Y-108995333D01*
X131052000Y-109028666D01*
X131118666Y-109028666D01*
X131218666Y-108995333D01*
X131285333Y-108928666D01*
X131318666Y-108862000D01*
X131352000Y-108728666D01*
X131352000Y-108628666D01*
X131318666Y-108495333D01*
X131285333Y-108428666D01*
X131218666Y-108362000D01*
X131118666Y-108328666D01*
X131052000Y-108328666D01*
X130952000Y-108362000D01*
X130918666Y-108395333D01*
X130585333Y-109028666D02*
X130452000Y-109028666D01*
X130385333Y-108995333D01*
X130352000Y-108962000D01*
X130285333Y-108862000D01*
X130252000Y-108728666D01*
X130252000Y-108462000D01*
X130285333Y-108395333D01*
X130318666Y-108362000D01*
X130385333Y-108328666D01*
X130518666Y-108328666D01*
X130585333Y-108362000D01*
X130618666Y-108395333D01*
X130652000Y-108462000D01*
X130652000Y-108628666D01*
X130618666Y-108695333D01*
X130585333Y-108728666D01*
X130518666Y-108762000D01*
X130385333Y-108762000D01*
X130318666Y-108728666D01*
X130285333Y-108695333D01*
X130252000Y-108628666D01*
X129818666Y-108328666D02*
X129752000Y-108328666D01*
X129685333Y-108362000D01*
X129652000Y-108395333D01*
X129618666Y-108462000D01*
X129585333Y-108595333D01*
X129585333Y-108762000D01*
X129618666Y-108895333D01*
X129652000Y-108962000D01*
X129685333Y-108995333D01*
X129752000Y-109028666D01*
X129818666Y-109028666D01*
X129885333Y-108995333D01*
X129918666Y-108962000D01*
X129952000Y-108895333D01*
X129985333Y-108762000D01*
X129985333Y-108595333D01*
X129952000Y-108462000D01*
X129918666Y-108395333D01*
X129885333Y-108362000D01*
X129818666Y-108328666D01*
X129318666Y-108395333D02*
X129285333Y-108362000D01*
X129218666Y-108328666D01*
X129052000Y-108328666D01*
X128985333Y-108362000D01*
X128952000Y-108395333D01*
X128918666Y-108462000D01*
X128918666Y-108528666D01*
X128952000Y-108628666D01*
X129352000Y-109028666D01*
X128918666Y-109028666D01*
X141839333Y-92729000D02*
X142539333Y-92729000D01*
X141906000Y-91995666D02*
X141872666Y-92029000D01*
X141839333Y-92129000D01*
X141839333Y-92195666D01*
X141872666Y-92295666D01*
X141939333Y-92362333D01*
X142006000Y-92395666D01*
X142139333Y-92429000D01*
X142239333Y-92429000D01*
X142372666Y-92395666D01*
X142439333Y-92362333D01*
X142506000Y-92295666D01*
X142539333Y-92195666D01*
X142539333Y-92129000D01*
X142506000Y-92029000D01*
X142472666Y-91995666D01*
X141839333Y-91662333D02*
X141839333Y-91529000D01*
X141872666Y-91462333D01*
X141906000Y-91429000D01*
X142006000Y-91362333D01*
X142139333Y-91329000D01*
X142406000Y-91329000D01*
X142472666Y-91362333D01*
X142506000Y-91395666D01*
X142539333Y-91462333D01*
X142539333Y-91595666D01*
X142506000Y-91662333D01*
X142472666Y-91695666D01*
X142406000Y-91729000D01*
X142239333Y-91729000D01*
X142172666Y-91695666D01*
X142139333Y-91662333D01*
X142106000Y-91595666D01*
X142106000Y-91462333D01*
X142139333Y-91395666D01*
X142172666Y-91362333D01*
X142239333Y-91329000D01*
X142539333Y-90895666D02*
X142539333Y-90829000D01*
X142506000Y-90762333D01*
X142472666Y-90729000D01*
X142406000Y-90695666D01*
X142272666Y-90662333D01*
X142106000Y-90662333D01*
X141972666Y-90695666D01*
X141906000Y-90729000D01*
X141872666Y-90762333D01*
X141839333Y-90829000D01*
X141839333Y-90895666D01*
X141872666Y-90962333D01*
X141906000Y-90995666D01*
X141972666Y-91029000D01*
X142106000Y-91062333D01*
X142272666Y-91062333D01*
X142406000Y-91029000D01*
X142472666Y-90995666D01*
X142506000Y-90962333D01*
X142539333Y-90895666D01*
X142539333Y-90429000D02*
X142539333Y-89995666D01*
X142272666Y-90229000D01*
X142272666Y-90129000D01*
X142239333Y-90062333D01*
X142206000Y-90029000D01*
X142139333Y-89995666D01*
X141972666Y-89995666D01*
X141906000Y-90029000D01*
X141872666Y-90062333D01*
X141839333Y-90129000D01*
X141839333Y-90329000D01*
X141872666Y-90395666D01*
X141906000Y-90429000D01*
D15*
X193827857Y-117498523D02*
X193827857Y-118405666D01*
X193888333Y-118587095D01*
X194009285Y-118708047D01*
X194190714Y-118768523D01*
X194311666Y-118768523D01*
X192618333Y-117498523D02*
X193223095Y-117498523D01*
X193283571Y-118103285D01*
X193223095Y-118042809D01*
X193102142Y-117982333D01*
X192799761Y-117982333D01*
X192678809Y-118042809D01*
X192618333Y-118103285D01*
X192557857Y-118224238D01*
X192557857Y-118526619D01*
X192618333Y-118647571D01*
X192678809Y-118708047D01*
X192799761Y-118768523D01*
X193102142Y-118768523D01*
X193223095Y-118708047D01*
X193283571Y-118647571D01*
X191771666Y-117498523D02*
X191650714Y-117498523D01*
X191529761Y-117559000D01*
X191469285Y-117619476D01*
X191408809Y-117740428D01*
X191348333Y-117982333D01*
X191348333Y-118284714D01*
X191408809Y-118526619D01*
X191469285Y-118647571D01*
X191529761Y-118708047D01*
X191650714Y-118768523D01*
X191771666Y-118768523D01*
X191892619Y-118708047D01*
X191953095Y-118647571D01*
X192013571Y-118526619D01*
X192074047Y-118284714D01*
X192074047Y-117982333D01*
X192013571Y-117740428D01*
X191953095Y-117619476D01*
X191892619Y-117559000D01*
X191771666Y-117498523D01*
X190259761Y-117498523D02*
X190501666Y-117498523D01*
X190622619Y-117559000D01*
X190683095Y-117619476D01*
X190804047Y-117800904D01*
X190864523Y-118042809D01*
X190864523Y-118526619D01*
X190804047Y-118647571D01*
X190743571Y-118708047D01*
X190622619Y-118768523D01*
X190380714Y-118768523D01*
X190259761Y-118708047D01*
X190199285Y-118647571D01*
X190138809Y-118526619D01*
X190138809Y-118224238D01*
X190199285Y-118103285D01*
X190259761Y-118042809D01*
X190380714Y-117982333D01*
X190622619Y-117982333D01*
X190743571Y-118042809D01*
X190804047Y-118103285D01*
X190864523Y-118224238D01*
D10*
X154556666Y-96254000D02*
X155056666Y-96254000D01*
X155156666Y-96220666D01*
X155223333Y-96154000D01*
X155256666Y-96054000D01*
X155256666Y-95987333D01*
X154556666Y-96920666D02*
X154556666Y-96587333D01*
X154890000Y-96554000D01*
X154856666Y-96587333D01*
X154823333Y-96654000D01*
X154823333Y-96820666D01*
X154856666Y-96887333D01*
X154890000Y-96920666D01*
X154956666Y-96954000D01*
X155123333Y-96954000D01*
X155190000Y-96920666D01*
X155223333Y-96887333D01*
X155256666Y-96820666D01*
X155256666Y-96654000D01*
X155223333Y-96587333D01*
X155190000Y-96554000D01*
X154556666Y-97387333D02*
X154556666Y-97454000D01*
X154590000Y-97520666D01*
X154623333Y-97554000D01*
X154690000Y-97587333D01*
X154823333Y-97620666D01*
X154990000Y-97620666D01*
X155123333Y-97587333D01*
X155190000Y-97554000D01*
X155223333Y-97520666D01*
X155256666Y-97454000D01*
X155256666Y-97387333D01*
X155223333Y-97320666D01*
X155190000Y-97287333D01*
X155123333Y-97254000D01*
X154990000Y-97220666D01*
X154823333Y-97220666D01*
X154690000Y-97254000D01*
X154623333Y-97287333D01*
X154590000Y-97320666D01*
X154556666Y-97387333D01*
X154556666Y-97854000D02*
X154556666Y-98320666D01*
X155256666Y-98020666D01*
X152885047Y-92273380D02*
X153361238Y-92273380D01*
X153361238Y-91273380D01*
X152504095Y-92273380D02*
X152313619Y-92273380D01*
X152218380Y-92225761D01*
X152170761Y-92178142D01*
X152075523Y-92035285D01*
X152027904Y-91844809D01*
X152027904Y-91463857D01*
X152075523Y-91368619D01*
X152123142Y-91321000D01*
X152218380Y-91273380D01*
X152408857Y-91273380D01*
X152504095Y-91321000D01*
X152551714Y-91368619D01*
X152599333Y-91463857D01*
X152599333Y-91701952D01*
X152551714Y-91797190D01*
X152504095Y-91844809D01*
X152408857Y-91892428D01*
X152218380Y-91892428D01*
X152123142Y-91844809D01*
X152075523Y-91797190D01*
X152027904Y-91701952D01*
X151408857Y-91273380D02*
X151313619Y-91273380D01*
X151218380Y-91321000D01*
X151170761Y-91368619D01*
X151123142Y-91463857D01*
X151075523Y-91654333D01*
X151075523Y-91892428D01*
X151123142Y-92082904D01*
X151170761Y-92178142D01*
X151218380Y-92225761D01*
X151313619Y-92273380D01*
X151408857Y-92273380D01*
X151504095Y-92225761D01*
X151551714Y-92178142D01*
X151599333Y-92082904D01*
X151646952Y-91892428D01*
X151646952Y-91654333D01*
X151599333Y-91463857D01*
X151551714Y-91368619D01*
X151504095Y-91321000D01*
X151408857Y-91273380D01*
X150123142Y-92273380D02*
X150694571Y-92273380D01*
X150408857Y-92273380D02*
X150408857Y-91273380D01*
X150504095Y-91416238D01*
X150599333Y-91511476D01*
X150694571Y-91559095D01*
X134591333Y-89537333D02*
X134658000Y-89504000D01*
X134724666Y-89437333D01*
X134824666Y-89337333D01*
X134891333Y-89304000D01*
X134958000Y-89304000D01*
X134924666Y-89470666D02*
X134991333Y-89437333D01*
X135058000Y-89370666D01*
X135091333Y-89237333D01*
X135091333Y-89004000D01*
X135058000Y-88870666D01*
X134991333Y-88804000D01*
X134924666Y-88770666D01*
X134791333Y-88770666D01*
X134724666Y-88804000D01*
X134658000Y-88870666D01*
X134624666Y-89004000D01*
X134624666Y-89237333D01*
X134658000Y-89370666D01*
X134724666Y-89437333D01*
X134791333Y-89470666D01*
X134924666Y-89470666D01*
X134291333Y-89470666D02*
X134158000Y-89470666D01*
X134091333Y-89437333D01*
X134058000Y-89404000D01*
X133991333Y-89304000D01*
X133958000Y-89170666D01*
X133958000Y-88904000D01*
X133991333Y-88837333D01*
X134024666Y-88804000D01*
X134091333Y-88770666D01*
X134224666Y-88770666D01*
X134291333Y-88804000D01*
X134324666Y-88837333D01*
X134358000Y-88904000D01*
X134358000Y-89070666D01*
X134324666Y-89137333D01*
X134291333Y-89170666D01*
X134224666Y-89204000D01*
X134091333Y-89204000D01*
X134024666Y-89170666D01*
X133991333Y-89137333D01*
X133958000Y-89070666D01*
X133524666Y-88770666D02*
X133458000Y-88770666D01*
X133391333Y-88804000D01*
X133358000Y-88837333D01*
X133324666Y-88904000D01*
X133291333Y-89037333D01*
X133291333Y-89204000D01*
X133324666Y-89337333D01*
X133358000Y-89404000D01*
X133391333Y-89437333D01*
X133458000Y-89470666D01*
X133524666Y-89470666D01*
X133591333Y-89437333D01*
X133624666Y-89404000D01*
X133658000Y-89337333D01*
X133691333Y-89204000D01*
X133691333Y-89037333D01*
X133658000Y-88904000D01*
X133624666Y-88837333D01*
X133591333Y-88804000D01*
X133524666Y-88770666D01*
X132624666Y-89470666D02*
X133024666Y-89470666D01*
X132824666Y-89470666D02*
X132824666Y-88770666D01*
X132891333Y-88870666D01*
X132958000Y-88937333D01*
X133024666Y-88970666D01*
X188190047Y-91130380D02*
X188523380Y-90654190D01*
X188761476Y-91130380D02*
X188761476Y-90130380D01*
X188380523Y-90130380D01*
X188285285Y-90178000D01*
X188237666Y-90225619D01*
X188190047Y-90320857D01*
X188190047Y-90463714D01*
X188237666Y-90558952D01*
X188285285Y-90606571D01*
X188380523Y-90654190D01*
X188761476Y-90654190D01*
X187856714Y-90130380D02*
X187237666Y-90130380D01*
X187571000Y-90511333D01*
X187428142Y-90511333D01*
X187332904Y-90558952D01*
X187285285Y-90606571D01*
X187237666Y-90701809D01*
X187237666Y-90939904D01*
X187285285Y-91035142D01*
X187332904Y-91082761D01*
X187428142Y-91130380D01*
X187713857Y-91130380D01*
X187809095Y-91082761D01*
X187856714Y-91035142D01*
X186618619Y-90130380D02*
X186523380Y-90130380D01*
X186428142Y-90178000D01*
X186380523Y-90225619D01*
X186332904Y-90320857D01*
X186285285Y-90511333D01*
X186285285Y-90749428D01*
X186332904Y-90939904D01*
X186380523Y-91035142D01*
X186428142Y-91082761D01*
X186523380Y-91130380D01*
X186618619Y-91130380D01*
X186713857Y-91082761D01*
X186761476Y-91035142D01*
X186809095Y-90939904D01*
X186856714Y-90749428D01*
X186856714Y-90511333D01*
X186809095Y-90320857D01*
X186761476Y-90225619D01*
X186713857Y-90178000D01*
X186618619Y-90130380D01*
X185332904Y-91130380D02*
X185904333Y-91130380D01*
X185618619Y-91130380D02*
X185618619Y-90130380D01*
X185713857Y-90273238D01*
X185809095Y-90368476D01*
X185904333Y-90416095D01*
X127024547Y-97353380D02*
X127357880Y-96877190D01*
X127595976Y-97353380D02*
X127595976Y-96353380D01*
X127215023Y-96353380D01*
X127119785Y-96401000D01*
X127072166Y-96448619D01*
X127024547Y-96543857D01*
X127024547Y-96686714D01*
X127072166Y-96781952D01*
X127119785Y-96829571D01*
X127215023Y-96877190D01*
X127595976Y-96877190D01*
X126119785Y-96353380D02*
X126595976Y-96353380D01*
X126643595Y-96829571D01*
X126595976Y-96781952D01*
X126500738Y-96734333D01*
X126262642Y-96734333D01*
X126167404Y-96781952D01*
X126119785Y-96829571D01*
X126072166Y-96924809D01*
X126072166Y-97162904D01*
X126119785Y-97258142D01*
X126167404Y-97305761D01*
X126262642Y-97353380D01*
X126500738Y-97353380D01*
X126595976Y-97305761D01*
X126643595Y-97258142D01*
X125453119Y-96353380D02*
X125357880Y-96353380D01*
X125262642Y-96401000D01*
X125215023Y-96448619D01*
X125167404Y-96543857D01*
X125119785Y-96734333D01*
X125119785Y-96972428D01*
X125167404Y-97162904D01*
X125215023Y-97258142D01*
X125262642Y-97305761D01*
X125357880Y-97353380D01*
X125453119Y-97353380D01*
X125548357Y-97305761D01*
X125595976Y-97258142D01*
X125643595Y-97162904D01*
X125691214Y-96972428D01*
X125691214Y-96734333D01*
X125643595Y-96543857D01*
X125595976Y-96448619D01*
X125548357Y-96401000D01*
X125453119Y-96353380D01*
X124786452Y-96353380D02*
X124167404Y-96353380D01*
X124500738Y-96734333D01*
X124357880Y-96734333D01*
X124262642Y-96781952D01*
X124215023Y-96829571D01*
X124167404Y-96924809D01*
X124167404Y-97162904D01*
X124215023Y-97258142D01*
X124262642Y-97305761D01*
X124357880Y-97353380D01*
X124643595Y-97353380D01*
X124738833Y-97305761D01*
X124786452Y-97258142D01*
X127152047Y-91003380D02*
X127485380Y-90527190D01*
X127723476Y-91003380D02*
X127723476Y-90003380D01*
X127342523Y-90003380D01*
X127247285Y-90051000D01*
X127199666Y-90098619D01*
X127152047Y-90193857D01*
X127152047Y-90336714D01*
X127199666Y-90431952D01*
X127247285Y-90479571D01*
X127342523Y-90527190D01*
X127723476Y-90527190D01*
X126294904Y-90003380D02*
X126485380Y-90003380D01*
X126580619Y-90051000D01*
X126628238Y-90098619D01*
X126723476Y-90241476D01*
X126771095Y-90431952D01*
X126771095Y-90812904D01*
X126723476Y-90908142D01*
X126675857Y-90955761D01*
X126580619Y-91003380D01*
X126390142Y-91003380D01*
X126294904Y-90955761D01*
X126247285Y-90908142D01*
X126199666Y-90812904D01*
X126199666Y-90574809D01*
X126247285Y-90479571D01*
X126294904Y-90431952D01*
X126390142Y-90384333D01*
X126580619Y-90384333D01*
X126675857Y-90431952D01*
X126723476Y-90479571D01*
X126771095Y-90574809D01*
X125580619Y-90003380D02*
X125485380Y-90003380D01*
X125390142Y-90051000D01*
X125342523Y-90098619D01*
X125294904Y-90193857D01*
X125247285Y-90384333D01*
X125247285Y-90622428D01*
X125294904Y-90812904D01*
X125342523Y-90908142D01*
X125390142Y-90955761D01*
X125485380Y-91003380D01*
X125580619Y-91003380D01*
X125675857Y-90955761D01*
X125723476Y-90908142D01*
X125771095Y-90812904D01*
X125818714Y-90622428D01*
X125818714Y-90384333D01*
X125771095Y-90193857D01*
X125723476Y-90098619D01*
X125675857Y-90051000D01*
X125580619Y-90003380D01*
X124294904Y-91003380D02*
X124866333Y-91003380D01*
X124580619Y-91003380D02*
X124580619Y-90003380D01*
X124675857Y-90146238D01*
X124771095Y-90241476D01*
X124866333Y-90289095D01*
X123547047Y-110815380D02*
X123880380Y-110339190D01*
X124118476Y-110815380D02*
X124118476Y-109815380D01*
X123737523Y-109815380D01*
X123642285Y-109863000D01*
X123594666Y-109910619D01*
X123547047Y-110005857D01*
X123547047Y-110148714D01*
X123594666Y-110243952D01*
X123642285Y-110291571D01*
X123737523Y-110339190D01*
X124118476Y-110339190D01*
X122689904Y-109815380D02*
X122880380Y-109815380D01*
X122975619Y-109863000D01*
X123023238Y-109910619D01*
X123118476Y-110053476D01*
X123166095Y-110243952D01*
X123166095Y-110624904D01*
X123118476Y-110720142D01*
X123070857Y-110767761D01*
X122975619Y-110815380D01*
X122785142Y-110815380D01*
X122689904Y-110767761D01*
X122642285Y-110720142D01*
X122594666Y-110624904D01*
X122594666Y-110386809D01*
X122642285Y-110291571D01*
X122689904Y-110243952D01*
X122785142Y-110196333D01*
X122975619Y-110196333D01*
X123070857Y-110243952D01*
X123118476Y-110291571D01*
X123166095Y-110386809D01*
X121975619Y-109815380D02*
X121880380Y-109815380D01*
X121785142Y-109863000D01*
X121737523Y-109910619D01*
X121689904Y-110005857D01*
X121642285Y-110196333D01*
X121642285Y-110434428D01*
X121689904Y-110624904D01*
X121737523Y-110720142D01*
X121785142Y-110767761D01*
X121880380Y-110815380D01*
X121975619Y-110815380D01*
X122070857Y-110767761D01*
X122118476Y-110720142D01*
X122166095Y-110624904D01*
X122213714Y-110434428D01*
X122213714Y-110196333D01*
X122166095Y-110005857D01*
X122118476Y-109910619D01*
X122070857Y-109863000D01*
X121975619Y-109815380D01*
X121261333Y-109910619D02*
X121213714Y-109863000D01*
X121118476Y-109815380D01*
X120880380Y-109815380D01*
X120785142Y-109863000D01*
X120737523Y-109910619D01*
X120689904Y-110005857D01*
X120689904Y-110101095D01*
X120737523Y-110243952D01*
X121308952Y-110815380D01*
X120689904Y-110815380D01*
X127230547Y-95321380D02*
X127563880Y-94845190D01*
X127801976Y-95321380D02*
X127801976Y-94321380D01*
X127421023Y-94321380D01*
X127325785Y-94369000D01*
X127278166Y-94416619D01*
X127230547Y-94511857D01*
X127230547Y-94654714D01*
X127278166Y-94749952D01*
X127325785Y-94797571D01*
X127421023Y-94845190D01*
X127801976Y-94845190D01*
X126373404Y-94321380D02*
X126563880Y-94321380D01*
X126659119Y-94369000D01*
X126706738Y-94416619D01*
X126801976Y-94559476D01*
X126849595Y-94749952D01*
X126849595Y-95130904D01*
X126801976Y-95226142D01*
X126754357Y-95273761D01*
X126659119Y-95321380D01*
X126468642Y-95321380D01*
X126373404Y-95273761D01*
X126325785Y-95226142D01*
X126278166Y-95130904D01*
X126278166Y-94892809D01*
X126325785Y-94797571D01*
X126373404Y-94749952D01*
X126468642Y-94702333D01*
X126659119Y-94702333D01*
X126754357Y-94749952D01*
X126801976Y-94797571D01*
X126849595Y-94892809D01*
X125659119Y-94321380D02*
X125563880Y-94321380D01*
X125468642Y-94369000D01*
X125421023Y-94416619D01*
X125373404Y-94511857D01*
X125325785Y-94702333D01*
X125325785Y-94940428D01*
X125373404Y-95130904D01*
X125421023Y-95226142D01*
X125468642Y-95273761D01*
X125563880Y-95321380D01*
X125659119Y-95321380D01*
X125754357Y-95273761D01*
X125801976Y-95226142D01*
X125849595Y-95130904D01*
X125897214Y-94940428D01*
X125897214Y-94702333D01*
X125849595Y-94511857D01*
X125801976Y-94416619D01*
X125754357Y-94369000D01*
X125659119Y-94321380D01*
X124992452Y-94321380D02*
X124373404Y-94321380D01*
X124706738Y-94702333D01*
X124563880Y-94702333D01*
X124468642Y-94749952D01*
X124421023Y-94797571D01*
X124373404Y-94892809D01*
X124373404Y-95130904D01*
X124421023Y-95226142D01*
X124468642Y-95273761D01*
X124563880Y-95321380D01*
X124849595Y-95321380D01*
X124944833Y-95273761D01*
X124992452Y-95226142D01*
X127894547Y-119959380D02*
X128227880Y-119483190D01*
X128465976Y-119959380D02*
X128465976Y-118959380D01*
X128085023Y-118959380D01*
X127989785Y-119007000D01*
X127942166Y-119054619D01*
X127894547Y-119149857D01*
X127894547Y-119292714D01*
X127942166Y-119387952D01*
X127989785Y-119435571D01*
X128085023Y-119483190D01*
X128465976Y-119483190D01*
X127037404Y-118959380D02*
X127227880Y-118959380D01*
X127323119Y-119007000D01*
X127370738Y-119054619D01*
X127465976Y-119197476D01*
X127513595Y-119387952D01*
X127513595Y-119768904D01*
X127465976Y-119864142D01*
X127418357Y-119911761D01*
X127323119Y-119959380D01*
X127132642Y-119959380D01*
X127037404Y-119911761D01*
X126989785Y-119864142D01*
X126942166Y-119768904D01*
X126942166Y-119530809D01*
X126989785Y-119435571D01*
X127037404Y-119387952D01*
X127132642Y-119340333D01*
X127323119Y-119340333D01*
X127418357Y-119387952D01*
X127465976Y-119435571D01*
X127513595Y-119530809D01*
X126323119Y-118959380D02*
X126227880Y-118959380D01*
X126132642Y-119007000D01*
X126085023Y-119054619D01*
X126037404Y-119149857D01*
X125989785Y-119340333D01*
X125989785Y-119578428D01*
X126037404Y-119768904D01*
X126085023Y-119864142D01*
X126132642Y-119911761D01*
X126227880Y-119959380D01*
X126323119Y-119959380D01*
X126418357Y-119911761D01*
X126465976Y-119864142D01*
X126513595Y-119768904D01*
X126561214Y-119578428D01*
X126561214Y-119340333D01*
X126513595Y-119149857D01*
X126465976Y-119054619D01*
X126418357Y-119007000D01*
X126323119Y-118959380D01*
X125132642Y-119292714D02*
X125132642Y-119959380D01*
X125370738Y-118911761D02*
X125608833Y-119626047D01*
X124989785Y-119626047D01*
X119356047Y-110815380D02*
X119689380Y-110339190D01*
X119927476Y-110815380D02*
X119927476Y-109815380D01*
X119546523Y-109815380D01*
X119451285Y-109863000D01*
X119403666Y-109910619D01*
X119356047Y-110005857D01*
X119356047Y-110148714D01*
X119403666Y-110243952D01*
X119451285Y-110291571D01*
X119546523Y-110339190D01*
X119927476Y-110339190D01*
X118498904Y-109815380D02*
X118689380Y-109815380D01*
X118784619Y-109863000D01*
X118832238Y-109910619D01*
X118927476Y-110053476D01*
X118975095Y-110243952D01*
X118975095Y-110624904D01*
X118927476Y-110720142D01*
X118879857Y-110767761D01*
X118784619Y-110815380D01*
X118594142Y-110815380D01*
X118498904Y-110767761D01*
X118451285Y-110720142D01*
X118403666Y-110624904D01*
X118403666Y-110386809D01*
X118451285Y-110291571D01*
X118498904Y-110243952D01*
X118594142Y-110196333D01*
X118784619Y-110196333D01*
X118879857Y-110243952D01*
X118927476Y-110291571D01*
X118975095Y-110386809D01*
X117784619Y-109815380D02*
X117689380Y-109815380D01*
X117594142Y-109863000D01*
X117546523Y-109910619D01*
X117498904Y-110005857D01*
X117451285Y-110196333D01*
X117451285Y-110434428D01*
X117498904Y-110624904D01*
X117546523Y-110720142D01*
X117594142Y-110767761D01*
X117689380Y-110815380D01*
X117784619Y-110815380D01*
X117879857Y-110767761D01*
X117927476Y-110720142D01*
X117975095Y-110624904D01*
X118022714Y-110434428D01*
X118022714Y-110196333D01*
X117975095Y-110005857D01*
X117927476Y-109910619D01*
X117879857Y-109863000D01*
X117784619Y-109815380D01*
X116594142Y-109815380D02*
X116784619Y-109815380D01*
X116879857Y-109863000D01*
X116927476Y-109910619D01*
X117022714Y-110053476D01*
X117070333Y-110243952D01*
X117070333Y-110624904D01*
X117022714Y-110720142D01*
X116975095Y-110767761D01*
X116879857Y-110815380D01*
X116689380Y-110815380D01*
X116594142Y-110767761D01*
X116546523Y-110720142D01*
X116498904Y-110624904D01*
X116498904Y-110386809D01*
X116546523Y-110291571D01*
X116594142Y-110243952D01*
X116689380Y-110196333D01*
X116879857Y-110196333D01*
X116975095Y-110243952D01*
X117022714Y-110291571D01*
X117070333Y-110386809D01*
X180666380Y-106703952D02*
X180190190Y-106370619D01*
X180666380Y-106132523D02*
X179666380Y-106132523D01*
X179666380Y-106513476D01*
X179714000Y-106608714D01*
X179761619Y-106656333D01*
X179856857Y-106703952D01*
X179999714Y-106703952D01*
X180094952Y-106656333D01*
X180142571Y-106608714D01*
X180190190Y-106513476D01*
X180190190Y-106132523D01*
X179666380Y-107037285D02*
X179666380Y-107703952D01*
X180666380Y-107275380D01*
X179666380Y-108275380D02*
X179666380Y-108370619D01*
X179714000Y-108465857D01*
X179761619Y-108513476D01*
X179856857Y-108561095D01*
X180047333Y-108608714D01*
X180285428Y-108608714D01*
X180475904Y-108561095D01*
X180571142Y-108513476D01*
X180618761Y-108465857D01*
X180666380Y-108370619D01*
X180666380Y-108275380D01*
X180618761Y-108180142D01*
X180571142Y-108132523D01*
X180475904Y-108084904D01*
X180285428Y-108037285D01*
X180047333Y-108037285D01*
X179856857Y-108084904D01*
X179761619Y-108132523D01*
X179714000Y-108180142D01*
X179666380Y-108275380D01*
X180666380Y-109561095D02*
X180666380Y-108989666D01*
X180666380Y-109275380D02*
X179666380Y-109275380D01*
X179809238Y-109180142D01*
X179904476Y-109084904D01*
X179952095Y-108989666D01*
X180666380Y-102893952D02*
X180190190Y-102560619D01*
X180666380Y-102322523D02*
X179666380Y-102322523D01*
X179666380Y-102703476D01*
X179714000Y-102798714D01*
X179761619Y-102846333D01*
X179856857Y-102893952D01*
X179999714Y-102893952D01*
X180094952Y-102846333D01*
X180142571Y-102798714D01*
X180190190Y-102703476D01*
X180190190Y-102322523D01*
X179666380Y-103227285D02*
X179666380Y-103893952D01*
X180666380Y-103465380D01*
X179666380Y-104465380D02*
X179666380Y-104560619D01*
X179714000Y-104655857D01*
X179761619Y-104703476D01*
X179856857Y-104751095D01*
X180047333Y-104798714D01*
X180285428Y-104798714D01*
X180475904Y-104751095D01*
X180571142Y-104703476D01*
X180618761Y-104655857D01*
X180666380Y-104560619D01*
X180666380Y-104465380D01*
X180618761Y-104370142D01*
X180571142Y-104322523D01*
X180475904Y-104274904D01*
X180285428Y-104227285D01*
X180047333Y-104227285D01*
X179856857Y-104274904D01*
X179761619Y-104322523D01*
X179714000Y-104370142D01*
X179666380Y-104465380D01*
X179761619Y-105179666D02*
X179714000Y-105227285D01*
X179666380Y-105322523D01*
X179666380Y-105560619D01*
X179714000Y-105655857D01*
X179761619Y-105703476D01*
X179856857Y-105751095D01*
X179952095Y-105751095D01*
X180094952Y-105703476D01*
X180666380Y-105132047D01*
X180666380Y-105751095D01*
X197588047Y-106370380D02*
X197921380Y-105894190D01*
X198159476Y-106370380D02*
X198159476Y-105370380D01*
X197778523Y-105370380D01*
X197683285Y-105418000D01*
X197635666Y-105465619D01*
X197588047Y-105560857D01*
X197588047Y-105703714D01*
X197635666Y-105798952D01*
X197683285Y-105846571D01*
X197778523Y-105894190D01*
X198159476Y-105894190D01*
X197254714Y-105370380D02*
X196588047Y-105370380D01*
X197016619Y-106370380D01*
X196016619Y-105370380D02*
X195921380Y-105370380D01*
X195826142Y-105418000D01*
X195778523Y-105465619D01*
X195730904Y-105560857D01*
X195683285Y-105751333D01*
X195683285Y-105989428D01*
X195730904Y-106179904D01*
X195778523Y-106275142D01*
X195826142Y-106322761D01*
X195921380Y-106370380D01*
X196016619Y-106370380D01*
X196111857Y-106322761D01*
X196159476Y-106275142D01*
X196207095Y-106179904D01*
X196254714Y-105989428D01*
X196254714Y-105751333D01*
X196207095Y-105560857D01*
X196159476Y-105465619D01*
X196111857Y-105418000D01*
X196016619Y-105370380D01*
X195349952Y-105370380D02*
X194730904Y-105370380D01*
X195064238Y-105751333D01*
X194921380Y-105751333D01*
X194826142Y-105798952D01*
X194778523Y-105846571D01*
X194730904Y-105941809D01*
X194730904Y-106179904D01*
X194778523Y-106275142D01*
X194826142Y-106322761D01*
X194921380Y-106370380D01*
X195207095Y-106370380D01*
X195302333Y-106322761D01*
X195349952Y-106275142D01*
X129230380Y-96670952D02*
X128754190Y-96337619D01*
X129230380Y-96099523D02*
X128230380Y-96099523D01*
X128230380Y-96480476D01*
X128278000Y-96575714D01*
X128325619Y-96623333D01*
X128420857Y-96670952D01*
X128563714Y-96670952D01*
X128658952Y-96623333D01*
X128706571Y-96575714D01*
X128754190Y-96480476D01*
X128754190Y-96099523D01*
X129230380Y-97147142D02*
X129230380Y-97337619D01*
X129182761Y-97432857D01*
X129135142Y-97480476D01*
X128992285Y-97575714D01*
X128801809Y-97623333D01*
X128420857Y-97623333D01*
X128325619Y-97575714D01*
X128278000Y-97528095D01*
X128230380Y-97432857D01*
X128230380Y-97242380D01*
X128278000Y-97147142D01*
X128325619Y-97099523D01*
X128420857Y-97051904D01*
X128658952Y-97051904D01*
X128754190Y-97099523D01*
X128801809Y-97147142D01*
X128849428Y-97242380D01*
X128849428Y-97432857D01*
X128801809Y-97528095D01*
X128754190Y-97575714D01*
X128658952Y-97623333D01*
X128230380Y-98242380D02*
X128230380Y-98337619D01*
X128278000Y-98432857D01*
X128325619Y-98480476D01*
X128420857Y-98528095D01*
X128611333Y-98575714D01*
X128849428Y-98575714D01*
X129039904Y-98528095D01*
X129135142Y-98480476D01*
X129182761Y-98432857D01*
X129230380Y-98337619D01*
X129230380Y-98242380D01*
X129182761Y-98147142D01*
X129135142Y-98099523D01*
X129039904Y-98051904D01*
X128849428Y-98004285D01*
X128611333Y-98004285D01*
X128420857Y-98051904D01*
X128325619Y-98099523D01*
X128278000Y-98147142D01*
X128230380Y-98242380D01*
X129230380Y-99528095D02*
X129230380Y-98956666D01*
X129230380Y-99242380D02*
X128230380Y-99242380D01*
X128373238Y-99147142D01*
X128468476Y-99051904D01*
X128516095Y-98956666D01*
X134564380Y-96924952D02*
X134088190Y-96591619D01*
X134564380Y-96353523D02*
X133564380Y-96353523D01*
X133564380Y-96734476D01*
X133612000Y-96829714D01*
X133659619Y-96877333D01*
X133754857Y-96924952D01*
X133897714Y-96924952D01*
X133992952Y-96877333D01*
X134040571Y-96829714D01*
X134088190Y-96734476D01*
X134088190Y-96353523D01*
X134564380Y-97401142D02*
X134564380Y-97591619D01*
X134516761Y-97686857D01*
X134469142Y-97734476D01*
X134326285Y-97829714D01*
X134135809Y-97877333D01*
X133754857Y-97877333D01*
X133659619Y-97829714D01*
X133612000Y-97782095D01*
X133564380Y-97686857D01*
X133564380Y-97496380D01*
X133612000Y-97401142D01*
X133659619Y-97353523D01*
X133754857Y-97305904D01*
X133992952Y-97305904D01*
X134088190Y-97353523D01*
X134135809Y-97401142D01*
X134183428Y-97496380D01*
X134183428Y-97686857D01*
X134135809Y-97782095D01*
X134088190Y-97829714D01*
X133992952Y-97877333D01*
X133564380Y-98496380D02*
X133564380Y-98591619D01*
X133612000Y-98686857D01*
X133659619Y-98734476D01*
X133754857Y-98782095D01*
X133945333Y-98829714D01*
X134183428Y-98829714D01*
X134373904Y-98782095D01*
X134469142Y-98734476D01*
X134516761Y-98686857D01*
X134564380Y-98591619D01*
X134564380Y-98496380D01*
X134516761Y-98401142D01*
X134469142Y-98353523D01*
X134373904Y-98305904D01*
X134183428Y-98258285D01*
X133945333Y-98258285D01*
X133754857Y-98305904D01*
X133659619Y-98353523D01*
X133612000Y-98401142D01*
X133564380Y-98496380D01*
X133659619Y-99210666D02*
X133612000Y-99258285D01*
X133564380Y-99353523D01*
X133564380Y-99591619D01*
X133612000Y-99686857D01*
X133659619Y-99734476D01*
X133754857Y-99782095D01*
X133850095Y-99782095D01*
X133992952Y-99734476D01*
X134564380Y-99163047D01*
X134564380Y-99782095D01*
X140991333Y-89422166D02*
X141224666Y-89088833D01*
X141391333Y-89422166D02*
X141391333Y-88722166D01*
X141124666Y-88722166D01*
X141058000Y-88755500D01*
X141024666Y-88788833D01*
X140991333Y-88855500D01*
X140991333Y-88955500D01*
X141024666Y-89022166D01*
X141058000Y-89055500D01*
X141124666Y-89088833D01*
X141391333Y-89088833D01*
X140658000Y-89422166D02*
X140524666Y-89422166D01*
X140458000Y-89388833D01*
X140424666Y-89355500D01*
X140358000Y-89255500D01*
X140324666Y-89122166D01*
X140324666Y-88855500D01*
X140358000Y-88788833D01*
X140391333Y-88755500D01*
X140458000Y-88722166D01*
X140591333Y-88722166D01*
X140658000Y-88755500D01*
X140691333Y-88788833D01*
X140724666Y-88855500D01*
X140724666Y-89022166D01*
X140691333Y-89088833D01*
X140658000Y-89122166D01*
X140591333Y-89155500D01*
X140458000Y-89155500D01*
X140391333Y-89122166D01*
X140358000Y-89088833D01*
X140324666Y-89022166D01*
X139891333Y-88722166D02*
X139824666Y-88722166D01*
X139758000Y-88755500D01*
X139724666Y-88788833D01*
X139691333Y-88855500D01*
X139658000Y-88988833D01*
X139658000Y-89155500D01*
X139691333Y-89288833D01*
X139724666Y-89355500D01*
X139758000Y-89388833D01*
X139824666Y-89422166D01*
X139891333Y-89422166D01*
X139958000Y-89388833D01*
X139991333Y-89355500D01*
X140024666Y-89288833D01*
X140058000Y-89155500D01*
X140058000Y-88988833D01*
X140024666Y-88855500D01*
X139991333Y-88788833D01*
X139958000Y-88755500D01*
X139891333Y-88722166D01*
X139424666Y-88722166D02*
X138991333Y-88722166D01*
X139224666Y-88988833D01*
X139124666Y-88988833D01*
X139058000Y-89022166D01*
X139024666Y-89055500D01*
X138991333Y-89122166D01*
X138991333Y-89288833D01*
X139024666Y-89355500D01*
X139058000Y-89388833D01*
X139124666Y-89422166D01*
X139324666Y-89422166D01*
X139391333Y-89388833D01*
X139424666Y-89355500D01*
X138197333Y-89343666D02*
X138430666Y-89010333D01*
X138597333Y-89343666D02*
X138597333Y-88643666D01*
X138330666Y-88643666D01*
X138264000Y-88677000D01*
X138230666Y-88710333D01*
X138197333Y-88777000D01*
X138197333Y-88877000D01*
X138230666Y-88943666D01*
X138264000Y-88977000D01*
X138330666Y-89010333D01*
X138597333Y-89010333D01*
X137864000Y-89343666D02*
X137730666Y-89343666D01*
X137664000Y-89310333D01*
X137630666Y-89277000D01*
X137564000Y-89177000D01*
X137530666Y-89043666D01*
X137530666Y-88777000D01*
X137564000Y-88710333D01*
X137597333Y-88677000D01*
X137664000Y-88643666D01*
X137797333Y-88643666D01*
X137864000Y-88677000D01*
X137897333Y-88710333D01*
X137930666Y-88777000D01*
X137930666Y-88943666D01*
X137897333Y-89010333D01*
X137864000Y-89043666D01*
X137797333Y-89077000D01*
X137664000Y-89077000D01*
X137597333Y-89043666D01*
X137564000Y-89010333D01*
X137530666Y-88943666D01*
X137097333Y-88643666D02*
X137030666Y-88643666D01*
X136964000Y-88677000D01*
X136930666Y-88710333D01*
X136897333Y-88777000D01*
X136864000Y-88910333D01*
X136864000Y-89077000D01*
X136897333Y-89210333D01*
X136930666Y-89277000D01*
X136964000Y-89310333D01*
X137030666Y-89343666D01*
X137097333Y-89343666D01*
X137164000Y-89310333D01*
X137197333Y-89277000D01*
X137230666Y-89210333D01*
X137264000Y-89077000D01*
X137264000Y-88910333D01*
X137230666Y-88777000D01*
X137197333Y-88710333D01*
X137164000Y-88677000D01*
X137097333Y-88643666D01*
X136264000Y-88877000D02*
X136264000Y-89343666D01*
X136430666Y-88610333D02*
X136597333Y-89110333D01*
X136164000Y-89110333D01*
X149328047Y-92146380D02*
X149661380Y-91670190D01*
X149899476Y-92146380D02*
X149899476Y-91146380D01*
X149518523Y-91146380D01*
X149423285Y-91194000D01*
X149375666Y-91241619D01*
X149328047Y-91336857D01*
X149328047Y-91479714D01*
X149375666Y-91574952D01*
X149423285Y-91622571D01*
X149518523Y-91670190D01*
X149899476Y-91670190D01*
X148851857Y-92146380D02*
X148661380Y-92146380D01*
X148566142Y-92098761D01*
X148518523Y-92051142D01*
X148423285Y-91908285D01*
X148375666Y-91717809D01*
X148375666Y-91336857D01*
X148423285Y-91241619D01*
X148470904Y-91194000D01*
X148566142Y-91146380D01*
X148756619Y-91146380D01*
X148851857Y-91194000D01*
X148899476Y-91241619D01*
X148947095Y-91336857D01*
X148947095Y-91574952D01*
X148899476Y-91670190D01*
X148851857Y-91717809D01*
X148756619Y-91765428D01*
X148566142Y-91765428D01*
X148470904Y-91717809D01*
X148423285Y-91670190D01*
X148375666Y-91574952D01*
X147756619Y-91146380D02*
X147661380Y-91146380D01*
X147566142Y-91194000D01*
X147518523Y-91241619D01*
X147470904Y-91336857D01*
X147423285Y-91527333D01*
X147423285Y-91765428D01*
X147470904Y-91955904D01*
X147518523Y-92051142D01*
X147566142Y-92098761D01*
X147661380Y-92146380D01*
X147756619Y-92146380D01*
X147851857Y-92098761D01*
X147899476Y-92051142D01*
X147947095Y-91955904D01*
X147994714Y-91765428D01*
X147994714Y-91527333D01*
X147947095Y-91336857D01*
X147899476Y-91241619D01*
X147851857Y-91194000D01*
X147756619Y-91146380D01*
X146518523Y-91146380D02*
X146994714Y-91146380D01*
X147042333Y-91622571D01*
X146994714Y-91574952D01*
X146899476Y-91527333D01*
X146661380Y-91527333D01*
X146566142Y-91574952D01*
X146518523Y-91622571D01*
X146470904Y-91717809D01*
X146470904Y-91955904D01*
X146518523Y-92051142D01*
X146566142Y-92098761D01*
X146661380Y-92146380D01*
X146899476Y-92146380D01*
X146994714Y-92098761D01*
X147042333Y-92051142D01*
X130786547Y-89479380D02*
X131119880Y-89003190D01*
X131357976Y-89479380D02*
X131357976Y-88479380D01*
X130977023Y-88479380D01*
X130881785Y-88527000D01*
X130834166Y-88574619D01*
X130786547Y-88669857D01*
X130786547Y-88812714D01*
X130834166Y-88907952D01*
X130881785Y-88955571D01*
X130977023Y-89003190D01*
X131357976Y-89003190D01*
X130310357Y-89479380D02*
X130119880Y-89479380D01*
X130024642Y-89431761D01*
X129977023Y-89384142D01*
X129881785Y-89241285D01*
X129834166Y-89050809D01*
X129834166Y-88669857D01*
X129881785Y-88574619D01*
X129929404Y-88527000D01*
X130024642Y-88479380D01*
X130215119Y-88479380D01*
X130310357Y-88527000D01*
X130357976Y-88574619D01*
X130405595Y-88669857D01*
X130405595Y-88907952D01*
X130357976Y-89003190D01*
X130310357Y-89050809D01*
X130215119Y-89098428D01*
X130024642Y-89098428D01*
X129929404Y-89050809D01*
X129881785Y-89003190D01*
X129834166Y-88907952D01*
X129215119Y-88479380D02*
X129119880Y-88479380D01*
X129024642Y-88527000D01*
X128977023Y-88574619D01*
X128929404Y-88669857D01*
X128881785Y-88860333D01*
X128881785Y-89098428D01*
X128929404Y-89288904D01*
X128977023Y-89384142D01*
X129024642Y-89431761D01*
X129119880Y-89479380D01*
X129215119Y-89479380D01*
X129310357Y-89431761D01*
X129357976Y-89384142D01*
X129405595Y-89288904D01*
X129453214Y-89098428D01*
X129453214Y-88860333D01*
X129405595Y-88669857D01*
X129357976Y-88574619D01*
X129310357Y-88527000D01*
X129215119Y-88479380D01*
X128024642Y-88479380D02*
X128215119Y-88479380D01*
X128310357Y-88527000D01*
X128357976Y-88574619D01*
X128453214Y-88717476D01*
X128500833Y-88907952D01*
X128500833Y-89288904D01*
X128453214Y-89384142D01*
X128405595Y-89431761D01*
X128310357Y-89479380D01*
X128119880Y-89479380D01*
X128024642Y-89431761D01*
X127977023Y-89384142D01*
X127929404Y-89288904D01*
X127929404Y-89050809D01*
X127977023Y-88955571D01*
X128024642Y-88907952D01*
X128119880Y-88860333D01*
X128310357Y-88860333D01*
X128405595Y-88907952D01*
X128453214Y-88955571D01*
X128500833Y-89050809D01*
X149579666Y-111568666D02*
X149813000Y-111235333D01*
X149979666Y-111568666D02*
X149979666Y-110868666D01*
X149713000Y-110868666D01*
X149646333Y-110902000D01*
X149613000Y-110935333D01*
X149579666Y-111002000D01*
X149579666Y-111102000D01*
X149613000Y-111168666D01*
X149646333Y-111202000D01*
X149713000Y-111235333D01*
X149979666Y-111235333D01*
X148913000Y-111568666D02*
X149313000Y-111568666D01*
X149113000Y-111568666D02*
X149113000Y-110868666D01*
X149179666Y-110968666D01*
X149246333Y-111035333D01*
X149313000Y-111068666D01*
X148479666Y-110868666D02*
X148413000Y-110868666D01*
X148346333Y-110902000D01*
X148313000Y-110935333D01*
X148279666Y-111002000D01*
X148246333Y-111135333D01*
X148246333Y-111302000D01*
X148279666Y-111435333D01*
X148313000Y-111502000D01*
X148346333Y-111535333D01*
X148413000Y-111568666D01*
X148479666Y-111568666D01*
X148546333Y-111535333D01*
X148579666Y-111502000D01*
X148613000Y-111435333D01*
X148646333Y-111302000D01*
X148646333Y-111135333D01*
X148613000Y-111002000D01*
X148579666Y-110935333D01*
X148546333Y-110902000D01*
X148479666Y-110868666D01*
X147813000Y-110868666D02*
X147746333Y-110868666D01*
X147679666Y-110902000D01*
X147646333Y-110935333D01*
X147613000Y-111002000D01*
X147579666Y-111135333D01*
X147579666Y-111302000D01*
X147613000Y-111435333D01*
X147646333Y-111502000D01*
X147679666Y-111535333D01*
X147746333Y-111568666D01*
X147813000Y-111568666D01*
X147879666Y-111535333D01*
X147913000Y-111502000D01*
X147946333Y-111435333D01*
X147979666Y-111302000D01*
X147979666Y-111135333D01*
X147946333Y-111002000D01*
X147913000Y-110935333D01*
X147879666Y-110902000D01*
X147813000Y-110868666D01*
X146913000Y-111568666D02*
X147313000Y-111568666D01*
X147113000Y-111568666D02*
X147113000Y-110868666D01*
X147179666Y-110968666D01*
X147246333Y-111035333D01*
X147313000Y-111068666D01*
X164058166Y-116648666D02*
X164291500Y-116315333D01*
X164458166Y-116648666D02*
X164458166Y-115948666D01*
X164191500Y-115948666D01*
X164124833Y-115982000D01*
X164091500Y-116015333D01*
X164058166Y-116082000D01*
X164058166Y-116182000D01*
X164091500Y-116248666D01*
X164124833Y-116282000D01*
X164191500Y-116315333D01*
X164458166Y-116315333D01*
X163391500Y-116648666D02*
X163791500Y-116648666D01*
X163591500Y-116648666D02*
X163591500Y-115948666D01*
X163658166Y-116048666D01*
X163724833Y-116115333D01*
X163791500Y-116148666D01*
X162958166Y-115948666D02*
X162891500Y-115948666D01*
X162824833Y-115982000D01*
X162791500Y-116015333D01*
X162758166Y-116082000D01*
X162724833Y-116215333D01*
X162724833Y-116382000D01*
X162758166Y-116515333D01*
X162791500Y-116582000D01*
X162824833Y-116615333D01*
X162891500Y-116648666D01*
X162958166Y-116648666D01*
X163024833Y-116615333D01*
X163058166Y-116582000D01*
X163091500Y-116515333D01*
X163124833Y-116382000D01*
X163124833Y-116215333D01*
X163091500Y-116082000D01*
X163058166Y-116015333D01*
X163024833Y-115982000D01*
X162958166Y-115948666D01*
X162291500Y-115948666D02*
X162224833Y-115948666D01*
X162158166Y-115982000D01*
X162124833Y-116015333D01*
X162091500Y-116082000D01*
X162058166Y-116215333D01*
X162058166Y-116382000D01*
X162091500Y-116515333D01*
X162124833Y-116582000D01*
X162158166Y-116615333D01*
X162224833Y-116648666D01*
X162291500Y-116648666D01*
X162358166Y-116615333D01*
X162391500Y-116582000D01*
X162424833Y-116515333D01*
X162458166Y-116382000D01*
X162458166Y-116215333D01*
X162424833Y-116082000D01*
X162391500Y-116015333D01*
X162358166Y-115982000D01*
X162291500Y-115948666D01*
X161791500Y-116015333D02*
X161758166Y-115982000D01*
X161691500Y-115948666D01*
X161524833Y-115948666D01*
X161458166Y-115982000D01*
X161424833Y-116015333D01*
X161391500Y-116082000D01*
X161391500Y-116148666D01*
X161424833Y-116248666D01*
X161824833Y-116648666D01*
X161391500Y-116648666D01*
X153771166Y-111568666D02*
X154004500Y-111235333D01*
X154171166Y-111568666D02*
X154171166Y-110868666D01*
X153904500Y-110868666D01*
X153837833Y-110902000D01*
X153804500Y-110935333D01*
X153771166Y-111002000D01*
X153771166Y-111102000D01*
X153804500Y-111168666D01*
X153837833Y-111202000D01*
X153904500Y-111235333D01*
X154171166Y-111235333D01*
X153104500Y-111568666D02*
X153504500Y-111568666D01*
X153304500Y-111568666D02*
X153304500Y-110868666D01*
X153371166Y-110968666D01*
X153437833Y-111035333D01*
X153504500Y-111068666D01*
X152671166Y-110868666D02*
X152604500Y-110868666D01*
X152537833Y-110902000D01*
X152504500Y-110935333D01*
X152471166Y-111002000D01*
X152437833Y-111135333D01*
X152437833Y-111302000D01*
X152471166Y-111435333D01*
X152504500Y-111502000D01*
X152537833Y-111535333D01*
X152604500Y-111568666D01*
X152671166Y-111568666D01*
X152737833Y-111535333D01*
X152771166Y-111502000D01*
X152804500Y-111435333D01*
X152837833Y-111302000D01*
X152837833Y-111135333D01*
X152804500Y-111002000D01*
X152771166Y-110935333D01*
X152737833Y-110902000D01*
X152671166Y-110868666D01*
X152004500Y-110868666D02*
X151937833Y-110868666D01*
X151871166Y-110902000D01*
X151837833Y-110935333D01*
X151804500Y-111002000D01*
X151771166Y-111135333D01*
X151771166Y-111302000D01*
X151804500Y-111435333D01*
X151837833Y-111502000D01*
X151871166Y-111535333D01*
X151937833Y-111568666D01*
X152004500Y-111568666D01*
X152071166Y-111535333D01*
X152104500Y-111502000D01*
X152137833Y-111435333D01*
X152171166Y-111302000D01*
X152171166Y-111135333D01*
X152137833Y-111002000D01*
X152104500Y-110935333D01*
X152071166Y-110902000D01*
X152004500Y-110868666D01*
X151537833Y-110868666D02*
X151104500Y-110868666D01*
X151337833Y-111135333D01*
X151237833Y-111135333D01*
X151171166Y-111168666D01*
X151137833Y-111202000D01*
X151104500Y-111268666D01*
X151104500Y-111435333D01*
X151137833Y-111502000D01*
X151171166Y-111535333D01*
X151237833Y-111568666D01*
X151437833Y-111568666D01*
X151504500Y-111535333D01*
X151537833Y-111502000D01*
X119564000Y-87754666D02*
X119564000Y-88321333D01*
X119530666Y-88388000D01*
X119497333Y-88421333D01*
X119430666Y-88454666D01*
X119297333Y-88454666D01*
X119230666Y-88421333D01*
X119197333Y-88388000D01*
X119164000Y-88321333D01*
X119164000Y-87754666D01*
X118497333Y-87754666D02*
X118830666Y-87754666D01*
X118864000Y-88088000D01*
X118830666Y-88054666D01*
X118764000Y-88021333D01*
X118597333Y-88021333D01*
X118530666Y-88054666D01*
X118497333Y-88088000D01*
X118464000Y-88154666D01*
X118464000Y-88321333D01*
X118497333Y-88388000D01*
X118530666Y-88421333D01*
X118597333Y-88454666D01*
X118764000Y-88454666D01*
X118830666Y-88421333D01*
X118864000Y-88388000D01*
X118030666Y-87754666D02*
X117964000Y-87754666D01*
X117897333Y-87788000D01*
X117864000Y-87821333D01*
X117830666Y-87888000D01*
X117797333Y-88021333D01*
X117797333Y-88188000D01*
X117830666Y-88321333D01*
X117864000Y-88388000D01*
X117897333Y-88421333D01*
X117964000Y-88454666D01*
X118030666Y-88454666D01*
X118097333Y-88421333D01*
X118130666Y-88388000D01*
X118164000Y-88321333D01*
X118197333Y-88188000D01*
X118197333Y-88021333D01*
X118164000Y-87888000D01*
X118130666Y-87821333D01*
X118097333Y-87788000D01*
X118030666Y-87754666D01*
X117130666Y-88454666D02*
X117530666Y-88454666D01*
X117330666Y-88454666D02*
X117330666Y-87754666D01*
X117397333Y-87854666D01*
X117464000Y-87921333D01*
X117530666Y-87954666D01*
D15*
X177709285Y-104587523D02*
X177709285Y-103317523D01*
X176378809Y-104466571D02*
X176439285Y-104527047D01*
X176620714Y-104587523D01*
X176741666Y-104587523D01*
X176923095Y-104527047D01*
X177044047Y-104406095D01*
X177104523Y-104285142D01*
X177165000Y-104043238D01*
X177165000Y-103861809D01*
X177104523Y-103619904D01*
X177044047Y-103498952D01*
X176923095Y-103378000D01*
X176741666Y-103317523D01*
X176620714Y-103317523D01*
X176439285Y-103378000D01*
X176378809Y-103438476D01*
X175653095Y-103861809D02*
X175774047Y-103801333D01*
X175834523Y-103740857D01*
X175895000Y-103619904D01*
X175895000Y-103559428D01*
X175834523Y-103438476D01*
X175774047Y-103378000D01*
X175653095Y-103317523D01*
X175411190Y-103317523D01*
X175290238Y-103378000D01*
X175229761Y-103438476D01*
X175169285Y-103559428D01*
X175169285Y-103619904D01*
X175229761Y-103740857D01*
X175290238Y-103801333D01*
X175411190Y-103861809D01*
X175653095Y-103861809D01*
X175774047Y-103922285D01*
X175834523Y-103982761D01*
X175895000Y-104103714D01*
X175895000Y-104345619D01*
X175834523Y-104466571D01*
X175774047Y-104527047D01*
X175653095Y-104587523D01*
X175411190Y-104587523D01*
X175290238Y-104527047D01*
X175229761Y-104466571D01*
X175169285Y-104345619D01*
X175169285Y-104103714D01*
X175229761Y-103982761D01*
X175290238Y-103922285D01*
X175411190Y-103861809D01*
X174383095Y-103317523D02*
X174262142Y-103317523D01*
X174141190Y-103378000D01*
X174080714Y-103438476D01*
X174020238Y-103559428D01*
X173959761Y-103801333D01*
X173959761Y-104103714D01*
X174020238Y-104345619D01*
X174080714Y-104466571D01*
X174141190Y-104527047D01*
X174262142Y-104587523D01*
X174383095Y-104587523D01*
X174504047Y-104527047D01*
X174564523Y-104466571D01*
X174625000Y-104345619D01*
X174685476Y-104103714D01*
X174685476Y-103801333D01*
X174625000Y-103559428D01*
X174564523Y-103438476D01*
X174504047Y-103378000D01*
X174383095Y-103317523D01*
X172750238Y-104587523D02*
X173475952Y-104587523D01*
X173113095Y-104587523D02*
X173113095Y-103317523D01*
X173234047Y-103498952D01*
X173355000Y-103619904D01*
X173475952Y-103680380D01*
D10*
X176170333Y-112203666D02*
X176403666Y-111870333D01*
X176570333Y-112203666D02*
X176570333Y-111503666D01*
X176303666Y-111503666D01*
X176237000Y-111537000D01*
X176203666Y-111570333D01*
X176170333Y-111637000D01*
X176170333Y-111737000D01*
X176203666Y-111803666D01*
X176237000Y-111837000D01*
X176303666Y-111870333D01*
X176570333Y-111870333D01*
X175770333Y-111803666D02*
X175837000Y-111770333D01*
X175870333Y-111737000D01*
X175903666Y-111670333D01*
X175903666Y-111637000D01*
X175870333Y-111570333D01*
X175837000Y-111537000D01*
X175770333Y-111503666D01*
X175637000Y-111503666D01*
X175570333Y-111537000D01*
X175537000Y-111570333D01*
X175503666Y-111637000D01*
X175503666Y-111670333D01*
X175537000Y-111737000D01*
X175570333Y-111770333D01*
X175637000Y-111803666D01*
X175770333Y-111803666D01*
X175837000Y-111837000D01*
X175870333Y-111870333D01*
X175903666Y-111937000D01*
X175903666Y-112070333D01*
X175870333Y-112137000D01*
X175837000Y-112170333D01*
X175770333Y-112203666D01*
X175637000Y-112203666D01*
X175570333Y-112170333D01*
X175537000Y-112137000D01*
X175503666Y-112070333D01*
X175503666Y-111937000D01*
X175537000Y-111870333D01*
X175570333Y-111837000D01*
X175637000Y-111803666D01*
X175070333Y-111503666D02*
X175003666Y-111503666D01*
X174937000Y-111537000D01*
X174903666Y-111570333D01*
X174870333Y-111637000D01*
X174837000Y-111770333D01*
X174837000Y-111937000D01*
X174870333Y-112070333D01*
X174903666Y-112137000D01*
X174937000Y-112170333D01*
X175003666Y-112203666D01*
X175070333Y-112203666D01*
X175137000Y-112170333D01*
X175170333Y-112137000D01*
X175203666Y-112070333D01*
X175237000Y-111937000D01*
X175237000Y-111770333D01*
X175203666Y-111637000D01*
X175170333Y-111570333D01*
X175137000Y-111537000D01*
X175070333Y-111503666D01*
X174570333Y-111570333D02*
X174537000Y-111537000D01*
X174470333Y-111503666D01*
X174303666Y-111503666D01*
X174237000Y-111537000D01*
X174203666Y-111570333D01*
X174170333Y-111637000D01*
X174170333Y-111703666D01*
X174203666Y-111803666D01*
X174603666Y-112203666D01*
X174170333Y-112203666D01*
X163433047Y-111874142D02*
X163480666Y-111921761D01*
X163623523Y-111969380D01*
X163718761Y-111969380D01*
X163861619Y-111921761D01*
X163956857Y-111826523D01*
X164004476Y-111731285D01*
X164052095Y-111540809D01*
X164052095Y-111397952D01*
X164004476Y-111207476D01*
X163956857Y-111112238D01*
X163861619Y-111017000D01*
X163718761Y-110969380D01*
X163623523Y-110969380D01*
X163480666Y-111017000D01*
X163433047Y-111064619D01*
X162861619Y-111397952D02*
X162956857Y-111350333D01*
X163004476Y-111302714D01*
X163052095Y-111207476D01*
X163052095Y-111159857D01*
X163004476Y-111064619D01*
X162956857Y-111017000D01*
X162861619Y-110969380D01*
X162671142Y-110969380D01*
X162575904Y-111017000D01*
X162528285Y-111064619D01*
X162480666Y-111159857D01*
X162480666Y-111207476D01*
X162528285Y-111302714D01*
X162575904Y-111350333D01*
X162671142Y-111397952D01*
X162861619Y-111397952D01*
X162956857Y-111445571D01*
X163004476Y-111493190D01*
X163052095Y-111588428D01*
X163052095Y-111778904D01*
X163004476Y-111874142D01*
X162956857Y-111921761D01*
X162861619Y-111969380D01*
X162671142Y-111969380D01*
X162575904Y-111921761D01*
X162528285Y-111874142D01*
X162480666Y-111778904D01*
X162480666Y-111588428D01*
X162528285Y-111493190D01*
X162575904Y-111445571D01*
X162671142Y-111397952D01*
X161861619Y-110969380D02*
X161766380Y-110969380D01*
X161671142Y-111017000D01*
X161623523Y-111064619D01*
X161575904Y-111159857D01*
X161528285Y-111350333D01*
X161528285Y-111588428D01*
X161575904Y-111778904D01*
X161623523Y-111874142D01*
X161671142Y-111921761D01*
X161766380Y-111969380D01*
X161861619Y-111969380D01*
X161956857Y-111921761D01*
X162004476Y-111874142D01*
X162052095Y-111778904D01*
X162099714Y-111588428D01*
X162099714Y-111350333D01*
X162052095Y-111159857D01*
X162004476Y-111064619D01*
X161956857Y-111017000D01*
X161861619Y-110969380D01*
X160671142Y-110969380D02*
X160861619Y-110969380D01*
X160956857Y-111017000D01*
X161004476Y-111064619D01*
X161099714Y-111207476D01*
X161147333Y-111397952D01*
X161147333Y-111778904D01*
X161099714Y-111874142D01*
X161052095Y-111921761D01*
X160956857Y-111969380D01*
X160766380Y-111969380D01*
X160671142Y-111921761D01*
X160623523Y-111874142D01*
X160575904Y-111778904D01*
X160575904Y-111540809D01*
X160623523Y-111445571D01*
X160671142Y-111397952D01*
X160766380Y-111350333D01*
X160956857Y-111350333D01*
X161052095Y-111397952D01*
X161099714Y-111445571D01*
X161147333Y-111540809D01*
X170283047Y-99925142D02*
X170330666Y-99972761D01*
X170473523Y-100020380D01*
X170568761Y-100020380D01*
X170711619Y-99972761D01*
X170806857Y-99877523D01*
X170854476Y-99782285D01*
X170902095Y-99591809D01*
X170902095Y-99448952D01*
X170854476Y-99258476D01*
X170806857Y-99163238D01*
X170711619Y-99068000D01*
X170568761Y-99020380D01*
X170473523Y-99020380D01*
X170330666Y-99068000D01*
X170283047Y-99115619D01*
X169711619Y-99448952D02*
X169806857Y-99401333D01*
X169854476Y-99353714D01*
X169902095Y-99258476D01*
X169902095Y-99210857D01*
X169854476Y-99115619D01*
X169806857Y-99068000D01*
X169711619Y-99020380D01*
X169521142Y-99020380D01*
X169425904Y-99068000D01*
X169378285Y-99115619D01*
X169330666Y-99210857D01*
X169330666Y-99258476D01*
X169378285Y-99353714D01*
X169425904Y-99401333D01*
X169521142Y-99448952D01*
X169711619Y-99448952D01*
X169806857Y-99496571D01*
X169854476Y-99544190D01*
X169902095Y-99639428D01*
X169902095Y-99829904D01*
X169854476Y-99925142D01*
X169806857Y-99972761D01*
X169711619Y-100020380D01*
X169521142Y-100020380D01*
X169425904Y-99972761D01*
X169378285Y-99925142D01*
X169330666Y-99829904D01*
X169330666Y-99639428D01*
X169378285Y-99544190D01*
X169425904Y-99496571D01*
X169521142Y-99448952D01*
X168711619Y-99020380D02*
X168616380Y-99020380D01*
X168521142Y-99068000D01*
X168473523Y-99115619D01*
X168425904Y-99210857D01*
X168378285Y-99401333D01*
X168378285Y-99639428D01*
X168425904Y-99829904D01*
X168473523Y-99925142D01*
X168521142Y-99972761D01*
X168616380Y-100020380D01*
X168711619Y-100020380D01*
X168806857Y-99972761D01*
X168854476Y-99925142D01*
X168902095Y-99829904D01*
X168949714Y-99639428D01*
X168949714Y-99401333D01*
X168902095Y-99210857D01*
X168854476Y-99115619D01*
X168806857Y-99068000D01*
X168711619Y-99020380D01*
X168044952Y-99020380D02*
X167378285Y-99020380D01*
X167806857Y-100020380D01*
X167443047Y-111874142D02*
X167490666Y-111921761D01*
X167633523Y-111969380D01*
X167728761Y-111969380D01*
X167871619Y-111921761D01*
X167966857Y-111826523D01*
X168014476Y-111731285D01*
X168062095Y-111540809D01*
X168062095Y-111397952D01*
X168014476Y-111207476D01*
X167966857Y-111112238D01*
X167871619Y-111017000D01*
X167728761Y-110969380D01*
X167633523Y-110969380D01*
X167490666Y-111017000D01*
X167443047Y-111064619D01*
X166871619Y-111397952D02*
X166966857Y-111350333D01*
X167014476Y-111302714D01*
X167062095Y-111207476D01*
X167062095Y-111159857D01*
X167014476Y-111064619D01*
X166966857Y-111017000D01*
X166871619Y-110969380D01*
X166681142Y-110969380D01*
X166585904Y-111017000D01*
X166538285Y-111064619D01*
X166490666Y-111159857D01*
X166490666Y-111207476D01*
X166538285Y-111302714D01*
X166585904Y-111350333D01*
X166681142Y-111397952D01*
X166871619Y-111397952D01*
X166966857Y-111445571D01*
X167014476Y-111493190D01*
X167062095Y-111588428D01*
X167062095Y-111778904D01*
X167014476Y-111874142D01*
X166966857Y-111921761D01*
X166871619Y-111969380D01*
X166681142Y-111969380D01*
X166585904Y-111921761D01*
X166538285Y-111874142D01*
X166490666Y-111778904D01*
X166490666Y-111588428D01*
X166538285Y-111493190D01*
X166585904Y-111445571D01*
X166681142Y-111397952D01*
X165538285Y-111969380D02*
X166109714Y-111969380D01*
X165824000Y-111969380D02*
X165824000Y-110969380D01*
X165919238Y-111112238D01*
X166014476Y-111207476D01*
X166109714Y-111255095D01*
X164919238Y-110969380D02*
X164824000Y-110969380D01*
X164728761Y-111017000D01*
X164681142Y-111064619D01*
X164633523Y-111159857D01*
X164585904Y-111350333D01*
X164585904Y-111588428D01*
X164633523Y-111778904D01*
X164681142Y-111874142D01*
X164728761Y-111921761D01*
X164824000Y-111969380D01*
X164919238Y-111969380D01*
X165014476Y-111921761D01*
X165062095Y-111874142D01*
X165109714Y-111778904D01*
X165157333Y-111588428D01*
X165157333Y-111350333D01*
X165109714Y-111159857D01*
X165062095Y-111064619D01*
X165014476Y-111017000D01*
X164919238Y-110969380D01*
X171203714Y-97464571D02*
X171537047Y-97464571D01*
X171537047Y-97988380D02*
X171537047Y-96988380D01*
X171060857Y-96988380D01*
X170346571Y-97464571D02*
X170203714Y-97512190D01*
X170156095Y-97559809D01*
X170108476Y-97655047D01*
X170108476Y-97797904D01*
X170156095Y-97893142D01*
X170203714Y-97940761D01*
X170298952Y-97988380D01*
X170679904Y-97988380D01*
X170679904Y-96988380D01*
X170346571Y-96988380D01*
X170251333Y-97036000D01*
X170203714Y-97083619D01*
X170156095Y-97178857D01*
X170156095Y-97274095D01*
X170203714Y-97369333D01*
X170251333Y-97416952D01*
X170346571Y-97464571D01*
X170679904Y-97464571D01*
X169537047Y-97416952D02*
X169632285Y-97369333D01*
X169679904Y-97321714D01*
X169727523Y-97226476D01*
X169727523Y-97178857D01*
X169679904Y-97083619D01*
X169632285Y-97036000D01*
X169537047Y-96988380D01*
X169346571Y-96988380D01*
X169251333Y-97036000D01*
X169203714Y-97083619D01*
X169156095Y-97178857D01*
X169156095Y-97226476D01*
X169203714Y-97321714D01*
X169251333Y-97369333D01*
X169346571Y-97416952D01*
X169537047Y-97416952D01*
X169632285Y-97464571D01*
X169679904Y-97512190D01*
X169727523Y-97607428D01*
X169727523Y-97797904D01*
X169679904Y-97893142D01*
X169632285Y-97940761D01*
X169537047Y-97988380D01*
X169346571Y-97988380D01*
X169251333Y-97940761D01*
X169203714Y-97893142D01*
X169156095Y-97797904D01*
X169156095Y-97607428D01*
X169203714Y-97512190D01*
X169251333Y-97464571D01*
X169346571Y-97416952D01*
X168537047Y-96988380D02*
X168441809Y-96988380D01*
X168346571Y-97036000D01*
X168298952Y-97083619D01*
X168251333Y-97178857D01*
X168203714Y-97369333D01*
X168203714Y-97607428D01*
X168251333Y-97797904D01*
X168298952Y-97893142D01*
X168346571Y-97940761D01*
X168441809Y-97988380D01*
X168537047Y-97988380D01*
X168632285Y-97940761D01*
X168679904Y-97893142D01*
X168727523Y-97797904D01*
X168775142Y-97607428D01*
X168775142Y-97369333D01*
X168727523Y-97178857D01*
X168679904Y-97083619D01*
X168632285Y-97036000D01*
X168537047Y-96988380D01*
X167251333Y-97988380D02*
X167822761Y-97988380D01*
X167537047Y-97988380D02*
X167537047Y-96988380D01*
X167632285Y-97131238D01*
X167727523Y-97226476D01*
X167822761Y-97274095D01*
X168509714Y-114395571D02*
X168843047Y-114395571D01*
X168843047Y-114919380D02*
X168843047Y-113919380D01*
X168366857Y-113919380D01*
X167652571Y-114395571D02*
X167509714Y-114443190D01*
X167462095Y-114490809D01*
X167414476Y-114586047D01*
X167414476Y-114728904D01*
X167462095Y-114824142D01*
X167509714Y-114871761D01*
X167604952Y-114919380D01*
X167985904Y-114919380D01*
X167985904Y-113919380D01*
X167652571Y-113919380D01*
X167557333Y-113967000D01*
X167509714Y-114014619D01*
X167462095Y-114109857D01*
X167462095Y-114205095D01*
X167509714Y-114300333D01*
X167557333Y-114347952D01*
X167652571Y-114395571D01*
X167985904Y-114395571D01*
X166843047Y-114347952D02*
X166938285Y-114300333D01*
X166985904Y-114252714D01*
X167033523Y-114157476D01*
X167033523Y-114109857D01*
X166985904Y-114014619D01*
X166938285Y-113967000D01*
X166843047Y-113919380D01*
X166652571Y-113919380D01*
X166557333Y-113967000D01*
X166509714Y-114014619D01*
X166462095Y-114109857D01*
X166462095Y-114157476D01*
X166509714Y-114252714D01*
X166557333Y-114300333D01*
X166652571Y-114347952D01*
X166843047Y-114347952D01*
X166938285Y-114395571D01*
X166985904Y-114443190D01*
X167033523Y-114538428D01*
X167033523Y-114728904D01*
X166985904Y-114824142D01*
X166938285Y-114871761D01*
X166843047Y-114919380D01*
X166652571Y-114919380D01*
X166557333Y-114871761D01*
X166509714Y-114824142D01*
X166462095Y-114728904D01*
X166462095Y-114538428D01*
X166509714Y-114443190D01*
X166557333Y-114395571D01*
X166652571Y-114347952D01*
X165843047Y-113919380D02*
X165747809Y-113919380D01*
X165652571Y-113967000D01*
X165604952Y-114014619D01*
X165557333Y-114109857D01*
X165509714Y-114300333D01*
X165509714Y-114538428D01*
X165557333Y-114728904D01*
X165604952Y-114824142D01*
X165652571Y-114871761D01*
X165747809Y-114919380D01*
X165843047Y-114919380D01*
X165938285Y-114871761D01*
X165985904Y-114824142D01*
X166033523Y-114728904D01*
X166081142Y-114538428D01*
X166081142Y-114300333D01*
X166033523Y-114109857D01*
X165985904Y-114014619D01*
X165938285Y-113967000D01*
X165843047Y-113919380D01*
X165128761Y-114014619D02*
X165081142Y-113967000D01*
X164985904Y-113919380D01*
X164747809Y-113919380D01*
X164652571Y-113967000D01*
X164604952Y-114014619D01*
X164557333Y-114109857D01*
X164557333Y-114205095D01*
X164604952Y-114347952D01*
X165176380Y-114919380D01*
X164557333Y-114919380D01*
X163633047Y-114919380D02*
X163966380Y-114443190D01*
X164204476Y-114919380D02*
X164204476Y-113919380D01*
X163823523Y-113919380D01*
X163728285Y-113967000D01*
X163680666Y-114014619D01*
X163633047Y-114109857D01*
X163633047Y-114252714D01*
X163680666Y-114347952D01*
X163728285Y-114395571D01*
X163823523Y-114443190D01*
X164204476Y-114443190D01*
X163061619Y-114347952D02*
X163156857Y-114300333D01*
X163204476Y-114252714D01*
X163252095Y-114157476D01*
X163252095Y-114109857D01*
X163204476Y-114014619D01*
X163156857Y-113967000D01*
X163061619Y-113919380D01*
X162871142Y-113919380D01*
X162775904Y-113967000D01*
X162728285Y-114014619D01*
X162680666Y-114109857D01*
X162680666Y-114157476D01*
X162728285Y-114252714D01*
X162775904Y-114300333D01*
X162871142Y-114347952D01*
X163061619Y-114347952D01*
X163156857Y-114395571D01*
X163204476Y-114443190D01*
X163252095Y-114538428D01*
X163252095Y-114728904D01*
X163204476Y-114824142D01*
X163156857Y-114871761D01*
X163061619Y-114919380D01*
X162871142Y-114919380D01*
X162775904Y-114871761D01*
X162728285Y-114824142D01*
X162680666Y-114728904D01*
X162680666Y-114538428D01*
X162728285Y-114443190D01*
X162775904Y-114395571D01*
X162871142Y-114347952D01*
X162061619Y-113919380D02*
X161966380Y-113919380D01*
X161871142Y-113967000D01*
X161823523Y-114014619D01*
X161775904Y-114109857D01*
X161728285Y-114300333D01*
X161728285Y-114538428D01*
X161775904Y-114728904D01*
X161823523Y-114824142D01*
X161871142Y-114871761D01*
X161966380Y-114919380D01*
X162061619Y-114919380D01*
X162156857Y-114871761D01*
X162204476Y-114824142D01*
X162252095Y-114728904D01*
X162299714Y-114538428D01*
X162299714Y-114300333D01*
X162252095Y-114109857D01*
X162204476Y-114014619D01*
X162156857Y-113967000D01*
X162061619Y-113919380D01*
X160871142Y-114252714D02*
X160871142Y-114919380D01*
X161109238Y-113871761D02*
X161347333Y-114586047D01*
X160728285Y-114586047D01*
X178964333Y-112203666D02*
X179197666Y-111870333D01*
X179364333Y-112203666D02*
X179364333Y-111503666D01*
X179097666Y-111503666D01*
X179031000Y-111537000D01*
X178997666Y-111570333D01*
X178964333Y-111637000D01*
X178964333Y-111737000D01*
X178997666Y-111803666D01*
X179031000Y-111837000D01*
X179097666Y-111870333D01*
X179364333Y-111870333D01*
X178564333Y-111803666D02*
X178631000Y-111770333D01*
X178664333Y-111737000D01*
X178697666Y-111670333D01*
X178697666Y-111637000D01*
X178664333Y-111570333D01*
X178631000Y-111537000D01*
X178564333Y-111503666D01*
X178431000Y-111503666D01*
X178364333Y-111537000D01*
X178331000Y-111570333D01*
X178297666Y-111637000D01*
X178297666Y-111670333D01*
X178331000Y-111737000D01*
X178364333Y-111770333D01*
X178431000Y-111803666D01*
X178564333Y-111803666D01*
X178631000Y-111837000D01*
X178664333Y-111870333D01*
X178697666Y-111937000D01*
X178697666Y-112070333D01*
X178664333Y-112137000D01*
X178631000Y-112170333D01*
X178564333Y-112203666D01*
X178431000Y-112203666D01*
X178364333Y-112170333D01*
X178331000Y-112137000D01*
X178297666Y-112070333D01*
X178297666Y-111937000D01*
X178331000Y-111870333D01*
X178364333Y-111837000D01*
X178431000Y-111803666D01*
X177864333Y-111503666D02*
X177797666Y-111503666D01*
X177731000Y-111537000D01*
X177697666Y-111570333D01*
X177664333Y-111637000D01*
X177631000Y-111770333D01*
X177631000Y-111937000D01*
X177664333Y-112070333D01*
X177697666Y-112137000D01*
X177731000Y-112170333D01*
X177797666Y-112203666D01*
X177864333Y-112203666D01*
X177931000Y-112170333D01*
X177964333Y-112137000D01*
X177997666Y-112070333D01*
X178031000Y-111937000D01*
X178031000Y-111770333D01*
X177997666Y-111637000D01*
X177964333Y-111570333D01*
X177931000Y-111537000D01*
X177864333Y-111503666D01*
X176997666Y-111503666D02*
X177331000Y-111503666D01*
X177364333Y-111837000D01*
X177331000Y-111803666D01*
X177264333Y-111770333D01*
X177097666Y-111770333D01*
X177031000Y-111803666D01*
X176997666Y-111837000D01*
X176964333Y-111903666D01*
X176964333Y-112070333D01*
X176997666Y-112137000D01*
X177031000Y-112170333D01*
X177097666Y-112203666D01*
X177264333Y-112203666D01*
X177331000Y-112170333D01*
X177364333Y-112137000D01*
X156282380Y-79684761D02*
X155806190Y-79351428D01*
X156282380Y-79113333D02*
X155282380Y-79113333D01*
X155282380Y-79494285D01*
X155330000Y-79589523D01*
X155377619Y-79637142D01*
X155472857Y-79684761D01*
X155615714Y-79684761D01*
X155710952Y-79637142D01*
X155758571Y-79589523D01*
X155806190Y-79494285D01*
X155806190Y-79113333D01*
X156282380Y-80637142D02*
X156282380Y-80065714D01*
X156282380Y-80351428D02*
X155282380Y-80351428D01*
X155425238Y-80256190D01*
X155520476Y-80160952D01*
X155568095Y-80065714D01*
X156282380Y-81589523D02*
X156282380Y-81018095D01*
X156282380Y-81303809D02*
X155282380Y-81303809D01*
X155425238Y-81208571D01*
X155520476Y-81113333D01*
X155568095Y-81018095D01*
X155282380Y-82208571D02*
X155282380Y-82303809D01*
X155330000Y-82399047D01*
X155377619Y-82446666D01*
X155472857Y-82494285D01*
X155663333Y-82541904D01*
X155901428Y-82541904D01*
X156091904Y-82494285D01*
X156187142Y-82446666D01*
X156234761Y-82399047D01*
X156282380Y-82303809D01*
X156282380Y-82208571D01*
X156234761Y-82113333D01*
X156187142Y-82065714D01*
X156091904Y-82018095D01*
X155901428Y-81970476D01*
X155663333Y-81970476D01*
X155472857Y-82018095D01*
X155377619Y-82065714D01*
X155330000Y-82113333D01*
X155282380Y-82208571D01*
X156282380Y-83494285D02*
X156282380Y-82922857D01*
X156282380Y-83208571D02*
X155282380Y-83208571D01*
X155425238Y-83113333D01*
X155520476Y-83018095D01*
X155568095Y-82922857D01*
X160091380Y-79684761D02*
X159615190Y-79351428D01*
X160091380Y-79113333D02*
X159091380Y-79113333D01*
X159091380Y-79494285D01*
X159139000Y-79589523D01*
X159186619Y-79637142D01*
X159281857Y-79684761D01*
X159424714Y-79684761D01*
X159519952Y-79637142D01*
X159567571Y-79589523D01*
X159615190Y-79494285D01*
X159615190Y-79113333D01*
X160091380Y-80637142D02*
X160091380Y-80065714D01*
X160091380Y-80351428D02*
X159091380Y-80351428D01*
X159234238Y-80256190D01*
X159329476Y-80160952D01*
X159377095Y-80065714D01*
X160091380Y-81589523D02*
X160091380Y-81018095D01*
X160091380Y-81303809D02*
X159091380Y-81303809D01*
X159234238Y-81208571D01*
X159329476Y-81113333D01*
X159377095Y-81018095D01*
X159091380Y-82208571D02*
X159091380Y-82303809D01*
X159139000Y-82399047D01*
X159186619Y-82446666D01*
X159281857Y-82494285D01*
X159472333Y-82541904D01*
X159710428Y-82541904D01*
X159900904Y-82494285D01*
X159996142Y-82446666D01*
X160043761Y-82399047D01*
X160091380Y-82303809D01*
X160091380Y-82208571D01*
X160043761Y-82113333D01*
X159996142Y-82065714D01*
X159900904Y-82018095D01*
X159710428Y-81970476D01*
X159472333Y-81970476D01*
X159281857Y-82018095D01*
X159186619Y-82065714D01*
X159139000Y-82113333D01*
X159091380Y-82208571D01*
X159186619Y-82922857D02*
X159139000Y-82970476D01*
X159091380Y-83065714D01*
X159091380Y-83303809D01*
X159139000Y-83399047D01*
X159186619Y-83446666D01*
X159281857Y-83494285D01*
X159377095Y-83494285D01*
X159519952Y-83446666D01*
X160091380Y-82875238D01*
X160091380Y-83494285D01*
X176982380Y-77828261D02*
X176506190Y-77494928D01*
X176982380Y-77256833D02*
X175982380Y-77256833D01*
X175982380Y-77637785D01*
X176030000Y-77733023D01*
X176077619Y-77780642D01*
X176172857Y-77828261D01*
X176315714Y-77828261D01*
X176410952Y-77780642D01*
X176458571Y-77733023D01*
X176506190Y-77637785D01*
X176506190Y-77256833D01*
X176982380Y-78780642D02*
X176982380Y-78209214D01*
X176982380Y-78494928D02*
X175982380Y-78494928D01*
X176125238Y-78399690D01*
X176220476Y-78304452D01*
X176268095Y-78209214D01*
X176982380Y-79733023D02*
X176982380Y-79161595D01*
X176982380Y-79447309D02*
X175982380Y-79447309D01*
X176125238Y-79352071D01*
X176220476Y-79256833D01*
X176268095Y-79161595D01*
X175982380Y-80352071D02*
X175982380Y-80447309D01*
X176030000Y-80542547D01*
X176077619Y-80590166D01*
X176172857Y-80637785D01*
X176363333Y-80685404D01*
X176601428Y-80685404D01*
X176791904Y-80637785D01*
X176887142Y-80590166D01*
X176934761Y-80542547D01*
X176982380Y-80447309D01*
X176982380Y-80352071D01*
X176934761Y-80256833D01*
X176887142Y-80209214D01*
X176791904Y-80161595D01*
X176601428Y-80113976D01*
X176363333Y-80113976D01*
X176172857Y-80161595D01*
X176077619Y-80209214D01*
X176030000Y-80256833D01*
X175982380Y-80352071D01*
X175982380Y-81018738D02*
X175982380Y-81637785D01*
X176363333Y-81304452D01*
X176363333Y-81447309D01*
X176410952Y-81542547D01*
X176458571Y-81590166D01*
X176553809Y-81637785D01*
X176791904Y-81637785D01*
X176887142Y-81590166D01*
X176934761Y-81542547D01*
X176982380Y-81447309D01*
X176982380Y-81161595D01*
X176934761Y-81066357D01*
X176887142Y-81018738D01*
D15*
X167325760Y-77999951D02*
X167930522Y-77999951D01*
X166660522Y-77576618D02*
X167325760Y-77999951D01*
X166660522Y-78423284D01*
X167930522Y-79511856D02*
X167930522Y-78786141D01*
X167930522Y-79148999D02*
X166660522Y-79148999D01*
X166841951Y-79028046D01*
X166962903Y-78907094D01*
X167023379Y-78786141D01*
X167930522Y-80721379D02*
X167930522Y-79995665D01*
X167930522Y-80358522D02*
X166660522Y-80358522D01*
X166841951Y-80237570D01*
X166962903Y-80116618D01*
X167023379Y-79995665D01*
X166660522Y-81507570D02*
X166660522Y-81628522D01*
X166720999Y-81749475D01*
X166781475Y-81809951D01*
X166902427Y-81870427D01*
X167144332Y-81930903D01*
X167446713Y-81930903D01*
X167688618Y-81870427D01*
X167809570Y-81809951D01*
X167870046Y-81749475D01*
X167930522Y-81628522D01*
X167930522Y-81507570D01*
X167870046Y-81386618D01*
X167809570Y-81326141D01*
X167688618Y-81265665D01*
X167446713Y-81205189D01*
X167144332Y-81205189D01*
X166902427Y-81265665D01*
X166781475Y-81326141D01*
X166720999Y-81386618D01*
X166660522Y-81507570D01*
X167930522Y-83140427D02*
X167930522Y-82414713D01*
X167930522Y-82777570D02*
X166660522Y-82777570D01*
X166841951Y-82656618D01*
X166962903Y-82535665D01*
X167023379Y-82414713D01*
X154311047Y-115255523D02*
X154311047Y-113985523D01*
X152980571Y-115134571D02*
X153041047Y-115195047D01*
X153222476Y-115255523D01*
X153343428Y-115255523D01*
X153524857Y-115195047D01*
X153645809Y-115074095D01*
X153706285Y-114953142D01*
X153766761Y-114711238D01*
X153766761Y-114529809D01*
X153706285Y-114287904D01*
X153645809Y-114166952D01*
X153524857Y-114046000D01*
X153343428Y-113985523D01*
X153222476Y-113985523D01*
X153041047Y-114046000D01*
X152980571Y-114106476D01*
X151771047Y-115255523D02*
X152496761Y-115255523D01*
X152133904Y-115255523D02*
X152133904Y-113985523D01*
X152254857Y-114166952D01*
X152375809Y-114287904D01*
X152496761Y-114348380D01*
X150984857Y-113985523D02*
X150863904Y-113985523D01*
X150742952Y-114046000D01*
X150682476Y-114106476D01*
X150622000Y-114227428D01*
X150561523Y-114469333D01*
X150561523Y-114771714D01*
X150622000Y-115013619D01*
X150682476Y-115134571D01*
X150742952Y-115195047D01*
X150863904Y-115255523D01*
X150984857Y-115255523D01*
X151105809Y-115195047D01*
X151166285Y-115134571D01*
X151226761Y-115013619D01*
X151287238Y-114771714D01*
X151287238Y-114469333D01*
X151226761Y-114227428D01*
X151166285Y-114106476D01*
X151105809Y-114046000D01*
X150984857Y-113985523D01*
X149775333Y-113985523D02*
X149654380Y-113985523D01*
X149533428Y-114046000D01*
X149472952Y-114106476D01*
X149412476Y-114227428D01*
X149352000Y-114469333D01*
X149352000Y-114771714D01*
X149412476Y-115013619D01*
X149472952Y-115134571D01*
X149533428Y-115195047D01*
X149654380Y-115255523D01*
X149775333Y-115255523D01*
X149896285Y-115195047D01*
X149956761Y-115134571D01*
X150017238Y-115013619D01*
X150077714Y-114771714D01*
X150077714Y-114469333D01*
X150017238Y-114227428D01*
X149956761Y-114106476D01*
X149896285Y-114046000D01*
X149775333Y-113985523D01*
X148142476Y-115255523D02*
X148868190Y-115255523D01*
X148505333Y-115255523D02*
X148505333Y-113985523D01*
X148626285Y-114166952D01*
X148747238Y-114287904D01*
X148868190Y-114348380D01*
D10*
X183872047Y-90114380D02*
X184205380Y-89638190D01*
X184443476Y-90114380D02*
X184443476Y-89114380D01*
X184062523Y-89114380D01*
X183967285Y-89162000D01*
X183919666Y-89209619D01*
X183872047Y-89304857D01*
X183872047Y-89447714D01*
X183919666Y-89542952D01*
X183967285Y-89590571D01*
X184062523Y-89638190D01*
X184443476Y-89638190D01*
X183538714Y-89114380D02*
X182919666Y-89114380D01*
X183253000Y-89495333D01*
X183110142Y-89495333D01*
X183014904Y-89542952D01*
X182967285Y-89590571D01*
X182919666Y-89685809D01*
X182919666Y-89923904D01*
X182967285Y-90019142D01*
X183014904Y-90066761D01*
X183110142Y-90114380D01*
X183395857Y-90114380D01*
X183491095Y-90066761D01*
X183538714Y-90019142D01*
X182300619Y-89114380D02*
X182205380Y-89114380D01*
X182110142Y-89162000D01*
X182062523Y-89209619D01*
X182014904Y-89304857D01*
X181967285Y-89495333D01*
X181967285Y-89733428D01*
X182014904Y-89923904D01*
X182062523Y-90019142D01*
X182110142Y-90066761D01*
X182205380Y-90114380D01*
X182300619Y-90114380D01*
X182395857Y-90066761D01*
X182443476Y-90019142D01*
X182491095Y-89923904D01*
X182538714Y-89733428D01*
X182538714Y-89495333D01*
X182491095Y-89304857D01*
X182443476Y-89209619D01*
X182395857Y-89162000D01*
X182300619Y-89114380D01*
X181586333Y-89209619D02*
X181538714Y-89162000D01*
X181443476Y-89114380D01*
X181205380Y-89114380D01*
X181110142Y-89162000D01*
X181062523Y-89209619D01*
X181014904Y-89304857D01*
X181014904Y-89400095D01*
X181062523Y-89542952D01*
X181633952Y-90114380D01*
X181014904Y-90114380D01*
X183999047Y-93543380D02*
X184332380Y-93067190D01*
X184570476Y-93543380D02*
X184570476Y-92543380D01*
X184189523Y-92543380D01*
X184094285Y-92591000D01*
X184046666Y-92638619D01*
X183999047Y-92733857D01*
X183999047Y-92876714D01*
X184046666Y-92971952D01*
X184094285Y-93019571D01*
X184189523Y-93067190D01*
X184570476Y-93067190D01*
X183665714Y-92543380D02*
X183046666Y-92543380D01*
X183380000Y-92924333D01*
X183237142Y-92924333D01*
X183141904Y-92971952D01*
X183094285Y-93019571D01*
X183046666Y-93114809D01*
X183046666Y-93352904D01*
X183094285Y-93448142D01*
X183141904Y-93495761D01*
X183237142Y-93543380D01*
X183522857Y-93543380D01*
X183618095Y-93495761D01*
X183665714Y-93448142D01*
X182427619Y-92543380D02*
X182332380Y-92543380D01*
X182237142Y-92591000D01*
X182189523Y-92638619D01*
X182141904Y-92733857D01*
X182094285Y-92924333D01*
X182094285Y-93162428D01*
X182141904Y-93352904D01*
X182189523Y-93448142D01*
X182237142Y-93495761D01*
X182332380Y-93543380D01*
X182427619Y-93543380D01*
X182522857Y-93495761D01*
X182570476Y-93448142D01*
X182618095Y-93352904D01*
X182665714Y-93162428D01*
X182665714Y-92924333D01*
X182618095Y-92733857D01*
X182570476Y-92638619D01*
X182522857Y-92591000D01*
X182427619Y-92543380D01*
X181760952Y-92543380D02*
X181141904Y-92543380D01*
X181475238Y-92924333D01*
X181332380Y-92924333D01*
X181237142Y-92971952D01*
X181189523Y-93019571D01*
X181141904Y-93114809D01*
X181141904Y-93352904D01*
X181189523Y-93448142D01*
X181237142Y-93495761D01*
X181332380Y-93543380D01*
X181618095Y-93543380D01*
X181713333Y-93495761D01*
X181760952Y-93448142D01*
M02*
