G04 #@! TF.GenerationSoftware,KiCad,Pcbnew,(5.1.4)-1*
G04 #@! TF.CreationDate,2021-04-19T15:03:55+02:00*
G04 #@! TF.ProjectId,cSLIM-shield,63534c49-4d2d-4736-9869-656c642e6b69,rev?*
G04 #@! TF.SameCoordinates,Original*
G04 #@! TF.FileFunction,Soldermask,Top*
G04 #@! TF.FilePolarity,Negative*
%FSLAX46Y46*%
G04 Gerber Fmt 4.6, Leading zero omitted, Abs format (unit mm)*
G04 Created by KiCad (PCBNEW (5.1.4)-1) date 2021-04-19 15:03:55*
%MOMM*%
%LPD*%
G04 APERTURE LIST*
%ADD10O,1.727200X2.032000*%
%ADD11C,4.064000*%
%ADD12C,0.250000*%
%ADD13C,0.875000*%
%ADD14R,0.700000X2.000000*%
%ADD15R,0.700000X1.500000*%
%ADD16R,1.500000X0.700000*%
%ADD17R,2.000000X0.700000*%
%ADD18R,3.030000X3.000000*%
%ADD19O,1.700000X1.700000*%
%ADD20R,1.700000X1.700000*%
%ADD21R,0.740000X2.795000*%
%ADD22R,2.400000X0.800000*%
%ADD23R,3.300000X1.800000*%
%ADD24R,1.140000X3.050000*%
%ADD25R,1.450000X0.950000*%
%ADD26R,1.400000X0.900000*%
%ADD27C,0.975000*%
%ADD28R,0.750000X1.600000*%
%ADD29R,1.400000X2.500000*%
%ADD30R,0.600000X0.240000*%
%ADD31C,1.650000*%
%ADD32R,1.050000X0.600000*%
%ADD33R,0.900000X1.400000*%
%ADD34C,1.100000*%
%ADD35R,2.000000X2.400000*%
%ADD36R,0.800000X0.300000*%
%ADD37R,3.050000X2.200000*%
%ADD38R,1.850000X3.500000*%
%ADD39R,0.560000X0.420000*%
G04 APERTURE END LIST*
D10*
X138938000Y-123825000D03*
X141478000Y-123825000D03*
X144018000Y-123825000D03*
X146558000Y-123825000D03*
X149098000Y-123825000D03*
X151638000Y-123825000D03*
X154178000Y-123825000D03*
X156718000Y-123825000D03*
X161798000Y-123825000D03*
X164338000Y-123825000D03*
X166878000Y-123825000D03*
X169418000Y-123825000D03*
X171958000Y-123825000D03*
X174498000Y-123825000D03*
X129794000Y-75565000D03*
X132334000Y-75565000D03*
X134874000Y-75565000D03*
X137414000Y-75565000D03*
X139954000Y-75565000D03*
X142494000Y-75565000D03*
X145034000Y-75565000D03*
X147574000Y-75565000D03*
X150114000Y-75565000D03*
X152654000Y-75565000D03*
X156718000Y-75565000D03*
X159258000Y-75565000D03*
X161798000Y-75565000D03*
X164338000Y-75565000D03*
X166878000Y-75565000D03*
X169418000Y-75565000D03*
X171958000Y-75565000D03*
X174498000Y-75565000D03*
D11*
X124968000Y-123825000D03*
X177038000Y-118745000D03*
X126238000Y-75565000D03*
X177038000Y-90805000D03*
D10*
X179578000Y-75565000D03*
X182118000Y-75565000D03*
X184658000Y-75565000D03*
X187198000Y-75565000D03*
X189738000Y-75565000D03*
X192278000Y-75565000D03*
X194818000Y-75565000D03*
X197358000Y-75565000D03*
D11*
X200660000Y-75565000D03*
X207264000Y-123825000D03*
D12*
G36*
X129018691Y-124621053D02*
G01*
X129039926Y-124624203D01*
X129060750Y-124629419D01*
X129080962Y-124636651D01*
X129100368Y-124645830D01*
X129118781Y-124656866D01*
X129136024Y-124669654D01*
X129151930Y-124684070D01*
X129166346Y-124699976D01*
X129179134Y-124717219D01*
X129190170Y-124735632D01*
X129199349Y-124755038D01*
X129206581Y-124775250D01*
X129211797Y-124796074D01*
X129214947Y-124817309D01*
X129216000Y-124838750D01*
X129216000Y-125351250D01*
X129214947Y-125372691D01*
X129211797Y-125393926D01*
X129206581Y-125414750D01*
X129199349Y-125434962D01*
X129190170Y-125454368D01*
X129179134Y-125472781D01*
X129166346Y-125490024D01*
X129151930Y-125505930D01*
X129136024Y-125520346D01*
X129118781Y-125533134D01*
X129100368Y-125544170D01*
X129080962Y-125553349D01*
X129060750Y-125560581D01*
X129039926Y-125565797D01*
X129018691Y-125568947D01*
X128997250Y-125570000D01*
X128559750Y-125570000D01*
X128538309Y-125568947D01*
X128517074Y-125565797D01*
X128496250Y-125560581D01*
X128476038Y-125553349D01*
X128456632Y-125544170D01*
X128438219Y-125533134D01*
X128420976Y-125520346D01*
X128405070Y-125505930D01*
X128390654Y-125490024D01*
X128377866Y-125472781D01*
X128366830Y-125454368D01*
X128357651Y-125434962D01*
X128350419Y-125414750D01*
X128345203Y-125393926D01*
X128342053Y-125372691D01*
X128341000Y-125351250D01*
X128341000Y-124838750D01*
X128342053Y-124817309D01*
X128345203Y-124796074D01*
X128350419Y-124775250D01*
X128357651Y-124755038D01*
X128366830Y-124735632D01*
X128377866Y-124717219D01*
X128390654Y-124699976D01*
X128405070Y-124684070D01*
X128420976Y-124669654D01*
X128438219Y-124656866D01*
X128456632Y-124645830D01*
X128476038Y-124636651D01*
X128496250Y-124629419D01*
X128517074Y-124624203D01*
X128538309Y-124621053D01*
X128559750Y-124620000D01*
X128997250Y-124620000D01*
X129018691Y-124621053D01*
X129018691Y-124621053D01*
G37*
D13*
X128778500Y-125095000D03*
D12*
G36*
X130593691Y-124621053D02*
G01*
X130614926Y-124624203D01*
X130635750Y-124629419D01*
X130655962Y-124636651D01*
X130675368Y-124645830D01*
X130693781Y-124656866D01*
X130711024Y-124669654D01*
X130726930Y-124684070D01*
X130741346Y-124699976D01*
X130754134Y-124717219D01*
X130765170Y-124735632D01*
X130774349Y-124755038D01*
X130781581Y-124775250D01*
X130786797Y-124796074D01*
X130789947Y-124817309D01*
X130791000Y-124838750D01*
X130791000Y-125351250D01*
X130789947Y-125372691D01*
X130786797Y-125393926D01*
X130781581Y-125414750D01*
X130774349Y-125434962D01*
X130765170Y-125454368D01*
X130754134Y-125472781D01*
X130741346Y-125490024D01*
X130726930Y-125505930D01*
X130711024Y-125520346D01*
X130693781Y-125533134D01*
X130675368Y-125544170D01*
X130655962Y-125553349D01*
X130635750Y-125560581D01*
X130614926Y-125565797D01*
X130593691Y-125568947D01*
X130572250Y-125570000D01*
X130134750Y-125570000D01*
X130113309Y-125568947D01*
X130092074Y-125565797D01*
X130071250Y-125560581D01*
X130051038Y-125553349D01*
X130031632Y-125544170D01*
X130013219Y-125533134D01*
X129995976Y-125520346D01*
X129980070Y-125505930D01*
X129965654Y-125490024D01*
X129952866Y-125472781D01*
X129941830Y-125454368D01*
X129932651Y-125434962D01*
X129925419Y-125414750D01*
X129920203Y-125393926D01*
X129917053Y-125372691D01*
X129916000Y-125351250D01*
X129916000Y-124838750D01*
X129917053Y-124817309D01*
X129920203Y-124796074D01*
X129925419Y-124775250D01*
X129932651Y-124755038D01*
X129941830Y-124735632D01*
X129952866Y-124717219D01*
X129965654Y-124699976D01*
X129980070Y-124684070D01*
X129995976Y-124669654D01*
X130013219Y-124656866D01*
X130031632Y-124645830D01*
X130051038Y-124636651D01*
X130071250Y-124629419D01*
X130092074Y-124624203D01*
X130113309Y-124621053D01*
X130134750Y-124620000D01*
X130572250Y-124620000D01*
X130593691Y-124621053D01*
X130593691Y-124621053D01*
G37*
D13*
X130353500Y-125095000D03*
D12*
G36*
X118883691Y-84489053D02*
G01*
X118904926Y-84492203D01*
X118925750Y-84497419D01*
X118945962Y-84504651D01*
X118965368Y-84513830D01*
X118983781Y-84524866D01*
X119001024Y-84537654D01*
X119016930Y-84552070D01*
X119031346Y-84567976D01*
X119044134Y-84585219D01*
X119055170Y-84603632D01*
X119064349Y-84623038D01*
X119071581Y-84643250D01*
X119076797Y-84664074D01*
X119079947Y-84685309D01*
X119081000Y-84706750D01*
X119081000Y-85219250D01*
X119079947Y-85240691D01*
X119076797Y-85261926D01*
X119071581Y-85282750D01*
X119064349Y-85302962D01*
X119055170Y-85322368D01*
X119044134Y-85340781D01*
X119031346Y-85358024D01*
X119016930Y-85373930D01*
X119001024Y-85388346D01*
X118983781Y-85401134D01*
X118965368Y-85412170D01*
X118945962Y-85421349D01*
X118925750Y-85428581D01*
X118904926Y-85433797D01*
X118883691Y-85436947D01*
X118862250Y-85438000D01*
X118424750Y-85438000D01*
X118403309Y-85436947D01*
X118382074Y-85433797D01*
X118361250Y-85428581D01*
X118341038Y-85421349D01*
X118321632Y-85412170D01*
X118303219Y-85401134D01*
X118285976Y-85388346D01*
X118270070Y-85373930D01*
X118255654Y-85358024D01*
X118242866Y-85340781D01*
X118231830Y-85322368D01*
X118222651Y-85302962D01*
X118215419Y-85282750D01*
X118210203Y-85261926D01*
X118207053Y-85240691D01*
X118206000Y-85219250D01*
X118206000Y-84706750D01*
X118207053Y-84685309D01*
X118210203Y-84664074D01*
X118215419Y-84643250D01*
X118222651Y-84623038D01*
X118231830Y-84603632D01*
X118242866Y-84585219D01*
X118255654Y-84567976D01*
X118270070Y-84552070D01*
X118285976Y-84537654D01*
X118303219Y-84524866D01*
X118321632Y-84513830D01*
X118341038Y-84504651D01*
X118361250Y-84497419D01*
X118382074Y-84492203D01*
X118403309Y-84489053D01*
X118424750Y-84488000D01*
X118862250Y-84488000D01*
X118883691Y-84489053D01*
X118883691Y-84489053D01*
G37*
D13*
X118643500Y-84963000D03*
D12*
G36*
X117308691Y-84489053D02*
G01*
X117329926Y-84492203D01*
X117350750Y-84497419D01*
X117370962Y-84504651D01*
X117390368Y-84513830D01*
X117408781Y-84524866D01*
X117426024Y-84537654D01*
X117441930Y-84552070D01*
X117456346Y-84567976D01*
X117469134Y-84585219D01*
X117480170Y-84603632D01*
X117489349Y-84623038D01*
X117496581Y-84643250D01*
X117501797Y-84664074D01*
X117504947Y-84685309D01*
X117506000Y-84706750D01*
X117506000Y-85219250D01*
X117504947Y-85240691D01*
X117501797Y-85261926D01*
X117496581Y-85282750D01*
X117489349Y-85302962D01*
X117480170Y-85322368D01*
X117469134Y-85340781D01*
X117456346Y-85358024D01*
X117441930Y-85373930D01*
X117426024Y-85388346D01*
X117408781Y-85401134D01*
X117390368Y-85412170D01*
X117370962Y-85421349D01*
X117350750Y-85428581D01*
X117329926Y-85433797D01*
X117308691Y-85436947D01*
X117287250Y-85438000D01*
X116849750Y-85438000D01*
X116828309Y-85436947D01*
X116807074Y-85433797D01*
X116786250Y-85428581D01*
X116766038Y-85421349D01*
X116746632Y-85412170D01*
X116728219Y-85401134D01*
X116710976Y-85388346D01*
X116695070Y-85373930D01*
X116680654Y-85358024D01*
X116667866Y-85340781D01*
X116656830Y-85322368D01*
X116647651Y-85302962D01*
X116640419Y-85282750D01*
X116635203Y-85261926D01*
X116632053Y-85240691D01*
X116631000Y-85219250D01*
X116631000Y-84706750D01*
X116632053Y-84685309D01*
X116635203Y-84664074D01*
X116640419Y-84643250D01*
X116647651Y-84623038D01*
X116656830Y-84603632D01*
X116667866Y-84585219D01*
X116680654Y-84567976D01*
X116695070Y-84552070D01*
X116710976Y-84537654D01*
X116728219Y-84524866D01*
X116746632Y-84513830D01*
X116766038Y-84504651D01*
X116786250Y-84497419D01*
X116807074Y-84492203D01*
X116828309Y-84489053D01*
X116849750Y-84488000D01*
X117287250Y-84488000D01*
X117308691Y-84489053D01*
X117308691Y-84489053D01*
G37*
D13*
X117068500Y-84963000D03*
D12*
G36*
X117308691Y-87410053D02*
G01*
X117329926Y-87413203D01*
X117350750Y-87418419D01*
X117370962Y-87425651D01*
X117390368Y-87434830D01*
X117408781Y-87445866D01*
X117426024Y-87458654D01*
X117441930Y-87473070D01*
X117456346Y-87488976D01*
X117469134Y-87506219D01*
X117480170Y-87524632D01*
X117489349Y-87544038D01*
X117496581Y-87564250D01*
X117501797Y-87585074D01*
X117504947Y-87606309D01*
X117506000Y-87627750D01*
X117506000Y-88140250D01*
X117504947Y-88161691D01*
X117501797Y-88182926D01*
X117496581Y-88203750D01*
X117489349Y-88223962D01*
X117480170Y-88243368D01*
X117469134Y-88261781D01*
X117456346Y-88279024D01*
X117441930Y-88294930D01*
X117426024Y-88309346D01*
X117408781Y-88322134D01*
X117390368Y-88333170D01*
X117370962Y-88342349D01*
X117350750Y-88349581D01*
X117329926Y-88354797D01*
X117308691Y-88357947D01*
X117287250Y-88359000D01*
X116849750Y-88359000D01*
X116828309Y-88357947D01*
X116807074Y-88354797D01*
X116786250Y-88349581D01*
X116766038Y-88342349D01*
X116746632Y-88333170D01*
X116728219Y-88322134D01*
X116710976Y-88309346D01*
X116695070Y-88294930D01*
X116680654Y-88279024D01*
X116667866Y-88261781D01*
X116656830Y-88243368D01*
X116647651Y-88223962D01*
X116640419Y-88203750D01*
X116635203Y-88182926D01*
X116632053Y-88161691D01*
X116631000Y-88140250D01*
X116631000Y-87627750D01*
X116632053Y-87606309D01*
X116635203Y-87585074D01*
X116640419Y-87564250D01*
X116647651Y-87544038D01*
X116656830Y-87524632D01*
X116667866Y-87506219D01*
X116680654Y-87488976D01*
X116695070Y-87473070D01*
X116710976Y-87458654D01*
X116728219Y-87445866D01*
X116746632Y-87434830D01*
X116766038Y-87425651D01*
X116786250Y-87418419D01*
X116807074Y-87413203D01*
X116828309Y-87410053D01*
X116849750Y-87409000D01*
X117287250Y-87409000D01*
X117308691Y-87410053D01*
X117308691Y-87410053D01*
G37*
D13*
X117068500Y-87884000D03*
D12*
G36*
X118883691Y-87410053D02*
G01*
X118904926Y-87413203D01*
X118925750Y-87418419D01*
X118945962Y-87425651D01*
X118965368Y-87434830D01*
X118983781Y-87445866D01*
X119001024Y-87458654D01*
X119016930Y-87473070D01*
X119031346Y-87488976D01*
X119044134Y-87506219D01*
X119055170Y-87524632D01*
X119064349Y-87544038D01*
X119071581Y-87564250D01*
X119076797Y-87585074D01*
X119079947Y-87606309D01*
X119081000Y-87627750D01*
X119081000Y-88140250D01*
X119079947Y-88161691D01*
X119076797Y-88182926D01*
X119071581Y-88203750D01*
X119064349Y-88223962D01*
X119055170Y-88243368D01*
X119044134Y-88261781D01*
X119031346Y-88279024D01*
X119016930Y-88294930D01*
X119001024Y-88309346D01*
X118983781Y-88322134D01*
X118965368Y-88333170D01*
X118945962Y-88342349D01*
X118925750Y-88349581D01*
X118904926Y-88354797D01*
X118883691Y-88357947D01*
X118862250Y-88359000D01*
X118424750Y-88359000D01*
X118403309Y-88357947D01*
X118382074Y-88354797D01*
X118361250Y-88349581D01*
X118341038Y-88342349D01*
X118321632Y-88333170D01*
X118303219Y-88322134D01*
X118285976Y-88309346D01*
X118270070Y-88294930D01*
X118255654Y-88279024D01*
X118242866Y-88261781D01*
X118231830Y-88243368D01*
X118222651Y-88223962D01*
X118215419Y-88203750D01*
X118210203Y-88182926D01*
X118207053Y-88161691D01*
X118206000Y-88140250D01*
X118206000Y-87627750D01*
X118207053Y-87606309D01*
X118210203Y-87585074D01*
X118215419Y-87564250D01*
X118222651Y-87544038D01*
X118231830Y-87524632D01*
X118242866Y-87506219D01*
X118255654Y-87488976D01*
X118270070Y-87473070D01*
X118285976Y-87458654D01*
X118303219Y-87445866D01*
X118321632Y-87434830D01*
X118341038Y-87425651D01*
X118361250Y-87418419D01*
X118382074Y-87413203D01*
X118403309Y-87410053D01*
X118424750Y-87409000D01*
X118862250Y-87409000D01*
X118883691Y-87410053D01*
X118883691Y-87410053D01*
G37*
D13*
X118643500Y-87884000D03*
D12*
G36*
X117816691Y-90331053D02*
G01*
X117837926Y-90334203D01*
X117858750Y-90339419D01*
X117878962Y-90346651D01*
X117898368Y-90355830D01*
X117916781Y-90366866D01*
X117934024Y-90379654D01*
X117949930Y-90394070D01*
X117964346Y-90409976D01*
X117977134Y-90427219D01*
X117988170Y-90445632D01*
X117997349Y-90465038D01*
X118004581Y-90485250D01*
X118009797Y-90506074D01*
X118012947Y-90527309D01*
X118014000Y-90548750D01*
X118014000Y-91061250D01*
X118012947Y-91082691D01*
X118009797Y-91103926D01*
X118004581Y-91124750D01*
X117997349Y-91144962D01*
X117988170Y-91164368D01*
X117977134Y-91182781D01*
X117964346Y-91200024D01*
X117949930Y-91215930D01*
X117934024Y-91230346D01*
X117916781Y-91243134D01*
X117898368Y-91254170D01*
X117878962Y-91263349D01*
X117858750Y-91270581D01*
X117837926Y-91275797D01*
X117816691Y-91278947D01*
X117795250Y-91280000D01*
X117357750Y-91280000D01*
X117336309Y-91278947D01*
X117315074Y-91275797D01*
X117294250Y-91270581D01*
X117274038Y-91263349D01*
X117254632Y-91254170D01*
X117236219Y-91243134D01*
X117218976Y-91230346D01*
X117203070Y-91215930D01*
X117188654Y-91200024D01*
X117175866Y-91182781D01*
X117164830Y-91164368D01*
X117155651Y-91144962D01*
X117148419Y-91124750D01*
X117143203Y-91103926D01*
X117140053Y-91082691D01*
X117139000Y-91061250D01*
X117139000Y-90548750D01*
X117140053Y-90527309D01*
X117143203Y-90506074D01*
X117148419Y-90485250D01*
X117155651Y-90465038D01*
X117164830Y-90445632D01*
X117175866Y-90427219D01*
X117188654Y-90409976D01*
X117203070Y-90394070D01*
X117218976Y-90379654D01*
X117236219Y-90366866D01*
X117254632Y-90355830D01*
X117274038Y-90346651D01*
X117294250Y-90339419D01*
X117315074Y-90334203D01*
X117336309Y-90331053D01*
X117357750Y-90330000D01*
X117795250Y-90330000D01*
X117816691Y-90331053D01*
X117816691Y-90331053D01*
G37*
D13*
X117576500Y-90805000D03*
D12*
G36*
X119391691Y-90331053D02*
G01*
X119412926Y-90334203D01*
X119433750Y-90339419D01*
X119453962Y-90346651D01*
X119473368Y-90355830D01*
X119491781Y-90366866D01*
X119509024Y-90379654D01*
X119524930Y-90394070D01*
X119539346Y-90409976D01*
X119552134Y-90427219D01*
X119563170Y-90445632D01*
X119572349Y-90465038D01*
X119579581Y-90485250D01*
X119584797Y-90506074D01*
X119587947Y-90527309D01*
X119589000Y-90548750D01*
X119589000Y-91061250D01*
X119587947Y-91082691D01*
X119584797Y-91103926D01*
X119579581Y-91124750D01*
X119572349Y-91144962D01*
X119563170Y-91164368D01*
X119552134Y-91182781D01*
X119539346Y-91200024D01*
X119524930Y-91215930D01*
X119509024Y-91230346D01*
X119491781Y-91243134D01*
X119473368Y-91254170D01*
X119453962Y-91263349D01*
X119433750Y-91270581D01*
X119412926Y-91275797D01*
X119391691Y-91278947D01*
X119370250Y-91280000D01*
X118932750Y-91280000D01*
X118911309Y-91278947D01*
X118890074Y-91275797D01*
X118869250Y-91270581D01*
X118849038Y-91263349D01*
X118829632Y-91254170D01*
X118811219Y-91243134D01*
X118793976Y-91230346D01*
X118778070Y-91215930D01*
X118763654Y-91200024D01*
X118750866Y-91182781D01*
X118739830Y-91164368D01*
X118730651Y-91144962D01*
X118723419Y-91124750D01*
X118718203Y-91103926D01*
X118715053Y-91082691D01*
X118714000Y-91061250D01*
X118714000Y-90548750D01*
X118715053Y-90527309D01*
X118718203Y-90506074D01*
X118723419Y-90485250D01*
X118730651Y-90465038D01*
X118739830Y-90445632D01*
X118750866Y-90427219D01*
X118763654Y-90409976D01*
X118778070Y-90394070D01*
X118793976Y-90379654D01*
X118811219Y-90366866D01*
X118829632Y-90355830D01*
X118849038Y-90346651D01*
X118869250Y-90339419D01*
X118890074Y-90334203D01*
X118911309Y-90331053D01*
X118932750Y-90330000D01*
X119370250Y-90330000D01*
X119391691Y-90331053D01*
X119391691Y-90331053D01*
G37*
D13*
X119151500Y-90805000D03*
D14*
X209374000Y-94690000D03*
X208374000Y-94690000D03*
D15*
X207374000Y-94690000D03*
X206374000Y-94690000D03*
X205374000Y-94690000D03*
X204374000Y-94690000D03*
X203374000Y-94690000D03*
X202374000Y-94690000D03*
X201374000Y-94690000D03*
X200374000Y-94690000D03*
X199374000Y-94690000D03*
D14*
X198374000Y-94690000D03*
D15*
X197374000Y-94690000D03*
D16*
X194954000Y-96940000D03*
D17*
X194954000Y-97940000D03*
D16*
X194954000Y-98940000D03*
X194954000Y-99940000D03*
X194954000Y-100940000D03*
X194954000Y-101940000D03*
X194954000Y-102940000D03*
X194954000Y-103940000D03*
X194954000Y-104940000D03*
D17*
X194954000Y-105940000D03*
D14*
X197374000Y-108190000D03*
D15*
X198374000Y-108190000D03*
X199374000Y-108190000D03*
X200374000Y-108190000D03*
X201374000Y-108190000D03*
X202374000Y-108190000D03*
X203374000Y-108190000D03*
X204374000Y-108190000D03*
X205374000Y-108190000D03*
X206374000Y-108190000D03*
X207374000Y-108190000D03*
D14*
X208374000Y-108190000D03*
X209374000Y-108190000D03*
D17*
X211954000Y-105940000D03*
X211954000Y-104940000D03*
X211954000Y-97940000D03*
X211954000Y-96940000D03*
D18*
X205624000Y-100740000D03*
D19*
X113284000Y-123825000D03*
X113284000Y-121285000D03*
D20*
X113284000Y-118745000D03*
X113284000Y-109093000D03*
D19*
X113284000Y-111633000D03*
X113284000Y-114173000D03*
D20*
X113792000Y-76581000D03*
D19*
X113792000Y-74041000D03*
D20*
X130810000Y-81915000D03*
D19*
X133350000Y-81915000D03*
X135890000Y-81915000D03*
X138430000Y-81915000D03*
D20*
X181864000Y-124587000D03*
D19*
X181864000Y-122047000D03*
X181864000Y-119507000D03*
X181864000Y-116967000D03*
X181864000Y-114427000D03*
X181864000Y-111887000D03*
D21*
X202946000Y-118237500D03*
X202946000Y-114172500D03*
X204216000Y-118237500D03*
X204216000Y-114172500D03*
X205486000Y-118237500D03*
X205486000Y-114172500D03*
X206756000Y-118237500D03*
X206756000Y-114172500D03*
X208026000Y-118237500D03*
X208026000Y-114172500D03*
D22*
X181458000Y-99743000D03*
X181458000Y-101243000D03*
X181458000Y-102743000D03*
X181458000Y-104243000D03*
X181458000Y-105743000D03*
D23*
X186508000Y-97143000D03*
X186508000Y-108343000D03*
D24*
X119508000Y-94869000D03*
X117348000Y-94869000D03*
D25*
X171958000Y-81473000D03*
X171958000Y-83373000D03*
D26*
X169164000Y-81473000D03*
X169164000Y-83373000D03*
X166370000Y-83373000D03*
X166370000Y-81473000D03*
X163576000Y-81473000D03*
X163576000Y-83373000D03*
D12*
G36*
X190084142Y-104838174D02*
G01*
X190107803Y-104841684D01*
X190131007Y-104847496D01*
X190153529Y-104855554D01*
X190175153Y-104865782D01*
X190195670Y-104878079D01*
X190214883Y-104892329D01*
X190232607Y-104908393D01*
X190248671Y-104926117D01*
X190262921Y-104945330D01*
X190275218Y-104965847D01*
X190285446Y-104987471D01*
X190293504Y-105009993D01*
X190299316Y-105033197D01*
X190302826Y-105056858D01*
X190304000Y-105080750D01*
X190304000Y-105993250D01*
X190302826Y-106017142D01*
X190299316Y-106040803D01*
X190293504Y-106064007D01*
X190285446Y-106086529D01*
X190275218Y-106108153D01*
X190262921Y-106128670D01*
X190248671Y-106147883D01*
X190232607Y-106165607D01*
X190214883Y-106181671D01*
X190195670Y-106195921D01*
X190175153Y-106208218D01*
X190153529Y-106218446D01*
X190131007Y-106226504D01*
X190107803Y-106232316D01*
X190084142Y-106235826D01*
X190060250Y-106237000D01*
X189572750Y-106237000D01*
X189548858Y-106235826D01*
X189525197Y-106232316D01*
X189501993Y-106226504D01*
X189479471Y-106218446D01*
X189457847Y-106208218D01*
X189437330Y-106195921D01*
X189418117Y-106181671D01*
X189400393Y-106165607D01*
X189384329Y-106147883D01*
X189370079Y-106128670D01*
X189357782Y-106108153D01*
X189347554Y-106086529D01*
X189339496Y-106064007D01*
X189333684Y-106040803D01*
X189330174Y-106017142D01*
X189329000Y-105993250D01*
X189329000Y-105080750D01*
X189330174Y-105056858D01*
X189333684Y-105033197D01*
X189339496Y-105009993D01*
X189347554Y-104987471D01*
X189357782Y-104965847D01*
X189370079Y-104945330D01*
X189384329Y-104926117D01*
X189400393Y-104908393D01*
X189418117Y-104892329D01*
X189437330Y-104878079D01*
X189457847Y-104865782D01*
X189479471Y-104855554D01*
X189501993Y-104847496D01*
X189525197Y-104841684D01*
X189548858Y-104838174D01*
X189572750Y-104837000D01*
X190060250Y-104837000D01*
X190084142Y-104838174D01*
X190084142Y-104838174D01*
G37*
D27*
X189816500Y-105537000D03*
D12*
G36*
X191959142Y-104838174D02*
G01*
X191982803Y-104841684D01*
X192006007Y-104847496D01*
X192028529Y-104855554D01*
X192050153Y-104865782D01*
X192070670Y-104878079D01*
X192089883Y-104892329D01*
X192107607Y-104908393D01*
X192123671Y-104926117D01*
X192137921Y-104945330D01*
X192150218Y-104965847D01*
X192160446Y-104987471D01*
X192168504Y-105009993D01*
X192174316Y-105033197D01*
X192177826Y-105056858D01*
X192179000Y-105080750D01*
X192179000Y-105993250D01*
X192177826Y-106017142D01*
X192174316Y-106040803D01*
X192168504Y-106064007D01*
X192160446Y-106086529D01*
X192150218Y-106108153D01*
X192137921Y-106128670D01*
X192123671Y-106147883D01*
X192107607Y-106165607D01*
X192089883Y-106181671D01*
X192070670Y-106195921D01*
X192050153Y-106208218D01*
X192028529Y-106218446D01*
X192006007Y-106226504D01*
X191982803Y-106232316D01*
X191959142Y-106235826D01*
X191935250Y-106237000D01*
X191447750Y-106237000D01*
X191423858Y-106235826D01*
X191400197Y-106232316D01*
X191376993Y-106226504D01*
X191354471Y-106218446D01*
X191332847Y-106208218D01*
X191312330Y-106195921D01*
X191293117Y-106181671D01*
X191275393Y-106165607D01*
X191259329Y-106147883D01*
X191245079Y-106128670D01*
X191232782Y-106108153D01*
X191222554Y-106086529D01*
X191214496Y-106064007D01*
X191208684Y-106040803D01*
X191205174Y-106017142D01*
X191204000Y-105993250D01*
X191204000Y-105080750D01*
X191205174Y-105056858D01*
X191208684Y-105033197D01*
X191214496Y-105009993D01*
X191222554Y-104987471D01*
X191232782Y-104965847D01*
X191245079Y-104945330D01*
X191259329Y-104926117D01*
X191275393Y-104908393D01*
X191293117Y-104892329D01*
X191312330Y-104878079D01*
X191332847Y-104865782D01*
X191354471Y-104855554D01*
X191376993Y-104847496D01*
X191400197Y-104841684D01*
X191423858Y-104838174D01*
X191447750Y-104837000D01*
X191935250Y-104837000D01*
X191959142Y-104838174D01*
X191959142Y-104838174D01*
G37*
D27*
X191691500Y-105537000D03*
D12*
G36*
X190084142Y-102806174D02*
G01*
X190107803Y-102809684D01*
X190131007Y-102815496D01*
X190153529Y-102823554D01*
X190175153Y-102833782D01*
X190195670Y-102846079D01*
X190214883Y-102860329D01*
X190232607Y-102876393D01*
X190248671Y-102894117D01*
X190262921Y-102913330D01*
X190275218Y-102933847D01*
X190285446Y-102955471D01*
X190293504Y-102977993D01*
X190299316Y-103001197D01*
X190302826Y-103024858D01*
X190304000Y-103048750D01*
X190304000Y-103961250D01*
X190302826Y-103985142D01*
X190299316Y-104008803D01*
X190293504Y-104032007D01*
X190285446Y-104054529D01*
X190275218Y-104076153D01*
X190262921Y-104096670D01*
X190248671Y-104115883D01*
X190232607Y-104133607D01*
X190214883Y-104149671D01*
X190195670Y-104163921D01*
X190175153Y-104176218D01*
X190153529Y-104186446D01*
X190131007Y-104194504D01*
X190107803Y-104200316D01*
X190084142Y-104203826D01*
X190060250Y-104205000D01*
X189572750Y-104205000D01*
X189548858Y-104203826D01*
X189525197Y-104200316D01*
X189501993Y-104194504D01*
X189479471Y-104186446D01*
X189457847Y-104176218D01*
X189437330Y-104163921D01*
X189418117Y-104149671D01*
X189400393Y-104133607D01*
X189384329Y-104115883D01*
X189370079Y-104096670D01*
X189357782Y-104076153D01*
X189347554Y-104054529D01*
X189339496Y-104032007D01*
X189333684Y-104008803D01*
X189330174Y-103985142D01*
X189329000Y-103961250D01*
X189329000Y-103048750D01*
X189330174Y-103024858D01*
X189333684Y-103001197D01*
X189339496Y-102977993D01*
X189347554Y-102955471D01*
X189357782Y-102933847D01*
X189370079Y-102913330D01*
X189384329Y-102894117D01*
X189400393Y-102876393D01*
X189418117Y-102860329D01*
X189437330Y-102846079D01*
X189457847Y-102833782D01*
X189479471Y-102823554D01*
X189501993Y-102815496D01*
X189525197Y-102809684D01*
X189548858Y-102806174D01*
X189572750Y-102805000D01*
X190060250Y-102805000D01*
X190084142Y-102806174D01*
X190084142Y-102806174D01*
G37*
D27*
X189816500Y-103505000D03*
D12*
G36*
X191959142Y-102806174D02*
G01*
X191982803Y-102809684D01*
X192006007Y-102815496D01*
X192028529Y-102823554D01*
X192050153Y-102833782D01*
X192070670Y-102846079D01*
X192089883Y-102860329D01*
X192107607Y-102876393D01*
X192123671Y-102894117D01*
X192137921Y-102913330D01*
X192150218Y-102933847D01*
X192160446Y-102955471D01*
X192168504Y-102977993D01*
X192174316Y-103001197D01*
X192177826Y-103024858D01*
X192179000Y-103048750D01*
X192179000Y-103961250D01*
X192177826Y-103985142D01*
X192174316Y-104008803D01*
X192168504Y-104032007D01*
X192160446Y-104054529D01*
X192150218Y-104076153D01*
X192137921Y-104096670D01*
X192123671Y-104115883D01*
X192107607Y-104133607D01*
X192089883Y-104149671D01*
X192070670Y-104163921D01*
X192050153Y-104176218D01*
X192028529Y-104186446D01*
X192006007Y-104194504D01*
X191982803Y-104200316D01*
X191959142Y-104203826D01*
X191935250Y-104205000D01*
X191447750Y-104205000D01*
X191423858Y-104203826D01*
X191400197Y-104200316D01*
X191376993Y-104194504D01*
X191354471Y-104186446D01*
X191332847Y-104176218D01*
X191312330Y-104163921D01*
X191293117Y-104149671D01*
X191275393Y-104133607D01*
X191259329Y-104115883D01*
X191245079Y-104096670D01*
X191232782Y-104076153D01*
X191222554Y-104054529D01*
X191214496Y-104032007D01*
X191208684Y-104008803D01*
X191205174Y-103985142D01*
X191204000Y-103961250D01*
X191204000Y-103048750D01*
X191205174Y-103024858D01*
X191208684Y-103001197D01*
X191214496Y-102977993D01*
X191222554Y-102955471D01*
X191232782Y-102933847D01*
X191245079Y-102913330D01*
X191259329Y-102894117D01*
X191275393Y-102876393D01*
X191293117Y-102860329D01*
X191312330Y-102846079D01*
X191332847Y-102833782D01*
X191354471Y-102823554D01*
X191376993Y-102815496D01*
X191400197Y-102809684D01*
X191423858Y-102806174D01*
X191447750Y-102805000D01*
X191935250Y-102805000D01*
X191959142Y-102806174D01*
X191959142Y-102806174D01*
G37*
D27*
X191691500Y-103505000D03*
D12*
G36*
X172184142Y-85063174D02*
G01*
X172207803Y-85066684D01*
X172231007Y-85072496D01*
X172253529Y-85080554D01*
X172275153Y-85090782D01*
X172295670Y-85103079D01*
X172314883Y-85117329D01*
X172332607Y-85133393D01*
X172348671Y-85151117D01*
X172362921Y-85170330D01*
X172375218Y-85190847D01*
X172385446Y-85212471D01*
X172393504Y-85234993D01*
X172399316Y-85258197D01*
X172402826Y-85281858D01*
X172404000Y-85305750D01*
X172404000Y-85793250D01*
X172402826Y-85817142D01*
X172399316Y-85840803D01*
X172393504Y-85864007D01*
X172385446Y-85886529D01*
X172375218Y-85908153D01*
X172362921Y-85928670D01*
X172348671Y-85947883D01*
X172332607Y-85965607D01*
X172314883Y-85981671D01*
X172295670Y-85995921D01*
X172275153Y-86008218D01*
X172253529Y-86018446D01*
X172231007Y-86026504D01*
X172207803Y-86032316D01*
X172184142Y-86035826D01*
X172160250Y-86037000D01*
X171247750Y-86037000D01*
X171223858Y-86035826D01*
X171200197Y-86032316D01*
X171176993Y-86026504D01*
X171154471Y-86018446D01*
X171132847Y-86008218D01*
X171112330Y-85995921D01*
X171093117Y-85981671D01*
X171075393Y-85965607D01*
X171059329Y-85947883D01*
X171045079Y-85928670D01*
X171032782Y-85908153D01*
X171022554Y-85886529D01*
X171014496Y-85864007D01*
X171008684Y-85840803D01*
X171005174Y-85817142D01*
X171004000Y-85793250D01*
X171004000Y-85305750D01*
X171005174Y-85281858D01*
X171008684Y-85258197D01*
X171014496Y-85234993D01*
X171022554Y-85212471D01*
X171032782Y-85190847D01*
X171045079Y-85170330D01*
X171059329Y-85151117D01*
X171075393Y-85133393D01*
X171093117Y-85117329D01*
X171112330Y-85103079D01*
X171132847Y-85090782D01*
X171154471Y-85080554D01*
X171176993Y-85072496D01*
X171200197Y-85066684D01*
X171223858Y-85063174D01*
X171247750Y-85062000D01*
X172160250Y-85062000D01*
X172184142Y-85063174D01*
X172184142Y-85063174D01*
G37*
D27*
X171704000Y-85549500D03*
D12*
G36*
X172184142Y-86938174D02*
G01*
X172207803Y-86941684D01*
X172231007Y-86947496D01*
X172253529Y-86955554D01*
X172275153Y-86965782D01*
X172295670Y-86978079D01*
X172314883Y-86992329D01*
X172332607Y-87008393D01*
X172348671Y-87026117D01*
X172362921Y-87045330D01*
X172375218Y-87065847D01*
X172385446Y-87087471D01*
X172393504Y-87109993D01*
X172399316Y-87133197D01*
X172402826Y-87156858D01*
X172404000Y-87180750D01*
X172404000Y-87668250D01*
X172402826Y-87692142D01*
X172399316Y-87715803D01*
X172393504Y-87739007D01*
X172385446Y-87761529D01*
X172375218Y-87783153D01*
X172362921Y-87803670D01*
X172348671Y-87822883D01*
X172332607Y-87840607D01*
X172314883Y-87856671D01*
X172295670Y-87870921D01*
X172275153Y-87883218D01*
X172253529Y-87893446D01*
X172231007Y-87901504D01*
X172207803Y-87907316D01*
X172184142Y-87910826D01*
X172160250Y-87912000D01*
X171247750Y-87912000D01*
X171223858Y-87910826D01*
X171200197Y-87907316D01*
X171176993Y-87901504D01*
X171154471Y-87893446D01*
X171132847Y-87883218D01*
X171112330Y-87870921D01*
X171093117Y-87856671D01*
X171075393Y-87840607D01*
X171059329Y-87822883D01*
X171045079Y-87803670D01*
X171032782Y-87783153D01*
X171022554Y-87761529D01*
X171014496Y-87739007D01*
X171008684Y-87715803D01*
X171005174Y-87692142D01*
X171004000Y-87668250D01*
X171004000Y-87180750D01*
X171005174Y-87156858D01*
X171008684Y-87133197D01*
X171014496Y-87109993D01*
X171022554Y-87087471D01*
X171032782Y-87065847D01*
X171045079Y-87045330D01*
X171059329Y-87026117D01*
X171075393Y-87008393D01*
X171093117Y-86992329D01*
X171112330Y-86978079D01*
X171132847Y-86965782D01*
X171154471Y-86955554D01*
X171176993Y-86947496D01*
X171200197Y-86941684D01*
X171223858Y-86938174D01*
X171247750Y-86937000D01*
X172160250Y-86937000D01*
X172184142Y-86938174D01*
X172184142Y-86938174D01*
G37*
D27*
X171704000Y-87424500D03*
D12*
G36*
X169644142Y-86859674D02*
G01*
X169667803Y-86863184D01*
X169691007Y-86868996D01*
X169713529Y-86877054D01*
X169735153Y-86887282D01*
X169755670Y-86899579D01*
X169774883Y-86913829D01*
X169792607Y-86929893D01*
X169808671Y-86947617D01*
X169822921Y-86966830D01*
X169835218Y-86987347D01*
X169845446Y-87008971D01*
X169853504Y-87031493D01*
X169859316Y-87054697D01*
X169862826Y-87078358D01*
X169864000Y-87102250D01*
X169864000Y-87589750D01*
X169862826Y-87613642D01*
X169859316Y-87637303D01*
X169853504Y-87660507D01*
X169845446Y-87683029D01*
X169835218Y-87704653D01*
X169822921Y-87725170D01*
X169808671Y-87744383D01*
X169792607Y-87762107D01*
X169774883Y-87778171D01*
X169755670Y-87792421D01*
X169735153Y-87804718D01*
X169713529Y-87814946D01*
X169691007Y-87823004D01*
X169667803Y-87828816D01*
X169644142Y-87832326D01*
X169620250Y-87833500D01*
X168707750Y-87833500D01*
X168683858Y-87832326D01*
X168660197Y-87828816D01*
X168636993Y-87823004D01*
X168614471Y-87814946D01*
X168592847Y-87804718D01*
X168572330Y-87792421D01*
X168553117Y-87778171D01*
X168535393Y-87762107D01*
X168519329Y-87744383D01*
X168505079Y-87725170D01*
X168492782Y-87704653D01*
X168482554Y-87683029D01*
X168474496Y-87660507D01*
X168468684Y-87637303D01*
X168465174Y-87613642D01*
X168464000Y-87589750D01*
X168464000Y-87102250D01*
X168465174Y-87078358D01*
X168468684Y-87054697D01*
X168474496Y-87031493D01*
X168482554Y-87008971D01*
X168492782Y-86987347D01*
X168505079Y-86966830D01*
X168519329Y-86947617D01*
X168535393Y-86929893D01*
X168553117Y-86913829D01*
X168572330Y-86899579D01*
X168592847Y-86887282D01*
X168614471Y-86877054D01*
X168636993Y-86868996D01*
X168660197Y-86863184D01*
X168683858Y-86859674D01*
X168707750Y-86858500D01*
X169620250Y-86858500D01*
X169644142Y-86859674D01*
X169644142Y-86859674D01*
G37*
D27*
X169164000Y-87346000D03*
D12*
G36*
X169644142Y-84984674D02*
G01*
X169667803Y-84988184D01*
X169691007Y-84993996D01*
X169713529Y-85002054D01*
X169735153Y-85012282D01*
X169755670Y-85024579D01*
X169774883Y-85038829D01*
X169792607Y-85054893D01*
X169808671Y-85072617D01*
X169822921Y-85091830D01*
X169835218Y-85112347D01*
X169845446Y-85133971D01*
X169853504Y-85156493D01*
X169859316Y-85179697D01*
X169862826Y-85203358D01*
X169864000Y-85227250D01*
X169864000Y-85714750D01*
X169862826Y-85738642D01*
X169859316Y-85762303D01*
X169853504Y-85785507D01*
X169845446Y-85808029D01*
X169835218Y-85829653D01*
X169822921Y-85850170D01*
X169808671Y-85869383D01*
X169792607Y-85887107D01*
X169774883Y-85903171D01*
X169755670Y-85917421D01*
X169735153Y-85929718D01*
X169713529Y-85939946D01*
X169691007Y-85948004D01*
X169667803Y-85953816D01*
X169644142Y-85957326D01*
X169620250Y-85958500D01*
X168707750Y-85958500D01*
X168683858Y-85957326D01*
X168660197Y-85953816D01*
X168636993Y-85948004D01*
X168614471Y-85939946D01*
X168592847Y-85929718D01*
X168572330Y-85917421D01*
X168553117Y-85903171D01*
X168535393Y-85887107D01*
X168519329Y-85869383D01*
X168505079Y-85850170D01*
X168492782Y-85829653D01*
X168482554Y-85808029D01*
X168474496Y-85785507D01*
X168468684Y-85762303D01*
X168465174Y-85738642D01*
X168464000Y-85714750D01*
X168464000Y-85227250D01*
X168465174Y-85203358D01*
X168468684Y-85179697D01*
X168474496Y-85156493D01*
X168482554Y-85133971D01*
X168492782Y-85112347D01*
X168505079Y-85091830D01*
X168519329Y-85072617D01*
X168535393Y-85054893D01*
X168553117Y-85038829D01*
X168572330Y-85024579D01*
X168592847Y-85012282D01*
X168614471Y-85002054D01*
X168636993Y-84993996D01*
X168660197Y-84988184D01*
X168683858Y-84984674D01*
X168707750Y-84983500D01*
X169620250Y-84983500D01*
X169644142Y-84984674D01*
X169644142Y-84984674D01*
G37*
D27*
X169164000Y-85471000D03*
D12*
G36*
X166850142Y-84984674D02*
G01*
X166873803Y-84988184D01*
X166897007Y-84993996D01*
X166919529Y-85002054D01*
X166941153Y-85012282D01*
X166961670Y-85024579D01*
X166980883Y-85038829D01*
X166998607Y-85054893D01*
X167014671Y-85072617D01*
X167028921Y-85091830D01*
X167041218Y-85112347D01*
X167051446Y-85133971D01*
X167059504Y-85156493D01*
X167065316Y-85179697D01*
X167068826Y-85203358D01*
X167070000Y-85227250D01*
X167070000Y-85714750D01*
X167068826Y-85738642D01*
X167065316Y-85762303D01*
X167059504Y-85785507D01*
X167051446Y-85808029D01*
X167041218Y-85829653D01*
X167028921Y-85850170D01*
X167014671Y-85869383D01*
X166998607Y-85887107D01*
X166980883Y-85903171D01*
X166961670Y-85917421D01*
X166941153Y-85929718D01*
X166919529Y-85939946D01*
X166897007Y-85948004D01*
X166873803Y-85953816D01*
X166850142Y-85957326D01*
X166826250Y-85958500D01*
X165913750Y-85958500D01*
X165889858Y-85957326D01*
X165866197Y-85953816D01*
X165842993Y-85948004D01*
X165820471Y-85939946D01*
X165798847Y-85929718D01*
X165778330Y-85917421D01*
X165759117Y-85903171D01*
X165741393Y-85887107D01*
X165725329Y-85869383D01*
X165711079Y-85850170D01*
X165698782Y-85829653D01*
X165688554Y-85808029D01*
X165680496Y-85785507D01*
X165674684Y-85762303D01*
X165671174Y-85738642D01*
X165670000Y-85714750D01*
X165670000Y-85227250D01*
X165671174Y-85203358D01*
X165674684Y-85179697D01*
X165680496Y-85156493D01*
X165688554Y-85133971D01*
X165698782Y-85112347D01*
X165711079Y-85091830D01*
X165725329Y-85072617D01*
X165741393Y-85054893D01*
X165759117Y-85038829D01*
X165778330Y-85024579D01*
X165798847Y-85012282D01*
X165820471Y-85002054D01*
X165842993Y-84993996D01*
X165866197Y-84988184D01*
X165889858Y-84984674D01*
X165913750Y-84983500D01*
X166826250Y-84983500D01*
X166850142Y-84984674D01*
X166850142Y-84984674D01*
G37*
D27*
X166370000Y-85471000D03*
D12*
G36*
X166850142Y-86859674D02*
G01*
X166873803Y-86863184D01*
X166897007Y-86868996D01*
X166919529Y-86877054D01*
X166941153Y-86887282D01*
X166961670Y-86899579D01*
X166980883Y-86913829D01*
X166998607Y-86929893D01*
X167014671Y-86947617D01*
X167028921Y-86966830D01*
X167041218Y-86987347D01*
X167051446Y-87008971D01*
X167059504Y-87031493D01*
X167065316Y-87054697D01*
X167068826Y-87078358D01*
X167070000Y-87102250D01*
X167070000Y-87589750D01*
X167068826Y-87613642D01*
X167065316Y-87637303D01*
X167059504Y-87660507D01*
X167051446Y-87683029D01*
X167041218Y-87704653D01*
X167028921Y-87725170D01*
X167014671Y-87744383D01*
X166998607Y-87762107D01*
X166980883Y-87778171D01*
X166961670Y-87792421D01*
X166941153Y-87804718D01*
X166919529Y-87814946D01*
X166897007Y-87823004D01*
X166873803Y-87828816D01*
X166850142Y-87832326D01*
X166826250Y-87833500D01*
X165913750Y-87833500D01*
X165889858Y-87832326D01*
X165866197Y-87828816D01*
X165842993Y-87823004D01*
X165820471Y-87814946D01*
X165798847Y-87804718D01*
X165778330Y-87792421D01*
X165759117Y-87778171D01*
X165741393Y-87762107D01*
X165725329Y-87744383D01*
X165711079Y-87725170D01*
X165698782Y-87704653D01*
X165688554Y-87683029D01*
X165680496Y-87660507D01*
X165674684Y-87637303D01*
X165671174Y-87613642D01*
X165670000Y-87589750D01*
X165670000Y-87102250D01*
X165671174Y-87078358D01*
X165674684Y-87054697D01*
X165680496Y-87031493D01*
X165688554Y-87008971D01*
X165698782Y-86987347D01*
X165711079Y-86966830D01*
X165725329Y-86947617D01*
X165741393Y-86929893D01*
X165759117Y-86913829D01*
X165778330Y-86899579D01*
X165798847Y-86887282D01*
X165820471Y-86877054D01*
X165842993Y-86868996D01*
X165866197Y-86863184D01*
X165889858Y-86859674D01*
X165913750Y-86858500D01*
X166826250Y-86858500D01*
X166850142Y-86859674D01*
X166850142Y-86859674D01*
G37*
D27*
X166370000Y-87346000D03*
D12*
G36*
X164056142Y-86859674D02*
G01*
X164079803Y-86863184D01*
X164103007Y-86868996D01*
X164125529Y-86877054D01*
X164147153Y-86887282D01*
X164167670Y-86899579D01*
X164186883Y-86913829D01*
X164204607Y-86929893D01*
X164220671Y-86947617D01*
X164234921Y-86966830D01*
X164247218Y-86987347D01*
X164257446Y-87008971D01*
X164265504Y-87031493D01*
X164271316Y-87054697D01*
X164274826Y-87078358D01*
X164276000Y-87102250D01*
X164276000Y-87589750D01*
X164274826Y-87613642D01*
X164271316Y-87637303D01*
X164265504Y-87660507D01*
X164257446Y-87683029D01*
X164247218Y-87704653D01*
X164234921Y-87725170D01*
X164220671Y-87744383D01*
X164204607Y-87762107D01*
X164186883Y-87778171D01*
X164167670Y-87792421D01*
X164147153Y-87804718D01*
X164125529Y-87814946D01*
X164103007Y-87823004D01*
X164079803Y-87828816D01*
X164056142Y-87832326D01*
X164032250Y-87833500D01*
X163119750Y-87833500D01*
X163095858Y-87832326D01*
X163072197Y-87828816D01*
X163048993Y-87823004D01*
X163026471Y-87814946D01*
X163004847Y-87804718D01*
X162984330Y-87792421D01*
X162965117Y-87778171D01*
X162947393Y-87762107D01*
X162931329Y-87744383D01*
X162917079Y-87725170D01*
X162904782Y-87704653D01*
X162894554Y-87683029D01*
X162886496Y-87660507D01*
X162880684Y-87637303D01*
X162877174Y-87613642D01*
X162876000Y-87589750D01*
X162876000Y-87102250D01*
X162877174Y-87078358D01*
X162880684Y-87054697D01*
X162886496Y-87031493D01*
X162894554Y-87008971D01*
X162904782Y-86987347D01*
X162917079Y-86966830D01*
X162931329Y-86947617D01*
X162947393Y-86929893D01*
X162965117Y-86913829D01*
X162984330Y-86899579D01*
X163004847Y-86887282D01*
X163026471Y-86877054D01*
X163048993Y-86868996D01*
X163072197Y-86863184D01*
X163095858Y-86859674D01*
X163119750Y-86858500D01*
X164032250Y-86858500D01*
X164056142Y-86859674D01*
X164056142Y-86859674D01*
G37*
D27*
X163576000Y-87346000D03*
D12*
G36*
X164056142Y-84984674D02*
G01*
X164079803Y-84988184D01*
X164103007Y-84993996D01*
X164125529Y-85002054D01*
X164147153Y-85012282D01*
X164167670Y-85024579D01*
X164186883Y-85038829D01*
X164204607Y-85054893D01*
X164220671Y-85072617D01*
X164234921Y-85091830D01*
X164247218Y-85112347D01*
X164257446Y-85133971D01*
X164265504Y-85156493D01*
X164271316Y-85179697D01*
X164274826Y-85203358D01*
X164276000Y-85227250D01*
X164276000Y-85714750D01*
X164274826Y-85738642D01*
X164271316Y-85762303D01*
X164265504Y-85785507D01*
X164257446Y-85808029D01*
X164247218Y-85829653D01*
X164234921Y-85850170D01*
X164220671Y-85869383D01*
X164204607Y-85887107D01*
X164186883Y-85903171D01*
X164167670Y-85917421D01*
X164147153Y-85929718D01*
X164125529Y-85939946D01*
X164103007Y-85948004D01*
X164079803Y-85953816D01*
X164056142Y-85957326D01*
X164032250Y-85958500D01*
X163119750Y-85958500D01*
X163095858Y-85957326D01*
X163072197Y-85953816D01*
X163048993Y-85948004D01*
X163026471Y-85939946D01*
X163004847Y-85929718D01*
X162984330Y-85917421D01*
X162965117Y-85903171D01*
X162947393Y-85887107D01*
X162931329Y-85869383D01*
X162917079Y-85850170D01*
X162904782Y-85829653D01*
X162894554Y-85808029D01*
X162886496Y-85785507D01*
X162880684Y-85762303D01*
X162877174Y-85738642D01*
X162876000Y-85714750D01*
X162876000Y-85227250D01*
X162877174Y-85203358D01*
X162880684Y-85179697D01*
X162886496Y-85156493D01*
X162894554Y-85133971D01*
X162904782Y-85112347D01*
X162917079Y-85091830D01*
X162931329Y-85072617D01*
X162947393Y-85054893D01*
X162965117Y-85038829D01*
X162984330Y-85024579D01*
X163004847Y-85012282D01*
X163026471Y-85002054D01*
X163048993Y-84993996D01*
X163072197Y-84988184D01*
X163095858Y-84984674D01*
X163119750Y-84983500D01*
X164032250Y-84983500D01*
X164056142Y-84984674D01*
X164056142Y-84984674D01*
G37*
D27*
X163576000Y-85471000D03*
D12*
G36*
X176368142Y-82740174D02*
G01*
X176391803Y-82743684D01*
X176415007Y-82749496D01*
X176437529Y-82757554D01*
X176459153Y-82767782D01*
X176479670Y-82780079D01*
X176498883Y-82794329D01*
X176516607Y-82810393D01*
X176532671Y-82828117D01*
X176546921Y-82847330D01*
X176559218Y-82867847D01*
X176569446Y-82889471D01*
X176577504Y-82911993D01*
X176583316Y-82935197D01*
X176586826Y-82958858D01*
X176588000Y-82982750D01*
X176588000Y-83895250D01*
X176586826Y-83919142D01*
X176583316Y-83942803D01*
X176577504Y-83966007D01*
X176569446Y-83988529D01*
X176559218Y-84010153D01*
X176546921Y-84030670D01*
X176532671Y-84049883D01*
X176516607Y-84067607D01*
X176498883Y-84083671D01*
X176479670Y-84097921D01*
X176459153Y-84110218D01*
X176437529Y-84120446D01*
X176415007Y-84128504D01*
X176391803Y-84134316D01*
X176368142Y-84137826D01*
X176344250Y-84139000D01*
X175856750Y-84139000D01*
X175832858Y-84137826D01*
X175809197Y-84134316D01*
X175785993Y-84128504D01*
X175763471Y-84120446D01*
X175741847Y-84110218D01*
X175721330Y-84097921D01*
X175702117Y-84083671D01*
X175684393Y-84067607D01*
X175668329Y-84049883D01*
X175654079Y-84030670D01*
X175641782Y-84010153D01*
X175631554Y-83988529D01*
X175623496Y-83966007D01*
X175617684Y-83942803D01*
X175614174Y-83919142D01*
X175613000Y-83895250D01*
X175613000Y-82982750D01*
X175614174Y-82958858D01*
X175617684Y-82935197D01*
X175623496Y-82911993D01*
X175631554Y-82889471D01*
X175641782Y-82867847D01*
X175654079Y-82847330D01*
X175668329Y-82828117D01*
X175684393Y-82810393D01*
X175702117Y-82794329D01*
X175721330Y-82780079D01*
X175741847Y-82767782D01*
X175763471Y-82757554D01*
X175785993Y-82749496D01*
X175809197Y-82743684D01*
X175832858Y-82740174D01*
X175856750Y-82739000D01*
X176344250Y-82739000D01*
X176368142Y-82740174D01*
X176368142Y-82740174D01*
G37*
D27*
X176100500Y-83439000D03*
D12*
G36*
X178243142Y-82740174D02*
G01*
X178266803Y-82743684D01*
X178290007Y-82749496D01*
X178312529Y-82757554D01*
X178334153Y-82767782D01*
X178354670Y-82780079D01*
X178373883Y-82794329D01*
X178391607Y-82810393D01*
X178407671Y-82828117D01*
X178421921Y-82847330D01*
X178434218Y-82867847D01*
X178444446Y-82889471D01*
X178452504Y-82911993D01*
X178458316Y-82935197D01*
X178461826Y-82958858D01*
X178463000Y-82982750D01*
X178463000Y-83895250D01*
X178461826Y-83919142D01*
X178458316Y-83942803D01*
X178452504Y-83966007D01*
X178444446Y-83988529D01*
X178434218Y-84010153D01*
X178421921Y-84030670D01*
X178407671Y-84049883D01*
X178391607Y-84067607D01*
X178373883Y-84083671D01*
X178354670Y-84097921D01*
X178334153Y-84110218D01*
X178312529Y-84120446D01*
X178290007Y-84128504D01*
X178266803Y-84134316D01*
X178243142Y-84137826D01*
X178219250Y-84139000D01*
X177731750Y-84139000D01*
X177707858Y-84137826D01*
X177684197Y-84134316D01*
X177660993Y-84128504D01*
X177638471Y-84120446D01*
X177616847Y-84110218D01*
X177596330Y-84097921D01*
X177577117Y-84083671D01*
X177559393Y-84067607D01*
X177543329Y-84049883D01*
X177529079Y-84030670D01*
X177516782Y-84010153D01*
X177506554Y-83988529D01*
X177498496Y-83966007D01*
X177492684Y-83942803D01*
X177489174Y-83919142D01*
X177488000Y-83895250D01*
X177488000Y-82982750D01*
X177489174Y-82958858D01*
X177492684Y-82935197D01*
X177498496Y-82911993D01*
X177506554Y-82889471D01*
X177516782Y-82867847D01*
X177529079Y-82847330D01*
X177543329Y-82828117D01*
X177559393Y-82810393D01*
X177577117Y-82794329D01*
X177596330Y-82780079D01*
X177616847Y-82767782D01*
X177638471Y-82757554D01*
X177660993Y-82749496D01*
X177684197Y-82743684D01*
X177707858Y-82740174D01*
X177731750Y-82739000D01*
X178219250Y-82739000D01*
X178243142Y-82740174D01*
X178243142Y-82740174D01*
G37*
D27*
X177975500Y-83439000D03*
D12*
G36*
X169002142Y-97091174D02*
G01*
X169025803Y-97094684D01*
X169049007Y-97100496D01*
X169071529Y-97108554D01*
X169093153Y-97118782D01*
X169113670Y-97131079D01*
X169132883Y-97145329D01*
X169150607Y-97161393D01*
X169166671Y-97179117D01*
X169180921Y-97198330D01*
X169193218Y-97218847D01*
X169203446Y-97240471D01*
X169211504Y-97262993D01*
X169217316Y-97286197D01*
X169220826Y-97309858D01*
X169222000Y-97333750D01*
X169222000Y-98246250D01*
X169220826Y-98270142D01*
X169217316Y-98293803D01*
X169211504Y-98317007D01*
X169203446Y-98339529D01*
X169193218Y-98361153D01*
X169180921Y-98381670D01*
X169166671Y-98400883D01*
X169150607Y-98418607D01*
X169132883Y-98434671D01*
X169113670Y-98448921D01*
X169093153Y-98461218D01*
X169071529Y-98471446D01*
X169049007Y-98479504D01*
X169025803Y-98485316D01*
X169002142Y-98488826D01*
X168978250Y-98490000D01*
X168490750Y-98490000D01*
X168466858Y-98488826D01*
X168443197Y-98485316D01*
X168419993Y-98479504D01*
X168397471Y-98471446D01*
X168375847Y-98461218D01*
X168355330Y-98448921D01*
X168336117Y-98434671D01*
X168318393Y-98418607D01*
X168302329Y-98400883D01*
X168288079Y-98381670D01*
X168275782Y-98361153D01*
X168265554Y-98339529D01*
X168257496Y-98317007D01*
X168251684Y-98293803D01*
X168248174Y-98270142D01*
X168247000Y-98246250D01*
X168247000Y-97333750D01*
X168248174Y-97309858D01*
X168251684Y-97286197D01*
X168257496Y-97262993D01*
X168265554Y-97240471D01*
X168275782Y-97218847D01*
X168288079Y-97198330D01*
X168302329Y-97179117D01*
X168318393Y-97161393D01*
X168336117Y-97145329D01*
X168355330Y-97131079D01*
X168375847Y-97118782D01*
X168397471Y-97108554D01*
X168419993Y-97100496D01*
X168443197Y-97094684D01*
X168466858Y-97091174D01*
X168490750Y-97090000D01*
X168978250Y-97090000D01*
X169002142Y-97091174D01*
X169002142Y-97091174D01*
G37*
D27*
X168734500Y-97790000D03*
D12*
G36*
X170877142Y-97091174D02*
G01*
X170900803Y-97094684D01*
X170924007Y-97100496D01*
X170946529Y-97108554D01*
X170968153Y-97118782D01*
X170988670Y-97131079D01*
X171007883Y-97145329D01*
X171025607Y-97161393D01*
X171041671Y-97179117D01*
X171055921Y-97198330D01*
X171068218Y-97218847D01*
X171078446Y-97240471D01*
X171086504Y-97262993D01*
X171092316Y-97286197D01*
X171095826Y-97309858D01*
X171097000Y-97333750D01*
X171097000Y-98246250D01*
X171095826Y-98270142D01*
X171092316Y-98293803D01*
X171086504Y-98317007D01*
X171078446Y-98339529D01*
X171068218Y-98361153D01*
X171055921Y-98381670D01*
X171041671Y-98400883D01*
X171025607Y-98418607D01*
X171007883Y-98434671D01*
X170988670Y-98448921D01*
X170968153Y-98461218D01*
X170946529Y-98471446D01*
X170924007Y-98479504D01*
X170900803Y-98485316D01*
X170877142Y-98488826D01*
X170853250Y-98490000D01*
X170365750Y-98490000D01*
X170341858Y-98488826D01*
X170318197Y-98485316D01*
X170294993Y-98479504D01*
X170272471Y-98471446D01*
X170250847Y-98461218D01*
X170230330Y-98448921D01*
X170211117Y-98434671D01*
X170193393Y-98418607D01*
X170177329Y-98400883D01*
X170163079Y-98381670D01*
X170150782Y-98361153D01*
X170140554Y-98339529D01*
X170132496Y-98317007D01*
X170126684Y-98293803D01*
X170123174Y-98270142D01*
X170122000Y-98246250D01*
X170122000Y-97333750D01*
X170123174Y-97309858D01*
X170126684Y-97286197D01*
X170132496Y-97262993D01*
X170140554Y-97240471D01*
X170150782Y-97218847D01*
X170163079Y-97198330D01*
X170177329Y-97179117D01*
X170193393Y-97161393D01*
X170211117Y-97145329D01*
X170230330Y-97131079D01*
X170250847Y-97118782D01*
X170272471Y-97108554D01*
X170294993Y-97100496D01*
X170318197Y-97094684D01*
X170341858Y-97091174D01*
X170365750Y-97090000D01*
X170853250Y-97090000D01*
X170877142Y-97091174D01*
X170877142Y-97091174D01*
G37*
D27*
X170609500Y-97790000D03*
D12*
G36*
X128792142Y-122110174D02*
G01*
X128815803Y-122113684D01*
X128839007Y-122119496D01*
X128861529Y-122127554D01*
X128883153Y-122137782D01*
X128903670Y-122150079D01*
X128922883Y-122164329D01*
X128940607Y-122180393D01*
X128956671Y-122198117D01*
X128970921Y-122217330D01*
X128983218Y-122237847D01*
X128993446Y-122259471D01*
X129001504Y-122281993D01*
X129007316Y-122305197D01*
X129010826Y-122328858D01*
X129012000Y-122352750D01*
X129012000Y-123265250D01*
X129010826Y-123289142D01*
X129007316Y-123312803D01*
X129001504Y-123336007D01*
X128993446Y-123358529D01*
X128983218Y-123380153D01*
X128970921Y-123400670D01*
X128956671Y-123419883D01*
X128940607Y-123437607D01*
X128922883Y-123453671D01*
X128903670Y-123467921D01*
X128883153Y-123480218D01*
X128861529Y-123490446D01*
X128839007Y-123498504D01*
X128815803Y-123504316D01*
X128792142Y-123507826D01*
X128768250Y-123509000D01*
X128280750Y-123509000D01*
X128256858Y-123507826D01*
X128233197Y-123504316D01*
X128209993Y-123498504D01*
X128187471Y-123490446D01*
X128165847Y-123480218D01*
X128145330Y-123467921D01*
X128126117Y-123453671D01*
X128108393Y-123437607D01*
X128092329Y-123419883D01*
X128078079Y-123400670D01*
X128065782Y-123380153D01*
X128055554Y-123358529D01*
X128047496Y-123336007D01*
X128041684Y-123312803D01*
X128038174Y-123289142D01*
X128037000Y-123265250D01*
X128037000Y-122352750D01*
X128038174Y-122328858D01*
X128041684Y-122305197D01*
X128047496Y-122281993D01*
X128055554Y-122259471D01*
X128065782Y-122237847D01*
X128078079Y-122217330D01*
X128092329Y-122198117D01*
X128108393Y-122180393D01*
X128126117Y-122164329D01*
X128145330Y-122150079D01*
X128165847Y-122137782D01*
X128187471Y-122127554D01*
X128209993Y-122119496D01*
X128233197Y-122113684D01*
X128256858Y-122110174D01*
X128280750Y-122109000D01*
X128768250Y-122109000D01*
X128792142Y-122110174D01*
X128792142Y-122110174D01*
G37*
D27*
X128524500Y-122809000D03*
D12*
G36*
X130667142Y-122110174D02*
G01*
X130690803Y-122113684D01*
X130714007Y-122119496D01*
X130736529Y-122127554D01*
X130758153Y-122137782D01*
X130778670Y-122150079D01*
X130797883Y-122164329D01*
X130815607Y-122180393D01*
X130831671Y-122198117D01*
X130845921Y-122217330D01*
X130858218Y-122237847D01*
X130868446Y-122259471D01*
X130876504Y-122281993D01*
X130882316Y-122305197D01*
X130885826Y-122328858D01*
X130887000Y-122352750D01*
X130887000Y-123265250D01*
X130885826Y-123289142D01*
X130882316Y-123312803D01*
X130876504Y-123336007D01*
X130868446Y-123358529D01*
X130858218Y-123380153D01*
X130845921Y-123400670D01*
X130831671Y-123419883D01*
X130815607Y-123437607D01*
X130797883Y-123453671D01*
X130778670Y-123467921D01*
X130758153Y-123480218D01*
X130736529Y-123490446D01*
X130714007Y-123498504D01*
X130690803Y-123504316D01*
X130667142Y-123507826D01*
X130643250Y-123509000D01*
X130155750Y-123509000D01*
X130131858Y-123507826D01*
X130108197Y-123504316D01*
X130084993Y-123498504D01*
X130062471Y-123490446D01*
X130040847Y-123480218D01*
X130020330Y-123467921D01*
X130001117Y-123453671D01*
X129983393Y-123437607D01*
X129967329Y-123419883D01*
X129953079Y-123400670D01*
X129940782Y-123380153D01*
X129930554Y-123358529D01*
X129922496Y-123336007D01*
X129916684Y-123312803D01*
X129913174Y-123289142D01*
X129912000Y-123265250D01*
X129912000Y-122352750D01*
X129913174Y-122328858D01*
X129916684Y-122305197D01*
X129922496Y-122281993D01*
X129930554Y-122259471D01*
X129940782Y-122237847D01*
X129953079Y-122217330D01*
X129967329Y-122198117D01*
X129983393Y-122180393D01*
X130001117Y-122164329D01*
X130020330Y-122150079D01*
X130040847Y-122137782D01*
X130062471Y-122127554D01*
X130084993Y-122119496D01*
X130108197Y-122113684D01*
X130131858Y-122110174D01*
X130155750Y-122109000D01*
X130643250Y-122109000D01*
X130667142Y-122110174D01*
X130667142Y-122110174D01*
G37*
D27*
X130399500Y-122809000D03*
D12*
G36*
X112946142Y-84264174D02*
G01*
X112969803Y-84267684D01*
X112993007Y-84273496D01*
X113015529Y-84281554D01*
X113037153Y-84291782D01*
X113057670Y-84304079D01*
X113076883Y-84318329D01*
X113094607Y-84334393D01*
X113110671Y-84352117D01*
X113124921Y-84371330D01*
X113137218Y-84391847D01*
X113147446Y-84413471D01*
X113155504Y-84435993D01*
X113161316Y-84459197D01*
X113164826Y-84482858D01*
X113166000Y-84506750D01*
X113166000Y-85419250D01*
X113164826Y-85443142D01*
X113161316Y-85466803D01*
X113155504Y-85490007D01*
X113147446Y-85512529D01*
X113137218Y-85534153D01*
X113124921Y-85554670D01*
X113110671Y-85573883D01*
X113094607Y-85591607D01*
X113076883Y-85607671D01*
X113057670Y-85621921D01*
X113037153Y-85634218D01*
X113015529Y-85644446D01*
X112993007Y-85652504D01*
X112969803Y-85658316D01*
X112946142Y-85661826D01*
X112922250Y-85663000D01*
X112434750Y-85663000D01*
X112410858Y-85661826D01*
X112387197Y-85658316D01*
X112363993Y-85652504D01*
X112341471Y-85644446D01*
X112319847Y-85634218D01*
X112299330Y-85621921D01*
X112280117Y-85607671D01*
X112262393Y-85591607D01*
X112246329Y-85573883D01*
X112232079Y-85554670D01*
X112219782Y-85534153D01*
X112209554Y-85512529D01*
X112201496Y-85490007D01*
X112195684Y-85466803D01*
X112192174Y-85443142D01*
X112191000Y-85419250D01*
X112191000Y-84506750D01*
X112192174Y-84482858D01*
X112195684Y-84459197D01*
X112201496Y-84435993D01*
X112209554Y-84413471D01*
X112219782Y-84391847D01*
X112232079Y-84371330D01*
X112246329Y-84352117D01*
X112262393Y-84334393D01*
X112280117Y-84318329D01*
X112299330Y-84304079D01*
X112319847Y-84291782D01*
X112341471Y-84281554D01*
X112363993Y-84273496D01*
X112387197Y-84267684D01*
X112410858Y-84264174D01*
X112434750Y-84263000D01*
X112922250Y-84263000D01*
X112946142Y-84264174D01*
X112946142Y-84264174D01*
G37*
D27*
X112678500Y-84963000D03*
D12*
G36*
X114821142Y-84264174D02*
G01*
X114844803Y-84267684D01*
X114868007Y-84273496D01*
X114890529Y-84281554D01*
X114912153Y-84291782D01*
X114932670Y-84304079D01*
X114951883Y-84318329D01*
X114969607Y-84334393D01*
X114985671Y-84352117D01*
X114999921Y-84371330D01*
X115012218Y-84391847D01*
X115022446Y-84413471D01*
X115030504Y-84435993D01*
X115036316Y-84459197D01*
X115039826Y-84482858D01*
X115041000Y-84506750D01*
X115041000Y-85419250D01*
X115039826Y-85443142D01*
X115036316Y-85466803D01*
X115030504Y-85490007D01*
X115022446Y-85512529D01*
X115012218Y-85534153D01*
X114999921Y-85554670D01*
X114985671Y-85573883D01*
X114969607Y-85591607D01*
X114951883Y-85607671D01*
X114932670Y-85621921D01*
X114912153Y-85634218D01*
X114890529Y-85644446D01*
X114868007Y-85652504D01*
X114844803Y-85658316D01*
X114821142Y-85661826D01*
X114797250Y-85663000D01*
X114309750Y-85663000D01*
X114285858Y-85661826D01*
X114262197Y-85658316D01*
X114238993Y-85652504D01*
X114216471Y-85644446D01*
X114194847Y-85634218D01*
X114174330Y-85621921D01*
X114155117Y-85607671D01*
X114137393Y-85591607D01*
X114121329Y-85573883D01*
X114107079Y-85554670D01*
X114094782Y-85534153D01*
X114084554Y-85512529D01*
X114076496Y-85490007D01*
X114070684Y-85466803D01*
X114067174Y-85443142D01*
X114066000Y-85419250D01*
X114066000Y-84506750D01*
X114067174Y-84482858D01*
X114070684Y-84459197D01*
X114076496Y-84435993D01*
X114084554Y-84413471D01*
X114094782Y-84391847D01*
X114107079Y-84371330D01*
X114121329Y-84352117D01*
X114137393Y-84334393D01*
X114155117Y-84318329D01*
X114174330Y-84304079D01*
X114194847Y-84291782D01*
X114216471Y-84281554D01*
X114238993Y-84273496D01*
X114262197Y-84267684D01*
X114285858Y-84264174D01*
X114309750Y-84263000D01*
X114797250Y-84263000D01*
X114821142Y-84264174D01*
X114821142Y-84264174D01*
G37*
D27*
X114553500Y-84963000D03*
D12*
G36*
X114489142Y-100139174D02*
G01*
X114512803Y-100142684D01*
X114536007Y-100148496D01*
X114558529Y-100156554D01*
X114580153Y-100166782D01*
X114600670Y-100179079D01*
X114619883Y-100193329D01*
X114637607Y-100209393D01*
X114653671Y-100227117D01*
X114667921Y-100246330D01*
X114680218Y-100266847D01*
X114690446Y-100288471D01*
X114698504Y-100310993D01*
X114704316Y-100334197D01*
X114707826Y-100357858D01*
X114709000Y-100381750D01*
X114709000Y-101294250D01*
X114707826Y-101318142D01*
X114704316Y-101341803D01*
X114698504Y-101365007D01*
X114690446Y-101387529D01*
X114680218Y-101409153D01*
X114667921Y-101429670D01*
X114653671Y-101448883D01*
X114637607Y-101466607D01*
X114619883Y-101482671D01*
X114600670Y-101496921D01*
X114580153Y-101509218D01*
X114558529Y-101519446D01*
X114536007Y-101527504D01*
X114512803Y-101533316D01*
X114489142Y-101536826D01*
X114465250Y-101538000D01*
X113977750Y-101538000D01*
X113953858Y-101536826D01*
X113930197Y-101533316D01*
X113906993Y-101527504D01*
X113884471Y-101519446D01*
X113862847Y-101509218D01*
X113842330Y-101496921D01*
X113823117Y-101482671D01*
X113805393Y-101466607D01*
X113789329Y-101448883D01*
X113775079Y-101429670D01*
X113762782Y-101409153D01*
X113752554Y-101387529D01*
X113744496Y-101365007D01*
X113738684Y-101341803D01*
X113735174Y-101318142D01*
X113734000Y-101294250D01*
X113734000Y-100381750D01*
X113735174Y-100357858D01*
X113738684Y-100334197D01*
X113744496Y-100310993D01*
X113752554Y-100288471D01*
X113762782Y-100266847D01*
X113775079Y-100246330D01*
X113789329Y-100227117D01*
X113805393Y-100209393D01*
X113823117Y-100193329D01*
X113842330Y-100179079D01*
X113862847Y-100166782D01*
X113884471Y-100156554D01*
X113906993Y-100148496D01*
X113930197Y-100142684D01*
X113953858Y-100139174D01*
X113977750Y-100138000D01*
X114465250Y-100138000D01*
X114489142Y-100139174D01*
X114489142Y-100139174D01*
G37*
D27*
X114221500Y-100838000D03*
D12*
G36*
X112614142Y-100139174D02*
G01*
X112637803Y-100142684D01*
X112661007Y-100148496D01*
X112683529Y-100156554D01*
X112705153Y-100166782D01*
X112725670Y-100179079D01*
X112744883Y-100193329D01*
X112762607Y-100209393D01*
X112778671Y-100227117D01*
X112792921Y-100246330D01*
X112805218Y-100266847D01*
X112815446Y-100288471D01*
X112823504Y-100310993D01*
X112829316Y-100334197D01*
X112832826Y-100357858D01*
X112834000Y-100381750D01*
X112834000Y-101294250D01*
X112832826Y-101318142D01*
X112829316Y-101341803D01*
X112823504Y-101365007D01*
X112815446Y-101387529D01*
X112805218Y-101409153D01*
X112792921Y-101429670D01*
X112778671Y-101448883D01*
X112762607Y-101466607D01*
X112744883Y-101482671D01*
X112725670Y-101496921D01*
X112705153Y-101509218D01*
X112683529Y-101519446D01*
X112661007Y-101527504D01*
X112637803Y-101533316D01*
X112614142Y-101536826D01*
X112590250Y-101538000D01*
X112102750Y-101538000D01*
X112078858Y-101536826D01*
X112055197Y-101533316D01*
X112031993Y-101527504D01*
X112009471Y-101519446D01*
X111987847Y-101509218D01*
X111967330Y-101496921D01*
X111948117Y-101482671D01*
X111930393Y-101466607D01*
X111914329Y-101448883D01*
X111900079Y-101429670D01*
X111887782Y-101409153D01*
X111877554Y-101387529D01*
X111869496Y-101365007D01*
X111863684Y-101341803D01*
X111860174Y-101318142D01*
X111859000Y-101294250D01*
X111859000Y-100381750D01*
X111860174Y-100357858D01*
X111863684Y-100334197D01*
X111869496Y-100310993D01*
X111877554Y-100288471D01*
X111887782Y-100266847D01*
X111900079Y-100246330D01*
X111914329Y-100227117D01*
X111930393Y-100209393D01*
X111948117Y-100193329D01*
X111967330Y-100179079D01*
X111987847Y-100166782D01*
X112009471Y-100156554D01*
X112031993Y-100148496D01*
X112055197Y-100142684D01*
X112078858Y-100139174D01*
X112102750Y-100138000D01*
X112590250Y-100138000D01*
X112614142Y-100139174D01*
X112614142Y-100139174D01*
G37*
D27*
X112346500Y-100838000D03*
D12*
G36*
X114489142Y-103568174D02*
G01*
X114512803Y-103571684D01*
X114536007Y-103577496D01*
X114558529Y-103585554D01*
X114580153Y-103595782D01*
X114600670Y-103608079D01*
X114619883Y-103622329D01*
X114637607Y-103638393D01*
X114653671Y-103656117D01*
X114667921Y-103675330D01*
X114680218Y-103695847D01*
X114690446Y-103717471D01*
X114698504Y-103739993D01*
X114704316Y-103763197D01*
X114707826Y-103786858D01*
X114709000Y-103810750D01*
X114709000Y-104723250D01*
X114707826Y-104747142D01*
X114704316Y-104770803D01*
X114698504Y-104794007D01*
X114690446Y-104816529D01*
X114680218Y-104838153D01*
X114667921Y-104858670D01*
X114653671Y-104877883D01*
X114637607Y-104895607D01*
X114619883Y-104911671D01*
X114600670Y-104925921D01*
X114580153Y-104938218D01*
X114558529Y-104948446D01*
X114536007Y-104956504D01*
X114512803Y-104962316D01*
X114489142Y-104965826D01*
X114465250Y-104967000D01*
X113977750Y-104967000D01*
X113953858Y-104965826D01*
X113930197Y-104962316D01*
X113906993Y-104956504D01*
X113884471Y-104948446D01*
X113862847Y-104938218D01*
X113842330Y-104925921D01*
X113823117Y-104911671D01*
X113805393Y-104895607D01*
X113789329Y-104877883D01*
X113775079Y-104858670D01*
X113762782Y-104838153D01*
X113752554Y-104816529D01*
X113744496Y-104794007D01*
X113738684Y-104770803D01*
X113735174Y-104747142D01*
X113734000Y-104723250D01*
X113734000Y-103810750D01*
X113735174Y-103786858D01*
X113738684Y-103763197D01*
X113744496Y-103739993D01*
X113752554Y-103717471D01*
X113762782Y-103695847D01*
X113775079Y-103675330D01*
X113789329Y-103656117D01*
X113805393Y-103638393D01*
X113823117Y-103622329D01*
X113842330Y-103608079D01*
X113862847Y-103595782D01*
X113884471Y-103585554D01*
X113906993Y-103577496D01*
X113930197Y-103571684D01*
X113953858Y-103568174D01*
X113977750Y-103567000D01*
X114465250Y-103567000D01*
X114489142Y-103568174D01*
X114489142Y-103568174D01*
G37*
D27*
X114221500Y-104267000D03*
D12*
G36*
X112614142Y-103568174D02*
G01*
X112637803Y-103571684D01*
X112661007Y-103577496D01*
X112683529Y-103585554D01*
X112705153Y-103595782D01*
X112725670Y-103608079D01*
X112744883Y-103622329D01*
X112762607Y-103638393D01*
X112778671Y-103656117D01*
X112792921Y-103675330D01*
X112805218Y-103695847D01*
X112815446Y-103717471D01*
X112823504Y-103739993D01*
X112829316Y-103763197D01*
X112832826Y-103786858D01*
X112834000Y-103810750D01*
X112834000Y-104723250D01*
X112832826Y-104747142D01*
X112829316Y-104770803D01*
X112823504Y-104794007D01*
X112815446Y-104816529D01*
X112805218Y-104838153D01*
X112792921Y-104858670D01*
X112778671Y-104877883D01*
X112762607Y-104895607D01*
X112744883Y-104911671D01*
X112725670Y-104925921D01*
X112705153Y-104938218D01*
X112683529Y-104948446D01*
X112661007Y-104956504D01*
X112637803Y-104962316D01*
X112614142Y-104965826D01*
X112590250Y-104967000D01*
X112102750Y-104967000D01*
X112078858Y-104965826D01*
X112055197Y-104962316D01*
X112031993Y-104956504D01*
X112009471Y-104948446D01*
X111987847Y-104938218D01*
X111967330Y-104925921D01*
X111948117Y-104911671D01*
X111930393Y-104895607D01*
X111914329Y-104877883D01*
X111900079Y-104858670D01*
X111887782Y-104838153D01*
X111877554Y-104816529D01*
X111869496Y-104794007D01*
X111863684Y-104770803D01*
X111860174Y-104747142D01*
X111859000Y-104723250D01*
X111859000Y-103810750D01*
X111860174Y-103786858D01*
X111863684Y-103763197D01*
X111869496Y-103739993D01*
X111877554Y-103717471D01*
X111887782Y-103695847D01*
X111900079Y-103675330D01*
X111914329Y-103656117D01*
X111930393Y-103638393D01*
X111948117Y-103622329D01*
X111967330Y-103608079D01*
X111987847Y-103595782D01*
X112009471Y-103585554D01*
X112031993Y-103577496D01*
X112055197Y-103571684D01*
X112078858Y-103568174D01*
X112102750Y-103567000D01*
X112590250Y-103567000D01*
X112614142Y-103568174D01*
X112614142Y-103568174D01*
G37*
D27*
X112346500Y-104267000D03*
D28*
X198247000Y-89283000D03*
X199517000Y-89283000D03*
X200787000Y-89283000D03*
X202057000Y-89283000D03*
X203327000Y-89283000D03*
X204597000Y-89283000D03*
X205867000Y-89283000D03*
X207137000Y-89283000D03*
X207137000Y-83183000D03*
X205867000Y-83183000D03*
X204597000Y-83183000D03*
X203327000Y-83183000D03*
X202057000Y-83183000D03*
X200787000Y-83183000D03*
X199517000Y-83183000D03*
X198247000Y-83183000D03*
D29*
X194754000Y-120523000D03*
X186754000Y-120523000D03*
D30*
X114938000Y-91805000D03*
X114938000Y-91305000D03*
X114938000Y-90805000D03*
X114938000Y-90305000D03*
X114938000Y-89805000D03*
X112138000Y-89805000D03*
X112138000Y-90305000D03*
X112138000Y-90805000D03*
X112138000Y-91305000D03*
X112138000Y-91805000D03*
D31*
X113538000Y-90805000D03*
D12*
G36*
X113663000Y-92005000D02*
G01*
X113413000Y-92005000D01*
X113413000Y-92505000D01*
X113163000Y-92505000D01*
X113163000Y-92005000D01*
X112713000Y-92005000D01*
X112713000Y-89605000D01*
X113163000Y-89605000D01*
X113163000Y-89105000D01*
X113413000Y-89105000D01*
X113413000Y-89605000D01*
X113663000Y-89605000D01*
X113663000Y-89105000D01*
X113913000Y-89105000D01*
X113913000Y-89605000D01*
X114363000Y-89605000D01*
X114363000Y-92005000D01*
X113913000Y-92005000D01*
X113913000Y-92505000D01*
X113663000Y-92505000D01*
X113663000Y-92005000D01*
X113663000Y-92005000D01*
G37*
D32*
X209720000Y-76647000D03*
X209720000Y-78547000D03*
X211920000Y-77597000D03*
D33*
X193577000Y-112365000D03*
X191677000Y-112365000D03*
D12*
G36*
X207236142Y-78048174D02*
G01*
X207259803Y-78051684D01*
X207283007Y-78057496D01*
X207305529Y-78065554D01*
X207327153Y-78075782D01*
X207347670Y-78088079D01*
X207366883Y-78102329D01*
X207384607Y-78118393D01*
X207400671Y-78136117D01*
X207414921Y-78155330D01*
X207427218Y-78175847D01*
X207437446Y-78197471D01*
X207445504Y-78219993D01*
X207451316Y-78243197D01*
X207454826Y-78266858D01*
X207456000Y-78290750D01*
X207456000Y-78778250D01*
X207454826Y-78802142D01*
X207451316Y-78825803D01*
X207445504Y-78849007D01*
X207437446Y-78871529D01*
X207427218Y-78893153D01*
X207414921Y-78913670D01*
X207400671Y-78932883D01*
X207384607Y-78950607D01*
X207366883Y-78966671D01*
X207347670Y-78980921D01*
X207327153Y-78993218D01*
X207305529Y-79003446D01*
X207283007Y-79011504D01*
X207259803Y-79017316D01*
X207236142Y-79020826D01*
X207212250Y-79022000D01*
X206299750Y-79022000D01*
X206275858Y-79020826D01*
X206252197Y-79017316D01*
X206228993Y-79011504D01*
X206206471Y-79003446D01*
X206184847Y-78993218D01*
X206164330Y-78980921D01*
X206145117Y-78966671D01*
X206127393Y-78950607D01*
X206111329Y-78932883D01*
X206097079Y-78913670D01*
X206084782Y-78893153D01*
X206074554Y-78871529D01*
X206066496Y-78849007D01*
X206060684Y-78825803D01*
X206057174Y-78802142D01*
X206056000Y-78778250D01*
X206056000Y-78290750D01*
X206057174Y-78266858D01*
X206060684Y-78243197D01*
X206066496Y-78219993D01*
X206074554Y-78197471D01*
X206084782Y-78175847D01*
X206097079Y-78155330D01*
X206111329Y-78136117D01*
X206127393Y-78118393D01*
X206145117Y-78102329D01*
X206164330Y-78088079D01*
X206184847Y-78075782D01*
X206206471Y-78065554D01*
X206228993Y-78057496D01*
X206252197Y-78051684D01*
X206275858Y-78048174D01*
X206299750Y-78047000D01*
X207212250Y-78047000D01*
X207236142Y-78048174D01*
X207236142Y-78048174D01*
G37*
D27*
X206756000Y-78534500D03*
D12*
G36*
X207236142Y-76173174D02*
G01*
X207259803Y-76176684D01*
X207283007Y-76182496D01*
X207305529Y-76190554D01*
X207327153Y-76200782D01*
X207347670Y-76213079D01*
X207366883Y-76227329D01*
X207384607Y-76243393D01*
X207400671Y-76261117D01*
X207414921Y-76280330D01*
X207427218Y-76300847D01*
X207437446Y-76322471D01*
X207445504Y-76344993D01*
X207451316Y-76368197D01*
X207454826Y-76391858D01*
X207456000Y-76415750D01*
X207456000Y-76903250D01*
X207454826Y-76927142D01*
X207451316Y-76950803D01*
X207445504Y-76974007D01*
X207437446Y-76996529D01*
X207427218Y-77018153D01*
X207414921Y-77038670D01*
X207400671Y-77057883D01*
X207384607Y-77075607D01*
X207366883Y-77091671D01*
X207347670Y-77105921D01*
X207327153Y-77118218D01*
X207305529Y-77128446D01*
X207283007Y-77136504D01*
X207259803Y-77142316D01*
X207236142Y-77145826D01*
X207212250Y-77147000D01*
X206299750Y-77147000D01*
X206275858Y-77145826D01*
X206252197Y-77142316D01*
X206228993Y-77136504D01*
X206206471Y-77128446D01*
X206184847Y-77118218D01*
X206164330Y-77105921D01*
X206145117Y-77091671D01*
X206127393Y-77075607D01*
X206111329Y-77057883D01*
X206097079Y-77038670D01*
X206084782Y-77018153D01*
X206074554Y-76996529D01*
X206066496Y-76974007D01*
X206060684Y-76950803D01*
X206057174Y-76927142D01*
X206056000Y-76903250D01*
X206056000Y-76415750D01*
X206057174Y-76391858D01*
X206060684Y-76368197D01*
X206066496Y-76344993D01*
X206074554Y-76322471D01*
X206084782Y-76300847D01*
X206097079Y-76280330D01*
X206111329Y-76261117D01*
X206127393Y-76243393D01*
X206145117Y-76227329D01*
X206164330Y-76213079D01*
X206184847Y-76200782D01*
X206206471Y-76190554D01*
X206228993Y-76182496D01*
X206252197Y-76176684D01*
X206275858Y-76173174D01*
X206299750Y-76172000D01*
X207212250Y-76172000D01*
X207236142Y-76173174D01*
X207236142Y-76173174D01*
G37*
D27*
X206756000Y-76659500D03*
D12*
G36*
X189927142Y-111823174D02*
G01*
X189950803Y-111826684D01*
X189974007Y-111832496D01*
X189996529Y-111840554D01*
X190018153Y-111850782D01*
X190038670Y-111863079D01*
X190057883Y-111877329D01*
X190075607Y-111893393D01*
X190091671Y-111911117D01*
X190105921Y-111930330D01*
X190118218Y-111950847D01*
X190128446Y-111972471D01*
X190136504Y-111994993D01*
X190142316Y-112018197D01*
X190145826Y-112041858D01*
X190147000Y-112065750D01*
X190147000Y-112978250D01*
X190145826Y-113002142D01*
X190142316Y-113025803D01*
X190136504Y-113049007D01*
X190128446Y-113071529D01*
X190118218Y-113093153D01*
X190105921Y-113113670D01*
X190091671Y-113132883D01*
X190075607Y-113150607D01*
X190057883Y-113166671D01*
X190038670Y-113180921D01*
X190018153Y-113193218D01*
X189996529Y-113203446D01*
X189974007Y-113211504D01*
X189950803Y-113217316D01*
X189927142Y-113220826D01*
X189903250Y-113222000D01*
X189415750Y-113222000D01*
X189391858Y-113220826D01*
X189368197Y-113217316D01*
X189344993Y-113211504D01*
X189322471Y-113203446D01*
X189300847Y-113193218D01*
X189280330Y-113180921D01*
X189261117Y-113166671D01*
X189243393Y-113150607D01*
X189227329Y-113132883D01*
X189213079Y-113113670D01*
X189200782Y-113093153D01*
X189190554Y-113071529D01*
X189182496Y-113049007D01*
X189176684Y-113025803D01*
X189173174Y-113002142D01*
X189172000Y-112978250D01*
X189172000Y-112065750D01*
X189173174Y-112041858D01*
X189176684Y-112018197D01*
X189182496Y-111994993D01*
X189190554Y-111972471D01*
X189200782Y-111950847D01*
X189213079Y-111930330D01*
X189227329Y-111911117D01*
X189243393Y-111893393D01*
X189261117Y-111877329D01*
X189280330Y-111863079D01*
X189300847Y-111850782D01*
X189322471Y-111840554D01*
X189344993Y-111832496D01*
X189368197Y-111826684D01*
X189391858Y-111823174D01*
X189415750Y-111822000D01*
X189903250Y-111822000D01*
X189927142Y-111823174D01*
X189927142Y-111823174D01*
G37*
D27*
X189659500Y-112522000D03*
D12*
G36*
X188052142Y-111823174D02*
G01*
X188075803Y-111826684D01*
X188099007Y-111832496D01*
X188121529Y-111840554D01*
X188143153Y-111850782D01*
X188163670Y-111863079D01*
X188182883Y-111877329D01*
X188200607Y-111893393D01*
X188216671Y-111911117D01*
X188230921Y-111930330D01*
X188243218Y-111950847D01*
X188253446Y-111972471D01*
X188261504Y-111994993D01*
X188267316Y-112018197D01*
X188270826Y-112041858D01*
X188272000Y-112065750D01*
X188272000Y-112978250D01*
X188270826Y-113002142D01*
X188267316Y-113025803D01*
X188261504Y-113049007D01*
X188253446Y-113071529D01*
X188243218Y-113093153D01*
X188230921Y-113113670D01*
X188216671Y-113132883D01*
X188200607Y-113150607D01*
X188182883Y-113166671D01*
X188163670Y-113180921D01*
X188143153Y-113193218D01*
X188121529Y-113203446D01*
X188099007Y-113211504D01*
X188075803Y-113217316D01*
X188052142Y-113220826D01*
X188028250Y-113222000D01*
X187540750Y-113222000D01*
X187516858Y-113220826D01*
X187493197Y-113217316D01*
X187469993Y-113211504D01*
X187447471Y-113203446D01*
X187425847Y-113193218D01*
X187405330Y-113180921D01*
X187386117Y-113166671D01*
X187368393Y-113150607D01*
X187352329Y-113132883D01*
X187338079Y-113113670D01*
X187325782Y-113093153D01*
X187315554Y-113071529D01*
X187307496Y-113049007D01*
X187301684Y-113025803D01*
X187298174Y-113002142D01*
X187297000Y-112978250D01*
X187297000Y-112065750D01*
X187298174Y-112041858D01*
X187301684Y-112018197D01*
X187307496Y-111994993D01*
X187315554Y-111972471D01*
X187325782Y-111950847D01*
X187338079Y-111930330D01*
X187352329Y-111911117D01*
X187368393Y-111893393D01*
X187386117Y-111877329D01*
X187405330Y-111863079D01*
X187425847Y-111850782D01*
X187447471Y-111840554D01*
X187469993Y-111832496D01*
X187493197Y-111826684D01*
X187516858Y-111823174D01*
X187540750Y-111822000D01*
X188028250Y-111822000D01*
X188052142Y-111823174D01*
X188052142Y-111823174D01*
G37*
D27*
X187784500Y-112522000D03*
D19*
X119126000Y-74041000D03*
D20*
X119126000Y-76581000D03*
X152781000Y-81915000D03*
D19*
X150241000Y-81915000D03*
D12*
G36*
X114311691Y-97316053D02*
G01*
X114332926Y-97319203D01*
X114353750Y-97324419D01*
X114373962Y-97331651D01*
X114393368Y-97340830D01*
X114411781Y-97351866D01*
X114429024Y-97364654D01*
X114444930Y-97379070D01*
X114459346Y-97394976D01*
X114472134Y-97412219D01*
X114483170Y-97430632D01*
X114492349Y-97450038D01*
X114499581Y-97470250D01*
X114504797Y-97491074D01*
X114507947Y-97512309D01*
X114509000Y-97533750D01*
X114509000Y-98046250D01*
X114507947Y-98067691D01*
X114504797Y-98088926D01*
X114499581Y-98109750D01*
X114492349Y-98129962D01*
X114483170Y-98149368D01*
X114472134Y-98167781D01*
X114459346Y-98185024D01*
X114444930Y-98200930D01*
X114429024Y-98215346D01*
X114411781Y-98228134D01*
X114393368Y-98239170D01*
X114373962Y-98248349D01*
X114353750Y-98255581D01*
X114332926Y-98260797D01*
X114311691Y-98263947D01*
X114290250Y-98265000D01*
X113852750Y-98265000D01*
X113831309Y-98263947D01*
X113810074Y-98260797D01*
X113789250Y-98255581D01*
X113769038Y-98248349D01*
X113749632Y-98239170D01*
X113731219Y-98228134D01*
X113713976Y-98215346D01*
X113698070Y-98200930D01*
X113683654Y-98185024D01*
X113670866Y-98167781D01*
X113659830Y-98149368D01*
X113650651Y-98129962D01*
X113643419Y-98109750D01*
X113638203Y-98088926D01*
X113635053Y-98067691D01*
X113634000Y-98046250D01*
X113634000Y-97533750D01*
X113635053Y-97512309D01*
X113638203Y-97491074D01*
X113643419Y-97470250D01*
X113650651Y-97450038D01*
X113659830Y-97430632D01*
X113670866Y-97412219D01*
X113683654Y-97394976D01*
X113698070Y-97379070D01*
X113713976Y-97364654D01*
X113731219Y-97351866D01*
X113749632Y-97340830D01*
X113769038Y-97331651D01*
X113789250Y-97324419D01*
X113810074Y-97319203D01*
X113831309Y-97316053D01*
X113852750Y-97315000D01*
X114290250Y-97315000D01*
X114311691Y-97316053D01*
X114311691Y-97316053D01*
G37*
D13*
X114071500Y-97790000D03*
D12*
G36*
X112736691Y-97316053D02*
G01*
X112757926Y-97319203D01*
X112778750Y-97324419D01*
X112798962Y-97331651D01*
X112818368Y-97340830D01*
X112836781Y-97351866D01*
X112854024Y-97364654D01*
X112869930Y-97379070D01*
X112884346Y-97394976D01*
X112897134Y-97412219D01*
X112908170Y-97430632D01*
X112917349Y-97450038D01*
X112924581Y-97470250D01*
X112929797Y-97491074D01*
X112932947Y-97512309D01*
X112934000Y-97533750D01*
X112934000Y-98046250D01*
X112932947Y-98067691D01*
X112929797Y-98088926D01*
X112924581Y-98109750D01*
X112917349Y-98129962D01*
X112908170Y-98149368D01*
X112897134Y-98167781D01*
X112884346Y-98185024D01*
X112869930Y-98200930D01*
X112854024Y-98215346D01*
X112836781Y-98228134D01*
X112818368Y-98239170D01*
X112798962Y-98248349D01*
X112778750Y-98255581D01*
X112757926Y-98260797D01*
X112736691Y-98263947D01*
X112715250Y-98265000D01*
X112277750Y-98265000D01*
X112256309Y-98263947D01*
X112235074Y-98260797D01*
X112214250Y-98255581D01*
X112194038Y-98248349D01*
X112174632Y-98239170D01*
X112156219Y-98228134D01*
X112138976Y-98215346D01*
X112123070Y-98200930D01*
X112108654Y-98185024D01*
X112095866Y-98167781D01*
X112084830Y-98149368D01*
X112075651Y-98129962D01*
X112068419Y-98109750D01*
X112063203Y-98088926D01*
X112060053Y-98067691D01*
X112059000Y-98046250D01*
X112059000Y-97533750D01*
X112060053Y-97512309D01*
X112063203Y-97491074D01*
X112068419Y-97470250D01*
X112075651Y-97450038D01*
X112084830Y-97430632D01*
X112095866Y-97412219D01*
X112108654Y-97394976D01*
X112123070Y-97379070D01*
X112138976Y-97364654D01*
X112156219Y-97351866D01*
X112174632Y-97340830D01*
X112194038Y-97331651D01*
X112214250Y-97324419D01*
X112235074Y-97319203D01*
X112256309Y-97316053D01*
X112277750Y-97315000D01*
X112715250Y-97315000D01*
X112736691Y-97316053D01*
X112736691Y-97316053D01*
G37*
D13*
X112496500Y-97790000D03*
D34*
X119253000Y-105664000D03*
X117453000Y-104864000D03*
X119253000Y-104064000D03*
X117453000Y-103264000D03*
X119253000Y-102464000D03*
D35*
X118353000Y-109114000D03*
X118353000Y-99014000D03*
D36*
X165529000Y-100698000D03*
X165529000Y-101198000D03*
X165529000Y-101698000D03*
X165529000Y-102198000D03*
X165529000Y-102698000D03*
X165529000Y-103198000D03*
X165529000Y-103698000D03*
X165529000Y-104198000D03*
X165529000Y-104698000D03*
X165529000Y-105198000D03*
D37*
X163604000Y-98248000D03*
X163604000Y-107648000D03*
D12*
G36*
X146276142Y-80237174D02*
G01*
X146299803Y-80240684D01*
X146323007Y-80246496D01*
X146345529Y-80254554D01*
X146367153Y-80264782D01*
X146387670Y-80277079D01*
X146406883Y-80291329D01*
X146424607Y-80307393D01*
X146440671Y-80325117D01*
X146454921Y-80344330D01*
X146467218Y-80364847D01*
X146477446Y-80386471D01*
X146485504Y-80408993D01*
X146491316Y-80432197D01*
X146494826Y-80455858D01*
X146496000Y-80479750D01*
X146496000Y-80967250D01*
X146494826Y-80991142D01*
X146491316Y-81014803D01*
X146485504Y-81038007D01*
X146477446Y-81060529D01*
X146467218Y-81082153D01*
X146454921Y-81102670D01*
X146440671Y-81121883D01*
X146424607Y-81139607D01*
X146406883Y-81155671D01*
X146387670Y-81169921D01*
X146367153Y-81182218D01*
X146345529Y-81192446D01*
X146323007Y-81200504D01*
X146299803Y-81206316D01*
X146276142Y-81209826D01*
X146252250Y-81211000D01*
X145339750Y-81211000D01*
X145315858Y-81209826D01*
X145292197Y-81206316D01*
X145268993Y-81200504D01*
X145246471Y-81192446D01*
X145224847Y-81182218D01*
X145204330Y-81169921D01*
X145185117Y-81155671D01*
X145167393Y-81139607D01*
X145151329Y-81121883D01*
X145137079Y-81102670D01*
X145124782Y-81082153D01*
X145114554Y-81060529D01*
X145106496Y-81038007D01*
X145100684Y-81014803D01*
X145097174Y-80991142D01*
X145096000Y-80967250D01*
X145096000Y-80479750D01*
X145097174Y-80455858D01*
X145100684Y-80432197D01*
X145106496Y-80408993D01*
X145114554Y-80386471D01*
X145124782Y-80364847D01*
X145137079Y-80344330D01*
X145151329Y-80325117D01*
X145167393Y-80307393D01*
X145185117Y-80291329D01*
X145204330Y-80277079D01*
X145224847Y-80264782D01*
X145246471Y-80254554D01*
X145268993Y-80246496D01*
X145292197Y-80240684D01*
X145315858Y-80237174D01*
X145339750Y-80236000D01*
X146252250Y-80236000D01*
X146276142Y-80237174D01*
X146276142Y-80237174D01*
G37*
D27*
X145796000Y-80723500D03*
D12*
G36*
X146276142Y-82112174D02*
G01*
X146299803Y-82115684D01*
X146323007Y-82121496D01*
X146345529Y-82129554D01*
X146367153Y-82139782D01*
X146387670Y-82152079D01*
X146406883Y-82166329D01*
X146424607Y-82182393D01*
X146440671Y-82200117D01*
X146454921Y-82219330D01*
X146467218Y-82239847D01*
X146477446Y-82261471D01*
X146485504Y-82283993D01*
X146491316Y-82307197D01*
X146494826Y-82330858D01*
X146496000Y-82354750D01*
X146496000Y-82842250D01*
X146494826Y-82866142D01*
X146491316Y-82889803D01*
X146485504Y-82913007D01*
X146477446Y-82935529D01*
X146467218Y-82957153D01*
X146454921Y-82977670D01*
X146440671Y-82996883D01*
X146424607Y-83014607D01*
X146406883Y-83030671D01*
X146387670Y-83044921D01*
X146367153Y-83057218D01*
X146345529Y-83067446D01*
X146323007Y-83075504D01*
X146299803Y-83081316D01*
X146276142Y-83084826D01*
X146252250Y-83086000D01*
X145339750Y-83086000D01*
X145315858Y-83084826D01*
X145292197Y-83081316D01*
X145268993Y-83075504D01*
X145246471Y-83067446D01*
X145224847Y-83057218D01*
X145204330Y-83044921D01*
X145185117Y-83030671D01*
X145167393Y-83014607D01*
X145151329Y-82996883D01*
X145137079Y-82977670D01*
X145124782Y-82957153D01*
X145114554Y-82935529D01*
X145106496Y-82913007D01*
X145100684Y-82889803D01*
X145097174Y-82866142D01*
X145096000Y-82842250D01*
X145096000Y-82354750D01*
X145097174Y-82330858D01*
X145100684Y-82307197D01*
X145106496Y-82283993D01*
X145114554Y-82261471D01*
X145124782Y-82239847D01*
X145137079Y-82219330D01*
X145151329Y-82200117D01*
X145167393Y-82182393D01*
X145185117Y-82166329D01*
X145204330Y-82152079D01*
X145224847Y-82139782D01*
X145246471Y-82129554D01*
X145268993Y-82121496D01*
X145292197Y-82115684D01*
X145315858Y-82112174D01*
X145339750Y-82111000D01*
X146252250Y-82111000D01*
X146276142Y-82112174D01*
X146276142Y-82112174D01*
G37*
D27*
X145796000Y-82598500D03*
D12*
G36*
X142974142Y-82112174D02*
G01*
X142997803Y-82115684D01*
X143021007Y-82121496D01*
X143043529Y-82129554D01*
X143065153Y-82139782D01*
X143085670Y-82152079D01*
X143104883Y-82166329D01*
X143122607Y-82182393D01*
X143138671Y-82200117D01*
X143152921Y-82219330D01*
X143165218Y-82239847D01*
X143175446Y-82261471D01*
X143183504Y-82283993D01*
X143189316Y-82307197D01*
X143192826Y-82330858D01*
X143194000Y-82354750D01*
X143194000Y-82842250D01*
X143192826Y-82866142D01*
X143189316Y-82889803D01*
X143183504Y-82913007D01*
X143175446Y-82935529D01*
X143165218Y-82957153D01*
X143152921Y-82977670D01*
X143138671Y-82996883D01*
X143122607Y-83014607D01*
X143104883Y-83030671D01*
X143085670Y-83044921D01*
X143065153Y-83057218D01*
X143043529Y-83067446D01*
X143021007Y-83075504D01*
X142997803Y-83081316D01*
X142974142Y-83084826D01*
X142950250Y-83086000D01*
X142037750Y-83086000D01*
X142013858Y-83084826D01*
X141990197Y-83081316D01*
X141966993Y-83075504D01*
X141944471Y-83067446D01*
X141922847Y-83057218D01*
X141902330Y-83044921D01*
X141883117Y-83030671D01*
X141865393Y-83014607D01*
X141849329Y-82996883D01*
X141835079Y-82977670D01*
X141822782Y-82957153D01*
X141812554Y-82935529D01*
X141804496Y-82913007D01*
X141798684Y-82889803D01*
X141795174Y-82866142D01*
X141794000Y-82842250D01*
X141794000Y-82354750D01*
X141795174Y-82330858D01*
X141798684Y-82307197D01*
X141804496Y-82283993D01*
X141812554Y-82261471D01*
X141822782Y-82239847D01*
X141835079Y-82219330D01*
X141849329Y-82200117D01*
X141865393Y-82182393D01*
X141883117Y-82166329D01*
X141902330Y-82152079D01*
X141922847Y-82139782D01*
X141944471Y-82129554D01*
X141966993Y-82121496D01*
X141990197Y-82115684D01*
X142013858Y-82112174D01*
X142037750Y-82111000D01*
X142950250Y-82111000D01*
X142974142Y-82112174D01*
X142974142Y-82112174D01*
G37*
D27*
X142494000Y-82598500D03*
D12*
G36*
X142974142Y-80237174D02*
G01*
X142997803Y-80240684D01*
X143021007Y-80246496D01*
X143043529Y-80254554D01*
X143065153Y-80264782D01*
X143085670Y-80277079D01*
X143104883Y-80291329D01*
X143122607Y-80307393D01*
X143138671Y-80325117D01*
X143152921Y-80344330D01*
X143165218Y-80364847D01*
X143175446Y-80386471D01*
X143183504Y-80408993D01*
X143189316Y-80432197D01*
X143192826Y-80455858D01*
X143194000Y-80479750D01*
X143194000Y-80967250D01*
X143192826Y-80991142D01*
X143189316Y-81014803D01*
X143183504Y-81038007D01*
X143175446Y-81060529D01*
X143165218Y-81082153D01*
X143152921Y-81102670D01*
X143138671Y-81121883D01*
X143122607Y-81139607D01*
X143104883Y-81155671D01*
X143085670Y-81169921D01*
X143065153Y-81182218D01*
X143043529Y-81192446D01*
X143021007Y-81200504D01*
X142997803Y-81206316D01*
X142974142Y-81209826D01*
X142950250Y-81211000D01*
X142037750Y-81211000D01*
X142013858Y-81209826D01*
X141990197Y-81206316D01*
X141966993Y-81200504D01*
X141944471Y-81192446D01*
X141922847Y-81182218D01*
X141902330Y-81169921D01*
X141883117Y-81155671D01*
X141865393Y-81139607D01*
X141849329Y-81121883D01*
X141835079Y-81102670D01*
X141822782Y-81082153D01*
X141812554Y-81060529D01*
X141804496Y-81038007D01*
X141798684Y-81014803D01*
X141795174Y-80991142D01*
X141794000Y-80967250D01*
X141794000Y-80479750D01*
X141795174Y-80455858D01*
X141798684Y-80432197D01*
X141804496Y-80408993D01*
X141812554Y-80386471D01*
X141822782Y-80364847D01*
X141835079Y-80344330D01*
X141849329Y-80325117D01*
X141865393Y-80307393D01*
X141883117Y-80291329D01*
X141902330Y-80277079D01*
X141922847Y-80264782D01*
X141944471Y-80254554D01*
X141966993Y-80246496D01*
X141990197Y-80240684D01*
X142013858Y-80237174D01*
X142037750Y-80236000D01*
X142950250Y-80236000D01*
X142974142Y-80237174D01*
X142974142Y-80237174D01*
G37*
D27*
X142494000Y-80723500D03*
D29*
X164782000Y-114427000D03*
X156782000Y-114427000D03*
X176593000Y-108458000D03*
X168593000Y-108458000D03*
D22*
X181458000Y-84122000D03*
X181458000Y-85622000D03*
X181458000Y-87122000D03*
X181458000Y-88622000D03*
X181458000Y-90122000D03*
D23*
X186508000Y-81522000D03*
X186508000Y-92722000D03*
D12*
G36*
X178243142Y-84772174D02*
G01*
X178266803Y-84775684D01*
X178290007Y-84781496D01*
X178312529Y-84789554D01*
X178334153Y-84799782D01*
X178354670Y-84812079D01*
X178373883Y-84826329D01*
X178391607Y-84842393D01*
X178407671Y-84860117D01*
X178421921Y-84879330D01*
X178434218Y-84899847D01*
X178444446Y-84921471D01*
X178452504Y-84943993D01*
X178458316Y-84967197D01*
X178461826Y-84990858D01*
X178463000Y-85014750D01*
X178463000Y-85927250D01*
X178461826Y-85951142D01*
X178458316Y-85974803D01*
X178452504Y-85998007D01*
X178444446Y-86020529D01*
X178434218Y-86042153D01*
X178421921Y-86062670D01*
X178407671Y-86081883D01*
X178391607Y-86099607D01*
X178373883Y-86115671D01*
X178354670Y-86129921D01*
X178334153Y-86142218D01*
X178312529Y-86152446D01*
X178290007Y-86160504D01*
X178266803Y-86166316D01*
X178243142Y-86169826D01*
X178219250Y-86171000D01*
X177731750Y-86171000D01*
X177707858Y-86169826D01*
X177684197Y-86166316D01*
X177660993Y-86160504D01*
X177638471Y-86152446D01*
X177616847Y-86142218D01*
X177596330Y-86129921D01*
X177577117Y-86115671D01*
X177559393Y-86099607D01*
X177543329Y-86081883D01*
X177529079Y-86062670D01*
X177516782Y-86042153D01*
X177506554Y-86020529D01*
X177498496Y-85998007D01*
X177492684Y-85974803D01*
X177489174Y-85951142D01*
X177488000Y-85927250D01*
X177488000Y-85014750D01*
X177489174Y-84990858D01*
X177492684Y-84967197D01*
X177498496Y-84943993D01*
X177506554Y-84921471D01*
X177516782Y-84899847D01*
X177529079Y-84879330D01*
X177543329Y-84860117D01*
X177559393Y-84842393D01*
X177577117Y-84826329D01*
X177596330Y-84812079D01*
X177616847Y-84799782D01*
X177638471Y-84789554D01*
X177660993Y-84781496D01*
X177684197Y-84775684D01*
X177707858Y-84772174D01*
X177731750Y-84771000D01*
X178219250Y-84771000D01*
X178243142Y-84772174D01*
X178243142Y-84772174D01*
G37*
D27*
X177975500Y-85471000D03*
D12*
G36*
X176368142Y-84772174D02*
G01*
X176391803Y-84775684D01*
X176415007Y-84781496D01*
X176437529Y-84789554D01*
X176459153Y-84799782D01*
X176479670Y-84812079D01*
X176498883Y-84826329D01*
X176516607Y-84842393D01*
X176532671Y-84860117D01*
X176546921Y-84879330D01*
X176559218Y-84899847D01*
X176569446Y-84921471D01*
X176577504Y-84943993D01*
X176583316Y-84967197D01*
X176586826Y-84990858D01*
X176588000Y-85014750D01*
X176588000Y-85927250D01*
X176586826Y-85951142D01*
X176583316Y-85974803D01*
X176577504Y-85998007D01*
X176569446Y-86020529D01*
X176559218Y-86042153D01*
X176546921Y-86062670D01*
X176532671Y-86081883D01*
X176516607Y-86099607D01*
X176498883Y-86115671D01*
X176479670Y-86129921D01*
X176459153Y-86142218D01*
X176437529Y-86152446D01*
X176415007Y-86160504D01*
X176391803Y-86166316D01*
X176368142Y-86169826D01*
X176344250Y-86171000D01*
X175856750Y-86171000D01*
X175832858Y-86169826D01*
X175809197Y-86166316D01*
X175785993Y-86160504D01*
X175763471Y-86152446D01*
X175741847Y-86142218D01*
X175721330Y-86129921D01*
X175702117Y-86115671D01*
X175684393Y-86099607D01*
X175668329Y-86081883D01*
X175654079Y-86062670D01*
X175641782Y-86042153D01*
X175631554Y-86020529D01*
X175623496Y-85998007D01*
X175617684Y-85974803D01*
X175614174Y-85951142D01*
X175613000Y-85927250D01*
X175613000Y-85014750D01*
X175614174Y-84990858D01*
X175617684Y-84967197D01*
X175623496Y-84943993D01*
X175631554Y-84921471D01*
X175641782Y-84899847D01*
X175654079Y-84879330D01*
X175668329Y-84860117D01*
X175684393Y-84842393D01*
X175702117Y-84826329D01*
X175721330Y-84812079D01*
X175741847Y-84799782D01*
X175763471Y-84789554D01*
X175785993Y-84781496D01*
X175809197Y-84775684D01*
X175832858Y-84772174D01*
X175856750Y-84771000D01*
X176344250Y-84771000D01*
X176368142Y-84772174D01*
X176368142Y-84772174D01*
G37*
D27*
X176100500Y-85471000D03*
D20*
X174625000Y-95885000D03*
D19*
X177165000Y-95885000D03*
X174625000Y-98425000D03*
X177165000Y-98425000D03*
X174625000Y-100965000D03*
X177165000Y-100965000D03*
D20*
X191135000Y-85471000D03*
D19*
X193675000Y-85471000D03*
X191135000Y-89154000D03*
D20*
X193675000Y-89154000D03*
D38*
X124079000Y-81120000D03*
X124079000Y-86520000D03*
D39*
X119164000Y-81534000D03*
X117564000Y-81534000D03*
D12*
G36*
X115045142Y-80835174D02*
G01*
X115068803Y-80838684D01*
X115092007Y-80844496D01*
X115114529Y-80852554D01*
X115136153Y-80862782D01*
X115156670Y-80875079D01*
X115175883Y-80889329D01*
X115193607Y-80905393D01*
X115209671Y-80923117D01*
X115223921Y-80942330D01*
X115236218Y-80962847D01*
X115246446Y-80984471D01*
X115254504Y-81006993D01*
X115260316Y-81030197D01*
X115263826Y-81053858D01*
X115265000Y-81077750D01*
X115265000Y-81990250D01*
X115263826Y-82014142D01*
X115260316Y-82037803D01*
X115254504Y-82061007D01*
X115246446Y-82083529D01*
X115236218Y-82105153D01*
X115223921Y-82125670D01*
X115209671Y-82144883D01*
X115193607Y-82162607D01*
X115175883Y-82178671D01*
X115156670Y-82192921D01*
X115136153Y-82205218D01*
X115114529Y-82215446D01*
X115092007Y-82223504D01*
X115068803Y-82229316D01*
X115045142Y-82232826D01*
X115021250Y-82234000D01*
X114533750Y-82234000D01*
X114509858Y-82232826D01*
X114486197Y-82229316D01*
X114462993Y-82223504D01*
X114440471Y-82215446D01*
X114418847Y-82205218D01*
X114398330Y-82192921D01*
X114379117Y-82178671D01*
X114361393Y-82162607D01*
X114345329Y-82144883D01*
X114331079Y-82125670D01*
X114318782Y-82105153D01*
X114308554Y-82083529D01*
X114300496Y-82061007D01*
X114294684Y-82037803D01*
X114291174Y-82014142D01*
X114290000Y-81990250D01*
X114290000Y-81077750D01*
X114291174Y-81053858D01*
X114294684Y-81030197D01*
X114300496Y-81006993D01*
X114308554Y-80984471D01*
X114318782Y-80962847D01*
X114331079Y-80942330D01*
X114345329Y-80923117D01*
X114361393Y-80905393D01*
X114379117Y-80889329D01*
X114398330Y-80875079D01*
X114418847Y-80862782D01*
X114440471Y-80852554D01*
X114462993Y-80844496D01*
X114486197Y-80838684D01*
X114509858Y-80835174D01*
X114533750Y-80834000D01*
X115021250Y-80834000D01*
X115045142Y-80835174D01*
X115045142Y-80835174D01*
G37*
D27*
X114777500Y-81534000D03*
D12*
G36*
X113170142Y-80835174D02*
G01*
X113193803Y-80838684D01*
X113217007Y-80844496D01*
X113239529Y-80852554D01*
X113261153Y-80862782D01*
X113281670Y-80875079D01*
X113300883Y-80889329D01*
X113318607Y-80905393D01*
X113334671Y-80923117D01*
X113348921Y-80942330D01*
X113361218Y-80962847D01*
X113371446Y-80984471D01*
X113379504Y-81006993D01*
X113385316Y-81030197D01*
X113388826Y-81053858D01*
X113390000Y-81077750D01*
X113390000Y-81990250D01*
X113388826Y-82014142D01*
X113385316Y-82037803D01*
X113379504Y-82061007D01*
X113371446Y-82083529D01*
X113361218Y-82105153D01*
X113348921Y-82125670D01*
X113334671Y-82144883D01*
X113318607Y-82162607D01*
X113300883Y-82178671D01*
X113281670Y-82192921D01*
X113261153Y-82205218D01*
X113239529Y-82215446D01*
X113217007Y-82223504D01*
X113193803Y-82229316D01*
X113170142Y-82232826D01*
X113146250Y-82234000D01*
X112658750Y-82234000D01*
X112634858Y-82232826D01*
X112611197Y-82229316D01*
X112587993Y-82223504D01*
X112565471Y-82215446D01*
X112543847Y-82205218D01*
X112523330Y-82192921D01*
X112504117Y-82178671D01*
X112486393Y-82162607D01*
X112470329Y-82144883D01*
X112456079Y-82125670D01*
X112443782Y-82105153D01*
X112433554Y-82083529D01*
X112425496Y-82061007D01*
X112419684Y-82037803D01*
X112416174Y-82014142D01*
X112415000Y-81990250D01*
X112415000Y-81077750D01*
X112416174Y-81053858D01*
X112419684Y-81030197D01*
X112425496Y-81006993D01*
X112433554Y-80984471D01*
X112443782Y-80962847D01*
X112456079Y-80942330D01*
X112470329Y-80923117D01*
X112486393Y-80905393D01*
X112504117Y-80889329D01*
X112523330Y-80875079D01*
X112543847Y-80862782D01*
X112565471Y-80852554D01*
X112587993Y-80844496D01*
X112611197Y-80838684D01*
X112634858Y-80835174D01*
X112658750Y-80834000D01*
X113146250Y-80834000D01*
X113170142Y-80835174D01*
X113170142Y-80835174D01*
G37*
D27*
X112902500Y-81534000D03*
M02*
